<svg width="900" height="500" viewBox="0 0 900 500" fill="none" xmlns="http://www.w3.org/2000/svg">
<rect width="900" height="500" fill="white"/>
<path d="M49 270.794V418" stroke="black"/>
<path d="M378 267.417V414.623" stroke="black"/>
<path d="M749 133V415" stroke="black"/>
<circle cx="749" cy="135" r="5" fill="#FF0000"/>
<circle cx="749" cy="197" r="5" fill="#FF0000"/>
<circle cx="49" cy="271" r="5" fill="#0500FF"/>
<circle cx="378" cy="267.623" r="5" fill="#0500FF"/>
<circle cx="749" cy="268" r="5" fill="#0500FF"/>
<circle cx="49" cy="353" r="5" fill="#0500FF"/>
<circle cx="378" cy="349.623" r="5" fill="#0500FF"/>
<circle cx="749" cy="350" r="5" fill="#0500FF"/>
<rect width="88" height="24" transform="translate(107 259)" fill="#FF0000"/>
<path d="M112.764 272.609V272.418C112.764 271.771 112.858 271.17 113.046 270.617C113.234 270.058 113.505 269.574 113.859 269.164C114.214 268.749 114.642 268.428 115.146 268.201C115.65 267.969 116.214 267.853 116.839 267.853C117.47 267.853 118.037 267.969 118.541 268.201C119.05 268.428 119.482 268.749 119.836 269.164C120.196 269.574 120.47 270.058 120.658 270.617C120.846 271.17 120.94 271.771 120.94 272.418V272.609C120.94 273.256 120.846 273.857 120.658 274.41C120.47 274.964 120.196 275.448 119.836 275.863C119.482 276.272 119.053 276.593 118.549 276.826C118.051 277.053 117.487 277.166 116.856 277.166C116.225 277.166 115.658 277.053 115.154 276.826C114.651 276.593 114.219 276.272 113.859 275.863C113.505 275.448 113.234 274.964 113.046 274.41C112.858 273.857 112.764 273.256 112.764 272.609ZM114.299 272.418V272.609C114.299 273.057 114.352 273.48 114.457 273.879C114.562 274.272 114.72 274.62 114.93 274.925C115.146 275.229 115.414 275.47 115.735 275.647C116.056 275.819 116.43 275.904 116.856 275.904C117.277 275.904 117.645 275.819 117.96 275.647C118.281 275.47 118.547 275.229 118.757 274.925C118.967 274.62 119.125 274.272 119.23 273.879C119.341 273.48 119.396 273.057 119.396 272.609V272.418C119.396 271.975 119.341 271.557 119.23 271.165C119.125 270.766 118.964 270.415 118.749 270.11C118.538 269.8 118.273 269.557 117.952 269.38C117.636 269.203 117.265 269.114 116.839 269.114C116.419 269.114 116.048 269.203 115.727 269.38C115.412 269.557 115.146 269.8 114.93 270.11C114.72 270.415 114.562 270.766 114.457 271.165C114.352 271.557 114.299 271.975 114.299 272.418ZM124.401 269.43V277H122.866V268.019H124.36L124.401 269.43ZM127.207 267.969L127.199 269.396C127.071 269.369 126.95 269.352 126.833 269.347C126.723 269.336 126.596 269.33 126.452 269.33C126.097 269.33 125.785 269.385 125.514 269.496C125.243 269.607 125.013 269.762 124.825 269.961C124.637 270.16 124.487 270.398 124.376 270.675C124.271 270.946 124.202 271.245 124.169 271.571L123.737 271.82C123.737 271.278 123.79 270.769 123.895 270.293C124.006 269.817 124.174 269.396 124.401 269.031C124.628 268.66 124.916 268.373 125.265 268.168C125.619 267.958 126.039 267.853 126.526 267.853C126.637 267.853 126.764 267.866 126.908 267.894C127.052 267.916 127.152 267.941 127.207 267.969ZM130.295 268.019V277H128.751V268.019H130.295ZM128.635 265.636C128.635 265.387 128.709 265.177 128.859 265.005C129.014 264.834 129.241 264.748 129.54 264.748C129.833 264.748 130.057 264.834 130.212 265.005C130.372 265.177 130.453 265.387 130.453 265.636C130.453 265.874 130.372 266.079 130.212 266.25C130.057 266.417 129.833 266.5 129.54 266.5C129.241 266.5 129.014 266.417 128.859 266.25C128.709 266.079 128.635 265.874 128.635 265.636ZM138.579 268.019H139.974V276.809C139.974 277.6 139.813 278.276 139.492 278.834C139.171 279.393 138.723 279.817 138.147 280.104C137.577 280.398 136.919 280.544 136.172 280.544C135.862 280.544 135.497 280.495 135.076 280.395C134.661 280.301 134.252 280.138 133.848 279.905C133.449 279.678 133.114 279.371 132.843 278.984L133.648 278.071C134.025 278.525 134.418 278.84 134.827 279.017C135.242 279.194 135.652 279.283 136.056 279.283C136.543 279.283 136.963 279.191 137.317 279.009C137.672 278.826 137.945 278.555 138.139 278.195C138.338 277.841 138.438 277.404 138.438 276.884V269.994L138.579 268.019ZM132.395 272.609V272.435C132.395 271.748 132.475 271.126 132.636 270.567C132.802 270.002 133.037 269.518 133.341 269.114C133.651 268.71 134.025 268.4 134.462 268.185C134.899 267.963 135.392 267.853 135.939 267.853C136.504 267.853 136.996 267.952 137.417 268.151C137.843 268.345 138.203 268.63 138.496 269.006C138.795 269.377 139.03 269.825 139.202 270.351C139.373 270.877 139.492 271.472 139.559 272.136V272.899C139.498 273.558 139.379 274.15 139.202 274.676C139.03 275.201 138.795 275.65 138.496 276.021C138.203 276.391 137.843 276.676 137.417 276.875C136.991 277.069 136.493 277.166 135.923 277.166C135.386 277.166 134.899 277.053 134.462 276.826C134.03 276.599 133.66 276.281 133.35 275.871C133.04 275.462 132.802 274.98 132.636 274.427C132.475 273.868 132.395 273.262 132.395 272.609ZM133.931 272.435V272.609C133.931 273.057 133.975 273.478 134.063 273.871C134.158 274.264 134.299 274.609 134.487 274.908C134.681 275.207 134.927 275.442 135.226 275.614C135.524 275.78 135.881 275.863 136.296 275.863C136.806 275.863 137.226 275.755 137.558 275.539C137.89 275.323 138.153 275.038 138.347 274.684C138.546 274.33 138.701 273.945 138.812 273.53V271.53C138.751 271.225 138.657 270.932 138.529 270.65C138.408 270.362 138.247 270.108 138.048 269.886C137.854 269.659 137.613 269.479 137.326 269.347C137.038 269.214 136.7 269.147 136.313 269.147C135.892 269.147 135.53 269.236 135.226 269.413C134.927 269.585 134.681 269.823 134.487 270.127C134.299 270.426 134.158 270.774 134.063 271.173C133.975 271.566 133.931 271.986 133.931 272.435ZM143.975 268.019V277H142.431V268.019H143.975ZM142.314 265.636C142.314 265.387 142.389 265.177 142.539 265.005C142.694 264.834 142.92 264.748 143.219 264.748C143.513 264.748 143.737 264.834 143.892 265.005C144.052 265.177 144.132 265.387 144.132 265.636C144.132 265.874 144.052 266.079 143.892 266.25C143.737 266.417 143.513 266.5 143.219 266.5C142.92 266.5 142.694 266.417 142.539 266.25C142.389 266.079 142.314 265.874 142.314 265.636ZM147.976 269.936V277H146.44V268.019H147.893L147.976 269.936ZM147.61 272.169L146.971 272.144C146.977 271.53 147.068 270.963 147.245 270.442C147.422 269.917 147.671 269.46 147.992 269.073C148.313 268.685 148.695 268.387 149.138 268.176C149.586 267.96 150.081 267.853 150.624 267.853C151.066 267.853 151.465 267.913 151.819 268.035C152.173 268.151 152.475 268.34 152.724 268.6C152.978 268.86 153.172 269.197 153.305 269.612C153.438 270.022 153.504 270.523 153.504 271.115V277H151.96V271.098C151.96 270.628 151.891 270.251 151.752 269.969C151.614 269.681 151.412 269.474 151.146 269.347C150.881 269.214 150.554 269.147 150.167 269.147C149.785 269.147 149.437 269.228 149.121 269.388C148.811 269.549 148.543 269.77 148.316 270.052C148.095 270.334 147.92 270.658 147.793 271.023C147.671 271.383 147.61 271.765 147.61 272.169ZM161.182 264.914L156.144 278.038H154.824L159.871 264.914H161.182ZM168.155 275.464V270.841C168.155 270.487 168.083 270.18 167.939 269.919C167.801 269.654 167.59 269.449 167.308 269.305C167.026 269.161 166.677 269.089 166.262 269.089C165.875 269.089 165.535 269.156 165.241 269.289C164.953 269.421 164.727 269.596 164.561 269.812C164.4 270.027 164.32 270.26 164.32 270.509H162.784C162.784 270.188 162.867 269.87 163.033 269.554C163.199 269.239 163.437 268.954 163.747 268.699C164.062 268.439 164.439 268.234 164.876 268.085C165.319 267.93 165.811 267.853 166.354 267.853C167.007 267.853 167.582 267.963 168.08 268.185C168.584 268.406 168.977 268.741 169.259 269.189C169.547 269.632 169.69 270.188 169.69 270.857V275.041C169.69 275.34 169.715 275.658 169.765 275.996C169.82 276.333 169.901 276.624 170.006 276.867V277H168.404C168.326 276.823 168.265 276.588 168.221 276.294C168.177 275.996 168.155 275.719 168.155 275.464ZM168.42 271.555L168.437 272.634H166.885C166.448 272.634 166.057 272.67 165.714 272.742C165.371 272.808 165.083 272.91 164.851 273.049C164.619 273.187 164.442 273.361 164.32 273.572C164.198 273.777 164.137 274.017 164.137 274.294C164.137 274.576 164.201 274.833 164.328 275.066C164.455 275.298 164.646 275.484 164.901 275.622C165.161 275.755 165.479 275.821 165.855 275.821C166.326 275.821 166.741 275.722 167.101 275.522C167.46 275.323 167.745 275.08 167.956 274.792C168.171 274.504 168.288 274.225 168.304 273.954L168.96 274.692C168.921 274.925 168.816 275.182 168.645 275.464C168.473 275.747 168.243 276.018 167.956 276.278C167.673 276.532 167.336 276.745 166.943 276.917C166.556 277.083 166.118 277.166 165.631 277.166C165.023 277.166 164.489 277.047 164.029 276.809C163.576 276.571 163.221 276.253 162.967 275.854C162.718 275.451 162.593 275 162.593 274.501C162.593 274.02 162.687 273.597 162.875 273.231C163.064 272.861 163.335 272.554 163.689 272.31C164.043 272.061 164.469 271.873 164.967 271.746C165.465 271.618 166.021 271.555 166.636 271.555H168.42ZM172.098 264.25H173.642V275.257L173.509 277H172.098V264.25ZM179.709 272.435V272.609C179.709 273.262 179.632 273.868 179.477 274.427C179.322 274.98 179.095 275.462 178.796 275.871C178.498 276.281 178.132 276.599 177.701 276.826C177.269 277.053 176.774 277.166 176.215 277.166C175.645 277.166 175.144 277.069 174.712 276.875C174.286 276.676 173.927 276.391 173.633 276.021C173.34 275.65 173.105 275.201 172.928 274.676C172.756 274.15 172.637 273.558 172.571 272.899V272.136C172.637 271.472 172.756 270.877 172.928 270.351C173.105 269.825 173.34 269.377 173.633 269.006C173.927 268.63 174.286 268.345 174.712 268.151C175.139 267.952 175.634 267.853 176.198 267.853C176.763 267.853 177.264 267.963 177.701 268.185C178.138 268.4 178.503 268.71 178.796 269.114C179.095 269.518 179.322 270.002 179.477 270.567C179.632 271.126 179.709 271.748 179.709 272.435ZM178.166 272.609V272.435C178.166 271.986 178.124 271.566 178.041 271.173C177.958 270.774 177.825 270.426 177.643 270.127C177.46 269.823 177.219 269.585 176.92 269.413C176.622 269.236 176.254 269.147 175.816 269.147C175.429 269.147 175.091 269.214 174.804 269.347C174.521 269.479 174.281 269.659 174.082 269.886C173.882 270.108 173.719 270.362 173.592 270.65C173.47 270.932 173.379 271.225 173.318 271.53V273.53C173.406 273.918 173.55 274.291 173.75 274.651C173.954 275.005 174.225 275.296 174.563 275.522C174.906 275.749 175.329 275.863 175.833 275.863C176.248 275.863 176.602 275.78 176.896 275.614C177.194 275.442 177.435 275.207 177.618 274.908C177.806 274.609 177.944 274.264 178.033 273.871C178.121 273.478 178.166 273.057 178.166 272.609ZM185.246 275.904C185.611 275.904 185.949 275.83 186.259 275.68C186.569 275.531 186.823 275.326 187.022 275.066C187.222 274.8 187.335 274.499 187.363 274.161H188.824C188.796 274.692 188.616 275.188 188.284 275.647C187.958 276.101 187.529 276.469 186.998 276.751C186.466 277.028 185.882 277.166 185.246 277.166C184.571 277.166 183.982 277.047 183.478 276.809C182.98 276.571 182.565 276.245 182.233 275.83C181.906 275.415 181.66 274.939 181.494 274.402C181.334 273.86 181.253 273.287 181.253 272.684V272.335C181.253 271.732 181.334 271.162 181.494 270.625C181.66 270.083 181.906 269.604 182.233 269.189C182.565 268.774 182.98 268.447 183.478 268.209C183.982 267.972 184.571 267.853 185.246 267.853C185.949 267.853 186.563 267.996 187.089 268.284C187.615 268.566 188.027 268.954 188.326 269.446C188.63 269.933 188.796 270.487 188.824 271.106H187.363C187.335 270.736 187.23 270.401 187.047 270.102C186.87 269.803 186.627 269.565 186.317 269.388C186.013 269.206 185.656 269.114 185.246 269.114C184.776 269.114 184.38 269.208 184.059 269.396C183.744 269.579 183.492 269.828 183.304 270.144C183.121 270.453 182.988 270.799 182.905 271.181C182.828 271.557 182.789 271.942 182.789 272.335V272.684C182.789 273.076 182.828 273.464 182.905 273.846C182.983 274.228 183.113 274.573 183.295 274.883C183.484 275.193 183.735 275.442 184.051 275.63C184.372 275.813 184.77 275.904 185.246 275.904Z" fill="white"/>
<g opacity="0.22">
<circle cx="49" cy="353" r="5" fill="#0500FF"/>
<path d="M49 136V418" stroke="black"/>
<circle cx="49" cy="138" r="5" fill="#FF0000"/>
<circle cx="49" cy="200" r="5" fill="#FF0000"/>
<circle cx="49" cy="271" r="5" fill="#0500FF"/>
<rect width="88" height="24" transform="translate(61 126)" fill="#FF0000"/>
<path d="M66.7637 139.609V139.418C66.7637 138.77 66.8577 138.17 67.0459 137.616C67.234 137.058 67.5052 136.573 67.8594 136.164C68.2135 135.749 68.6424 135.428 69.146 135.201C69.6496 134.969 70.214 134.852 70.8394 134.852C71.4702 134.852 72.0374 134.969 72.541 135.201C73.0501 135.428 73.4818 135.749 73.8359 136.164C74.1956 136.573 74.4696 137.058 74.6577 137.616C74.8459 138.17 74.9399 138.77 74.9399 139.418V139.609C74.9399 140.256 74.8459 140.857 74.6577 141.41C74.4696 141.963 74.1956 142.448 73.8359 142.863C73.4818 143.272 73.0529 143.593 72.5493 143.825C72.0513 144.052 71.4868 144.166 70.856 144.166C70.2251 144.166 69.6579 144.052 69.1543 143.825C68.6507 143.593 68.2191 143.272 67.8594 142.863C67.5052 142.448 67.234 141.963 67.0459 141.41C66.8577 140.857 66.7637 140.256 66.7637 139.609ZM68.2993 139.418V139.609C68.2993 140.057 68.3519 140.48 68.457 140.879C68.5622 141.272 68.7199 141.62 68.9302 141.925C69.146 142.229 69.4144 142.47 69.7354 142.647C70.0563 142.818 70.4299 142.904 70.856 142.904C71.2765 142.904 71.6445 142.818 71.96 142.647C72.2809 142.47 72.5465 142.229 72.7568 141.925C72.9671 141.62 73.1248 141.272 73.23 140.879C73.3407 140.48 73.396 140.057 73.396 139.609V139.418C73.396 138.975 73.3407 138.557 73.23 138.164C73.1248 137.766 72.9644 137.414 72.7485 137.11C72.5382 136.8 72.2726 136.557 71.9517 136.38C71.6362 136.203 71.2655 136.114 70.8394 136.114C70.4188 136.114 70.048 136.203 69.7271 136.38C69.4116 136.557 69.146 136.8 68.9302 137.11C68.7199 137.414 68.5622 137.766 68.457 138.164C68.3519 138.557 68.2993 138.975 68.2993 139.418ZM78.4014 136.429V144H76.8657V135.018H78.3599L78.4014 136.429ZM81.207 134.969L81.1987 136.396C81.0715 136.369 80.9497 136.352 80.8335 136.346C80.7228 136.335 80.5955 136.33 80.4517 136.33C80.0975 136.33 79.7848 136.385 79.5137 136.496C79.2425 136.607 79.0129 136.761 78.8247 136.961C78.6366 137.16 78.4871 137.398 78.3765 137.675C78.2713 137.946 78.2021 138.245 78.1689 138.571L77.7373 138.82C77.7373 138.278 77.7899 137.769 77.895 137.293C78.0057 136.817 78.1745 136.396 78.4014 136.031C78.6283 135.66 78.916 135.372 79.2646 135.168C79.6188 134.957 80.0394 134.852 80.5264 134.852C80.637 134.852 80.7643 134.866 80.9082 134.894C81.0521 134.916 81.1517 134.941 81.207 134.969ZM84.2949 135.018V144H82.751V135.018H84.2949ZM82.6348 132.636C82.6348 132.387 82.7095 132.177 82.8589 132.005C83.0138 131.834 83.2407 131.748 83.5396 131.748C83.8328 131.748 84.057 131.834 84.2119 132.005C84.3724 132.177 84.4526 132.387 84.4526 132.636C84.4526 132.874 84.3724 133.079 84.2119 133.25C84.057 133.416 83.8328 133.499 83.5396 133.499C83.2407 133.499 83.0138 133.416 82.8589 133.25C82.7095 133.079 82.6348 132.874 82.6348 132.636ZM92.5791 135.018H93.9736V143.809C93.9736 144.6 93.8132 145.275 93.4922 145.834C93.1712 146.393 92.723 146.816 92.1475 147.104C91.5775 147.398 90.9189 147.544 90.1719 147.544C89.862 147.544 89.4967 147.494 89.0762 147.395C88.6611 147.301 88.2516 147.137 87.8477 146.905C87.4492 146.678 87.1144 146.371 86.8433 145.984L87.6484 145.071C88.0247 145.524 88.4176 145.84 88.8271 146.017C89.2422 146.194 89.6517 146.282 90.0557 146.282C90.5426 146.282 90.9632 146.191 91.3174 146.009C91.6715 145.826 91.9455 145.555 92.1392 145.195C92.3384 144.841 92.438 144.404 92.438 143.884V136.994L92.5791 135.018ZM86.395 139.609V139.434C86.395 138.748 86.4753 138.126 86.6357 137.567C86.8018 137.002 87.0369 136.518 87.3413 136.114C87.6512 135.71 88.0247 135.4 88.4619 135.184C88.8991 134.963 89.3916 134.852 89.9395 134.852C90.5039 134.852 90.9964 134.952 91.417 135.151C91.8431 135.345 92.2028 135.63 92.4961 136.006C92.7949 136.377 93.0301 136.825 93.2017 137.351C93.3732 137.877 93.4922 138.471 93.5586 139.135V139.899C93.4977 140.558 93.3787 141.15 93.2017 141.676C93.0301 142.201 92.7949 142.649 92.4961 143.02C92.2028 143.391 91.8431 143.676 91.417 143.875C90.9909 144.069 90.4928 144.166 89.9229 144.166C89.3861 144.166 88.8991 144.052 88.4619 143.825C88.0303 143.599 87.6595 143.28 87.3496 142.871C87.0397 142.461 86.8018 141.98 86.6357 141.427C86.4753 140.868 86.395 140.262 86.395 139.609ZM87.9307 139.434V139.609C87.9307 140.057 87.9749 140.477 88.0635 140.87C88.1576 141.263 88.2987 141.609 88.4868 141.908C88.6805 142.207 88.9268 142.442 89.2256 142.614C89.5244 142.78 89.8813 142.863 90.2964 142.863C90.8055 142.863 91.2261 142.755 91.5581 142.539C91.8901 142.323 92.153 142.038 92.3467 141.684C92.5459 141.33 92.7008 140.945 92.8115 140.53V138.53C92.7507 138.225 92.6566 137.932 92.5293 137.65C92.4076 137.362 92.2471 137.107 92.0479 136.886C91.8542 136.659 91.6134 136.479 91.3257 136.346C91.0379 136.214 90.7004 136.147 90.313 136.147C89.8924 136.147 89.5299 136.236 89.2256 136.413C88.9268 136.584 88.6805 136.822 88.4868 137.127C88.2987 137.426 88.1576 137.774 88.0635 138.173C87.9749 138.566 87.9307 138.986 87.9307 139.434ZM97.9746 135.018V144H96.4307V135.018H97.9746ZM96.3145 132.636C96.3145 132.387 96.3892 132.177 96.5386 132.005C96.6935 131.834 96.9204 131.748 97.2192 131.748C97.5125 131.748 97.7367 131.834 97.8916 132.005C98.0521 132.177 98.1323 132.387 98.1323 132.636C98.1323 132.874 98.0521 133.079 97.8916 133.25C97.7367 133.416 97.5125 133.499 97.2192 133.499C96.9204 133.499 96.6935 133.416 96.5386 133.25C96.3892 133.079 96.3145 132.874 96.3145 132.636ZM101.976 136.936V144H100.44V135.018H101.893L101.976 136.936ZM101.61 139.169L100.971 139.144C100.977 138.53 101.068 137.962 101.245 137.442C101.422 136.916 101.671 136.46 101.992 136.073C102.313 135.685 102.695 135.386 103.138 135.176C103.586 134.96 104.081 134.852 104.624 134.852C105.066 134.852 105.465 134.913 105.819 135.035C106.173 135.151 106.475 135.339 106.724 135.599C106.978 135.859 107.172 136.197 107.305 136.612C107.438 137.022 107.504 137.522 107.504 138.115V144H105.96V138.098C105.96 137.628 105.891 137.251 105.752 136.969C105.614 136.681 105.412 136.474 105.146 136.346C104.881 136.214 104.554 136.147 104.167 136.147C103.785 136.147 103.437 136.227 103.121 136.388C102.811 136.548 102.543 136.77 102.316 137.052C102.095 137.334 101.92 137.658 101.793 138.023C101.671 138.383 101.61 138.765 101.61 139.169ZM115.182 131.914L110.144 145.037H108.824L113.871 131.914H115.182ZM122.155 142.464V137.841C122.155 137.486 122.083 137.179 121.939 136.919C121.801 136.654 121.59 136.449 121.308 136.305C121.026 136.161 120.677 136.089 120.262 136.089C119.875 136.089 119.535 136.156 119.241 136.288C118.953 136.421 118.727 136.595 118.561 136.811C118.4 137.027 118.32 137.26 118.32 137.509H116.784C116.784 137.188 116.867 136.869 117.033 136.554C117.199 136.239 117.437 135.954 117.747 135.699C118.062 135.439 118.439 135.234 118.876 135.085C119.319 134.93 119.811 134.852 120.354 134.852C121.007 134.852 121.582 134.963 122.08 135.184C122.584 135.406 122.977 135.74 123.259 136.189C123.547 136.631 123.69 137.188 123.69 137.857V142.041C123.69 142.34 123.715 142.658 123.765 142.995C123.82 143.333 123.901 143.623 124.006 143.867V144H122.404C122.326 143.823 122.265 143.587 122.221 143.294C122.177 142.995 122.155 142.719 122.155 142.464ZM122.42 138.554L122.437 139.634H120.885C120.448 139.634 120.057 139.67 119.714 139.741C119.371 139.808 119.083 139.91 118.851 140.049C118.619 140.187 118.442 140.361 118.32 140.572C118.198 140.776 118.137 141.017 118.137 141.294C118.137 141.576 118.201 141.833 118.328 142.066C118.455 142.298 118.646 142.483 118.901 142.622C119.161 142.755 119.479 142.821 119.855 142.821C120.326 142.821 120.741 142.721 121.101 142.522C121.46 142.323 121.745 142.08 121.956 141.792C122.171 141.504 122.288 141.225 122.304 140.953L122.96 141.692C122.921 141.925 122.816 142.182 122.645 142.464C122.473 142.746 122.243 143.017 121.956 143.278C121.673 143.532 121.336 143.745 120.943 143.917C120.556 144.083 120.118 144.166 119.631 144.166C119.023 144.166 118.489 144.047 118.029 143.809C117.576 143.571 117.221 143.253 116.967 142.854C116.718 142.45 116.593 141.999 116.593 141.501C116.593 141.02 116.687 140.596 116.875 140.231C117.064 139.86 117.335 139.553 117.689 139.31C118.043 139.061 118.469 138.873 118.967 138.745C119.465 138.618 120.021 138.554 120.636 138.554H122.42ZM126.098 131.25H127.642V142.257L127.509 144H126.098V131.25ZM133.709 139.434V139.609C133.709 140.262 133.632 140.868 133.477 141.427C133.322 141.98 133.095 142.461 132.796 142.871C132.498 143.28 132.132 143.599 131.701 143.825C131.269 144.052 130.774 144.166 130.215 144.166C129.645 144.166 129.144 144.069 128.712 143.875C128.286 143.676 127.927 143.391 127.633 143.02C127.34 142.649 127.105 142.201 126.928 141.676C126.756 141.15 126.637 140.558 126.571 139.899V139.135C126.637 138.471 126.756 137.877 126.928 137.351C127.105 136.825 127.34 136.377 127.633 136.006C127.927 135.63 128.286 135.345 128.712 135.151C129.139 134.952 129.634 134.852 130.198 134.852C130.763 134.852 131.264 134.963 131.701 135.184C132.138 135.4 132.503 135.71 132.796 136.114C133.095 136.518 133.322 137.002 133.477 137.567C133.632 138.126 133.709 138.748 133.709 139.434ZM132.166 139.609V139.434C132.166 138.986 132.124 138.566 132.041 138.173C131.958 137.774 131.825 137.426 131.643 137.127C131.46 136.822 131.219 136.584 130.92 136.413C130.622 136.236 130.254 136.147 129.816 136.147C129.429 136.147 129.091 136.214 128.804 136.346C128.521 136.479 128.281 136.659 128.082 136.886C127.882 137.107 127.719 137.362 127.592 137.65C127.47 137.932 127.379 138.225 127.318 138.53V140.53C127.406 140.917 127.55 141.291 127.75 141.651C127.954 142.005 128.225 142.295 128.563 142.522C128.906 142.749 129.329 142.863 129.833 142.863C130.248 142.863 130.602 142.78 130.896 142.614C131.194 142.442 131.435 142.207 131.618 141.908C131.806 141.609 131.944 141.263 132.033 140.87C132.121 140.477 132.166 140.057 132.166 139.609ZM139.246 142.904C139.611 142.904 139.949 142.829 140.259 142.68C140.569 142.531 140.823 142.326 141.022 142.066C141.222 141.8 141.335 141.498 141.363 141.161H142.824C142.796 141.692 142.616 142.187 142.284 142.647C141.958 143.101 141.529 143.469 140.998 143.751C140.466 144.027 139.882 144.166 139.246 144.166C138.571 144.166 137.982 144.047 137.478 143.809C136.98 143.571 136.565 143.244 136.233 142.829C135.906 142.414 135.66 141.938 135.494 141.402C135.334 140.859 135.253 140.287 135.253 139.683V139.335C135.253 138.732 135.334 138.162 135.494 137.625C135.66 137.082 135.906 136.604 136.233 136.189C136.565 135.774 136.98 135.447 137.478 135.209C137.982 134.971 138.571 134.852 139.246 134.852C139.949 134.852 140.563 134.996 141.089 135.284C141.615 135.566 142.027 135.954 142.326 136.446C142.63 136.933 142.796 137.486 142.824 138.106H141.363C141.335 137.735 141.23 137.401 141.047 137.102C140.87 136.803 140.627 136.565 140.317 136.388C140.013 136.205 139.656 136.114 139.246 136.114C138.776 136.114 138.38 136.208 138.059 136.396C137.744 136.579 137.492 136.828 137.304 137.143C137.121 137.453 136.988 137.799 136.905 138.181C136.828 138.557 136.789 138.942 136.789 139.335V139.683C136.789 140.076 136.828 140.464 136.905 140.845C136.983 141.227 137.113 141.573 137.295 141.883C137.484 142.193 137.735 142.442 138.051 142.63C138.372 142.813 138.77 142.904 139.246 142.904Z" fill="white"/>
</g>
<rect width="88" height="24" transform="translate(446 256)" fill="#FF0000"/>
<path d="M451.764 269.609V269.418C451.764 268.771 451.858 268.17 452.046 267.617C452.234 267.058 452.505 266.574 452.859 266.164C453.214 265.749 453.642 265.428 454.146 265.201C454.65 264.969 455.214 264.853 455.839 264.853C456.47 264.853 457.037 264.969 457.541 265.201C458.05 265.428 458.482 265.749 458.836 266.164C459.196 266.574 459.47 267.058 459.658 267.617C459.846 268.17 459.94 268.771 459.94 269.418V269.609C459.94 270.256 459.846 270.857 459.658 271.41C459.47 271.964 459.196 272.448 458.836 272.863C458.482 273.272 458.053 273.593 457.549 273.826C457.051 274.053 456.487 274.166 455.856 274.166C455.225 274.166 454.658 274.053 454.154 273.826C453.651 273.593 453.219 273.272 452.859 272.863C452.505 272.448 452.234 271.964 452.046 271.41C451.858 270.857 451.764 270.256 451.764 269.609ZM453.299 269.418V269.609C453.299 270.057 453.352 270.48 453.457 270.879C453.562 271.272 453.72 271.62 453.93 271.925C454.146 272.229 454.414 272.47 454.735 272.647C455.056 272.819 455.43 272.904 455.856 272.904C456.277 272.904 456.645 272.819 456.96 272.647C457.281 272.47 457.547 272.229 457.757 271.925C457.967 271.62 458.125 271.272 458.23 270.879C458.341 270.48 458.396 270.057 458.396 269.609V269.418C458.396 268.975 458.341 268.557 458.23 268.165C458.125 267.766 457.964 267.415 457.749 267.11C457.538 266.8 457.273 266.557 456.952 266.38C456.636 266.203 456.266 266.114 455.839 266.114C455.419 266.114 455.048 266.203 454.727 266.38C454.412 266.557 454.146 266.8 453.93 267.11C453.72 267.415 453.562 267.766 453.457 268.165C453.352 268.557 453.299 268.975 453.299 269.418ZM463.401 266.43V274H461.866V265.019H463.36L463.401 266.43ZM466.207 264.969L466.199 266.396C466.072 266.369 465.95 266.352 465.834 266.347C465.723 266.336 465.596 266.33 465.452 266.33C465.098 266.33 464.785 266.385 464.514 266.496C464.243 266.607 464.013 266.762 463.825 266.961C463.637 267.16 463.487 267.398 463.377 267.675C463.271 267.946 463.202 268.245 463.169 268.571L462.737 268.82C462.737 268.278 462.79 267.769 462.895 267.293C463.006 266.817 463.175 266.396 463.401 266.031C463.628 265.66 463.916 265.373 464.265 265.168C464.619 264.958 465.039 264.853 465.526 264.853C465.637 264.853 465.764 264.866 465.908 264.894C466.052 264.916 466.152 264.941 466.207 264.969ZM469.295 265.019V274H467.751V265.019H469.295ZM467.635 262.636C467.635 262.387 467.71 262.177 467.859 262.005C468.014 261.834 468.241 261.748 468.54 261.748C468.833 261.748 469.057 261.834 469.212 262.005C469.372 262.177 469.453 262.387 469.453 262.636C469.453 262.874 469.372 263.079 469.212 263.25C469.057 263.417 468.833 263.5 468.54 263.5C468.241 263.5 468.014 263.417 467.859 263.25C467.71 263.079 467.635 262.874 467.635 262.636ZM477.579 265.019H478.974V273.809C478.974 274.6 478.813 275.276 478.492 275.834C478.171 276.393 477.723 276.817 477.148 277.104C476.578 277.398 475.919 277.544 475.172 277.544C474.862 277.544 474.497 277.495 474.076 277.395C473.661 277.301 473.252 277.138 472.848 276.905C472.449 276.678 472.114 276.371 471.843 275.984L472.648 275.071C473.025 275.525 473.418 275.84 473.827 276.017C474.242 276.194 474.652 276.283 475.056 276.283C475.543 276.283 475.963 276.191 476.317 276.009C476.672 275.826 476.946 275.555 477.139 275.195C477.338 274.841 477.438 274.404 477.438 273.884V266.994L477.579 265.019ZM471.395 269.609V269.435C471.395 268.748 471.475 268.126 471.636 267.567C471.802 267.002 472.037 266.518 472.341 266.114C472.651 265.71 473.025 265.4 473.462 265.185C473.899 264.963 474.392 264.853 474.94 264.853C475.504 264.853 475.996 264.952 476.417 265.151C476.843 265.345 477.203 265.63 477.496 266.006C477.795 266.377 478.03 266.825 478.202 267.351C478.373 267.877 478.492 268.472 478.559 269.136V269.899C478.498 270.558 478.379 271.15 478.202 271.676C478.03 272.201 477.795 272.65 477.496 273.021C477.203 273.391 476.843 273.676 476.417 273.875C475.991 274.069 475.493 274.166 474.923 274.166C474.386 274.166 473.899 274.053 473.462 273.826C473.03 273.599 472.66 273.281 472.35 272.871C472.04 272.462 471.802 271.98 471.636 271.427C471.475 270.868 471.395 270.262 471.395 269.609ZM472.931 269.435V269.609C472.931 270.057 472.975 270.478 473.064 270.871C473.158 271.264 473.299 271.609 473.487 271.908C473.681 272.207 473.927 272.442 474.226 272.614C474.524 272.78 474.881 272.863 475.296 272.863C475.806 272.863 476.226 272.755 476.558 272.539C476.89 272.323 477.153 272.038 477.347 271.684C477.546 271.33 477.701 270.945 477.812 270.53V268.53C477.751 268.225 477.657 267.932 477.529 267.65C477.408 267.362 477.247 267.108 477.048 266.886C476.854 266.659 476.614 266.479 476.326 266.347C476.038 266.214 475.7 266.147 475.313 266.147C474.892 266.147 474.53 266.236 474.226 266.413C473.927 266.585 473.681 266.823 473.487 267.127C473.299 267.426 473.158 267.774 473.064 268.173C472.975 268.566 472.931 268.986 472.931 269.435ZM482.975 265.019V274H481.431V265.019H482.975ZM481.315 262.636C481.315 262.387 481.389 262.177 481.539 262.005C481.694 261.834 481.92 261.748 482.219 261.748C482.513 261.748 482.737 261.834 482.892 262.005C483.052 262.177 483.132 262.387 483.132 262.636C483.132 262.874 483.052 263.079 482.892 263.25C482.737 263.417 482.513 263.5 482.219 263.5C481.92 263.5 481.694 263.417 481.539 263.25C481.389 263.079 481.315 262.874 481.315 262.636ZM486.976 266.936V274H485.44V265.019H486.893L486.976 266.936ZM486.61 269.169L485.971 269.144C485.977 268.53 486.068 267.963 486.245 267.442C486.422 266.917 486.671 266.46 486.992 266.073C487.313 265.685 487.695 265.387 488.138 265.176C488.586 264.96 489.081 264.853 489.624 264.853C490.066 264.853 490.465 264.913 490.819 265.035C491.173 265.151 491.475 265.34 491.724 265.6C491.978 265.86 492.172 266.197 492.305 266.612C492.438 267.022 492.504 267.523 492.504 268.115V274H490.96V268.098C490.96 267.628 490.891 267.251 490.753 266.969C490.614 266.681 490.412 266.474 490.147 266.347C489.881 266.214 489.554 266.147 489.167 266.147C488.785 266.147 488.437 266.228 488.121 266.388C487.811 266.549 487.543 266.77 487.316 267.052C487.095 267.334 486.92 267.658 486.793 268.023C486.671 268.383 486.61 268.765 486.61 269.169ZM500.182 261.914L495.144 275.038H493.824L498.871 261.914H500.182ZM507.155 272.464V267.841C507.155 267.487 507.083 267.18 506.939 266.919C506.801 266.654 506.59 266.449 506.308 266.305C506.026 266.161 505.677 266.089 505.262 266.089C504.875 266.089 504.535 266.156 504.241 266.289C503.954 266.421 503.727 266.596 503.561 266.812C503.4 267.027 503.32 267.26 503.32 267.509H501.784C501.784 267.188 501.867 266.87 502.033 266.554C502.199 266.239 502.437 265.954 502.747 265.699C503.063 265.439 503.439 265.234 503.876 265.085C504.319 264.93 504.811 264.853 505.354 264.853C506.007 264.853 506.582 264.963 507.08 265.185C507.584 265.406 507.977 265.741 508.259 266.189C508.547 266.632 508.69 267.188 508.69 267.857V272.041C508.69 272.34 508.715 272.658 508.765 272.996C508.821 273.333 508.901 273.624 509.006 273.867V274H507.404C507.326 273.823 507.266 273.588 507.221 273.294C507.177 272.996 507.155 272.719 507.155 272.464ZM507.42 268.555L507.437 269.634H505.885C505.448 269.634 505.058 269.67 504.714 269.742C504.371 269.808 504.084 269.91 503.851 270.049C503.619 270.187 503.442 270.361 503.32 270.572C503.198 270.777 503.137 271.017 503.137 271.294C503.137 271.576 503.201 271.833 503.328 272.066C503.455 272.298 503.646 272.484 503.901 272.622C504.161 272.755 504.479 272.821 504.856 272.821C505.326 272.821 505.741 272.722 506.101 272.522C506.46 272.323 506.745 272.08 506.956 271.792C507.171 271.504 507.288 271.225 507.304 270.954L507.96 271.692C507.921 271.925 507.816 272.182 507.645 272.464C507.473 272.747 507.243 273.018 506.956 273.278C506.673 273.532 506.336 273.745 505.943 273.917C505.556 274.083 505.118 274.166 504.631 274.166C504.023 274.166 503.489 274.047 503.029 273.809C502.576 273.571 502.221 273.253 501.967 272.854C501.718 272.451 501.593 272 501.593 271.501C501.593 271.02 501.687 270.597 501.876 270.231C502.064 269.861 502.335 269.554 502.689 269.31C503.043 269.061 503.469 268.873 503.967 268.746C504.465 268.618 505.022 268.555 505.636 268.555H507.42ZM511.098 261.25H512.642V272.257L512.509 274H511.098V261.25ZM518.71 269.435V269.609C518.71 270.262 518.632 270.868 518.477 271.427C518.322 271.98 518.095 272.462 517.796 272.871C517.498 273.281 517.132 273.599 516.701 273.826C516.269 274.053 515.774 274.166 515.215 274.166C514.645 274.166 514.144 274.069 513.712 273.875C513.286 273.676 512.927 273.391 512.633 273.021C512.34 272.65 512.105 272.201 511.928 271.676C511.756 271.15 511.637 270.558 511.571 269.899V269.136C511.637 268.472 511.756 267.877 511.928 267.351C512.105 266.825 512.34 266.377 512.633 266.006C512.927 265.63 513.286 265.345 513.712 265.151C514.139 264.952 514.634 264.853 515.198 264.853C515.763 264.853 516.264 264.963 516.701 265.185C517.138 265.4 517.503 265.71 517.796 266.114C518.095 266.518 518.322 267.002 518.477 267.567C518.632 268.126 518.71 268.748 518.71 269.435ZM517.166 269.609V269.435C517.166 268.986 517.124 268.566 517.041 268.173C516.958 267.774 516.825 267.426 516.643 267.127C516.46 266.823 516.219 266.585 515.92 266.413C515.622 266.236 515.254 266.147 514.816 266.147C514.429 266.147 514.092 266.214 513.804 266.347C513.522 266.479 513.281 266.659 513.082 266.886C512.882 267.108 512.719 267.362 512.592 267.65C512.47 267.932 512.379 268.225 512.318 268.53V270.53C512.406 270.918 512.55 271.291 512.75 271.651C512.954 272.005 513.225 272.296 513.563 272.522C513.906 272.749 514.329 272.863 514.833 272.863C515.248 272.863 515.602 272.78 515.896 272.614C516.194 272.442 516.435 272.207 516.618 271.908C516.806 271.609 516.944 271.264 517.033 270.871C517.121 270.478 517.166 270.057 517.166 269.609ZM524.246 272.904C524.611 272.904 524.949 272.83 525.259 272.68C525.569 272.531 525.823 272.326 526.023 272.066C526.222 271.8 526.335 271.499 526.363 271.161H527.824C527.796 271.692 527.616 272.188 527.284 272.647C526.958 273.101 526.529 273.469 525.998 273.751C525.466 274.028 524.883 274.166 524.246 274.166C523.571 274.166 522.982 274.047 522.478 273.809C521.98 273.571 521.565 273.245 521.233 272.83C520.906 272.415 520.66 271.939 520.494 271.402C520.334 270.86 520.253 270.287 520.253 269.684V269.335C520.253 268.732 520.334 268.162 520.494 267.625C520.66 267.083 520.906 266.604 521.233 266.189C521.565 265.774 521.98 265.447 522.478 265.209C522.982 264.972 523.571 264.853 524.246 264.853C524.949 264.853 525.563 264.996 526.089 265.284C526.615 265.566 527.027 265.954 527.326 266.446C527.63 266.933 527.796 267.487 527.824 268.106H526.363C526.335 267.736 526.23 267.401 526.047 267.102C525.87 266.803 525.627 266.565 525.317 266.388C525.013 266.206 524.656 266.114 524.246 266.114C523.776 266.114 523.38 266.208 523.059 266.396C522.744 266.579 522.492 266.828 522.304 267.144C522.121 267.453 521.988 267.799 521.905 268.181C521.828 268.557 521.789 268.942 521.789 269.335V269.684C521.789 270.076 521.828 270.464 521.905 270.846C521.983 271.228 522.113 271.573 522.295 271.883C522.484 272.193 522.735 272.442 523.051 272.63C523.372 272.813 523.77 272.904 524.246 272.904Z" fill="white"/>
<rect width="88" height="24" transform="translate(768 121)" fill="#FF0000"/>
<path d="M773.764 134.609V134.418C773.764 133.771 773.858 133.17 774.046 132.617C774.234 132.058 774.505 131.574 774.859 131.164C775.214 130.749 775.642 130.428 776.146 130.201C776.65 129.969 777.214 129.853 777.839 129.853C778.47 129.853 779.037 129.969 779.541 130.201C780.05 130.428 780.482 130.749 780.836 131.164C781.196 131.574 781.47 132.058 781.658 132.617C781.846 133.17 781.94 133.771 781.94 134.418V134.609C781.94 135.256 781.846 135.857 781.658 136.41C781.47 136.964 781.196 137.448 780.836 137.863C780.482 138.272 780.053 138.593 779.549 138.826C779.051 139.053 778.487 139.166 777.856 139.166C777.225 139.166 776.658 139.053 776.154 138.826C775.651 138.593 775.219 138.272 774.859 137.863C774.505 137.448 774.234 136.964 774.046 136.41C773.858 135.857 773.764 135.256 773.764 134.609ZM775.299 134.418V134.609C775.299 135.057 775.352 135.48 775.457 135.879C775.562 136.272 775.72 136.62 775.93 136.925C776.146 137.229 776.414 137.47 776.735 137.647C777.056 137.819 777.43 137.904 777.856 137.904C778.277 137.904 778.645 137.819 778.96 137.647C779.281 137.47 779.547 137.229 779.757 136.925C779.967 136.62 780.125 136.272 780.23 135.879C780.341 135.48 780.396 135.057 780.396 134.609V134.418C780.396 133.975 780.341 133.557 780.23 133.165C780.125 132.766 779.964 132.415 779.749 132.11C779.538 131.8 779.273 131.557 778.952 131.38C778.636 131.203 778.266 131.114 777.839 131.114C777.419 131.114 777.048 131.203 776.727 131.38C776.412 131.557 776.146 131.8 775.93 132.11C775.72 132.415 775.562 132.766 775.457 133.165C775.352 133.557 775.299 133.975 775.299 134.418ZM785.401 131.43V139H783.866V130.019H785.36L785.401 131.43ZM788.207 129.969L788.199 131.396C788.072 131.369 787.95 131.352 787.834 131.347C787.723 131.336 787.596 131.33 787.452 131.33C787.098 131.33 786.785 131.385 786.514 131.496C786.243 131.607 786.013 131.762 785.825 131.961C785.637 132.16 785.487 132.398 785.377 132.675C785.271 132.946 785.202 133.245 785.169 133.571L784.737 133.82C784.737 133.278 784.79 132.769 784.895 132.293C785.006 131.817 785.175 131.396 785.401 131.031C785.628 130.66 785.916 130.373 786.265 130.168C786.619 129.958 787.039 129.853 787.526 129.853C787.637 129.853 787.764 129.866 787.908 129.894C788.052 129.916 788.152 129.941 788.207 129.969ZM791.295 130.019V139H789.751V130.019H791.295ZM789.635 127.636C789.635 127.387 789.71 127.177 789.859 127.005C790.014 126.834 790.241 126.748 790.54 126.748C790.833 126.748 791.057 126.834 791.212 127.005C791.372 127.177 791.453 127.387 791.453 127.636C791.453 127.874 791.372 128.079 791.212 128.25C791.057 128.417 790.833 128.5 790.54 128.5C790.241 128.5 790.014 128.417 789.859 128.25C789.71 128.079 789.635 127.874 789.635 127.636ZM799.579 130.019H800.974V138.809C800.974 139.6 800.813 140.276 800.492 140.834C800.171 141.393 799.723 141.817 799.148 142.104C798.578 142.398 797.919 142.544 797.172 142.544C796.862 142.544 796.497 142.495 796.076 142.395C795.661 142.301 795.252 142.138 794.848 141.905C794.449 141.678 794.114 141.371 793.843 140.984L794.648 140.071C795.025 140.525 795.418 140.84 795.827 141.017C796.242 141.194 796.652 141.283 797.056 141.283C797.543 141.283 797.963 141.191 798.317 141.009C798.672 140.826 798.946 140.555 799.139 140.195C799.338 139.841 799.438 139.404 799.438 138.884V131.994L799.579 130.019ZM793.395 134.609V134.435C793.395 133.748 793.475 133.126 793.636 132.567C793.802 132.002 794.037 131.518 794.341 131.114C794.651 130.71 795.025 130.4 795.462 130.185C795.899 129.963 796.392 129.853 796.94 129.853C797.504 129.853 797.996 129.952 798.417 130.151C798.843 130.345 799.203 130.63 799.496 131.006C799.795 131.377 800.03 131.825 800.202 132.351C800.373 132.877 800.492 133.472 800.559 134.136V134.899C800.498 135.558 800.379 136.15 800.202 136.676C800.03 137.201 799.795 137.65 799.496 138.021C799.203 138.391 798.843 138.676 798.417 138.875C797.991 139.069 797.493 139.166 796.923 139.166C796.386 139.166 795.899 139.053 795.462 138.826C795.03 138.599 794.66 138.281 794.35 137.871C794.04 137.462 793.802 136.98 793.636 136.427C793.475 135.868 793.395 135.262 793.395 134.609ZM794.931 134.435V134.609C794.931 135.057 794.975 135.478 795.064 135.871C795.158 136.264 795.299 136.609 795.487 136.908C795.681 137.207 795.927 137.442 796.226 137.614C796.524 137.78 796.881 137.863 797.296 137.863C797.806 137.863 798.226 137.755 798.558 137.539C798.89 137.323 799.153 137.038 799.347 136.684C799.546 136.33 799.701 135.945 799.812 135.53V133.53C799.751 133.225 799.657 132.932 799.529 132.65C799.408 132.362 799.247 132.108 799.048 131.886C798.854 131.659 798.614 131.479 798.326 131.347C798.038 131.214 797.7 131.147 797.313 131.147C796.892 131.147 796.53 131.236 796.226 131.413C795.927 131.585 795.681 131.823 795.487 132.127C795.299 132.426 795.158 132.774 795.064 133.173C794.975 133.566 794.931 133.986 794.931 134.435ZM804.975 130.019V139H803.431V130.019H804.975ZM803.315 127.636C803.315 127.387 803.389 127.177 803.539 127.005C803.694 126.834 803.92 126.748 804.219 126.748C804.513 126.748 804.737 126.834 804.892 127.005C805.052 127.177 805.132 127.387 805.132 127.636C805.132 127.874 805.052 128.079 804.892 128.25C804.737 128.417 804.513 128.5 804.219 128.5C803.92 128.5 803.694 128.417 803.539 128.25C803.389 128.079 803.315 127.874 803.315 127.636ZM808.976 131.936V139H807.44V130.019H808.893L808.976 131.936ZM808.61 134.169L807.971 134.144C807.977 133.53 808.068 132.963 808.245 132.442C808.422 131.917 808.671 131.46 808.992 131.073C809.313 130.685 809.695 130.387 810.138 130.176C810.586 129.96 811.081 129.853 811.624 129.853C812.066 129.853 812.465 129.913 812.819 130.035C813.173 130.151 813.475 130.34 813.724 130.6C813.978 130.86 814.172 131.197 814.305 131.612C814.438 132.022 814.504 132.523 814.504 133.115V139H812.96V133.098C812.96 132.628 812.891 132.251 812.753 131.969C812.614 131.681 812.412 131.474 812.147 131.347C811.881 131.214 811.554 131.147 811.167 131.147C810.785 131.147 810.437 131.228 810.121 131.388C809.811 131.549 809.543 131.77 809.316 132.052C809.095 132.334 808.92 132.658 808.793 133.023C808.671 133.383 808.61 133.765 808.61 134.169ZM822.182 126.914L817.144 140.038H815.824L820.871 126.914H822.182ZM829.155 137.464V132.841C829.155 132.487 829.083 132.18 828.939 131.919C828.801 131.654 828.59 131.449 828.308 131.305C828.026 131.161 827.677 131.089 827.262 131.089C826.875 131.089 826.535 131.156 826.241 131.289C825.954 131.421 825.727 131.596 825.561 131.812C825.4 132.027 825.32 132.26 825.32 132.509H823.784C823.784 132.188 823.867 131.87 824.033 131.554C824.199 131.239 824.437 130.954 824.747 130.699C825.063 130.439 825.439 130.234 825.876 130.085C826.319 129.93 826.811 129.853 827.354 129.853C828.007 129.853 828.582 129.963 829.08 130.185C829.584 130.406 829.977 130.741 830.259 131.189C830.547 131.632 830.69 132.188 830.69 132.857V137.041C830.69 137.34 830.715 137.658 830.765 137.996C830.821 138.333 830.901 138.624 831.006 138.867V139H829.404C829.326 138.823 829.266 138.588 829.221 138.294C829.177 137.996 829.155 137.719 829.155 137.464ZM829.42 133.555L829.437 134.634H827.885C827.448 134.634 827.058 134.67 826.714 134.742C826.371 134.808 826.084 134.91 825.851 135.049C825.619 135.187 825.442 135.361 825.32 135.572C825.198 135.777 825.137 136.017 825.137 136.294C825.137 136.576 825.201 136.833 825.328 137.066C825.455 137.298 825.646 137.484 825.901 137.622C826.161 137.755 826.479 137.821 826.856 137.821C827.326 137.821 827.741 137.722 828.101 137.522C828.46 137.323 828.745 137.08 828.956 136.792C829.171 136.504 829.288 136.225 829.304 135.954L829.96 136.692C829.921 136.925 829.816 137.182 829.645 137.464C829.473 137.747 829.243 138.018 828.956 138.278C828.673 138.532 828.336 138.745 827.943 138.917C827.556 139.083 827.118 139.166 826.631 139.166C826.023 139.166 825.489 139.047 825.029 138.809C824.576 138.571 824.221 138.253 823.967 137.854C823.718 137.451 823.593 137 823.593 136.501C823.593 136.02 823.687 135.597 823.876 135.231C824.064 134.861 824.335 134.554 824.689 134.31C825.043 134.061 825.469 133.873 825.967 133.746C826.465 133.618 827.022 133.555 827.636 133.555H829.42ZM833.098 126.25H834.642V137.257L834.509 139H833.098V126.25ZM840.71 134.435V134.609C840.71 135.262 840.632 135.868 840.477 136.427C840.322 136.98 840.095 137.462 839.796 137.871C839.498 138.281 839.132 138.599 838.701 138.826C838.269 139.053 837.774 139.166 837.215 139.166C836.645 139.166 836.144 139.069 835.712 138.875C835.286 138.676 834.927 138.391 834.633 138.021C834.34 137.65 834.105 137.201 833.928 136.676C833.756 136.15 833.637 135.558 833.571 134.899V134.136C833.637 133.472 833.756 132.877 833.928 132.351C834.105 131.825 834.34 131.377 834.633 131.006C834.927 130.63 835.286 130.345 835.712 130.151C836.139 129.952 836.634 129.853 837.198 129.853C837.763 129.853 838.264 129.963 838.701 130.185C839.138 130.4 839.503 130.71 839.796 131.114C840.095 131.518 840.322 132.002 840.477 132.567C840.632 133.126 840.71 133.748 840.71 134.435ZM839.166 134.609V134.435C839.166 133.986 839.124 133.566 839.041 133.173C838.958 132.774 838.825 132.426 838.643 132.127C838.46 131.823 838.219 131.585 837.92 131.413C837.622 131.236 837.254 131.147 836.816 131.147C836.429 131.147 836.092 131.214 835.804 131.347C835.522 131.479 835.281 131.659 835.082 131.886C834.882 132.108 834.719 132.362 834.592 132.65C834.47 132.932 834.379 133.225 834.318 133.53V135.53C834.406 135.918 834.55 136.291 834.75 136.651C834.954 137.005 835.225 137.296 835.563 137.522C835.906 137.749 836.329 137.863 836.833 137.863C837.248 137.863 837.602 137.78 837.896 137.614C838.194 137.442 838.435 137.207 838.618 136.908C838.806 136.609 838.944 136.264 839.033 135.871C839.121 135.478 839.166 135.057 839.166 134.609ZM846.246 137.904C846.611 137.904 846.949 137.83 847.259 137.68C847.569 137.531 847.823 137.326 848.023 137.066C848.222 136.8 848.335 136.499 848.363 136.161H849.824C849.796 136.692 849.616 137.188 849.284 137.647C848.958 138.101 848.529 138.469 847.998 138.751C847.466 139.028 846.883 139.166 846.246 139.166C845.571 139.166 844.982 139.047 844.478 138.809C843.98 138.571 843.565 138.245 843.233 137.83C842.906 137.415 842.66 136.939 842.494 136.402C842.334 135.86 842.253 135.287 842.253 134.684V134.335C842.253 133.732 842.334 133.162 842.494 132.625C842.66 132.083 842.906 131.604 843.233 131.189C843.565 130.774 843.98 130.447 844.478 130.209C844.982 129.972 845.571 129.853 846.246 129.853C846.949 129.853 847.563 129.996 848.089 130.284C848.615 130.566 849.027 130.954 849.326 131.446C849.63 131.933 849.796 132.487 849.824 133.106H848.363C848.335 132.736 848.23 132.401 848.047 132.102C847.87 131.803 847.627 131.565 847.317 131.388C847.013 131.206 846.656 131.114 846.246 131.114C845.776 131.114 845.38 131.208 845.059 131.396C844.744 131.579 844.492 131.828 844.304 132.144C844.121 132.453 843.988 132.799 843.905 133.181C843.828 133.557 843.789 133.942 843.789 134.335V134.684C843.789 135.076 843.828 135.464 843.905 135.846C843.983 136.228 844.113 136.573 844.295 136.883C844.484 137.193 844.735 137.442 845.051 137.63C845.372 137.813 845.77 137.904 846.246 137.904Z" fill="white"/>
<rect width="38" height="24" transform="translate(398 256)" fill="#0500FF"/>
<path d="M409.621 272.464V267.841C409.621 267.487 409.549 267.18 409.405 266.919C409.266 266.654 409.056 266.449 408.774 266.305C408.492 266.161 408.143 266.089 407.728 266.089C407.341 266.089 407 266.156 406.707 266.289C406.419 266.421 406.192 266.596 406.026 266.812C405.866 267.027 405.786 267.26 405.786 267.509H404.25C404.25 267.188 404.333 266.87 404.499 266.554C404.665 266.239 404.903 265.954 405.213 265.699C405.528 265.439 405.905 265.234 406.342 265.085C406.785 264.93 407.277 264.853 407.819 264.853C408.472 264.853 409.048 264.963 409.546 265.185C410.049 265.406 410.442 265.741 410.725 266.189C411.012 266.632 411.156 267.188 411.156 267.857V272.041C411.156 272.34 411.181 272.658 411.231 272.996C411.286 273.333 411.367 273.624 411.472 273.867V274H409.87C409.792 273.823 409.731 273.588 409.687 273.294C409.643 272.996 409.621 272.719 409.621 272.464ZM409.886 268.555L409.903 269.634H408.351C407.913 269.634 407.523 269.67 407.18 269.742C406.837 269.808 406.549 269.91 406.317 270.049C406.084 270.187 405.907 270.361 405.786 270.572C405.664 270.777 405.603 271.017 405.603 271.294C405.603 271.576 405.667 271.833 405.794 272.066C405.921 272.298 406.112 272.484 406.367 272.622C406.627 272.755 406.945 272.821 407.321 272.821C407.792 272.821 408.207 272.722 408.566 272.522C408.926 272.323 409.211 272.08 409.421 271.792C409.637 271.504 409.753 271.225 409.77 270.954L410.426 271.692C410.387 271.925 410.282 272.182 410.11 272.464C409.939 272.747 409.709 273.018 409.421 273.278C409.139 273.532 408.802 273.745 408.409 273.917C408.021 274.083 407.584 274.166 407.097 274.166C406.488 274.166 405.954 274.047 405.495 273.809C405.041 273.571 404.687 273.253 404.433 272.854C404.184 272.451 404.059 272 404.059 271.501C404.059 271.02 404.153 270.597 404.341 270.231C404.529 269.861 404.801 269.554 405.155 269.31C405.509 269.061 405.935 268.873 406.433 268.746C406.931 268.618 407.487 268.555 408.102 268.555H409.886ZM413.563 261.25H415.107V272.257L414.975 274H413.563V261.25ZM421.175 269.435V269.609C421.175 270.262 421.098 270.868 420.943 271.427C420.788 271.98 420.561 272.462 420.262 272.871C419.963 273.281 419.598 273.599 419.167 273.826C418.735 274.053 418.24 274.166 417.681 274.166C417.111 274.166 416.61 274.069 416.178 273.875C415.752 273.676 415.392 273.391 415.099 273.021C414.806 272.65 414.571 272.201 414.394 271.676C414.222 271.15 414.103 270.558 414.037 269.899V269.136C414.103 268.472 414.222 267.877 414.394 267.351C414.571 266.825 414.806 266.377 415.099 266.006C415.392 265.63 415.752 265.345 416.178 265.151C416.604 264.952 417.1 264.853 417.664 264.853C418.229 264.853 418.729 264.963 419.167 265.185C419.604 265.4 419.969 265.71 420.262 266.114C420.561 266.518 420.788 267.002 420.943 267.567C421.098 268.126 421.175 268.748 421.175 269.435ZM419.631 269.609V269.435C419.631 268.986 419.59 268.566 419.507 268.173C419.424 267.774 419.291 267.426 419.108 267.127C418.926 266.823 418.685 266.585 418.386 266.413C418.087 266.236 417.719 266.147 417.282 266.147C416.895 266.147 416.557 266.214 416.27 266.347C415.987 266.479 415.747 266.659 415.547 266.886C415.348 267.108 415.185 267.362 415.058 267.65C414.936 267.932 414.845 268.225 414.784 268.53V270.53C414.872 270.918 415.016 271.291 415.215 271.651C415.42 272.005 415.691 272.296 416.029 272.522C416.372 272.749 416.795 272.863 417.299 272.863C417.714 272.863 418.068 272.78 418.361 272.614C418.66 272.442 418.901 272.207 419.083 271.908C419.272 271.609 419.41 271.264 419.499 270.871C419.587 270.478 419.631 270.057 419.631 269.609ZM426.712 272.904C427.077 272.904 427.415 272.83 427.725 272.68C428.035 272.531 428.289 272.326 428.488 272.066C428.688 271.8 428.801 271.499 428.829 271.161H430.29C430.262 271.692 430.082 272.188 429.75 272.647C429.424 273.101 428.995 273.469 428.463 273.751C427.932 274.028 427.348 274.166 426.712 274.166C426.037 274.166 425.447 274.047 424.944 273.809C424.446 273.571 424.031 273.245 423.699 272.83C423.372 272.415 423.126 271.939 422.96 271.402C422.799 270.86 422.719 270.287 422.719 269.684V269.335C422.719 268.732 422.799 268.162 422.96 267.625C423.126 267.083 423.372 266.604 423.699 266.189C424.031 265.774 424.446 265.447 424.944 265.209C425.447 264.972 426.037 264.853 426.712 264.853C427.415 264.853 428.029 264.996 428.555 265.284C429.08 265.566 429.493 265.954 429.792 266.446C430.096 266.933 430.262 267.487 430.29 268.106H428.829C428.801 267.736 428.696 267.401 428.513 267.102C428.336 266.803 428.093 266.565 427.783 266.388C427.478 266.206 427.121 266.114 426.712 266.114C426.242 266.114 425.846 266.208 425.525 266.396C425.209 266.579 424.958 266.828 424.77 267.144C424.587 267.453 424.454 267.799 424.371 268.181C424.294 268.557 424.255 268.942 424.255 269.335V269.684C424.255 270.076 424.294 270.464 424.371 270.846C424.449 271.228 424.579 271.573 424.761 271.883C424.949 272.193 425.201 272.442 425.517 272.63C425.838 272.813 426.236 272.904 426.712 272.904Z" fill="white"/>
<rect width="38" height="24" transform="translate(768 257)" fill="#0500FF"/>
<path d="M779.621 273.464V268.841C779.621 268.487 779.549 268.18 779.405 267.919C779.266 267.654 779.056 267.449 778.774 267.305C778.492 267.161 778.143 267.089 777.728 267.089C777.341 267.089 777 267.156 776.707 267.289C776.419 267.421 776.192 267.596 776.026 267.812C775.866 268.027 775.786 268.26 775.786 268.509H774.25C774.25 268.188 774.333 267.87 774.499 267.554C774.665 267.239 774.903 266.954 775.213 266.699C775.528 266.439 775.905 266.234 776.342 266.085C776.785 265.93 777.277 265.853 777.819 265.853C778.472 265.853 779.048 265.963 779.546 266.185C780.05 266.406 780.442 266.741 780.725 267.189C781.012 267.632 781.156 268.188 781.156 268.857V273.041C781.156 273.34 781.181 273.658 781.231 273.996C781.286 274.333 781.367 274.624 781.472 274.867V275H779.87C779.792 274.823 779.731 274.588 779.687 274.294C779.643 273.996 779.621 273.719 779.621 273.464ZM779.886 269.555L779.903 270.634H778.351C777.913 270.634 777.523 270.67 777.18 270.742C776.837 270.808 776.549 270.91 776.317 271.049C776.085 271.187 775.907 271.361 775.786 271.572C775.664 271.777 775.603 272.017 775.603 272.294C775.603 272.576 775.667 272.833 775.794 273.066C775.921 273.298 776.112 273.484 776.367 273.622C776.627 273.755 776.945 273.821 777.321 273.821C777.792 273.821 778.207 273.722 778.566 273.522C778.926 273.323 779.211 273.08 779.421 272.792C779.637 272.504 779.753 272.225 779.77 271.954L780.426 272.692C780.387 272.925 780.282 273.182 780.11 273.464C779.939 273.747 779.709 274.018 779.421 274.278C779.139 274.532 778.802 274.745 778.409 274.917C778.021 275.083 777.584 275.166 777.097 275.166C776.489 275.166 775.954 275.047 775.495 274.809C775.041 274.571 774.687 274.253 774.433 273.854C774.184 273.451 774.059 273 774.059 272.501C774.059 272.02 774.153 271.597 774.341 271.231C774.53 270.861 774.801 270.554 775.155 270.31C775.509 270.061 775.935 269.873 776.433 269.746C776.931 269.618 777.487 269.555 778.102 269.555H779.886ZM783.564 262.25H785.107V273.257L784.975 275H783.564V262.25ZM791.175 270.435V270.609C791.175 271.262 791.098 271.868 790.943 272.427C790.788 272.98 790.561 273.462 790.262 273.871C789.963 274.281 789.598 274.599 789.167 274.826C788.735 275.053 788.24 275.166 787.681 275.166C787.111 275.166 786.61 275.069 786.178 274.875C785.752 274.676 785.392 274.391 785.099 274.021C784.806 273.65 784.571 273.201 784.394 272.676C784.222 272.15 784.103 271.558 784.037 270.899V270.136C784.103 269.472 784.222 268.877 784.394 268.351C784.571 267.825 784.806 267.377 785.099 267.006C785.392 266.63 785.752 266.345 786.178 266.151C786.604 265.952 787.1 265.853 787.664 265.853C788.229 265.853 788.729 265.963 789.167 266.185C789.604 266.4 789.969 266.71 790.262 267.114C790.561 267.518 790.788 268.002 790.943 268.567C791.098 269.126 791.175 269.748 791.175 270.435ZM789.631 270.609V270.435C789.631 269.986 789.59 269.566 789.507 269.173C789.424 268.774 789.291 268.426 789.108 268.127C788.926 267.823 788.685 267.585 788.386 267.413C788.087 267.236 787.719 267.147 787.282 267.147C786.895 267.147 786.557 267.214 786.27 267.347C785.987 267.479 785.747 267.659 785.547 267.886C785.348 268.108 785.185 268.362 785.058 268.65C784.936 268.932 784.845 269.225 784.784 269.53V271.53C784.872 271.918 785.016 272.291 785.215 272.651C785.42 273.005 785.691 273.296 786.029 273.522C786.372 273.749 786.795 273.863 787.299 273.863C787.714 273.863 788.068 273.78 788.361 273.614C788.66 273.442 788.901 273.207 789.084 272.908C789.272 272.609 789.41 272.264 789.499 271.871C789.587 271.478 789.631 271.057 789.631 270.609ZM796.712 273.904C797.077 273.904 797.415 273.83 797.725 273.68C798.035 273.531 798.289 273.326 798.488 273.066C798.688 272.8 798.801 272.499 798.829 272.161H800.29C800.262 272.692 800.082 273.188 799.75 273.647C799.424 274.101 798.995 274.469 798.463 274.751C797.932 275.028 797.348 275.166 796.712 275.166C796.037 275.166 795.447 275.047 794.944 274.809C794.446 274.571 794.031 274.245 793.699 273.83C793.372 273.415 793.126 272.939 792.96 272.402C792.8 271.86 792.719 271.287 792.719 270.684V270.335C792.719 269.732 792.8 269.162 792.96 268.625C793.126 268.083 793.372 267.604 793.699 267.189C794.031 266.774 794.446 266.447 794.944 266.209C795.447 265.972 796.037 265.853 796.712 265.853C797.415 265.853 798.029 265.996 798.555 266.284C799.08 266.566 799.493 266.954 799.792 267.446C800.096 267.933 800.262 268.487 800.29 269.106H798.829C798.801 268.736 798.696 268.401 798.513 268.102C798.336 267.803 798.093 267.565 797.783 267.388C797.478 267.206 797.121 267.114 796.712 267.114C796.242 267.114 795.846 267.208 795.525 267.396C795.21 267.579 794.958 267.828 794.77 268.144C794.587 268.453 794.454 268.799 794.371 269.181C794.294 269.557 794.255 269.942 794.255 270.335V270.684C794.255 271.076 794.294 271.464 794.371 271.846C794.449 272.228 794.579 272.573 794.761 272.883C794.949 273.193 795.201 273.442 795.517 273.63C795.838 273.813 796.236 273.904 796.712 273.904Z" fill="white"/>
<path d="M241 257.82C245.068 257.82 301.996 261.362 303.275 256.884C304.789 251.587 294.947 248.084 291.569 246.395C286.624 243.923 285.449 242.366 288.947 246.864C293.262 252.412 300.308 254.26 304.68 259.881C305.146 260.479 290.905 269.262 289.884 271.306" stroke="black" stroke-width="3" stroke-linecap="round"/>
<path d="M579 255.82C583.068 255.82 639.996 259.362 641.275 254.884C642.789 249.587 632.948 246.084 629.569 244.395C624.624 241.923 623.449 240.366 626.947 244.864C631.262 250.412 638.308 252.26 642.68 257.881C643.146 258.479 628.905 267.262 627.884 269.306" stroke="black" stroke-width="3" stroke-linecap="round"/>
<path d="M375.93 259.407C375.93 253.696 375.93 247.985 375.93 242.273C375.93 236.939 377.945 231.667 377.945 226.147" stroke="#131212" stroke-width="3" stroke-linecap="round"/>
<path d="M377.945 202.966V216.068" stroke="#131212" stroke-width="3" stroke-linecap="round"/>
<path d="M377.945 183.816V195.911" stroke="#131212" stroke-width="3" stroke-linecap="round"/>
<path d="M377.945 171.722C377.945 170.189 379.645 146.939 378.393 146.581C374.744 145.538 373.916 147.319 371.338 144.005C369.428 141.549 369.586 138.462 373.41 138.462C376.912 138.462 377.49 139.7 380.409 140.534C384.643 141.743 379.334 150.78 374.138 144.285C371.594 141.105 375.91 140.358 377.945 140.478C380.531 140.63 378.711 144.509 375.93 144.509" stroke="#131212" stroke-width="3" stroke-linecap="round"/>
<path d="M391.048 134.43C390.996 137.521 387.788 149.582 391.104 152.068C394.305 154.469 395.447 153.95 399.111 154.812C406.902 156.645 415.727 155.596 423.748 155.596C437.162 155.596 450.209 154.588 463.615 154.588C468.273 154.588 469.662 155.522 469.662 150.5C469.662 147.482 471.465 137.915 469.438 135.662C464.288 129.94 453.078 134.655 447.041 131.911C442.194 129.707 433.843 131.407 428.563 131.407C424.14 131.407 419.716 131.407 415.293 131.407C407.883 131.407 400.473 131.407 393.063 131.407" stroke="#131212" stroke-width="3" stroke-linecap="round"/>
<rect width="38" height="24" transform="translate(59 259)" fill="#0500FF"/>
<path d="M70.6206 275.464V270.841C70.6206 270.487 70.5487 270.18 70.4048 269.919C70.2664 269.654 70.0562 269.449 69.7739 269.305C69.4917 269.161 69.1431 269.089 68.728 269.089C68.3407 269.089 68.0003 269.156 67.707 269.289C67.4193 269.421 67.1924 269.596 67.0264 269.812C66.8659 270.027 66.7856 270.26 66.7856 270.509H65.25C65.25 270.188 65.333 269.87 65.499 269.554C65.665 269.239 65.903 268.954 66.2129 268.699C66.5283 268.439 66.9046 268.234 67.3418 268.085C67.7845 267.93 68.277 267.853 68.8193 267.853C69.4723 267.853 70.0479 267.963 70.5459 268.185C71.0495 268.406 71.4424 268.741 71.7246 269.189C72.0124 269.632 72.1562 270.188 72.1562 270.857V275.041C72.1562 275.34 72.1812 275.658 72.231 275.996C72.2863 276.333 72.3665 276.624 72.4717 276.867V277H70.8696C70.7922 276.823 70.7313 276.588 70.687 276.294C70.6427 275.996 70.6206 275.719 70.6206 275.464ZM70.8862 271.555L70.9028 272.634H69.3506C68.9134 272.634 68.5233 272.67 68.1802 272.742C67.8371 272.808 67.5493 272.91 67.3169 273.049C67.0845 273.187 66.9074 273.361 66.7856 273.572C66.6639 273.777 66.603 274.017 66.603 274.294C66.603 274.576 66.6667 274.833 66.7939 275.066C66.9212 275.298 67.1121 275.484 67.3667 275.622C67.6268 275.755 67.945 275.821 68.3213 275.821C68.7917 275.821 69.2067 275.722 69.5664 275.522C69.9261 275.323 70.2111 275.08 70.4214 274.792C70.6372 274.504 70.7534 274.225 70.77 273.954L71.4258 274.692C71.387 274.925 71.2819 275.182 71.1104 275.464C70.9388 275.747 70.7091 276.018 70.4214 276.278C70.1392 276.532 69.8016 276.745 69.4087 276.917C69.0213 277.083 68.5841 277.166 68.0972 277.166C67.4884 277.166 66.9544 277.047 66.4951 276.809C66.0413 276.571 65.6872 276.253 65.4326 275.854C65.1836 275.451 65.0591 275 65.0591 274.501C65.0591 274.02 65.1532 273.597 65.3413 273.231C65.5295 272.861 65.8006 272.554 66.1548 272.31C66.509 272.061 66.9351 271.873 67.4331 271.746C67.9312 271.618 68.4873 271.555 69.1016 271.555H70.8862ZM74.5635 264.25H76.1074V275.257L75.9746 277H74.5635V264.25ZM82.1753 272.435V272.609C82.1753 273.262 82.0978 273.868 81.9429 274.427C81.7879 274.98 81.561 275.462 81.2622 275.871C80.9634 276.281 80.5981 276.599 80.1665 276.826C79.7349 277.053 79.2396 277.166 78.6807 277.166C78.1107 277.166 77.6099 277.069 77.1782 276.875C76.7521 276.676 76.3924 276.391 76.0991 276.021C75.8058 275.65 75.5706 275.201 75.3936 274.676C75.222 274.15 75.103 273.558 75.0366 272.899V272.136C75.103 271.472 75.222 270.877 75.3936 270.351C75.5706 269.825 75.8058 269.377 76.0991 269.006C76.3924 268.63 76.7521 268.345 77.1782 268.151C77.6043 267.952 78.0996 267.853 78.6641 267.853C79.2285 267.853 79.7293 267.963 80.1665 268.185C80.6037 268.4 80.9689 268.71 81.2622 269.114C81.561 269.518 81.7879 270.002 81.9429 270.567C82.0978 271.126 82.1753 271.748 82.1753 272.435ZM80.6313 272.609V272.435C80.6313 271.986 80.5898 271.566 80.5068 271.173C80.4238 270.774 80.291 270.426 80.1084 270.127C79.9258 269.823 79.6851 269.585 79.3862 269.413C79.0874 269.236 78.7194 269.147 78.2822 269.147C77.8949 269.147 77.5573 269.214 77.2695 269.347C76.9873 269.479 76.7466 269.659 76.5474 269.886C76.3481 270.108 76.1849 270.362 76.0576 270.65C75.9359 270.932 75.8446 271.225 75.7837 271.53V273.53C75.8722 273.918 76.0161 274.291 76.2153 274.651C76.4201 275.005 76.6912 275.296 77.0288 275.522C77.3719 275.749 77.7952 275.863 78.2988 275.863C78.7139 275.863 79.068 275.78 79.3613 275.614C79.6602 275.442 79.9009 275.207 80.0835 274.908C80.2716 274.609 80.41 274.264 80.4985 273.871C80.5871 273.478 80.6313 273.057 80.6313 272.609ZM87.7119 275.904C88.0771 275.904 88.4147 275.83 88.7246 275.68C89.0345 275.531 89.2891 275.326 89.4883 275.066C89.6875 274.8 89.8009 274.499 89.8286 274.161H91.2896C91.2619 274.692 91.082 275.188 90.75 275.647C90.4235 276.101 89.9946 276.469 89.4634 276.751C88.9321 277.028 88.3483 277.166 87.7119 277.166C87.0368 277.166 86.4474 277.047 85.9438 276.809C85.4458 276.571 85.0308 276.245 84.6987 275.83C84.3722 275.415 84.126 274.939 83.96 274.402C83.7995 273.86 83.7192 273.287 83.7192 272.684V272.335C83.7192 271.732 83.7995 271.162 83.96 270.625C84.126 270.083 84.3722 269.604 84.6987 269.189C85.0308 268.774 85.4458 268.447 85.9438 268.209C86.4474 267.972 87.0368 267.853 87.7119 267.853C88.4147 267.853 89.029 267.996 89.5547 268.284C90.0804 268.566 90.4927 268.954 90.7915 269.446C91.0959 269.933 91.2619 270.487 91.2896 271.106H89.8286C89.8009 270.736 89.6958 270.401 89.5132 270.102C89.3361 269.803 89.0926 269.565 88.7827 269.388C88.4784 269.206 88.1214 269.114 87.7119 269.114C87.2415 269.114 86.8459 269.208 86.5249 269.396C86.2095 269.579 85.9577 269.828 85.7695 270.144C85.5869 270.453 85.4541 270.799 85.3711 271.181C85.2936 271.557 85.2549 271.942 85.2549 272.335V272.684C85.2549 273.076 85.2936 273.464 85.3711 273.846C85.4486 274.228 85.5786 274.573 85.7612 274.883C85.9494 275.193 86.2012 275.442 86.5166 275.63C86.8376 275.813 87.236 275.904 87.7119 275.904Z" fill="white"/>
<path d="M173.105 90.4791C167.922 95.9673 163.928 104.805 158.331 109.283C157.443 109.993 156.882 111.111 155.893 111.77C154.954 112.396 155.436 108.76 155.893 108.189C156.615 107.286 155.705 104.978 155.246 107.044C155.085 107.771 154.818 110.774 155.694 111.024C158.115 111.716 161.627 111.074 164.151 111.074" stroke="black" stroke-width="3" stroke-linecap="round"/>
<path d="M186.536 71.6752C186.536 74.9712 185.999 78.6956 186.586 81.9228C187.26 85.6312 191.92 81.783 192.804 80.4305C196.113 75.3706 193.172 70.6038 188.327 68.989" stroke="black" stroke-width="3" stroke-linecap="round"/>
<path d="M197.281 80.6295C197.281 77.4729 196.88 73.9377 197.729 70.8793C198.008 69.876 197.94 66.7938 198.227 67.7951C199.137 70.9802 201.231 73.7481 202.206 76.9981C202.302 77.3179 204.439 83.3431 205.141 82.7188C205.86 82.0797 205.689 77.5249 206.037 76.3514C207.039 72.9694 208.026 70.0126 208.026 66.3027" stroke="black" stroke-width="3" stroke-linecap="round"/>
<path d="M213.399 67.1981C213.399 69.4725 214.611 75.9806 213.2 77.7442C211.109 80.3577 214.756 81.5249 216.981 81.5249" stroke="black" stroke-width="3" stroke-linecap="round"/>
<path d="M219.667 65.4073C219.667 68.0112 220.463 76.6389 225.039 72.5707C225.859 71.8425 227.651 71.147 227.726 69.8844C227.834 68.0505 227.726 66.7957 227.726 69.4367C227.726 76.3178 221.458 81.3977 221.458 88.6883" stroke="black" stroke-width="3" stroke-linecap="round"/>
<path d="M190.118 93.1654C187.709 93.1654 186.756 94.685 185.84 96.7471C184.303 100.205 188.044 99.0073 189.919 99.6323C196.79 101.923 189.745 106.597 185.641 106.597" stroke="black" stroke-width="3" stroke-linecap="round"/>
<path d="M194.595 100.329C197.317 100.329 198.64 100.618 200.415 98.4882C203.438 94.8614 194.745 95.6435 193.302 96.2994C190.17 97.7227 192.462 100.83 194.396 102.12C197.38 104.109 200.119 103.91 203.549 103.91" stroke="black" stroke-width="3" stroke-linecap="round"/>
<path d="M205.34 95.8516C205.34 92.1041 205.34 107.094 205.34 107.094C205.34 107.094 204.023 101.741 205.788 100.329C207.599 98.8799 209.132 96.7471 211.608 96.7471" stroke="black" stroke-width="3" stroke-linecap="round"/>
<path d="M213.399 99.4333C213.399 102.264 213.781 109.626 216.981 105.005C218.903 102.228 220.87 99.7126 222.353 96.7471" stroke="black" stroke-width="3" stroke-linecap="round"/>
<path d="M225.935 102.12C228.046 102.12 233.834 101.404 233.994 98.5379C234.208 94.6819 230.815 93.439 227.278 95.4039C225.026 96.6549 225.319 101.448 227.278 103.015C230.468 105.567 231.484 105.701 235.785 105.701" stroke="black" stroke-width="3" stroke-linecap="round"/>
<path d="M236.68 93.1654C236.68 96.0692 236.586 99.0854 238.023 101.672C239.711 104.709 239.366 106.378 239.366 101.672C239.366 98.8904 240.875 97.2166 241.157 94.9562C241.34 93.4912 245.788 92.8576 246.53 91.3745" stroke="black" stroke-width="3" stroke-linecap="round"/>
<path d="M460.762 243.116C471.165 254.51 479.431 267.854 489.676 279.465C496.687 287.411 505.923 294.925 511.745 303.658" stroke="black" stroke-width="3" stroke-linecap="round"/>
<path d="M495.812 238.868C495.812 246.932 491.035 251.774 488.377 259.048C486.006 265.538 481.522 268.342 477.697 273.505C470.71 282.937 463.444 290.354 455.451 298.347" stroke="black" stroke-width="3" stroke-linecap="round"/>
</svg>
