<svg width="900" height="500" viewBox="0 0 900 500" fill="none" xmlns="http://www.w3.org/2000/svg">
<rect width="900" height="500" fill="white"/>
<path d="M57 291.732C141.5 291.732 161 272.232 161 218.732V157.232" stroke="black"/>
<path d="M726 291.732C810.5 291.732 830 272.232 830 218.732C830 218.732 830 182.773 830 159.732C830 98.232 800.5 87.232 726 87.232" stroke="black"/>
<path d="M382 292.732C466.5 292.732 486 273.232 486 219.732V158.232" stroke="black"/>
<path d="M56 156.232V438.232" stroke="black"/>
<path d="M725 87.232V438.232" stroke="black"/>
<path d="M381 157.232V439.232" stroke="black"/>
<circle cx="56" cy="158.232" r="5" fill="#0500FF"/>
<circle cx="725" cy="158.232" r="5" fill="#0500FF"/>
<circle cx="725" cy="87.232" r="5" fill="#0500FF"/>
<circle cx="381" cy="159.232" r="5" fill="#0500FF"/>
<circle cx="56" cy="220.232" r="5" fill="#0500FF"/>
<circle cx="725" cy="220.232" r="5" fill="#0500FF"/>
<circle cx="381" cy="221.232" r="5" fill="#0500FF"/>
<circle cx="161" cy="218.232" r="5" fill="#FFC700"/>
<circle cx="830" cy="218.232" r="5" fill="#FFC700"/>
<circle cx="486" cy="219.232" r="5" fill="#FFC700"/>
<circle cx="161" cy="159.232" r="5" fill="#FFC700"/>
<circle cx="830" cy="159.232" r="5" fill="#FFC700"/>
<circle cx="486" cy="160.232" r="5" fill="#FFC700"/>
<circle cx="56" cy="291.232" r="5" fill="black"/>
<circle cx="725" cy="291.232" r="5" fill="black"/>
<circle cx="381" cy="292.232" r="5" fill="black"/>
<circle cx="56" cy="373.232" r="5" fill="black"/>
<circle cx="725" cy="373.232" r="5" fill="black"/>
<circle cx="381" cy="374.232" r="5" fill="black"/>
<path d="M485.235 154.566C485.235 149.943 485.819 143.184 482.609 139.26C480.436 136.605 478.443 133.466 477.084 130.294C475.426 126.425 471.731 121.046 468.751 118.067C465.022 114.337 459.699 109.788 455.075 107.289C444.792 101.73 435.229 94.247 422.923 94.247C414.788 94.247 406.728 93.4319 398.651 93.4319C396.263 93.4319 389.232 94.6103 388.235 92.6168" stroke="#131212" stroke-width="3" stroke-linecap="round"/>
<path d="M376.823 90.1714C377.035 98.849 384.975 96.8902 384.975 89.3563C384.975 86.7805 381.784 86.0958 379.676 86.0958C376.963 86.0958 376.823 89.3566 376.823 91.8016" stroke="#131212" stroke-width="3" stroke-linecap="round"/>
<path d="M380.899 152.936C380.899 134.785 379.269 117.103 379.269 99.1378" stroke="#131212" stroke-width="3" stroke-linecap="round"/>
<path d="M393.126 64.0874C393.126 69.4008 393.126 74.7142 393.126 80.0276C393.126 85.1328 400.205 83.6504 404.13 83.6504C406.771 83.6504 431.678 84.4399 431.392 82.2918C430.579 76.2013 430.622 70.2275 430.622 64.0874C430.622 59.5707 424.398 60.0118 420.84 60.0118C411.874 60.0118 402.907 60.0118 393.941 60.0118" stroke="#131212" stroke-width="3" stroke-linecap="round"/>
<path d="M411.874 138.264C411.874 122.082 411.874 105.9 411.874 89.7185C411.874 85.3712 411.874 81.0239 411.874 76.6765C411.874 71.0898 408.766 77.8938 406.168 78.7596" stroke="#131212" stroke-width="3" stroke-linecap="round"/>
<path d="M415.134 79.5748C414.074 78.2181 412.606 76.9632 411.874 75.4991" stroke="#131212" stroke-width="3" stroke-linecap="round"/>
<path d="M222 280.624C241.603 280.624 261.207 280.624 280.81 280.624C282.989 280.624 291.705 280.202 286.055 276.878C282.511 274.794 264.363 266.138 275.941 272.57C278.293 273.877 289.031 281.77 287.366 283.621C284.689 286.595 277.735 290.683 274.255 292.423" stroke="black" stroke-width="3" stroke-linecap="round"/>
<path d="M562 280.624C581.603 280.624 601.207 280.624 620.81 280.624C622.989 280.624 631.705 280.202 626.055 276.878C622.511 274.794 604.363 266.138 615.941 272.57C618.293 273.877 629.031 281.77 627.366 283.621C624.689 286.595 617.735 290.683 614.255 292.423" stroke="black" stroke-width="3" stroke-linecap="round"/>
<rect width="38" height="24" transform="translate(69 146.232)" fill="#0500FF"/>
<path d="M80.6206 162.696V158.073C80.6206 157.719 80.5487 157.412 80.4048 157.151C80.2664 156.886 80.0562 156.681 79.7739 156.537C79.4917 156.393 79.1431 156.321 78.728 156.321C78.3407 156.321 78.0003 156.388 77.707 156.521C77.4193 156.653 77.1924 156.828 77.0264 157.044C76.8659 157.259 76.7856 157.492 76.7856 157.741H75.25C75.25 157.42 75.333 157.102 75.499 156.786C75.665 156.471 75.903 156.186 76.2129 155.931C76.5283 155.671 76.9046 155.466 77.3418 155.317C77.7845 155.162 78.277 155.085 78.8193 155.085C79.4723 155.085 80.0479 155.195 80.5459 155.417C81.0495 155.638 81.4424 155.973 81.7246 156.421C82.0124 156.864 82.1562 157.42 82.1562 158.089V162.273C82.1562 162.572 82.1812 162.89 82.231 163.228C82.2863 163.565 82.3665 163.856 82.4717 164.099V164.232H80.8696C80.7922 164.055 80.7313 163.82 80.687 163.526C80.6427 163.228 80.6206 162.951 80.6206 162.696ZM80.8862 158.787L80.9028 159.866H79.3506C78.9134 159.866 78.5233 159.902 78.1802 159.974C77.8371 160.04 77.5493 160.142 77.3169 160.281C77.0845 160.419 76.9074 160.593 76.7856 160.804C76.6639 161.009 76.603 161.249 76.603 161.526C76.603 161.808 76.6667 162.065 76.7939 162.298C76.9212 162.53 77.1121 162.716 77.3667 162.854C77.6268 162.987 77.945 163.053 78.3213 163.053C78.7917 163.053 79.2067 162.954 79.5664 162.754C79.9261 162.555 80.2111 162.312 80.4214 162.024C80.6372 161.736 80.7534 161.457 80.77 161.186L81.4258 161.924C81.387 162.157 81.2819 162.414 81.1104 162.696C80.9388 162.979 80.7091 163.25 80.4214 163.51C80.1392 163.764 79.8016 163.977 79.4087 164.149C79.0213 164.315 78.5841 164.398 78.0972 164.398C77.4884 164.398 76.9544 164.279 76.4951 164.041C76.0413 163.803 75.6872 163.485 75.4326 163.086C75.1836 162.683 75.0591 162.232 75.0591 161.733C75.0591 161.252 75.1532 160.829 75.3413 160.463C75.5295 160.093 75.8006 159.786 76.1548 159.542C76.509 159.293 76.9351 159.105 77.4331 158.978C77.9312 158.85 78.4873 158.787 79.1016 158.787H80.8862ZM84.5635 151.482H86.1074V162.489L85.9746 164.232H84.5635V151.482ZM92.1753 159.667V159.841C92.1753 160.494 92.0978 161.1 91.9429 161.659C91.7879 162.212 91.561 162.694 91.2622 163.103C90.9634 163.513 90.5981 163.831 90.1665 164.058C89.7349 164.285 89.2396 164.398 88.6807 164.398C88.1107 164.398 87.6099 164.301 87.1782 164.107C86.7521 163.908 86.3924 163.623 86.0991 163.253C85.8058 162.882 85.5706 162.433 85.3936 161.908C85.222 161.382 85.103 160.79 85.0366 160.131V159.368C85.103 158.704 85.222 158.109 85.3936 157.583C85.5706 157.057 85.8058 156.609 86.0991 156.238C86.3924 155.862 86.7521 155.577 87.1782 155.383C87.6043 155.184 88.0996 155.085 88.6641 155.085C89.2285 155.085 89.7293 155.195 90.1665 155.417C90.6037 155.632 90.9689 155.942 91.2622 156.346C91.561 156.75 91.7879 157.234 91.9429 157.799C92.0978 158.358 92.1753 158.98 92.1753 159.667ZM90.6313 159.841V159.667C90.6313 159.218 90.5898 158.798 90.5068 158.405C90.4238 158.006 90.291 157.658 90.1084 157.359C89.9258 157.055 89.6851 156.817 89.3862 156.645C89.0874 156.468 88.7194 156.379 88.2822 156.379C87.8949 156.379 87.5573 156.446 87.2695 156.579C86.9873 156.711 86.7466 156.891 86.5474 157.118C86.3481 157.34 86.1849 157.594 86.0576 157.882C85.9359 158.164 85.8446 158.457 85.7837 158.762V160.762C85.8722 161.15 86.0161 161.523 86.2153 161.883C86.4201 162.237 86.6912 162.528 87.0288 162.754C87.3719 162.981 87.7952 163.095 88.2988 163.095C88.7139 163.095 89.068 163.012 89.3613 162.846C89.6602 162.674 89.9009 162.439 90.0835 162.14C90.2716 161.841 90.41 161.496 90.4985 161.103C90.5871 160.71 90.6313 160.289 90.6313 159.841ZM97.7119 163.136C98.0771 163.136 98.4147 163.062 98.7246 162.912C99.0345 162.763 99.2891 162.558 99.4883 162.298C99.6875 162.032 99.8009 161.731 99.8286 161.393H101.29C101.262 161.924 101.082 162.42 100.75 162.879C100.424 163.333 99.9946 163.701 99.4634 163.983C98.9321 164.26 98.3483 164.398 97.7119 164.398C97.0368 164.398 96.4474 164.279 95.9438 164.041C95.4458 163.803 95.0308 163.477 94.6987 163.062C94.3722 162.647 94.126 162.171 93.96 161.634C93.7995 161.092 93.7192 160.519 93.7192 159.916V159.567C93.7192 158.964 93.7995 158.394 93.96 157.857C94.126 157.315 94.3722 156.836 94.6987 156.421C95.0308 156.006 95.4458 155.679 95.9438 155.441C96.4474 155.204 97.0368 155.085 97.7119 155.085C98.4147 155.085 99.029 155.228 99.5547 155.516C100.08 155.798 100.493 156.186 100.792 156.678C101.096 157.165 101.262 157.719 101.29 158.338H99.8286C99.8009 157.968 99.6958 157.633 99.5132 157.334C99.3361 157.035 99.0926 156.797 98.7827 156.62C98.4784 156.438 98.1214 156.346 97.7119 156.346C97.2415 156.346 96.8459 156.44 96.5249 156.628C96.2095 156.811 95.9577 157.06 95.7695 157.376C95.5869 157.685 95.4541 158.031 95.3711 158.413C95.2936 158.789 95.2549 159.174 95.2549 159.567V159.916C95.2549 160.308 95.2936 160.696 95.3711 161.078C95.4486 161.46 95.5786 161.805 95.7612 162.115C95.9494 162.425 96.2012 162.674 96.5166 162.862C96.8376 163.045 97.236 163.136 97.7119 163.136Z" fill="white"/>
<rect width="35" height="24" transform="translate(174 146.232)" fill="#FFC700"/>
<path d="M184.262 164.398C183.636 164.398 183.069 164.293 182.56 164.083C182.056 163.867 181.622 163.565 181.257 163.178C180.897 162.79 180.62 162.331 180.427 161.8C180.233 161.269 180.136 160.688 180.136 160.057V159.708C180.136 158.978 180.244 158.327 180.46 157.757C180.676 157.182 180.969 156.695 181.34 156.296C181.711 155.898 182.131 155.596 182.602 155.392C183.072 155.187 183.559 155.085 184.062 155.085C184.704 155.085 185.258 155.195 185.723 155.417C186.193 155.638 186.578 155.948 186.876 156.346C187.175 156.739 187.397 157.204 187.541 157.741C187.684 158.272 187.756 158.853 187.756 159.484V160.173H181.049V158.919H186.221V158.803C186.199 158.405 186.116 158.017 185.972 157.641C185.833 157.265 185.612 156.955 185.308 156.711C185.003 156.468 184.588 156.346 184.062 156.346C183.714 156.346 183.393 156.421 183.1 156.57C182.806 156.714 182.555 156.93 182.344 157.218C182.134 157.506 181.971 157.857 181.854 158.272C181.738 158.687 181.68 159.166 181.68 159.708V160.057C181.68 160.483 181.738 160.884 181.854 161.26C181.976 161.631 182.151 161.958 182.377 162.24C182.61 162.522 182.889 162.743 183.216 162.904C183.548 163.064 183.924 163.145 184.345 163.145C184.887 163.145 185.346 163.034 185.723 162.813C186.099 162.591 186.428 162.295 186.71 161.924L187.64 162.663C187.446 162.956 187.2 163.236 186.901 163.502C186.603 163.767 186.235 163.983 185.797 164.149C185.366 164.315 184.854 164.398 184.262 164.398ZM191.84 164.232H190.305V154.304C190.305 153.657 190.421 153.112 190.653 152.669C190.891 152.221 191.232 151.883 191.674 151.656C192.117 151.424 192.643 151.308 193.251 151.308C193.429 151.308 193.606 151.319 193.783 151.341C193.965 151.363 194.142 151.396 194.314 151.44L194.231 152.694C194.115 152.666 193.982 152.647 193.833 152.636C193.689 152.625 193.545 152.619 193.401 152.619C193.074 152.619 192.792 152.686 192.554 152.818C192.322 152.946 192.145 153.134 192.023 153.383C191.901 153.632 191.84 153.939 191.84 154.304V164.232ZM193.75 155.251V156.429H188.885V155.251H193.75ZM201.079 155.251H202.474V164.041C202.474 164.832 202.313 165.508 201.992 166.066C201.671 166.625 201.223 167.049 200.647 167.336C200.077 167.63 199.419 167.776 198.672 167.776C198.362 167.776 197.997 167.727 197.576 167.627C197.161 167.533 196.752 167.37 196.348 167.137C195.949 166.91 195.614 166.603 195.343 166.216L196.148 165.303C196.525 165.757 196.918 166.072 197.327 166.249C197.742 166.426 198.152 166.515 198.556 166.515C199.043 166.515 199.463 166.423 199.817 166.241C200.172 166.058 200.445 165.787 200.639 165.427C200.838 165.073 200.938 164.636 200.938 164.116V157.226L201.079 155.251ZM194.895 159.841V159.667C194.895 158.98 194.975 158.358 195.136 157.799C195.302 157.234 195.537 156.75 195.841 156.346C196.151 155.942 196.525 155.632 196.962 155.417C197.399 155.195 197.892 155.085 198.439 155.085C199.004 155.085 199.496 155.184 199.917 155.383C200.343 155.577 200.703 155.862 200.996 156.238C201.295 156.609 201.53 157.057 201.702 157.583C201.873 158.109 201.992 158.704 202.059 159.368V160.131C201.998 160.79 201.879 161.382 201.702 161.908C201.53 162.433 201.295 162.882 200.996 163.253C200.703 163.623 200.343 163.908 199.917 164.107C199.491 164.301 198.993 164.398 198.423 164.398C197.886 164.398 197.399 164.285 196.962 164.058C196.53 163.831 196.16 163.513 195.85 163.103C195.54 162.694 195.302 162.212 195.136 161.659C194.975 161.1 194.895 160.494 194.895 159.841ZM196.431 159.667V159.841C196.431 160.289 196.475 160.71 196.563 161.103C196.658 161.496 196.799 161.841 196.987 162.14C197.181 162.439 197.427 162.674 197.726 162.846C198.024 163.012 198.381 163.095 198.796 163.095C199.306 163.095 199.726 162.987 200.058 162.771C200.39 162.555 200.653 162.27 200.847 161.916C201.046 161.562 201.201 161.177 201.312 160.762V158.762C201.251 158.457 201.157 158.164 201.029 157.882C200.908 157.594 200.747 157.34 200.548 157.118C200.354 156.891 200.113 156.711 199.826 156.579C199.538 156.446 199.2 156.379 198.813 156.379C198.392 156.379 198.03 156.468 197.726 156.645C197.427 156.817 197.181 157.055 196.987 157.359C196.799 157.658 196.658 158.006 196.563 158.405C196.475 158.798 196.431 159.218 196.431 159.667Z" fill="white"/>
<rect width="35" height="24" transform="translate(499 147.232)" fill="#FFC700"/>
<path d="M509.262 165.398C508.636 165.398 508.069 165.293 507.56 165.083C507.056 164.867 506.622 164.565 506.257 164.178C505.897 163.79 505.62 163.331 505.427 162.8C505.233 162.269 505.136 161.688 505.136 161.057V160.708C505.136 159.978 505.244 159.327 505.46 158.757C505.676 158.182 505.969 157.695 506.34 157.296C506.711 156.898 507.131 156.596 507.602 156.392C508.072 156.187 508.559 156.085 509.062 156.085C509.704 156.085 510.258 156.195 510.723 156.417C511.193 156.638 511.578 156.948 511.876 157.346C512.175 157.739 512.397 158.204 512.541 158.741C512.684 159.272 512.756 159.853 512.756 160.484V161.173H506.049V159.919H511.221V159.803C511.199 159.405 511.116 159.017 510.972 158.641C510.833 158.265 510.612 157.955 510.308 157.711C510.003 157.468 509.588 157.346 509.062 157.346C508.714 157.346 508.393 157.421 508.1 157.57C507.806 157.714 507.555 157.93 507.344 158.218C507.134 158.506 506.971 158.857 506.854 159.272C506.738 159.687 506.68 160.166 506.68 160.708V161.057C506.68 161.483 506.738 161.884 506.854 162.26C506.976 162.631 507.151 162.958 507.377 163.24C507.61 163.522 507.889 163.743 508.216 163.904C508.548 164.064 508.924 164.145 509.345 164.145C509.887 164.145 510.346 164.034 510.723 163.813C511.099 163.591 511.428 163.295 511.71 162.924L512.64 163.663C512.446 163.956 512.2 164.236 511.901 164.502C511.603 164.767 511.235 164.983 510.797 165.149C510.366 165.315 509.854 165.398 509.262 165.398ZM516.84 165.232H515.305V155.304C515.305 154.657 515.421 154.112 515.653 153.669C515.891 153.221 516.232 152.883 516.674 152.656C517.117 152.424 517.643 152.308 518.251 152.308C518.429 152.308 518.606 152.319 518.783 152.341C518.965 152.363 519.142 152.396 519.314 152.44L519.231 153.694C519.115 153.666 518.982 153.647 518.833 153.636C518.689 153.625 518.545 153.619 518.401 153.619C518.074 153.619 517.792 153.686 517.554 153.818C517.322 153.946 517.145 154.134 517.023 154.383C516.901 154.632 516.84 154.939 516.84 155.304V165.232ZM518.75 156.251V157.429H513.885V156.251H518.75ZM526.079 156.251H527.474V165.041C527.474 165.832 527.313 166.508 526.992 167.066C526.671 167.625 526.223 168.049 525.647 168.336C525.077 168.63 524.419 168.776 523.672 168.776C523.362 168.776 522.997 168.727 522.576 168.627C522.161 168.533 521.752 168.37 521.348 168.137C520.949 167.91 520.614 167.603 520.343 167.216L521.148 166.303C521.525 166.757 521.918 167.072 522.327 167.249C522.742 167.426 523.152 167.515 523.556 167.515C524.043 167.515 524.463 167.423 524.817 167.241C525.172 167.058 525.445 166.787 525.639 166.427C525.838 166.073 525.938 165.636 525.938 165.116V158.226L526.079 156.251ZM519.895 160.841V160.667C519.895 159.98 519.975 159.358 520.136 158.799C520.302 158.234 520.537 157.75 520.841 157.346C521.151 156.942 521.525 156.632 521.962 156.417C522.399 156.195 522.892 156.085 523.439 156.085C524.004 156.085 524.496 156.184 524.917 156.383C525.343 156.577 525.703 156.862 525.996 157.238C526.295 157.609 526.53 158.057 526.702 158.583C526.873 159.109 526.992 159.704 527.059 160.368V161.131C526.998 161.79 526.879 162.382 526.702 162.908C526.53 163.433 526.295 163.882 525.996 164.253C525.703 164.623 525.343 164.908 524.917 165.107C524.491 165.301 523.993 165.398 523.423 165.398C522.886 165.398 522.399 165.285 521.962 165.058C521.53 164.831 521.16 164.513 520.85 164.103C520.54 163.694 520.302 163.212 520.136 162.659C519.975 162.1 519.895 161.494 519.895 160.841ZM521.431 160.667V160.841C521.431 161.289 521.475 161.71 521.563 162.103C521.658 162.496 521.799 162.841 521.987 163.14C522.181 163.439 522.427 163.674 522.726 163.846C523.024 164.012 523.381 164.095 523.796 164.095C524.306 164.095 524.726 163.987 525.058 163.771C525.39 163.555 525.653 163.27 525.847 162.916C526.046 162.562 526.201 162.177 526.312 161.762V159.762C526.251 159.457 526.157 159.164 526.029 158.882C525.908 158.594 525.747 158.34 525.548 158.118C525.354 157.891 525.113 157.711 524.826 157.579C524.538 157.446 524.2 157.379 523.813 157.379C523.392 157.379 523.03 157.468 522.726 157.645C522.427 157.817 522.181 158.055 521.987 158.359C521.799 158.658 521.658 159.006 521.563 159.405C521.475 159.798 521.431 160.218 521.431 160.667Z" fill="white"/>
<rect width="35" height="24" transform="translate(848 147.232)" fill="#FFC700"/>
<path d="M858.262 165.398C857.636 165.398 857.069 165.293 856.56 165.083C856.056 164.867 855.622 164.565 855.257 164.178C854.897 163.79 854.62 163.331 854.427 162.8C854.233 162.269 854.136 161.688 854.136 161.057V160.708C854.136 159.978 854.244 159.327 854.46 158.757C854.676 158.182 854.969 157.695 855.34 157.296C855.711 156.898 856.131 156.596 856.602 156.392C857.072 156.187 857.559 156.085 858.062 156.085C858.704 156.085 859.258 156.195 859.723 156.417C860.193 156.638 860.578 156.948 860.876 157.346C861.175 157.739 861.397 158.204 861.541 158.741C861.684 159.272 861.756 159.853 861.756 160.484V161.173H855.049V159.919H860.221V159.803C860.199 159.405 860.116 159.017 859.972 158.641C859.833 158.265 859.612 157.955 859.308 157.711C859.003 157.468 858.588 157.346 858.062 157.346C857.714 157.346 857.393 157.421 857.1 157.57C856.806 157.714 856.555 157.93 856.344 158.218C856.134 158.506 855.971 158.857 855.854 159.272C855.738 159.687 855.68 160.166 855.68 160.708V161.057C855.68 161.483 855.738 161.884 855.854 162.26C855.976 162.631 856.151 162.958 856.377 163.24C856.61 163.522 856.889 163.743 857.216 163.904C857.548 164.064 857.924 164.145 858.345 164.145C858.887 164.145 859.346 164.034 859.723 163.813C860.099 163.591 860.428 163.295 860.71 162.924L861.64 163.663C861.446 163.956 861.2 164.236 860.901 164.502C860.603 164.767 860.235 164.983 859.797 165.149C859.366 165.315 858.854 165.398 858.262 165.398ZM865.84 165.232H864.305V155.304C864.305 154.657 864.421 154.112 864.653 153.669C864.891 153.221 865.232 152.883 865.674 152.656C866.117 152.424 866.643 152.308 867.251 152.308C867.429 152.308 867.606 152.319 867.783 152.341C867.965 152.363 868.142 152.396 868.314 152.44L868.231 153.694C868.115 153.666 867.982 153.647 867.833 153.636C867.689 153.625 867.545 153.619 867.401 153.619C867.074 153.619 866.792 153.686 866.554 153.818C866.322 153.946 866.145 154.134 866.023 154.383C865.901 154.632 865.84 154.939 865.84 155.304V165.232ZM867.75 156.251V157.429H862.885V156.251H867.75ZM875.079 156.251H876.474V165.041C876.474 165.832 876.313 166.508 875.992 167.066C875.671 167.625 875.223 168.049 874.647 168.336C874.077 168.63 873.419 168.776 872.672 168.776C872.362 168.776 871.997 168.727 871.576 168.627C871.161 168.533 870.752 168.37 870.348 168.137C869.949 167.91 869.614 167.603 869.343 167.216L870.148 166.303C870.525 166.757 870.918 167.072 871.327 167.249C871.742 167.426 872.152 167.515 872.556 167.515C873.043 167.515 873.463 167.423 873.817 167.241C874.172 167.058 874.445 166.787 874.639 166.427C874.838 166.073 874.938 165.636 874.938 165.116V158.226L875.079 156.251ZM868.895 160.841V160.667C868.895 159.98 868.975 159.358 869.136 158.799C869.302 158.234 869.537 157.75 869.841 157.346C870.151 156.942 870.525 156.632 870.962 156.417C871.399 156.195 871.892 156.085 872.439 156.085C873.004 156.085 873.496 156.184 873.917 156.383C874.343 156.577 874.703 156.862 874.996 157.238C875.295 157.609 875.53 158.057 875.702 158.583C875.873 159.109 875.992 159.704 876.059 160.368V161.131C875.998 161.79 875.879 162.382 875.702 162.908C875.53 163.433 875.295 163.882 874.996 164.253C874.703 164.623 874.343 164.908 873.917 165.107C873.491 165.301 872.993 165.398 872.423 165.398C871.886 165.398 871.399 165.285 870.962 165.058C870.53 164.831 870.16 164.513 869.85 164.103C869.54 163.694 869.302 163.212 869.136 162.659C868.975 162.1 868.895 161.494 868.895 160.841ZM870.431 160.667V160.841C870.431 161.289 870.475 161.71 870.563 162.103C870.658 162.496 870.799 162.841 870.987 163.14C871.181 163.439 871.427 163.674 871.726 163.846C872.024 164.012 872.381 164.095 872.796 164.095C873.306 164.095 873.726 163.987 874.058 163.771C874.39 163.555 874.653 163.27 874.847 162.916C875.046 162.562 875.201 162.177 875.312 161.762V159.762C875.251 159.457 875.157 159.164 875.029 158.882C874.908 158.594 874.747 158.34 874.548 158.118C874.354 157.891 874.113 157.711 873.826 157.579C873.538 157.446 873.2 157.379 872.813 157.379C872.392 157.379 872.03 157.468 871.726 157.645C871.427 157.817 871.181 158.055 870.987 158.359C870.799 158.658 870.658 159.006 870.563 159.405C870.475 159.798 870.431 160.218 870.431 160.667Z" fill="white"/>
<rect width="38" height="24" transform="translate(392 145.232)" fill="#0500FF"/>
<path d="M403.621 161.696V157.073C403.621 156.719 403.549 156.412 403.405 156.151C403.266 155.886 403.056 155.681 402.774 155.537C402.492 155.393 402.143 155.321 401.728 155.321C401.341 155.321 401 155.388 400.707 155.521C400.419 155.653 400.192 155.828 400.026 156.044C399.866 156.259 399.786 156.492 399.786 156.741H398.25C398.25 156.42 398.333 156.102 398.499 155.786C398.665 155.471 398.903 155.186 399.213 154.931C399.528 154.671 399.905 154.466 400.342 154.317C400.785 154.162 401.277 154.085 401.819 154.085C402.472 154.085 403.048 154.195 403.546 154.417C404.049 154.638 404.442 154.973 404.725 155.421C405.012 155.864 405.156 156.42 405.156 157.089V161.273C405.156 161.572 405.181 161.89 405.231 162.228C405.286 162.565 405.367 162.856 405.472 163.099V163.232H403.87C403.792 163.055 403.731 162.82 403.687 162.526C403.643 162.228 403.621 161.951 403.621 161.696ZM403.886 157.787L403.903 158.866H402.351C401.913 158.866 401.523 158.902 401.18 158.974C400.837 159.04 400.549 159.142 400.317 159.281C400.084 159.419 399.907 159.593 399.786 159.804C399.664 160.009 399.603 160.249 399.603 160.526C399.603 160.808 399.667 161.065 399.794 161.298C399.921 161.53 400.112 161.716 400.367 161.854C400.627 161.987 400.945 162.053 401.321 162.053C401.792 162.053 402.207 161.954 402.566 161.754C402.926 161.555 403.211 161.312 403.421 161.024C403.637 160.736 403.753 160.457 403.77 160.186L404.426 160.924C404.387 161.157 404.282 161.414 404.11 161.696C403.939 161.979 403.709 162.25 403.421 162.51C403.139 162.764 402.802 162.977 402.409 163.149C402.021 163.315 401.584 163.398 401.097 163.398C400.488 163.398 399.954 163.279 399.495 163.041C399.041 162.803 398.687 162.485 398.433 162.086C398.184 161.683 398.059 161.232 398.059 160.733C398.059 160.252 398.153 159.829 398.341 159.463C398.529 159.093 398.801 158.786 399.155 158.542C399.509 158.293 399.935 158.105 400.433 157.978C400.931 157.85 401.487 157.787 402.102 157.787H403.886ZM407.563 150.482H409.107V161.489L408.975 163.232H407.563V150.482ZM415.175 158.667V158.841C415.175 159.494 415.098 160.1 414.943 160.659C414.788 161.212 414.561 161.694 414.262 162.103C413.963 162.513 413.598 162.831 413.167 163.058C412.735 163.285 412.24 163.398 411.681 163.398C411.111 163.398 410.61 163.301 410.178 163.107C409.752 162.908 409.392 162.623 409.099 162.253C408.806 161.882 408.571 161.433 408.394 160.908C408.222 160.382 408.103 159.79 408.037 159.131V158.368C408.103 157.704 408.222 157.109 408.394 156.583C408.571 156.057 408.806 155.609 409.099 155.238C409.392 154.862 409.752 154.577 410.178 154.383C410.604 154.184 411.1 154.085 411.664 154.085C412.229 154.085 412.729 154.195 413.167 154.417C413.604 154.632 413.969 154.942 414.262 155.346C414.561 155.75 414.788 156.234 414.943 156.799C415.098 157.358 415.175 157.98 415.175 158.667ZM413.631 158.841V158.667C413.631 158.218 413.59 157.798 413.507 157.405C413.424 157.006 413.291 156.658 413.108 156.359C412.926 156.055 412.685 155.817 412.386 155.645C412.087 155.468 411.719 155.379 411.282 155.379C410.895 155.379 410.557 155.446 410.27 155.579C409.987 155.711 409.747 155.891 409.547 156.118C409.348 156.34 409.185 156.594 409.058 156.882C408.936 157.164 408.845 157.457 408.784 157.762V159.762C408.872 160.15 409.016 160.523 409.215 160.883C409.42 161.237 409.691 161.528 410.029 161.754C410.372 161.981 410.795 162.095 411.299 162.095C411.714 162.095 412.068 162.012 412.361 161.846C412.66 161.674 412.901 161.439 413.083 161.14C413.272 160.841 413.41 160.496 413.499 160.103C413.587 159.71 413.631 159.289 413.631 158.841ZM420.712 162.136C421.077 162.136 421.415 162.062 421.725 161.912C422.035 161.763 422.289 161.558 422.488 161.298C422.688 161.032 422.801 160.731 422.829 160.393H424.29C424.262 160.924 424.082 161.42 423.75 161.879C423.424 162.333 422.995 162.701 422.463 162.983C421.932 163.26 421.348 163.398 420.712 163.398C420.037 163.398 419.447 163.279 418.944 163.041C418.446 162.803 418.031 162.477 417.699 162.062C417.372 161.647 417.126 161.171 416.96 160.634C416.799 160.092 416.719 159.519 416.719 158.916V158.567C416.719 157.964 416.799 157.394 416.96 156.857C417.126 156.315 417.372 155.836 417.699 155.421C418.031 155.006 418.446 154.679 418.944 154.441C419.447 154.204 420.037 154.085 420.712 154.085C421.415 154.085 422.029 154.228 422.555 154.516C423.08 154.798 423.493 155.186 423.792 155.678C424.096 156.165 424.262 156.719 424.29 157.338H422.829C422.801 156.968 422.696 156.633 422.513 156.334C422.336 156.035 422.093 155.797 421.783 155.62C421.478 155.438 421.121 155.346 420.712 155.346C420.242 155.346 419.846 155.44 419.525 155.628C419.209 155.811 418.958 156.06 418.77 156.376C418.587 156.685 418.454 157.031 418.371 157.413C418.294 157.789 418.255 158.174 418.255 158.567V158.916C418.255 159.308 418.294 159.696 418.371 160.078C418.449 160.46 418.579 160.805 418.761 161.115C418.949 161.425 419.201 161.674 419.517 161.862C419.838 162.045 420.236 162.136 420.712 162.136Z" fill="white"/>
<rect width="38" height="24" transform="translate(736 60.232)" fill="#0500FF"/>
<path d="M747.621 76.6964V72.0728C747.621 71.7186 747.549 71.4115 747.405 71.1514C747.266 70.8858 747.056 70.6811 746.774 70.5372C746.492 70.3933 746.143 70.3214 745.728 70.3214C745.341 70.3214 745 70.3878 744.707 70.5206C744.419 70.6534 744.192 70.8277 744.026 71.0435C743.866 71.2593 743.786 71.4918 743.786 71.7408H742.25C742.25 71.4198 742.333 71.1016 742.499 70.7862C742.665 70.4708 742.903 70.1858 743.213 69.9312C743.528 69.6711 743.905 69.4664 744.342 69.317C744.785 69.162 745.277 69.0845 745.819 69.0845C746.472 69.0845 747.048 69.1952 747.546 69.4166C748.049 69.6379 748.442 69.9727 748.725 70.421C749.012 70.8637 749.156 71.4198 749.156 72.0894V76.273C749.156 76.5718 749.181 76.89 749.231 77.2276C749.286 77.5652 749.367 77.8557 749.472 78.0992V78.232H747.87C747.792 78.0549 747.731 77.8197 747.687 77.5264C747.643 77.2276 747.621 76.9509 747.621 76.6964ZM747.886 72.7867L747.903 73.8658H746.351C745.913 73.8658 745.523 73.9018 745.18 73.9737C744.837 74.0401 744.549 74.1425 744.317 74.2808C744.084 74.4192 743.907 74.5935 743.786 74.8038C743.664 75.0085 743.603 75.2492 743.603 75.5259C743.603 75.8082 743.667 76.0655 743.794 76.2979C743.921 76.5303 744.112 76.7157 744.367 76.8541C744.627 76.9869 744.945 77.0533 745.321 77.0533C745.792 77.0533 746.207 76.9537 746.566 76.7545C746.926 76.5552 747.211 76.3117 747.421 76.024C747.637 75.7362 747.753 75.4568 747.77 75.1856L748.426 75.9244C748.387 76.1568 748.282 76.4141 748.11 76.6964C747.939 76.9786 747.709 77.2497 747.421 77.5098C747.139 77.7644 746.802 77.9774 746.409 78.149C746.021 78.315 745.584 78.398 745.097 78.398C744.488 78.398 743.954 78.279 743.495 78.0411C743.041 77.8031 742.687 77.4849 742.433 77.0865C742.184 76.6825 742.059 76.2315 742.059 75.7335C742.059 75.252 742.153 74.8287 742.341 74.4634C742.529 74.0927 742.801 73.7855 743.155 73.5421C743.509 73.293 743.935 73.1049 744.433 72.9776C744.931 72.8503 745.487 72.7867 746.102 72.7867H747.886ZM751.563 65.482H753.107V76.4888L752.975 78.232H751.563V65.482ZM759.175 73.6666V73.8409C759.175 74.4939 759.098 75.0998 758.943 75.6588C758.788 76.2121 758.561 76.6936 758.262 77.1031C757.963 77.5126 757.598 77.8308 757.167 78.0577C756.735 78.2846 756.24 78.398 755.681 78.398C755.111 78.398 754.61 78.3012 754.178 78.1075C753.752 77.9083 753.392 77.6233 753.099 77.2525C752.806 76.8817 752.571 76.4335 752.394 75.9078C752.222 75.3821 752.103 74.7899 752.037 74.1314V73.3677C752.103 72.7037 752.222 72.1088 752.394 71.5831C752.571 71.0574 752.806 70.6091 753.099 70.2383C753.392 69.862 753.752 69.577 754.178 69.3834C754.604 69.1841 755.1 69.0845 755.664 69.0845C756.229 69.0845 756.729 69.1952 757.167 69.4166C757.604 69.6324 757.969 69.9423 758.262 70.3463C758.561 70.7502 758.788 71.2344 758.943 71.7989C759.098 72.3578 759.175 72.9804 759.175 73.6666ZM757.631 73.8409V73.6666C757.631 73.2183 757.59 72.7977 757.507 72.4048C757.424 72.0064 757.291 71.6578 757.108 71.3589C756.926 71.0546 756.685 70.8166 756.386 70.6451C756.087 70.468 755.719 70.3795 755.282 70.3795C754.895 70.3795 754.557 70.4459 754.27 70.5787C753.987 70.7115 753.747 70.8913 753.547 71.1182C753.348 71.3396 753.185 71.5941 753.058 71.8819C752.936 72.1641 752.845 72.4574 752.784 72.7618V74.7623C752.872 75.1496 753.016 75.5232 753.215 75.8829C753.42 76.237 753.691 76.5276 754.029 76.7545C754.372 76.9813 754.795 77.0948 755.299 77.0948C755.714 77.0948 756.068 77.0118 756.361 76.8458C756.66 76.6742 756.901 76.439 757.083 76.1402C757.272 75.8414 757.41 75.4955 757.499 75.1026C757.587 74.7097 757.631 74.2891 757.631 73.8409ZM764.712 77.1363C765.077 77.1363 765.415 77.0616 765.725 76.9122C766.035 76.7628 766.289 76.558 766.488 76.2979C766.688 76.0323 766.801 75.7307 766.829 75.3931H768.29C768.262 75.9244 768.082 76.4197 767.75 76.879C767.424 77.3327 766.995 77.7007 766.463 77.983C765.932 78.2597 765.348 78.398 764.712 78.398C764.037 78.398 763.447 78.279 762.944 78.0411C762.446 77.8031 762.031 77.4766 761.699 77.0616C761.372 76.6465 761.126 76.1706 760.96 75.6339C760.799 75.0915 760.719 74.5188 760.719 73.9156V73.567C760.719 72.9638 760.799 72.3938 760.96 71.857C761.126 71.3147 761.372 70.836 761.699 70.421C762.031 70.0059 762.446 69.6794 762.944 69.4415C763.447 69.2035 764.037 69.0845 764.712 69.0845C765.415 69.0845 766.029 69.2284 766.555 69.5162C767.08 69.7984 767.493 70.1858 767.792 70.6783C768.096 71.1653 768.262 71.7186 768.29 72.3384H766.829C766.801 71.9677 766.696 71.6329 766.513 71.334C766.336 71.0352 766.093 70.7973 765.783 70.6202C765.478 70.4376 765.121 70.3463 764.712 70.3463C764.242 70.3463 763.846 70.4403 763.525 70.6285C763.209 70.8111 762.958 71.0601 762.77 71.3755C762.587 71.6854 762.454 72.0313 762.371 72.4131C762.294 72.7894 762.255 73.1741 762.255 73.567V73.9156C762.255 74.3085 762.294 74.6959 762.371 75.0777C762.449 75.4595 762.579 75.8054 762.761 76.1153C762.949 76.4252 763.201 76.6742 763.517 76.8624C763.838 77.045 764.236 77.1363 764.712 77.1363Z" fill="white"/>
</svg>
