<svg width="900" height="500" viewBox="0 0 900 500" fill="none" xmlns="http://www.w3.org/2000/svg">
<rect width="900" height="500" fill="white"/>
<path d="M51 184.5C135.5 184.5 155 165 155 111.5V50" stroke="black"/>
<path d="M374.162 182.761C458.662 182.761 478.162 163.261 478.162 109.761V48.2606" stroke="black"/>
<path d="M51 182V464" stroke="black"/>
<path d="M373.162 179.961V461.961" stroke="black"/>
<path d="M728 50V443" stroke="black"/>
<circle cx="51" cy="184" r="5" fill="#0500FF"/>
<circle cx="373.162" cy="181.961" r="5" fill="#0500FF"/>
<circle cx="728.162" cy="182" r="5" fill="#0500FF"/>
<circle cx="51" cy="246" r="5" fill="#0500FF"/>
<circle cx="373" cy="256" r="5" fill="#0500FF"/>
<circle cx="728" cy="256.039" r="5" fill="#0500FF"/>
<circle cx="155" cy="111" r="5" fill="#FFC700"/>
<circle cx="478.162" cy="109.261" r="5" fill="#FFC700"/>
<circle cx="728" cy="111" r="5" fill="#FFC700"/>
<circle cx="155" cy="52" r="5" fill="#FFC700"/>
<circle cx="478.162" cy="50.2606" r="5" fill="#FFC700"/>
<circle cx="727" cy="49" r="5" fill="#FFC700"/>
<circle cx="51" cy="317" r="5" fill="black"/>
<circle cx="373" cy="327" r="5" fill="black"/>
<circle cx="728" cy="327.039" r="5" fill="black"/>
<path d="M229.05 201.389C247.78 201.389 266.51 201.389 285.24 201.389C287.421 201.389 296.532 202.906 293.137 199.37C292.509 198.716 284.322 191.538 284.322 191.841C284.322 197.178 295.96 197.928 293.32 203.868C291.713 207.485 286.68 212.522 283.588 214.978C281.075 216.974 278.63 221.457 278.63 221.222" stroke="#131212" stroke-width="3" stroke-linecap="round"/>
<path d="M565.162 295.352C584.765 295.352 604.369 295.352 623.972 295.352C626.151 295.352 634.866 294.93 629.216 291.607C625.673 289.522 607.524 280.867 619.102 287.299C621.455 288.606 632.193 296.499 630.527 298.349C627.85 301.324 620.897 305.412 617.417 307.152" stroke="black" stroke-width="3" stroke-linecap="round"/>
<rect width="38" height="24" transform="translate(60 190)" fill="#0500FF"/>
<path d="M71.6206 206.464V201.841C71.6206 201.487 71.5487 201.18 71.4048 200.919C71.2664 200.654 71.0562 200.449 70.7739 200.305C70.4917 200.161 70.1431 200.089 69.728 200.089C69.3407 200.089 69.0003 200.156 68.707 200.289C68.4193 200.421 68.1924 200.596 68.0264 200.812C67.8659 201.027 67.7856 201.26 67.7856 201.509H66.25C66.25 201.188 66.333 200.87 66.499 200.554C66.665 200.239 66.903 199.954 67.2129 199.699C67.5283 199.439 67.9046 199.234 68.3418 199.085C68.7845 198.93 69.277 198.853 69.8193 198.853C70.4723 198.853 71.0479 198.963 71.5459 199.185C72.0495 199.406 72.4424 199.741 72.7246 200.189C73.0124 200.632 73.1562 201.188 73.1562 201.857V206.041C73.1562 206.34 73.1812 206.658 73.231 206.996C73.2863 207.333 73.3665 207.624 73.4717 207.867V208H71.8696C71.7922 207.823 71.7313 207.588 71.687 207.294C71.6427 206.996 71.6206 206.719 71.6206 206.464ZM71.8862 202.555L71.9028 203.634H70.3506C69.9134 203.634 69.5233 203.67 69.1802 203.742C68.8371 203.808 68.5493 203.91 68.3169 204.049C68.0845 204.187 67.9074 204.361 67.7856 204.572C67.6639 204.777 67.603 205.017 67.603 205.294C67.603 205.576 67.6667 205.833 67.7939 206.066C67.9212 206.298 68.1121 206.484 68.3667 206.622C68.6268 206.755 68.945 206.821 69.3213 206.821C69.7917 206.821 70.2067 206.722 70.5664 206.522C70.9261 206.323 71.2111 206.08 71.4214 205.792C71.6372 205.504 71.7534 205.225 71.77 204.954L72.4258 205.692C72.387 205.925 72.2819 206.182 72.1104 206.464C71.9388 206.747 71.7091 207.018 71.4214 207.278C71.1392 207.532 70.8016 207.745 70.4087 207.917C70.0213 208.083 69.5841 208.166 69.0972 208.166C68.4884 208.166 67.9544 208.047 67.4951 207.809C67.0413 207.571 66.6872 207.253 66.4326 206.854C66.1836 206.451 66.0591 206 66.0591 205.501C66.0591 205.02 66.1532 204.597 66.3413 204.231C66.5295 203.861 66.8006 203.554 67.1548 203.31C67.509 203.061 67.9351 202.873 68.4331 202.746C68.9312 202.618 69.4873 202.555 70.1016 202.555H71.8862ZM75.5635 195.25H77.1074V206.257L76.9746 208H75.5635V195.25ZM83.1753 203.435V203.609C83.1753 204.262 83.0978 204.868 82.9429 205.427C82.7879 205.98 82.561 206.462 82.2622 206.871C81.9634 207.281 81.5981 207.599 81.1665 207.826C80.7349 208.053 80.2396 208.166 79.6807 208.166C79.1107 208.166 78.6099 208.069 78.1782 207.875C77.7521 207.676 77.3924 207.391 77.0991 207.021C76.8058 206.65 76.5706 206.201 76.3936 205.676C76.222 205.15 76.103 204.558 76.0366 203.899V203.136C76.103 202.472 76.222 201.877 76.3936 201.351C76.5706 200.825 76.8058 200.377 77.0991 200.006C77.3924 199.63 77.7521 199.345 78.1782 199.151C78.6043 198.952 79.0996 198.853 79.6641 198.853C80.2285 198.853 80.7293 198.963 81.1665 199.185C81.6037 199.4 81.9689 199.71 82.2622 200.114C82.561 200.518 82.7879 201.002 82.9429 201.567C83.0978 202.126 83.1753 202.748 83.1753 203.435ZM81.6313 203.609V203.435C81.6313 202.986 81.5898 202.566 81.5068 202.173C81.4238 201.774 81.291 201.426 81.1084 201.127C80.9258 200.823 80.6851 200.585 80.3862 200.413C80.0874 200.236 79.7194 200.147 79.2822 200.147C78.8949 200.147 78.5573 200.214 78.2695 200.347C77.9873 200.479 77.7466 200.659 77.5474 200.886C77.3481 201.108 77.1849 201.362 77.0576 201.65C76.9359 201.932 76.8446 202.225 76.7837 202.53V204.53C76.8722 204.918 77.0161 205.291 77.2153 205.651C77.4201 206.005 77.6912 206.296 78.0288 206.522C78.3719 206.749 78.7952 206.863 79.2988 206.863C79.7139 206.863 80.068 206.78 80.3613 206.614C80.6602 206.442 80.9009 206.207 81.0835 205.908C81.2716 205.609 81.41 205.264 81.4985 204.871C81.5871 204.478 81.6313 204.057 81.6313 203.609ZM88.7119 206.904C89.0771 206.904 89.4147 206.83 89.7246 206.68C90.0345 206.531 90.2891 206.326 90.4883 206.066C90.6875 205.8 90.8009 205.499 90.8286 205.161H92.2896C92.2619 205.692 92.082 206.188 91.75 206.647C91.4235 207.101 90.9946 207.469 90.4634 207.751C89.9321 208.028 89.3483 208.166 88.7119 208.166C88.0368 208.166 87.4474 208.047 86.9438 207.809C86.4458 207.571 86.0308 207.245 85.6987 206.83C85.3722 206.415 85.126 205.939 84.96 205.402C84.7995 204.86 84.7192 204.287 84.7192 203.684V203.335C84.7192 202.732 84.7995 202.162 84.96 201.625C85.126 201.083 85.3722 200.604 85.6987 200.189C86.0308 199.774 86.4458 199.447 86.9438 199.209C87.4474 198.972 88.0368 198.853 88.7119 198.853C89.4147 198.853 90.029 198.996 90.5547 199.284C91.0804 199.566 91.4927 199.954 91.7915 200.446C92.0959 200.933 92.2619 201.487 92.2896 202.106H90.8286C90.8009 201.736 90.6958 201.401 90.5132 201.102C90.3361 200.803 90.0926 200.565 89.7827 200.388C89.4784 200.206 89.1214 200.114 88.7119 200.114C88.2415 200.114 87.8459 200.208 87.5249 200.396C87.2095 200.579 86.9577 200.828 86.7695 201.144C86.5869 201.453 86.4541 201.799 86.3711 202.181C86.2936 202.557 86.2549 202.942 86.2549 203.335V203.684C86.2549 204.076 86.2936 204.464 86.3711 204.846C86.4486 205.228 86.5786 205.573 86.7612 205.883C86.9494 206.193 87.2012 206.442 87.5166 206.63C87.8376 206.813 88.236 206.904 88.7119 206.904Z" fill="white"/>
<rect width="38" height="24" transform="translate(381.162 189.961)" fill="#0500FF"/>
<path d="M392.782 206.425V201.801C392.782 201.447 392.71 201.14 392.567 200.88C392.428 200.614 392.218 200.41 391.936 200.266C391.653 200.122 391.305 200.05 390.89 200.05C390.502 200.05 390.162 200.116 389.869 200.249C389.581 200.382 389.354 200.556 389.188 200.772C389.028 200.988 388.947 201.22 388.947 201.469H387.412C387.412 201.148 387.495 200.83 387.661 200.515C387.827 200.199 388.065 199.914 388.375 199.66C388.69 199.4 389.066 199.195 389.504 199.046C389.946 198.891 390.439 198.813 390.981 198.813C391.634 198.813 392.21 198.924 392.708 199.145C393.211 199.367 393.604 199.701 393.886 200.15C394.174 200.592 394.318 201.148 394.318 201.818V206.002C394.318 206.3 394.343 206.619 394.393 206.956C394.448 207.294 394.528 207.584 394.633 207.828V207.961H393.031C392.954 207.784 392.893 207.548 392.849 207.255C392.804 206.956 392.782 206.68 392.782 206.425ZM393.048 202.515L393.065 203.594H391.512C391.075 203.594 390.685 203.63 390.342 203.702C389.999 203.769 389.711 203.871 389.479 204.009C389.246 204.148 389.069 204.322 388.947 204.532C388.826 204.737 388.765 204.978 388.765 205.255C388.765 205.537 388.828 205.794 388.956 206.027C389.083 206.259 389.274 206.444 389.528 206.583C389.789 206.716 390.107 206.782 390.483 206.782C390.953 206.782 391.368 206.682 391.728 206.483C392.088 206.284 392.373 206.04 392.583 205.753C392.799 205.465 392.915 205.185 392.932 204.914L393.588 205.653C393.549 205.885 393.444 206.143 393.272 206.425C393.101 206.707 392.871 206.978 392.583 207.238C392.301 207.493 391.963 207.706 391.57 207.878C391.183 208.044 390.746 208.127 390.259 208.127C389.65 208.127 389.116 208.008 388.657 207.77C388.203 207.532 387.849 207.214 387.594 206.815C387.345 206.411 387.221 205.96 387.221 205.462C387.221 204.981 387.315 204.557 387.503 204.192C387.691 203.821 387.962 203.514 388.317 203.271C388.671 203.022 389.097 202.834 389.595 202.706C390.093 202.579 390.649 202.515 391.263 202.515H393.048ZM396.725 195.211H398.269V206.217L398.136 207.961H396.725V195.211ZM404.337 203.395V203.57C404.337 204.223 404.26 204.828 404.105 205.387C403.95 205.941 403.723 206.422 403.424 206.832C403.125 207.241 402.76 207.559 402.328 207.786C401.897 208.013 401.401 208.127 400.842 208.127C400.272 208.127 399.772 208.03 399.34 207.836C398.914 207.637 398.554 207.352 398.261 206.981C397.968 206.61 397.732 206.162 397.555 205.636C397.384 205.111 397.265 204.519 397.198 203.86V203.096C397.265 202.432 397.384 201.837 397.555 201.312C397.732 200.786 397.968 200.338 398.261 199.967C398.554 199.591 398.914 199.306 399.34 199.112C399.766 198.913 400.261 198.813 400.826 198.813C401.39 198.813 401.891 198.924 402.328 199.145C402.765 199.361 403.131 199.671 403.424 200.075C403.723 200.479 403.95 200.963 404.105 201.528C404.26 202.086 404.337 202.709 404.337 203.395ZM402.793 203.57V203.395C402.793 202.947 402.752 202.526 402.669 202.133C402.586 201.735 402.453 201.386 402.27 201.088C402.088 200.783 401.847 200.545 401.548 200.374C401.249 200.197 400.881 200.108 400.444 200.108C400.057 200.108 399.719 200.174 399.431 200.307C399.149 200.44 398.908 200.62 398.709 200.847C398.51 201.068 398.347 201.323 398.219 201.611C398.098 201.893 398.006 202.186 397.945 202.49V204.491C398.034 204.878 398.178 205.252 398.377 205.612C398.582 205.966 398.853 206.256 399.191 206.483C399.534 206.71 399.957 206.823 400.461 206.823C400.876 206.823 401.23 206.74 401.523 206.574C401.822 206.403 402.063 206.168 402.245 205.869C402.433 205.57 402.572 205.224 402.66 204.831C402.749 204.438 402.793 204.018 402.793 203.57ZM409.874 206.865C410.239 206.865 410.576 206.79 410.886 206.641C411.196 206.491 411.451 206.287 411.65 206.027C411.849 205.761 411.963 205.459 411.99 205.122H413.451C413.424 205.653 413.244 206.148 412.912 206.608C412.585 207.061 412.156 207.429 411.625 207.712C411.094 207.988 410.51 208.127 409.874 208.127C409.199 208.127 408.609 208.008 408.106 207.77C407.608 207.532 407.193 207.205 406.86 206.79C406.534 206.375 406.288 205.899 406.122 205.362C405.961 204.82 405.881 204.247 405.881 203.644V203.296C405.881 202.692 405.961 202.122 406.122 201.586C406.288 201.043 406.534 200.565 406.86 200.15C407.193 199.735 407.608 199.408 408.106 199.17C408.609 198.932 409.199 198.813 409.874 198.813C410.576 198.813 411.191 198.957 411.716 199.245C412.242 199.527 412.654 199.914 412.953 200.407C413.258 200.894 413.424 201.447 413.451 202.067H411.99C411.963 201.696 411.858 201.362 411.675 201.063C411.498 200.764 411.254 200.526 410.944 200.349C410.64 200.166 410.283 200.075 409.874 200.075C409.403 200.075 409.008 200.169 408.687 200.357C408.371 200.54 408.119 200.789 407.931 201.104C407.749 201.414 407.616 201.76 407.533 202.142C407.455 202.518 407.417 202.903 407.417 203.296V203.644C407.417 204.037 407.455 204.424 407.533 204.806C407.61 205.188 407.74 205.534 407.923 205.844C408.111 206.154 408.363 206.403 408.678 206.591C408.999 206.774 409.398 206.865 409.874 206.865Z" fill="white"/>
<rect width="38" height="24" transform="translate(781 36)" fill="#0500FF"/>
<path d="M792.621 52.4644V47.8408C792.621 47.4867 792.549 47.1795 792.405 46.9194C792.266 46.6538 792.056 46.4491 791.774 46.3052C791.492 46.1613 791.143 46.0894 790.728 46.0894C790.341 46.0894 790 46.1558 789.707 46.2886C789.419 46.4214 789.192 46.5957 789.026 46.8115C788.866 47.0273 788.786 47.2598 788.786 47.5088H787.25C787.25 47.1878 787.333 46.8696 787.499 46.5542C787.665 46.2388 787.903 45.9538 788.213 45.6992C788.528 45.4391 788.905 45.2344 789.342 45.085C789.785 44.93 790.277 44.8525 790.819 44.8525C791.472 44.8525 792.048 44.9632 792.546 45.1846C793.049 45.4059 793.442 45.7407 793.725 46.189C794.012 46.6317 794.156 47.1878 794.156 47.8574V52.041C794.156 52.3398 794.181 52.658 794.231 52.9956C794.286 53.3332 794.367 53.6237 794.472 53.8672V54H792.87C792.792 53.8229 792.731 53.5877 792.687 53.2944C792.643 52.9956 792.621 52.7189 792.621 52.4644ZM792.886 48.5547L792.903 49.6338H791.351C790.913 49.6338 790.523 49.6698 790.18 49.7417C789.837 49.8081 789.549 49.9105 789.317 50.0488C789.084 50.1872 788.907 50.3615 788.786 50.5718C788.664 50.7765 788.603 51.0173 788.603 51.2939C788.603 51.5762 788.667 51.8335 788.794 52.0659C788.921 52.2983 789.112 52.4837 789.367 52.6221C789.627 52.7549 789.945 52.8213 790.321 52.8213C790.792 52.8213 791.207 52.7217 791.566 52.5225C791.926 52.3232 792.211 52.0798 792.421 51.792C792.637 51.5042 792.753 51.2248 792.77 50.9536L793.426 51.6924C793.387 51.9248 793.282 52.1821 793.11 52.4644C792.939 52.7466 792.709 53.0177 792.421 53.2778C792.139 53.5324 791.802 53.7454 791.409 53.917C791.021 54.083 790.584 54.166 790.097 54.166C789.488 54.166 788.954 54.047 788.495 53.8091C788.041 53.5711 787.687 53.2529 787.433 52.8545C787.184 52.4505 787.059 51.9995 787.059 51.5015C787.059 51.02 787.153 50.5967 787.341 50.2314C787.529 49.8607 787.801 49.5535 788.155 49.3101C788.509 49.061 788.935 48.8729 789.433 48.7456C789.931 48.6183 790.487 48.5547 791.102 48.5547H792.886ZM796.563 41.25H798.107V52.2568L797.975 54H796.563V41.25ZM804.175 49.4346V49.6089C804.175 50.2619 804.098 50.8678 803.943 51.4268C803.788 51.9801 803.561 52.4616 803.262 52.8711C802.963 53.2806 802.598 53.5988 802.167 53.8257C801.735 54.0526 801.24 54.166 800.681 54.166C800.111 54.166 799.61 54.0692 799.178 53.8755C798.752 53.6763 798.392 53.3913 798.099 53.0205C797.806 52.6497 797.571 52.2015 797.394 51.6758C797.222 51.1501 797.103 50.5579 797.037 49.8994V49.1357C797.103 48.4717 797.222 47.8768 797.394 47.3511C797.571 46.8254 797.806 46.3771 798.099 46.0063C798.392 45.63 798.752 45.3451 799.178 45.1514C799.604 44.9521 800.1 44.8525 800.664 44.8525C801.229 44.8525 801.729 44.9632 802.167 45.1846C802.604 45.4004 802.969 45.7103 803.262 46.1143C803.561 46.5182 803.788 47.0024 803.943 47.5669C804.098 48.1258 804.175 48.7484 804.175 49.4346ZM802.631 49.6089V49.4346C802.631 48.9863 802.59 48.5658 802.507 48.1729C802.424 47.7744 802.291 47.4258 802.108 47.127C801.926 46.8226 801.685 46.5846 801.386 46.4131C801.087 46.236 800.719 46.1475 800.282 46.1475C799.895 46.1475 799.557 46.2139 799.27 46.3467C798.987 46.4795 798.747 46.6593 798.547 46.8862C798.348 47.1076 798.185 47.3621 798.058 47.6499C797.936 47.9321 797.845 48.2254 797.784 48.5298V50.5303C797.872 50.9176 798.016 51.2912 798.215 51.6509C798.42 52.005 798.691 52.2956 799.029 52.5225C799.372 52.7493 799.795 52.8628 800.299 52.8628C800.714 52.8628 801.068 52.7798 801.361 52.6138C801.66 52.4422 801.901 52.207 802.083 51.9082C802.272 51.6094 802.41 51.2635 802.499 50.8706C802.587 50.4777 802.631 50.0571 802.631 49.6089ZM809.712 52.9043C810.077 52.9043 810.415 52.8296 810.725 52.6802C811.035 52.5308 811.289 52.326 811.488 52.0659C811.688 51.8003 811.801 51.4987 811.829 51.1611H813.29C813.262 51.6924 813.082 52.1877 812.75 52.647C812.424 53.1007 811.995 53.4688 811.463 53.751C810.932 54.0277 810.348 54.166 809.712 54.166C809.037 54.166 808.447 54.047 807.944 53.8091C807.446 53.5711 807.031 53.2446 806.699 52.8296C806.372 52.4146 806.126 51.9386 805.96 51.4019C805.799 50.8595 805.719 50.2868 805.719 49.6836V49.335C805.719 48.7318 805.799 48.1618 805.96 47.625C806.126 47.0827 806.372 46.604 806.699 46.189C807.031 45.7739 807.446 45.4474 807.944 45.2095C808.447 44.9715 809.037 44.8525 809.712 44.8525C810.415 44.8525 811.029 44.9964 811.555 45.2842C812.08 45.5664 812.493 45.9538 812.792 46.4463C813.096 46.9333 813.262 47.4867 813.29 48.1064H811.829C811.801 47.7357 811.696 47.4009 811.513 47.1021C811.336 46.8032 811.093 46.5653 810.783 46.3882C810.478 46.2056 810.121 46.1143 809.712 46.1143C809.242 46.1143 808.846 46.2083 808.525 46.3965C808.209 46.5791 807.958 46.8281 807.77 47.1436C807.587 47.4535 807.454 47.7993 807.371 48.1812C807.294 48.5575 807.255 48.9421 807.255 49.335V49.6836C807.255 50.0765 807.294 50.4639 807.371 50.8457C807.449 51.2275 807.579 51.5734 807.761 51.8833C807.949 52.1932 808.201 52.4422 808.517 52.6304C808.838 52.813 809.236 52.9043 809.712 52.9043Z" fill="white"/>
<rect width="35" height="24" transform="translate(739 36)" fill="#FFC700"/>
<path d="M749.262 54.166C748.636 54.166 748.069 54.0609 747.56 53.8506C747.056 53.6348 746.622 53.3332 746.257 52.9458C745.897 52.5584 745.62 52.0991 745.427 51.5679C745.233 51.0366 745.136 50.4556 745.136 49.8247V49.4761C745.136 48.7456 745.244 48.0954 745.46 47.5254C745.676 46.9499 745.969 46.4629 746.34 46.0645C746.711 45.666 747.131 45.3644 747.602 45.1597C748.072 44.9549 748.559 44.8525 749.062 44.8525C749.704 44.8525 750.258 44.9632 750.723 45.1846C751.193 45.4059 751.578 45.7158 751.876 46.1143C752.175 46.5072 752.397 46.972 752.541 47.5088C752.684 48.04 752.756 48.6211 752.756 49.252V49.9409H746.049V48.6875H751.221V48.5713C751.199 48.1729 751.116 47.7855 750.972 47.4092C750.833 47.0329 750.612 46.723 750.308 46.4795C750.003 46.236 749.588 46.1143 749.062 46.1143C748.714 46.1143 748.393 46.189 748.1 46.3384C747.806 46.4823 747.555 46.6981 747.344 46.9858C747.134 47.2736 746.971 47.625 746.854 48.04C746.738 48.4551 746.68 48.9338 746.68 49.4761V49.8247C746.68 50.2508 746.738 50.652 746.854 51.0283C746.976 51.3991 747.151 51.7256 747.377 52.0078C747.61 52.29 747.889 52.5114 748.216 52.6719C748.548 52.8324 748.924 52.9126 749.345 52.9126C749.887 52.9126 750.346 52.8019 750.723 52.5806C751.099 52.3592 751.428 52.0632 751.71 51.6924L752.64 52.4312C752.446 52.7244 752.2 53.0039 751.901 53.2695C751.603 53.5352 751.235 53.751 750.797 53.917C750.366 54.083 749.854 54.166 749.262 54.166ZM756.84 54H755.305V44.0723C755.305 43.4248 755.421 42.8797 755.653 42.437C755.891 41.9888 756.232 41.6512 756.674 41.4243C757.117 41.1919 757.643 41.0757 758.251 41.0757C758.429 41.0757 758.606 41.0868 758.783 41.1089C758.965 41.131 759.142 41.1642 759.314 41.2085L759.231 42.4619C759.115 42.4342 758.982 42.4149 758.833 42.4038C758.689 42.3927 758.545 42.3872 758.401 42.3872C758.074 42.3872 757.792 42.4536 757.554 42.5864C757.322 42.7137 757.145 42.9019 757.023 43.1509C756.901 43.3999 756.84 43.707 756.84 44.0723V54ZM758.75 45.0186V46.1973H753.885V45.0186H758.75ZM766.079 45.0186H767.474V53.8091C767.474 54.6004 767.313 55.2756 766.992 55.8345C766.671 56.3934 766.223 56.8167 765.647 57.1045C765.077 57.3978 764.419 57.5444 763.672 57.5444C763.362 57.5444 762.997 57.4946 762.576 57.395C762.161 57.3009 761.752 57.1377 761.348 56.9053C760.949 56.6784 760.614 56.3713 760.343 55.9839L761.148 55.0708C761.525 55.5246 761.918 55.84 762.327 56.0171C762.742 56.1942 763.152 56.2827 763.556 56.2827C764.043 56.2827 764.463 56.1914 764.817 56.0088C765.172 55.8262 765.445 55.555 765.639 55.1953C765.838 54.8411 765.938 54.404 765.938 53.8838V46.9941L766.079 45.0186ZM759.895 49.6089V49.4346C759.895 48.7484 759.975 48.1258 760.136 47.5669C760.302 47.0024 760.537 46.5182 760.841 46.1143C761.151 45.7103 761.525 45.4004 761.962 45.1846C762.399 44.9632 762.892 44.8525 763.439 44.8525C764.004 44.8525 764.496 44.9521 764.917 45.1514C765.343 45.3451 765.703 45.63 765.996 46.0063C766.295 46.3771 766.53 46.8254 766.702 47.3511C766.873 47.8768 766.992 48.4717 767.059 49.1357V49.8994C766.998 50.5579 766.879 51.1501 766.702 51.6758C766.53 52.2015 766.295 52.6497 765.996 53.0205C765.703 53.3913 765.343 53.6763 764.917 53.8755C764.491 54.0692 763.993 54.166 763.423 54.166C762.886 54.166 762.399 54.0526 761.962 53.8257C761.53 53.5988 761.16 53.2806 760.85 52.8711C760.54 52.4616 760.302 51.9801 760.136 51.4268C759.975 50.8678 759.895 50.2619 759.895 49.6089ZM761.431 49.4346V49.6089C761.431 50.0571 761.475 50.4777 761.563 50.8706C761.658 51.2635 761.799 51.6094 761.987 51.9082C762.181 52.207 762.427 52.4422 762.726 52.6138C763.024 52.7798 763.381 52.8628 763.796 52.8628C764.306 52.8628 764.726 52.7549 765.058 52.5391C765.39 52.3232 765.653 52.0382 765.847 51.6841C766.046 51.3299 766.201 50.9453 766.312 50.5303V48.5298C766.251 48.2254 766.157 47.9321 766.029 47.6499C765.908 47.3621 765.747 47.1076 765.548 46.8862C765.354 46.6593 765.113 46.4795 764.826 46.3467C764.538 46.2139 764.2 46.1475 763.813 46.1475C763.392 46.1475 763.03 46.236 762.726 46.4131C762.427 46.5846 762.181 46.8226 761.987 47.127C761.799 47.4258 761.658 47.7744 761.563 48.1729C761.475 48.5658 761.431 48.9863 761.431 49.4346Z" fill="white"/>
<rect width="35" height="24" transform="translate(489.162 37.2606)" fill="#FFC700"/>
<path d="M499.423 55.4266C498.798 55.4266 498.231 55.3215 497.722 55.1112C497.218 54.8954 496.784 54.5938 496.419 54.2064C496.059 53.819 495.782 53.3597 495.589 52.8285C495.395 52.2972 495.298 51.7162 495.298 51.0853V50.7367C495.298 50.0062 495.406 49.356 495.622 48.786C495.838 48.2105 496.131 47.7235 496.502 47.325C496.872 46.9266 497.293 46.625 497.763 46.4203C498.234 46.2155 498.721 46.1131 499.224 46.1131C499.866 46.1131 500.42 46.2238 500.884 46.4452C501.355 46.6665 501.739 46.9764 502.038 47.3748C502.337 47.7678 502.558 48.2326 502.702 48.7694C502.846 49.3006 502.918 49.8817 502.918 50.5125V51.2015H496.211V49.9481H501.382V49.8319C501.36 49.4334 501.277 49.0461 501.133 48.6698C500.995 48.2935 500.774 47.9836 500.469 47.7401C500.165 47.4966 499.75 47.3748 499.224 47.3748C498.876 47.3748 498.555 47.4496 498.261 47.599C497.968 47.7428 497.716 47.9587 497.506 48.2464C497.296 48.5342 497.132 48.8856 497.016 49.3006C496.9 49.7157 496.842 50.1943 496.842 50.7367V51.0853C496.842 51.5114 496.9 51.9126 497.016 52.2889C497.138 52.6597 497.312 52.9862 497.539 53.2684C497.772 53.5506 498.051 53.772 498.378 53.9325C498.71 54.0929 499.086 54.1732 499.506 54.1732C500.049 54.1732 500.508 54.0625 500.884 53.8412C501.261 53.6198 501.59 53.3237 501.872 52.953L502.802 53.6917C502.608 53.985 502.362 54.2645 502.063 54.5301C501.764 54.7957 501.396 55.0116 500.959 55.1776C500.527 55.3436 500.016 55.4266 499.423 55.4266ZM507.002 55.2606H505.466V45.3329C505.466 44.6854 505.583 44.1403 505.815 43.6976C506.053 43.2494 506.393 42.9118 506.836 42.6849C507.279 42.4525 507.804 42.3363 508.413 42.3363C508.59 42.3363 508.767 42.3473 508.944 42.3695C509.127 42.3916 509.304 42.4248 509.476 42.4691L509.393 43.7225C509.276 43.6948 509.144 43.6755 508.994 43.6644C508.85 43.6533 508.707 43.6478 508.563 43.6478C508.236 43.6478 507.954 43.7142 507.716 43.847C507.484 43.9743 507.306 44.1624 507.185 44.4115C507.063 44.6605 507.002 44.9676 507.002 45.3329V55.2606ZM508.911 46.2791V47.4579H504.047V46.2791H508.911ZM516.241 46.2791H517.635V55.0697C517.635 55.861 517.475 56.5361 517.154 57.0951C516.833 57.654 516.385 58.0773 515.809 58.3651C515.239 58.6584 514.581 58.805 513.834 58.805C513.524 58.805 513.158 58.7552 512.738 58.6556C512.323 58.5615 511.913 58.3983 511.509 58.1659C511.111 57.939 510.776 57.6318 510.505 57.2445L511.31 56.3314C511.686 56.7852 512.079 57.1006 512.489 57.2777C512.904 57.4548 513.313 57.5433 513.717 57.5433C514.204 57.5433 514.625 57.452 514.979 57.2694C515.333 57.0868 515.607 56.8156 515.801 56.4559C516 56.1017 516.1 55.6646 516.1 55.1444V48.2547L516.241 46.2791ZM510.057 50.8695V50.6952C510.057 50.009 510.137 49.3864 510.297 48.8275C510.464 48.263 510.699 47.7788 511.003 47.3748C511.313 46.9709 511.686 46.661 512.124 46.4452C512.561 46.2238 513.053 46.1131 513.601 46.1131C514.166 46.1131 514.658 46.2127 515.079 46.412C515.505 46.6056 515.865 46.8906 516.158 47.2669C516.457 47.6377 516.692 48.0859 516.863 48.6117C517.035 49.1374 517.154 49.7323 517.22 50.3963V51.16C517.159 51.8185 517.04 52.4107 516.863 52.9364C516.692 53.4621 516.457 53.9103 516.158 54.2811C515.865 54.6519 515.505 54.9369 515.079 55.1361C514.653 55.3298 514.155 55.4266 513.585 55.4266C513.048 55.4266 512.561 55.3132 512.124 55.0863C511.692 54.8594 511.321 54.5412 511.011 54.1317C510.701 53.7222 510.464 53.2407 510.297 52.6873C510.137 52.1284 510.057 51.5225 510.057 50.8695ZM511.592 50.6952V50.8695C511.592 51.3177 511.637 51.7383 511.725 52.1312C511.819 52.5241 511.96 52.87 512.149 53.1688C512.342 53.4676 512.589 53.7028 512.887 53.8744C513.186 54.0404 513.543 54.1234 513.958 54.1234C514.467 54.1234 514.888 54.0155 515.22 53.7997C515.552 53.5838 515.815 53.2988 516.008 52.9447C516.208 52.5905 516.363 52.2059 516.473 51.7909V49.7904C516.412 49.486 516.318 49.1927 516.191 48.9105C516.069 48.6227 515.909 48.3682 515.71 48.1468C515.516 47.9199 515.275 47.7401 514.987 47.6073C514.7 47.4745 514.362 47.4081 513.975 47.4081C513.554 47.4081 513.192 47.4966 512.887 47.6737C512.589 47.8452 512.342 48.0832 512.149 48.3875C511.96 48.6864 511.819 49.035 511.725 49.4334C511.637 49.8263 511.592 50.2469 511.592 50.6952Z" fill="white"/>
<rect width="35" height="24" transform="translate(168 39)" fill="#FFC700"/>
<path d="M178.262 57.166C177.636 57.166 177.069 57.0609 176.56 56.8506C176.056 56.6348 175.622 56.3332 175.257 55.9458C174.897 55.5584 174.62 55.0991 174.427 54.5679C174.233 54.0366 174.136 53.4556 174.136 52.8247V52.4761C174.136 51.7456 174.244 51.0954 174.46 50.5254C174.676 49.9499 174.969 49.4629 175.34 49.0645C175.711 48.666 176.131 48.3644 176.602 48.1597C177.072 47.9549 177.559 47.8525 178.062 47.8525C178.704 47.8525 179.258 47.9632 179.723 48.1846C180.193 48.4059 180.578 48.7158 180.876 49.1143C181.175 49.5072 181.397 49.972 181.541 50.5088C181.684 51.04 181.756 51.6211 181.756 52.252V52.9409H175.049V51.6875H180.221V51.5713C180.199 51.1729 180.116 50.7855 179.972 50.4092C179.833 50.0329 179.612 49.723 179.308 49.4795C179.003 49.236 178.588 49.1143 178.062 49.1143C177.714 49.1143 177.393 49.189 177.1 49.3384C176.806 49.4823 176.555 49.6981 176.344 49.9858C176.134 50.2736 175.971 50.625 175.854 51.04C175.738 51.4551 175.68 51.9338 175.68 52.4761V52.8247C175.68 53.2508 175.738 53.652 175.854 54.0283C175.976 54.3991 176.151 54.7256 176.377 55.0078C176.61 55.29 176.889 55.5114 177.216 55.6719C177.548 55.8324 177.924 55.9126 178.345 55.9126C178.887 55.9126 179.346 55.8019 179.723 55.5806C180.099 55.3592 180.428 55.0632 180.71 54.6924L181.64 55.4312C181.446 55.7244 181.2 56.0039 180.901 56.2695C180.603 56.5352 180.235 56.751 179.797 56.917C179.366 57.083 178.854 57.166 178.262 57.166ZM185.84 57H184.305V47.0723C184.305 46.4248 184.421 45.8797 184.653 45.437C184.891 44.9888 185.232 44.6512 185.674 44.4243C186.117 44.1919 186.643 44.0757 187.251 44.0757C187.429 44.0757 187.606 44.0868 187.783 44.1089C187.965 44.131 188.142 44.1642 188.314 44.2085L188.231 45.4619C188.115 45.4342 187.982 45.4149 187.833 45.4038C187.689 45.3927 187.545 45.3872 187.401 45.3872C187.074 45.3872 186.792 45.4536 186.554 45.5864C186.322 45.7137 186.145 45.9019 186.023 46.1509C185.901 46.3999 185.84 46.707 185.84 47.0723V57ZM187.75 48.0186V49.1973H182.885V48.0186H187.75ZM195.079 48.0186H196.474V56.8091C196.474 57.6004 196.313 58.2756 195.992 58.8345C195.671 59.3934 195.223 59.8167 194.647 60.1045C194.077 60.3978 193.419 60.5444 192.672 60.5444C192.362 60.5444 191.997 60.4946 191.576 60.395C191.161 60.3009 190.752 60.1377 190.348 59.9053C189.949 59.6784 189.614 59.3713 189.343 58.9839L190.148 58.0708C190.525 58.5246 190.918 58.84 191.327 59.0171C191.742 59.1942 192.152 59.2827 192.556 59.2827C193.043 59.2827 193.463 59.1914 193.817 59.0088C194.172 58.8262 194.445 58.555 194.639 58.1953C194.838 57.8411 194.938 57.404 194.938 56.8838V49.9941L195.079 48.0186ZM188.895 52.6089V52.4346C188.895 51.7484 188.975 51.1258 189.136 50.5669C189.302 50.0024 189.537 49.5182 189.841 49.1143C190.151 48.7103 190.525 48.4004 190.962 48.1846C191.399 47.9632 191.892 47.8525 192.439 47.8525C193.004 47.8525 193.496 47.9521 193.917 48.1514C194.343 48.3451 194.703 48.63 194.996 49.0063C195.295 49.3771 195.53 49.8254 195.702 50.3511C195.873 50.8768 195.992 51.4717 196.059 52.1357V52.8994C195.998 53.5579 195.879 54.1501 195.702 54.6758C195.53 55.2015 195.295 55.6497 194.996 56.0205C194.703 56.3913 194.343 56.6763 193.917 56.8755C193.491 57.0692 192.993 57.166 192.423 57.166C191.886 57.166 191.399 57.0526 190.962 56.8257C190.53 56.5988 190.16 56.2806 189.85 55.8711C189.54 55.4616 189.302 54.9801 189.136 54.4268C188.975 53.8678 188.895 53.2619 188.895 52.6089ZM190.431 52.4346V52.6089C190.431 53.0571 190.475 53.4777 190.563 53.8706C190.658 54.2635 190.799 54.6094 190.987 54.9082C191.181 55.207 191.427 55.4422 191.726 55.6138C192.024 55.7798 192.381 55.8628 192.796 55.8628C193.306 55.8628 193.726 55.7549 194.058 55.5391C194.39 55.3232 194.653 55.0382 194.847 54.6841C195.046 54.3299 195.201 53.9453 195.312 53.5303V51.5298C195.251 51.2254 195.157 50.9321 195.029 50.6499C194.908 50.3621 194.747 50.1076 194.548 49.8862C194.354 49.6593 194.113 49.4795 193.826 49.3467C193.538 49.2139 193.2 49.1475 192.813 49.1475C192.392 49.1475 192.03 49.236 191.726 49.4131C191.427 49.5846 191.181 49.8226 190.987 50.127C190.799 50.4258 190.658 50.7744 190.563 51.1729C190.475 51.5658 190.431 51.9863 190.431 52.4346Z" fill="white"/>
<path d="M426.645 200.545C434.093 200.545 448.289 201.958 453.614 195.301C456.596 191.575 458.109 190.165 458.109 184.064C458.109 179.775 459.498 172.179 457.36 168.331C452.784 160.095 444.723 154.862 438.298 148.437C428.443 138.582 419.153 122.282 419.153 107.649C419.153 102.266 419.153 96.8836 419.153 91.5007C419.153 83.0232 421.97 79.5849 425.146 72.4387C427.655 66.7934 441.764 52.2114 448.37 52.2114C449.536 52.2114 452.379 51.1022 453.281 50.3801C454.031 49.7802 457.943 48.9943 457.943 48.4656C457.943 47.9149 452.974 47.0284 452.116 46.2181C451.261 45.4105 447.481 40.7507 450.285 43.5544C452.265 45.5345 456.611 48.5892 456.611 51.4622C456.611 54.9377 455.113 65.9964 455.113 56.7063" stroke="black" stroke-width="3" stroke-linecap="round"/>
</svg>
