<svg width="900" height="500" viewBox="0 0 900 500" fill="none" xmlns="http://www.w3.org/2000/svg">
<rect width="900" height="500" fill="white"/>
<path d="M384.107 294.7C468.607 294.7 488.107 275.2 488.107 221.7V160.2" stroke="black"/>
<path d="M56 159.2V441.2" stroke="black"/>
<path d="M383.107 159.2V441.2" stroke="black"/>
<path d="M710.107 56V454" stroke="black"/>
<circle cx="56" cy="161.2" r="5" fill="#0500FF"/>
<circle cx="383.107" cy="161.2" r="5" fill="#0500FF"/>
<circle cx="710.107" cy="162" r="5" fill="#FF0000"/>
<circle cx="710.107" cy="110" r="5" fill="#0500FF"/>
<circle cx="710.107" cy="58" r="5" fill="#0500FF"/>
<circle cx="56" cy="223.2" r="5" fill="#0500FF"/>
<circle cx="383.107" cy="223.2" r="5" fill="#0500FF"/>
<circle cx="710.107" cy="223" r="5" fill="#FF0000"/>
<circle cx="488.107" cy="223" r="5" fill="#FF0000"/>
<circle cx="488.107" cy="162" r="5" fill="#FF0000"/>
<circle cx="56" cy="294.2" r="5" fill="black"/>
<circle cx="383.107" cy="294.2" r="5" fill="black"/>
<circle cx="710.107" cy="299" r="5" fill="black"/>
<circle cx="56" cy="376.2" r="5" fill="black"/>
<circle cx="383.107" cy="376.2" r="5" fill="black"/>
<circle cx="710.107" cy="376" r="5" fill="black"/>
<path d="M500.104 65.949C500.104 69.7829 500.104 73.6167 500.104 77.4506C500.104 79.431 500.104 81.4113 500.104 83.3917C500.104 85.8827 499.41 87.2002 500.952 87.2002C512.604 87.2002 524.257 87.2002 535.909 87.2002C539.059 87.2002 539.272 87.1821 539.039 82.7824C538.863 79.4701 538.542 76.3035 538.542 72.9566C538.542 70.8492 538.542 68.7419 538.542 66.6346C538.542 62.8881 538.365 63.2069 535.616 63.2069C518.689 63.2069 487.01 63.2069 503.938 63.2069" stroke="black" stroke-width="3" stroke-linecap="round"/>
<path d="M251.107 274.969C269.782 274.969 288.236 273.54 306.826 273.54C311.413 273.54 299.109 263.601 296.508 261C293.571 258.063 299.487 264.096 300 264.968C301.831 268.08 305.397 269.72 305.397 273.54C305.397 277.067 302.061 279.594 299.683 282.112C297.862 284.04 295.396 291.671 295.396 287.827" stroke="black" stroke-width="3" stroke-linecap="round"/>
<path d="M591.107 274.969C609.782 274.969 628.236 273.54 646.826 273.54C651.413 273.54 639.109 263.601 636.508 261C633.571 258.063 639.487 264.096 640 264.968C641.831 268.08 645.397 269.72 645.397 273.54C645.397 277.067 642.061 279.594 639.683 282.112C637.862 284.04 635.396 291.671 635.396 287.827" stroke="black" stroke-width="3" stroke-linecap="round"/>
<path d="M485.325 75.9018C485.325 84.4237 485.325 92.9457 485.325 101.468C485.325 108.949 487.366 116.033 487.366 123.519C487.366 133.842 488.386 164.793 488.386 154.47" stroke="#131212" stroke-width="3" stroke-linecap="round"/>
<path d="M482.127 73.1569C481.597 75.8728 480.863 77.8693 484.238 78.8336C486.424 79.4584 487.065 75.8022 487.065 74.1065C487.065 72.736 487.089 72.6171 485.926 71.9329C485.42 71.6355 483.967 70.0949 483.351 71.2576C482.865 72.1753 482.887 73.2744 482.887 74.2964C482.887 75.7189 483.537 75.436 484.786 75.436" stroke="#131212" stroke-width="3" stroke-linecap="round"/>
<path d="M484.026 115.321C482.27 117.736 482.98 120.259 486.306 120.259C487.169 120.259 488.774 120.643 488.986 119.689C489.272 118.403 489.344 117.25 489.344 115.891C489.344 114.82 489.374 114.205 488.5 113.506C488.261 113.315 486.046 112.907 485.947 113.253C485.609 114.436 485.878 115.275 485.25 116.461C484.74 117.425 485.311 118.829 485.926 117.6" stroke="#131212" stroke-width="3" stroke-linecap="round"/>
<path d="M373.645 135.82C365.128 140.813 359.426 143.873 355.756 152.639C353.084 159.023 352.364 162.983 350.94 169.534C348.619 180.211 348.876 192.604 348.876 203.553C348.876 213.642 351.776 223.43 359.961 230.081C368.52 237.035 381.874 247.282 393.598 247.282C403.859 247.282 412.669 243.132 420.355 236.35C425.055 232.202 430.225 228.49 434.192 223.583C437.884 219.016 440.245 212.329 444.895 208.752C449.368 205.311 450.604 196.215 450.705 190.863C450.892 180.962 452.081 171.232 452.081 161.278C452.081 144.707 437.58 134.453 422.113 131.998C407.034 129.605 385.237 124.52 370.893 131.692" stroke="#131212" stroke-width="3" stroke-linecap="round"/>
<path d="M422.392 132.984C422.392 126.144 422.658 119.4 425.85 113.186C429.146 106.767 432.346 100.38 436.871 94.7625C438.81 92.3561 441.649 90.818 444.051 88.9383C446.04 87.3816 448.512 85.5193 450.967 84.7723C453.291 84.0651 455.5 83.2482 457.782 82.386C459.103 81.8868 460.682 81.4747 462.069 81.213C462.162 81.1955 464.517 80.6889 464.456 80.5659C464.219 80.0914 461.915 79.4286 461.463 79.2918C458.498 78.3954 455.443 78.0264 452.443 77.2897C449.681 76.6113 441.471 75.1146 444.293 74.7618C447.8 74.3235 451.802 76.4439 455.234 77.0066C457.32 77.3486 459.288 78.6566 461.321 79.2918C464.016 80.1338 464.152 80.0821 462.393 82.8309C459.515 87.327 456.025 91.5543 453.333 96.1377C452.291 97.9126 451.542 99.8264 450.502 101.598C450.111 102.264 449.693 102.715 449.693 103.499" stroke="#131212" stroke-width="3" stroke-linecap="round"/>
<rect width="38" height="24" transform="translate(725.107 46)" fill="#0500FF"/>
<path d="M736.728 62.4644V57.8408C736.728 57.4867 736.656 57.1795 736.512 56.9194C736.373 56.6538 736.163 56.4491 735.881 56.3052C735.599 56.1613 735.25 56.0894 734.835 56.0894C734.448 56.0894 734.107 56.1558 733.814 56.2886C733.526 56.4214 733.299 56.5957 733.133 56.8115C732.973 57.0273 732.893 57.2598 732.893 57.5088H731.357C731.357 57.1878 731.44 56.8696 731.606 56.5542C731.772 56.2388 732.01 55.9538 732.32 55.6992C732.635 55.4391 733.012 55.2344 733.449 55.085C733.891 54.93 734.384 54.8525 734.926 54.8525C735.579 54.8525 736.155 54.9632 736.653 55.1846C737.156 55.4059 737.549 55.7407 737.832 56.189C738.119 56.6317 738.263 57.1878 738.263 57.8574V62.041C738.263 62.3398 738.288 62.658 738.338 62.9956C738.393 63.3332 738.473 63.6237 738.579 63.8672V64H736.977C736.899 63.8229 736.838 63.5877 736.794 63.2944C736.75 62.9956 736.728 62.7189 736.728 62.4644ZM736.993 58.5547L737.01 59.6338H735.458C735.02 59.6338 734.63 59.6698 734.287 59.7417C733.944 59.8081 733.656 59.9105 733.424 60.0488C733.191 60.1872 733.014 60.3615 732.893 60.5718C732.771 60.7765 732.71 61.0173 732.71 61.2939C732.71 61.5762 732.774 61.8335 732.901 62.0659C733.028 62.2983 733.219 62.4837 733.474 62.6221C733.734 62.7549 734.052 62.8213 734.428 62.8213C734.899 62.8213 735.314 62.7217 735.673 62.5225C736.033 62.3232 736.318 62.0798 736.528 61.792C736.744 61.5042 736.86 61.2248 736.877 60.9536L737.533 61.6924C737.494 61.9248 737.389 62.1821 737.217 62.4644C737.046 62.7466 736.816 63.0177 736.528 63.2778C736.246 63.5324 735.909 63.7454 735.516 63.917C735.128 64.083 734.691 64.166 734.204 64.166C733.595 64.166 733.061 64.047 732.602 63.8091C732.148 63.5711 731.794 63.2529 731.54 62.8545C731.291 62.4505 731.166 61.9995 731.166 61.5015C731.166 61.02 731.26 60.5967 731.448 60.2314C731.636 59.8607 731.908 59.5535 732.262 59.3101C732.616 59.061 733.042 58.8729 733.54 58.7456C734.038 58.6183 734.594 58.5547 735.208 58.5547H736.993ZM740.67 51.25H742.214V62.2568L742.082 64H740.67V51.25ZM748.282 59.4346V59.6089C748.282 60.2619 748.205 60.8678 748.05 61.4268C747.895 61.9801 747.668 62.4616 747.369 62.8711C747.07 63.2806 746.705 63.5988 746.273 63.8257C745.842 64.0526 745.347 64.166 744.788 64.166C744.218 64.166 743.717 64.0692 743.285 63.8755C742.859 63.6763 742.499 63.3913 742.206 63.0205C741.913 62.6497 741.678 62.2015 741.5 61.6758C741.329 61.1501 741.21 60.5579 741.144 59.8994V59.1357C741.21 58.4717 741.329 57.8768 741.5 57.3511C741.678 56.8254 741.913 56.3771 742.206 56.0063C742.499 55.63 742.859 55.3451 743.285 55.1514C743.711 54.9521 744.207 54.8525 744.771 54.8525C745.335 54.8525 745.836 54.9632 746.273 55.1846C746.711 55.4004 747.076 55.7103 747.369 56.1143C747.668 56.5182 747.895 57.0024 748.05 57.5669C748.205 58.1258 748.282 58.7484 748.282 59.4346ZM746.738 59.6089V59.4346C746.738 58.9863 746.697 58.5658 746.614 58.1729C746.531 57.7744 746.398 57.4258 746.215 57.127C746.033 56.8226 745.792 56.5846 745.493 56.4131C745.194 56.236 744.826 56.1475 744.389 56.1475C744.002 56.1475 743.664 56.2139 743.376 56.3467C743.094 56.4795 742.854 56.6593 742.654 56.8862C742.455 57.1076 742.292 57.3621 742.165 57.6499C742.043 57.9321 741.951 58.2254 741.891 58.5298V60.5303C741.979 60.9176 742.123 61.2912 742.322 61.6509C742.527 62.005 742.798 62.2956 743.136 62.5225C743.479 62.7493 743.902 62.8628 744.406 62.8628C744.821 62.8628 745.175 62.7798 745.468 62.6138C745.767 62.4422 746.008 62.207 746.19 61.9082C746.379 61.6094 746.517 61.2635 746.605 60.8706C746.694 60.4777 746.738 60.0571 746.738 59.6089ZM753.819 62.9043C754.184 62.9043 754.522 62.8296 754.832 62.6802C755.141 62.5308 755.396 62.326 755.595 62.0659C755.794 61.8003 755.908 61.4987 755.936 61.1611H757.396C757.369 61.6924 757.189 62.1877 756.857 62.647C756.53 63.1007 756.102 63.4688 755.57 63.751C755.039 64.0277 754.455 64.166 753.819 64.166C753.144 64.166 752.554 64.047 752.051 63.8091C751.553 63.5711 751.138 63.2446 750.806 62.8296C750.479 62.4146 750.233 61.9386 750.067 61.4019C749.906 60.8595 749.826 60.2868 749.826 59.6836V59.335C749.826 58.7318 749.906 58.1618 750.067 57.625C750.233 57.0827 750.479 56.604 750.806 56.189C751.138 55.7739 751.553 55.4474 752.051 55.2095C752.554 54.9715 753.144 54.8525 753.819 54.8525C754.522 54.8525 755.136 54.9964 755.662 55.2842C756.187 55.5664 756.6 55.9538 756.898 56.4463C757.203 56.9333 757.369 57.4867 757.396 58.1064H755.936C755.908 57.7357 755.803 57.4009 755.62 57.1021C755.443 56.8032 755.2 56.5653 754.89 56.3882C754.585 56.2056 754.228 56.1143 753.819 56.1143C753.348 56.1143 752.953 56.2083 752.632 56.3965C752.316 56.5791 752.065 56.8281 751.876 57.1436C751.694 57.4535 751.561 57.7993 751.478 58.1812C751.401 58.5575 751.362 58.9421 751.362 59.335V59.6836C751.362 60.0765 751.401 60.4639 751.478 60.8457C751.556 61.2275 751.686 61.5734 751.868 61.8833C752.056 62.1932 752.308 62.4422 752.624 62.6304C752.944 62.813 753.343 62.9043 753.819 62.9043Z" fill="white"/>
<rect width="38" height="24" transform="translate(398.107 149)" fill="#0500FF"/>
<path d="M409.728 165.464V160.841C409.728 160.487 409.656 160.18 409.512 159.919C409.373 159.654 409.163 159.449 408.881 159.305C408.599 159.161 408.25 159.089 407.835 159.089C407.448 159.089 407.107 159.156 406.814 159.289C406.526 159.421 406.299 159.596 406.133 159.812C405.973 160.027 405.893 160.26 405.893 160.509H404.357C404.357 160.188 404.44 159.87 404.606 159.554C404.772 159.239 405.01 158.954 405.32 158.699C405.635 158.439 406.012 158.234 406.449 158.085C406.891 157.93 407.384 157.853 407.926 157.853C408.579 157.853 409.155 157.963 409.653 158.185C410.156 158.406 410.549 158.741 410.832 159.189C411.119 159.632 411.263 160.188 411.263 160.857V165.041C411.263 165.34 411.288 165.658 411.338 165.996C411.393 166.333 411.473 166.624 411.579 166.867V167H409.977C409.899 166.823 409.838 166.588 409.794 166.294C409.75 165.996 409.728 165.719 409.728 165.464ZM409.993 161.555L410.01 162.634H408.458C408.02 162.634 407.63 162.67 407.287 162.742C406.944 162.808 406.656 162.91 406.424 163.049C406.191 163.187 406.014 163.361 405.893 163.572C405.771 163.777 405.71 164.017 405.71 164.294C405.71 164.576 405.774 164.833 405.901 165.066C406.028 165.298 406.219 165.484 406.474 165.622C406.734 165.755 407.052 165.821 407.428 165.821C407.899 165.821 408.314 165.722 408.673 165.522C409.033 165.323 409.318 165.08 409.528 164.792C409.744 164.504 409.86 164.225 409.877 163.954L410.533 164.692C410.494 164.925 410.389 165.182 410.217 165.464C410.046 165.747 409.816 166.018 409.528 166.278C409.246 166.532 408.909 166.745 408.516 166.917C408.128 167.083 407.691 167.166 407.204 167.166C406.595 167.166 406.061 167.047 405.602 166.809C405.148 166.571 404.794 166.253 404.54 165.854C404.291 165.451 404.166 165 404.166 164.501C404.166 164.02 404.26 163.597 404.448 163.231C404.636 162.861 404.908 162.554 405.262 162.31C405.616 162.061 406.042 161.873 406.54 161.746C407.038 161.618 407.594 161.555 408.208 161.555H409.993ZM413.67 154.25H415.214V165.257L415.082 167H413.67V154.25ZM421.282 162.435V162.609C421.282 163.262 421.205 163.868 421.05 164.427C420.895 164.98 420.668 165.462 420.369 165.871C420.07 166.281 419.705 166.599 419.273 166.826C418.842 167.053 418.347 167.166 417.788 167.166C417.218 167.166 416.717 167.069 416.285 166.875C415.859 166.676 415.499 166.391 415.206 166.021C414.913 165.65 414.678 165.201 414.5 164.676C414.329 164.15 414.21 163.558 414.144 162.899V162.136C414.21 161.472 414.329 160.877 414.5 160.351C414.678 159.825 414.913 159.377 415.206 159.006C415.499 158.63 415.859 158.345 416.285 158.151C416.711 157.952 417.207 157.853 417.771 157.853C418.335 157.853 418.836 157.963 419.273 158.185C419.711 158.4 420.076 158.71 420.369 159.114C420.668 159.518 420.895 160.002 421.05 160.567C421.205 161.126 421.282 161.748 421.282 162.435ZM419.738 162.609V162.435C419.738 161.986 419.697 161.566 419.614 161.173C419.531 160.774 419.398 160.426 419.215 160.127C419.033 159.823 418.792 159.585 418.493 159.413C418.194 159.236 417.826 159.147 417.389 159.147C417.002 159.147 416.664 159.214 416.376 159.347C416.094 159.479 415.854 159.659 415.654 159.886C415.455 160.108 415.292 160.362 415.165 160.65C415.043 160.932 414.951 161.225 414.891 161.53V163.53C414.979 163.918 415.123 164.291 415.322 164.651C415.527 165.005 415.798 165.296 416.136 165.522C416.479 165.749 416.902 165.863 417.406 165.863C417.821 165.863 418.175 165.78 418.468 165.614C418.767 165.442 419.008 165.207 419.19 164.908C419.379 164.609 419.517 164.264 419.605 163.871C419.694 163.478 419.738 163.057 419.738 162.609ZM426.819 165.904C427.184 165.904 427.522 165.83 427.832 165.68C428.141 165.531 428.396 165.326 428.595 165.066C428.794 164.8 428.908 164.499 428.936 164.161H430.396C430.369 164.692 430.189 165.188 429.857 165.647C429.53 166.101 429.102 166.469 428.57 166.751C428.039 167.028 427.455 167.166 426.819 167.166C426.144 167.166 425.554 167.047 425.051 166.809C424.553 166.571 424.138 166.245 423.806 165.83C423.479 165.415 423.233 164.939 423.067 164.402C422.906 163.86 422.826 163.287 422.826 162.684V162.335C422.826 161.732 422.906 161.162 423.067 160.625C423.233 160.083 423.479 159.604 423.806 159.189C424.138 158.774 424.553 158.447 425.051 158.209C425.554 157.972 426.144 157.853 426.819 157.853C427.522 157.853 428.136 157.996 428.662 158.284C429.187 158.566 429.6 158.954 429.898 159.446C430.203 159.933 430.369 160.487 430.396 161.106H428.936C428.908 160.736 428.803 160.401 428.62 160.102C428.443 159.803 428.2 159.565 427.89 159.388C427.585 159.206 427.228 159.114 426.819 159.114C426.348 159.114 425.953 159.208 425.632 159.396C425.316 159.579 425.065 159.828 424.876 160.144C424.694 160.453 424.561 160.799 424.478 161.181C424.401 161.557 424.362 161.942 424.362 162.335V162.684C424.362 163.076 424.401 163.464 424.478 163.846C424.556 164.228 424.686 164.573 424.868 164.883C425.056 165.193 425.308 165.442 425.624 165.63C425.944 165.813 426.343 165.904 426.819 165.904Z" fill="white"/>
<rect width="38" height="24" transform="translate(71.1069 149)" fill="#0500FF"/>
<path d="M82.7275 165.464V160.841C82.7275 160.487 82.6556 160.18 82.5117 159.919C82.3734 159.654 82.1631 159.449 81.8809 159.305C81.5986 159.161 81.25 159.089 80.835 159.089C80.4476 159.089 80.1073 159.156 79.814 159.289C79.5262 159.421 79.2993 159.596 79.1333 159.812C78.9728 160.027 78.8926 160.26 78.8926 160.509H77.3569C77.3569 160.188 77.4399 159.87 77.606 159.554C77.772 159.239 78.0099 158.954 78.3198 158.699C78.6353 158.439 79.0116 158.234 79.4487 158.085C79.8914 157.93 80.384 157.853 80.9263 157.853C81.5793 157.853 82.1548 157.963 82.6528 158.185C83.1564 158.406 83.5493 158.741 83.8315 159.189C84.1193 159.632 84.2632 160.188 84.2632 160.857V165.041C84.2632 165.34 84.2881 165.658 84.3379 165.996C84.3932 166.333 84.4735 166.624 84.5786 166.867V167H82.9766C82.8991 166.823 82.8382 166.588 82.7939 166.294C82.7497 165.996 82.7275 165.719 82.7275 165.464ZM82.9932 161.555L83.0098 162.634H81.4575C81.0203 162.634 80.6302 162.67 80.2871 162.742C79.944 162.808 79.6562 162.91 79.4238 163.049C79.1914 163.187 79.0143 163.361 78.8926 163.572C78.7708 163.777 78.71 164.017 78.71 164.294C78.71 164.576 78.7736 164.833 78.9009 165.066C79.0282 165.298 79.2191 165.484 79.4736 165.622C79.7337 165.755 80.0519 165.821 80.4282 165.821C80.8986 165.821 81.3136 165.722 81.6733 165.522C82.033 165.323 82.318 165.08 82.5283 164.792C82.7441 164.504 82.8604 164.225 82.877 163.954L83.5327 164.692C83.494 164.925 83.3888 165.182 83.2173 165.464C83.0457 165.747 82.8161 166.018 82.5283 166.278C82.2461 166.532 81.9085 166.745 81.5156 166.917C81.1283 167.083 80.6911 167.166 80.2041 167.166C79.5954 167.166 79.0614 167.047 78.6021 166.809C78.1483 166.571 77.7941 166.253 77.5396 165.854C77.2905 165.451 77.166 165 77.166 164.501C77.166 164.02 77.2601 163.597 77.4482 163.231C77.6364 162.861 77.9076 162.554 78.2617 162.31C78.6159 162.061 79.042 161.873 79.54 161.746C80.0381 161.618 80.5942 161.555 81.2085 161.555H82.9932ZM86.6704 154.25H88.2144V165.257L88.0815 167H86.6704V154.25ZM94.2822 162.435V162.609C94.2822 163.262 94.2048 163.868 94.0498 164.427C93.8949 164.98 93.668 165.462 93.3691 165.871C93.0703 166.281 92.7051 166.599 92.2734 166.826C91.8418 167.053 91.3465 167.166 90.7876 167.166C90.2176 167.166 89.7168 167.069 89.2852 166.875C88.859 166.676 88.4993 166.391 88.2061 166.021C87.9128 165.65 87.6776 165.201 87.5005 164.676C87.3289 164.15 87.21 163.558 87.1436 162.899V162.136C87.21 161.472 87.3289 160.877 87.5005 160.351C87.6776 159.825 87.9128 159.377 88.2061 159.006C88.4993 158.63 88.859 158.345 89.2852 158.151C89.7113 157.952 90.2065 157.853 90.771 157.853C91.3354 157.853 91.8363 157.963 92.2734 158.185C92.7106 158.4 93.0758 158.71 93.3691 159.114C93.668 159.518 93.8949 160.002 94.0498 160.567C94.2048 161.126 94.2822 161.748 94.2822 162.435ZM92.7383 162.609V162.435C92.7383 161.986 92.6968 161.566 92.6138 161.173C92.5308 160.774 92.3979 160.426 92.2153 160.127C92.0327 159.823 91.792 159.585 91.4932 159.413C91.1943 159.236 90.8263 159.147 90.3892 159.147C90.0018 159.147 89.6642 159.214 89.3765 159.347C89.0942 159.479 88.8535 159.659 88.6543 159.886C88.4551 160.108 88.2918 160.362 88.1646 160.65C88.0428 160.932 87.9515 161.225 87.8906 161.53V163.53C87.9792 163.918 88.123 164.291 88.3223 164.651C88.527 165.005 88.7982 165.296 89.1357 165.522C89.4788 165.749 89.9022 165.863 90.4058 165.863C90.8208 165.863 91.175 165.78 91.4683 165.614C91.7671 165.442 92.0078 165.207 92.1904 164.908C92.3786 164.609 92.5169 164.264 92.6055 163.871C92.694 163.478 92.7383 163.057 92.7383 162.609ZM99.8188 165.904C100.184 165.904 100.522 165.83 100.832 165.68C101.141 165.531 101.396 165.326 101.595 165.066C101.794 164.8 101.908 164.499 101.936 164.161H103.396C103.369 164.692 103.189 165.188 102.857 165.647C102.53 166.101 102.102 166.469 101.57 166.751C101.039 167.028 100.455 167.166 99.8188 167.166C99.1437 167.166 98.5544 167.047 98.0508 166.809C97.5527 166.571 97.1377 166.245 96.8057 165.83C96.4792 165.415 96.2329 164.939 96.0669 164.402C95.9064 163.86 95.8262 163.287 95.8262 162.684V162.335C95.8262 161.732 95.9064 161.162 96.0669 160.625C96.2329 160.083 96.4792 159.604 96.8057 159.189C97.1377 158.774 97.5527 158.447 98.0508 158.209C98.5544 157.972 99.1437 157.853 99.8188 157.853C100.522 157.853 101.136 157.996 101.662 158.284C102.187 158.566 102.6 158.954 102.898 159.446C103.203 159.933 103.369 160.487 103.396 161.106H101.936C101.908 160.736 101.803 160.401 101.62 160.102C101.443 159.803 101.2 159.565 100.89 159.388C100.585 159.206 100.228 159.114 99.8188 159.114C99.3485 159.114 98.9528 159.208 98.6318 159.396C98.3164 159.579 98.0646 159.828 97.8765 160.144C97.6938 160.453 97.561 160.799 97.478 161.181C97.4006 161.557 97.3618 161.942 97.3618 162.335V162.684C97.3618 163.076 97.4006 163.464 97.478 163.846C97.5555 164.228 97.6855 164.573 97.8682 164.883C98.0563 165.193 98.3081 165.442 98.6235 165.63C98.9445 165.813 99.3429 165.904 99.8188 165.904Z" fill="white"/>
<rect width="88" height="24" transform="translate(725.107 150)" fill="#FF0000"/>
<path d="M730.871 163.609V163.418C730.871 162.771 730.965 162.17 731.153 161.617C731.341 161.058 731.612 160.574 731.966 160.164C732.32 159.749 732.749 159.428 733.253 159.201C733.757 158.969 734.321 158.853 734.946 158.853C735.577 158.853 736.144 158.969 736.648 159.201C737.157 159.428 737.589 159.749 737.943 160.164C738.303 160.574 738.576 161.058 738.765 161.617C738.953 162.17 739.047 162.771 739.047 163.418V163.609C739.047 164.256 738.953 164.857 738.765 165.41C738.576 165.964 738.303 166.448 737.943 166.863C737.589 167.272 737.16 167.593 736.656 167.826C736.158 168.053 735.594 168.166 734.963 168.166C734.332 168.166 733.765 168.053 733.261 167.826C732.758 167.593 732.326 167.272 731.966 166.863C731.612 166.448 731.341 165.964 731.153 165.41C730.965 164.857 730.871 164.256 730.871 163.609ZM732.406 163.418V163.609C732.406 164.057 732.459 164.48 732.564 164.879C732.669 165.272 732.827 165.62 733.037 165.925C733.253 166.229 733.521 166.47 733.842 166.647C734.163 166.819 734.537 166.904 734.963 166.904C735.383 166.904 735.751 166.819 736.067 166.647C736.388 166.47 736.653 166.229 736.864 165.925C737.074 165.62 737.232 165.272 737.337 164.879C737.448 164.48 737.503 164.057 737.503 163.609V163.418C737.503 162.975 737.448 162.557 737.337 162.165C737.232 161.766 737.071 161.415 736.855 161.11C736.645 160.8 736.38 160.557 736.059 160.38C735.743 160.203 735.372 160.114 734.946 160.114C734.526 160.114 734.155 160.203 733.834 160.38C733.519 160.557 733.253 160.8 733.037 161.11C732.827 161.415 732.669 161.766 732.564 162.165C732.459 162.557 732.406 162.975 732.406 163.418ZM742.508 160.43V168H740.973V159.019H742.467L742.508 160.43ZM745.314 158.969L745.306 160.396C745.178 160.369 745.057 160.352 744.94 160.347C744.83 160.336 744.702 160.33 744.559 160.33C744.204 160.33 743.892 160.385 743.621 160.496C743.349 160.607 743.12 160.762 742.932 160.961C742.743 161.16 742.594 161.398 742.483 161.675C742.378 161.946 742.309 162.245 742.276 162.571L741.844 162.82C741.844 162.278 741.897 161.769 742.002 161.293C742.113 160.817 742.281 160.396 742.508 160.031C742.735 159.66 743.023 159.373 743.372 159.168C743.726 158.958 744.146 158.853 744.633 158.853C744.744 158.853 744.871 158.866 745.015 158.894C745.159 158.916 745.259 158.941 745.314 158.969ZM748.402 159.019V168H746.858V159.019H748.402ZM746.742 156.636C746.742 156.387 746.816 156.177 746.966 156.005C747.121 155.834 747.348 155.748 747.646 155.748C747.94 155.748 748.164 155.834 748.319 156.005C748.479 156.177 748.56 156.387 748.56 156.636C748.56 156.874 748.479 157.079 748.319 157.25C748.164 157.417 747.94 157.5 747.646 157.5C747.348 157.5 747.121 157.417 746.966 157.25C746.816 157.079 746.742 156.874 746.742 156.636ZM756.686 159.019H758.081V167.809C758.081 168.6 757.92 169.276 757.599 169.834C757.278 170.393 756.83 170.817 756.254 171.104C755.684 171.398 755.026 171.544 754.279 171.544C753.969 171.544 753.604 171.495 753.183 171.395C752.768 171.301 752.359 171.138 751.955 170.905C751.556 170.678 751.221 170.371 750.95 169.984L751.755 169.071C752.132 169.525 752.525 169.84 752.934 170.017C753.349 170.194 753.759 170.283 754.163 170.283C754.65 170.283 755.07 170.191 755.424 170.009C755.778 169.826 756.052 169.555 756.246 169.195C756.445 168.841 756.545 168.404 756.545 167.884V160.994L756.686 159.019ZM750.502 163.609V163.435C750.502 162.748 750.582 162.126 750.743 161.567C750.909 161.002 751.144 160.518 751.448 160.114C751.758 159.71 752.132 159.4 752.569 159.185C753.006 158.963 753.499 158.853 754.046 158.853C754.611 158.853 755.103 158.952 755.524 159.151C755.95 159.345 756.31 159.63 756.603 160.006C756.902 160.377 757.137 160.825 757.309 161.351C757.48 161.877 757.599 162.472 757.666 163.136V163.899C757.605 164.558 757.486 165.15 757.309 165.676C757.137 166.201 756.902 166.65 756.603 167.021C756.31 167.391 755.95 167.676 755.524 167.875C755.098 168.069 754.6 168.166 754.03 168.166C753.493 168.166 753.006 168.053 752.569 167.826C752.137 167.599 751.766 167.281 751.457 166.871C751.147 166.462 750.909 165.98 750.743 165.427C750.582 164.868 750.502 164.262 750.502 163.609ZM752.038 163.435V163.609C752.038 164.057 752.082 164.478 752.17 164.871C752.264 165.264 752.406 165.609 752.594 165.908C752.787 166.207 753.034 166.442 753.333 166.614C753.631 166.78 753.988 166.863 754.403 166.863C754.912 166.863 755.333 166.755 755.665 166.539C755.997 166.323 756.26 166.038 756.454 165.684C756.653 165.33 756.808 164.945 756.918 164.53V162.53C756.858 162.225 756.764 161.932 756.636 161.65C756.514 161.362 756.354 161.108 756.155 160.886C755.961 160.659 755.72 160.479 755.433 160.347C755.145 160.214 754.807 160.147 754.42 160.147C753.999 160.147 753.637 160.236 753.333 160.413C753.034 160.585 752.787 160.823 752.594 161.127C752.406 161.426 752.264 161.774 752.17 162.173C752.082 162.566 752.038 162.986 752.038 163.435ZM762.082 159.019V168H760.538V159.019H762.082ZM760.421 156.636C760.421 156.387 760.496 156.177 760.646 156.005C760.8 155.834 761.027 155.748 761.326 155.748C761.619 155.748 761.844 155.834 761.999 156.005C762.159 156.177 762.239 156.387 762.239 156.636C762.239 156.874 762.159 157.079 761.999 157.25C761.844 157.417 761.619 157.5 761.326 157.5C761.027 157.5 760.8 157.417 760.646 157.25C760.496 157.079 760.421 156.874 760.421 156.636ZM766.083 160.936V168H764.547V159.019H766L766.083 160.936ZM765.717 163.169L765.078 163.144C765.084 162.53 765.175 161.963 765.352 161.442C765.529 160.917 765.778 160.46 766.099 160.073C766.42 159.685 766.802 159.387 767.245 159.176C767.693 158.96 768.188 158.853 768.73 158.853C769.173 158.853 769.572 158.913 769.926 159.035C770.28 159.151 770.582 159.34 770.831 159.6C771.085 159.86 771.279 160.197 771.412 160.612C771.544 161.022 771.611 161.523 771.611 162.115V168H770.067V162.098C770.067 161.628 769.998 161.251 769.859 160.969C769.721 160.681 769.519 160.474 769.253 160.347C768.988 160.214 768.661 160.147 768.274 160.147C767.892 160.147 767.543 160.228 767.228 160.388C766.918 160.549 766.65 160.77 766.423 161.052C766.201 161.334 766.027 161.658 765.9 162.023C765.778 162.383 765.717 162.765 765.717 163.169ZM779.289 155.914L774.25 169.038H772.931L777.978 155.914H779.289ZM786.262 166.464V161.841C786.262 161.487 786.19 161.18 786.046 160.919C785.908 160.654 785.697 160.449 785.415 160.305C785.133 160.161 784.784 160.089 784.369 160.089C783.982 160.089 783.641 160.156 783.348 160.289C783.06 160.421 782.833 160.596 782.667 160.812C782.507 161.027 782.427 161.26 782.427 161.509H780.891C780.891 161.188 780.974 160.87 781.14 160.554C781.306 160.239 781.544 159.954 781.854 159.699C782.169 159.439 782.546 159.234 782.983 159.085C783.426 158.93 783.918 158.853 784.46 158.853C785.113 158.853 785.689 158.963 786.187 159.185C786.691 159.406 787.083 159.741 787.366 160.189C787.653 160.632 787.797 161.188 787.797 161.857V166.041C787.797 166.34 787.822 166.658 787.872 166.996C787.927 167.333 788.008 167.624 788.113 167.867V168H786.511C786.433 167.823 786.372 167.588 786.328 167.294C786.284 166.996 786.262 166.719 786.262 166.464ZM786.527 162.555L786.544 163.634H784.992C784.555 163.634 784.164 163.67 783.821 163.742C783.478 163.808 783.19 163.91 782.958 164.049C782.726 164.187 782.549 164.361 782.427 164.572C782.305 164.777 782.244 165.017 782.244 165.294C782.244 165.576 782.308 165.833 782.435 166.066C782.562 166.298 782.753 166.484 783.008 166.622C783.268 166.755 783.586 166.821 783.962 166.821C784.433 166.821 784.848 166.722 785.208 166.522C785.567 166.323 785.852 166.08 786.062 165.792C786.278 165.504 786.395 165.225 786.411 164.954L787.067 165.692C787.028 165.925 786.923 166.182 786.751 166.464C786.58 166.747 786.35 167.018 786.062 167.278C785.78 167.532 785.443 167.745 785.05 167.917C784.662 168.083 784.225 168.166 783.738 168.166C783.13 168.166 782.596 168.047 782.136 167.809C781.682 167.571 781.328 167.253 781.074 166.854C780.825 166.451 780.7 166 780.7 165.501C780.7 165.02 780.794 164.597 780.982 164.231C781.171 163.861 781.442 163.554 781.796 163.31C782.15 163.061 782.576 162.873 783.074 162.746C783.572 162.618 784.128 162.555 784.743 162.555H786.527ZM790.205 155.25H791.749V166.257L791.616 168H790.205V155.25ZM797.816 163.435V163.609C797.816 164.262 797.739 164.868 797.584 165.427C797.429 165.98 797.202 166.462 796.903 166.871C796.604 167.281 796.239 167.599 795.808 167.826C795.376 168.053 794.881 168.166 794.322 168.166C793.752 168.166 793.251 168.069 792.819 167.875C792.393 167.676 792.034 167.391 791.74 167.021C791.447 166.65 791.212 166.201 791.035 165.676C790.863 165.15 790.744 164.558 790.678 163.899V163.136C790.744 162.472 790.863 161.877 791.035 161.351C791.212 160.825 791.447 160.377 791.74 160.006C792.034 159.63 792.393 159.345 792.819 159.151C793.245 158.952 793.741 158.853 794.305 158.853C794.87 158.853 795.37 158.963 795.808 159.185C796.245 159.4 796.61 159.71 796.903 160.114C797.202 160.518 797.429 161.002 797.584 161.567C797.739 162.126 797.816 162.748 797.816 163.435ZM796.272 163.609V163.435C796.272 162.986 796.231 162.566 796.148 162.173C796.065 161.774 795.932 161.426 795.75 161.127C795.567 160.823 795.326 160.585 795.027 160.413C794.729 160.236 794.361 160.147 793.923 160.147C793.536 160.147 793.198 160.214 792.911 160.347C792.628 160.479 792.388 160.659 792.188 160.886C791.989 161.108 791.826 161.362 791.699 161.65C791.577 161.932 791.486 162.225 791.425 162.53V164.53C791.513 164.918 791.657 165.291 791.856 165.651C792.061 166.005 792.332 166.296 792.67 166.522C793.013 166.749 793.436 166.863 793.94 166.863C794.355 166.863 794.709 166.78 795.002 166.614C795.301 166.442 795.542 166.207 795.725 165.908C795.913 165.609 796.051 165.264 796.14 164.871C796.228 164.478 796.272 164.057 796.272 163.609ZM803.353 166.904C803.718 166.904 804.056 166.83 804.366 166.68C804.676 166.531 804.93 166.326 805.129 166.066C805.329 165.8 805.442 165.499 805.47 165.161H806.931C806.903 165.692 806.723 166.188 806.391 166.647C806.065 167.101 805.636 167.469 805.104 167.751C804.573 168.028 803.989 168.166 803.353 168.166C802.678 168.166 802.089 168.047 801.585 167.809C801.087 167.571 800.672 167.245 800.34 166.83C800.013 166.415 799.767 165.939 799.601 165.402C799.441 164.86 799.36 164.287 799.36 163.684V163.335C799.36 162.732 799.441 162.162 799.601 161.625C799.767 161.083 800.013 160.604 800.34 160.189C800.672 159.774 801.087 159.447 801.585 159.209C802.089 158.972 802.678 158.853 803.353 158.853C804.056 158.853 804.67 158.996 805.196 159.284C805.722 159.566 806.134 159.954 806.433 160.446C806.737 160.933 806.903 161.487 806.931 162.106H805.47C805.442 161.736 805.337 161.401 805.154 161.102C804.977 160.803 804.734 160.565 804.424 160.388C804.119 160.206 803.763 160.114 803.353 160.114C802.883 160.114 802.487 160.208 802.166 160.396C801.851 160.579 801.599 160.828 801.411 161.144C801.228 161.453 801.095 161.799 801.012 162.181C800.935 162.557 800.896 162.942 800.896 163.335V163.684C800.896 164.076 800.935 164.464 801.012 164.846C801.09 165.228 801.22 165.573 801.402 165.883C801.59 166.193 801.842 166.442 802.158 166.63C802.479 166.813 802.877 166.904 803.353 166.904Z" fill="white"/>
<rect width="88" height="24" transform="translate(503.107 149)" fill="#FF0000"/>
<path d="M508.871 162.609V162.418C508.871 161.771 508.965 161.17 509.153 160.617C509.341 160.058 509.612 159.574 509.966 159.164C510.32 158.749 510.749 158.428 511.253 158.201C511.757 157.969 512.321 157.853 512.946 157.853C513.577 157.853 514.144 157.969 514.648 158.201C515.157 158.428 515.589 158.749 515.943 159.164C516.303 159.574 516.576 160.058 516.765 160.617C516.953 161.17 517.047 161.771 517.047 162.418V162.609C517.047 163.256 516.953 163.857 516.765 164.41C516.576 164.964 516.303 165.448 515.943 165.863C515.589 166.272 515.16 166.593 514.656 166.826C514.158 167.053 513.594 167.166 512.963 167.166C512.332 167.166 511.765 167.053 511.261 166.826C510.758 166.593 510.326 166.272 509.966 165.863C509.612 165.448 509.341 164.964 509.153 164.41C508.965 163.857 508.871 163.256 508.871 162.609ZM510.406 162.418V162.609C510.406 163.057 510.459 163.48 510.564 163.879C510.669 164.272 510.827 164.62 511.037 164.925C511.253 165.229 511.521 165.47 511.842 165.647C512.163 165.819 512.537 165.904 512.963 165.904C513.383 165.904 513.751 165.819 514.067 165.647C514.388 165.47 514.653 165.229 514.864 164.925C515.074 164.62 515.232 164.272 515.337 163.879C515.448 163.48 515.503 163.057 515.503 162.609V162.418C515.503 161.975 515.448 161.557 515.337 161.165C515.232 160.766 515.071 160.415 514.855 160.11C514.645 159.8 514.38 159.557 514.059 159.38C513.743 159.203 513.372 159.114 512.946 159.114C512.526 159.114 512.155 159.203 511.834 159.38C511.519 159.557 511.253 159.8 511.037 160.11C510.827 160.415 510.669 160.766 510.564 161.165C510.459 161.557 510.406 161.975 510.406 162.418ZM520.508 159.43V167H518.973V158.019H520.467L520.508 159.43ZM523.314 157.969L523.306 159.396C523.178 159.369 523.057 159.352 522.94 159.347C522.83 159.336 522.702 159.33 522.559 159.33C522.204 159.33 521.892 159.385 521.621 159.496C521.349 159.607 521.12 159.762 520.932 159.961C520.743 160.16 520.594 160.398 520.483 160.675C520.378 160.946 520.309 161.245 520.276 161.571L519.844 161.82C519.844 161.278 519.897 160.769 520.002 160.293C520.113 159.817 520.281 159.396 520.508 159.031C520.735 158.66 521.023 158.373 521.372 158.168C521.726 157.958 522.146 157.853 522.633 157.853C522.744 157.853 522.871 157.866 523.015 157.894C523.159 157.916 523.259 157.941 523.314 157.969ZM526.402 158.019V167H524.858V158.019H526.402ZM524.742 155.636C524.742 155.387 524.816 155.177 524.966 155.005C525.121 154.834 525.348 154.748 525.646 154.748C525.94 154.748 526.164 154.834 526.319 155.005C526.479 155.177 526.56 155.387 526.56 155.636C526.56 155.874 526.479 156.079 526.319 156.25C526.164 156.417 525.94 156.5 525.646 156.5C525.348 156.5 525.121 156.417 524.966 156.25C524.816 156.079 524.742 155.874 524.742 155.636ZM534.686 158.019H536.081V166.809C536.081 167.6 535.92 168.276 535.599 168.834C535.278 169.393 534.83 169.817 534.254 170.104C533.684 170.398 533.026 170.544 532.279 170.544C531.969 170.544 531.604 170.495 531.183 170.395C530.768 170.301 530.359 170.138 529.955 169.905C529.556 169.678 529.221 169.371 528.95 168.984L529.755 168.071C530.132 168.525 530.525 168.84 530.934 169.017C531.349 169.194 531.759 169.283 532.163 169.283C532.65 169.283 533.07 169.191 533.424 169.009C533.778 168.826 534.052 168.555 534.246 168.195C534.445 167.841 534.545 167.404 534.545 166.884V159.994L534.686 158.019ZM528.502 162.609V162.435C528.502 161.748 528.582 161.126 528.743 160.567C528.909 160.002 529.144 159.518 529.448 159.114C529.758 158.71 530.132 158.4 530.569 158.185C531.006 157.963 531.499 157.853 532.046 157.853C532.611 157.853 533.103 157.952 533.524 158.151C533.95 158.345 534.31 158.63 534.603 159.006C534.902 159.377 535.137 159.825 535.309 160.351C535.48 160.877 535.599 161.472 535.666 162.136V162.899C535.605 163.558 535.486 164.15 535.309 164.676C535.137 165.201 534.902 165.65 534.603 166.021C534.31 166.391 533.95 166.676 533.524 166.875C533.098 167.069 532.6 167.166 532.03 167.166C531.493 167.166 531.006 167.053 530.569 166.826C530.137 166.599 529.766 166.281 529.457 165.871C529.147 165.462 528.909 164.98 528.743 164.427C528.582 163.868 528.502 163.262 528.502 162.609ZM530.038 162.435V162.609C530.038 163.057 530.082 163.478 530.17 163.871C530.264 164.264 530.406 164.609 530.594 164.908C530.787 165.207 531.034 165.442 531.333 165.614C531.631 165.78 531.988 165.863 532.403 165.863C532.912 165.863 533.333 165.755 533.665 165.539C533.997 165.323 534.26 165.038 534.454 164.684C534.653 164.33 534.808 163.945 534.918 163.53V161.53C534.858 161.225 534.764 160.932 534.636 160.65C534.514 160.362 534.354 160.108 534.155 159.886C533.961 159.659 533.72 159.479 533.433 159.347C533.145 159.214 532.807 159.147 532.42 159.147C531.999 159.147 531.637 159.236 531.333 159.413C531.034 159.585 530.787 159.823 530.594 160.127C530.406 160.426 530.264 160.774 530.17 161.173C530.082 161.566 530.038 161.986 530.038 162.435ZM540.082 158.019V167H538.538V158.019H540.082ZM538.421 155.636C538.421 155.387 538.496 155.177 538.646 155.005C538.8 154.834 539.027 154.748 539.326 154.748C539.619 154.748 539.844 154.834 539.999 155.005C540.159 155.177 540.239 155.387 540.239 155.636C540.239 155.874 540.159 156.079 539.999 156.25C539.844 156.417 539.619 156.5 539.326 156.5C539.027 156.5 538.8 156.417 538.646 156.25C538.496 156.079 538.421 155.874 538.421 155.636ZM544.083 159.936V167H542.547V158.019H544L544.083 159.936ZM543.717 162.169L543.078 162.144C543.084 161.53 543.175 160.963 543.352 160.442C543.529 159.917 543.778 159.46 544.099 159.073C544.42 158.685 544.802 158.387 545.245 158.176C545.693 157.96 546.188 157.853 546.73 157.853C547.173 157.853 547.572 157.913 547.926 158.035C548.28 158.151 548.582 158.34 548.831 158.6C549.085 158.86 549.279 159.197 549.412 159.612C549.544 160.022 549.611 160.523 549.611 161.115V167H548.067V161.098C548.067 160.628 547.998 160.251 547.859 159.969C547.721 159.681 547.519 159.474 547.253 159.347C546.988 159.214 546.661 159.147 546.274 159.147C545.892 159.147 545.543 159.228 545.228 159.388C544.918 159.549 544.65 159.77 544.423 160.052C544.201 160.334 544.027 160.658 543.9 161.023C543.778 161.383 543.717 161.765 543.717 162.169ZM557.289 154.914L552.25 168.038H550.931L555.978 154.914H557.289ZM564.262 165.464V160.841C564.262 160.487 564.19 160.18 564.046 159.919C563.908 159.654 563.697 159.449 563.415 159.305C563.133 159.161 562.784 159.089 562.369 159.089C561.982 159.089 561.641 159.156 561.348 159.289C561.06 159.421 560.833 159.596 560.667 159.812C560.507 160.027 560.427 160.26 560.427 160.509H558.891C558.891 160.188 558.974 159.87 559.14 159.554C559.306 159.239 559.544 158.954 559.854 158.699C560.169 158.439 560.546 158.234 560.983 158.085C561.426 157.93 561.918 157.853 562.46 157.853C563.113 157.853 563.689 157.963 564.187 158.185C564.691 158.406 565.083 158.741 565.366 159.189C565.653 159.632 565.797 160.188 565.797 160.857V165.041C565.797 165.34 565.822 165.658 565.872 165.996C565.927 166.333 566.008 166.624 566.113 166.867V167H564.511C564.433 166.823 564.372 166.588 564.328 166.294C564.284 165.996 564.262 165.719 564.262 165.464ZM564.527 161.555L564.544 162.634H562.992C562.555 162.634 562.164 162.67 561.821 162.742C561.478 162.808 561.19 162.91 560.958 163.049C560.726 163.187 560.549 163.361 560.427 163.572C560.305 163.777 560.244 164.017 560.244 164.294C560.244 164.576 560.308 164.833 560.435 165.066C560.562 165.298 560.753 165.484 561.008 165.622C561.268 165.755 561.586 165.821 561.962 165.821C562.433 165.821 562.848 165.722 563.208 165.522C563.567 165.323 563.852 165.08 564.062 164.792C564.278 164.504 564.395 164.225 564.411 163.954L565.067 164.692C565.028 164.925 564.923 165.182 564.751 165.464C564.58 165.747 564.35 166.018 564.062 166.278C563.78 166.532 563.443 166.745 563.05 166.917C562.662 167.083 562.225 167.166 561.738 167.166C561.13 167.166 560.596 167.047 560.136 166.809C559.682 166.571 559.328 166.253 559.074 165.854C558.825 165.451 558.7 165 558.7 164.501C558.7 164.02 558.794 163.597 558.982 163.231C559.171 162.861 559.442 162.554 559.796 162.31C560.15 162.061 560.576 161.873 561.074 161.746C561.572 161.618 562.128 161.555 562.743 161.555H564.527ZM568.205 154.25H569.749V165.257L569.616 167H568.205V154.25ZM575.816 162.435V162.609C575.816 163.262 575.739 163.868 575.584 164.427C575.429 164.98 575.202 165.462 574.903 165.871C574.604 166.281 574.239 166.599 573.808 166.826C573.376 167.053 572.881 167.166 572.322 167.166C571.752 167.166 571.251 167.069 570.819 166.875C570.393 166.676 570.034 166.391 569.74 166.021C569.447 165.65 569.212 165.201 569.035 164.676C568.863 164.15 568.744 163.558 568.678 162.899V162.136C568.744 161.472 568.863 160.877 569.035 160.351C569.212 159.825 569.447 159.377 569.74 159.006C570.034 158.63 570.393 158.345 570.819 158.151C571.245 157.952 571.741 157.853 572.305 157.853C572.87 157.853 573.37 157.963 573.808 158.185C574.245 158.4 574.61 158.71 574.903 159.114C575.202 159.518 575.429 160.002 575.584 160.567C575.739 161.126 575.816 161.748 575.816 162.435ZM574.272 162.609V162.435C574.272 161.986 574.231 161.566 574.148 161.173C574.065 160.774 573.932 160.426 573.75 160.127C573.567 159.823 573.326 159.585 573.027 159.413C572.729 159.236 572.361 159.147 571.923 159.147C571.536 159.147 571.198 159.214 570.911 159.347C570.628 159.479 570.388 159.659 570.188 159.886C569.989 160.108 569.826 160.362 569.699 160.65C569.577 160.932 569.486 161.225 569.425 161.53V163.53C569.513 163.918 569.657 164.291 569.856 164.651C570.061 165.005 570.332 165.296 570.67 165.522C571.013 165.749 571.436 165.863 571.94 165.863C572.355 165.863 572.709 165.78 573.002 165.614C573.301 165.442 573.542 165.207 573.725 164.908C573.913 164.609 574.051 164.264 574.14 163.871C574.228 163.478 574.272 163.057 574.272 162.609ZM581.353 165.904C581.718 165.904 582.056 165.83 582.366 165.68C582.676 165.531 582.93 165.326 583.129 165.066C583.329 164.8 583.442 164.499 583.47 164.161H584.931C584.903 164.692 584.723 165.188 584.391 165.647C584.065 166.101 583.636 166.469 583.104 166.751C582.573 167.028 581.989 167.166 581.353 167.166C580.678 167.166 580.089 167.047 579.585 166.809C579.087 166.571 578.672 166.245 578.34 165.83C578.013 165.415 577.767 164.939 577.601 164.402C577.441 163.86 577.36 163.287 577.36 162.684V162.335C577.36 161.732 577.441 161.162 577.601 160.625C577.767 160.083 578.013 159.604 578.34 159.189C578.672 158.774 579.087 158.447 579.585 158.209C580.089 157.972 580.678 157.853 581.353 157.853C582.056 157.853 582.67 157.996 583.196 158.284C583.722 158.566 584.134 158.954 584.433 159.446C584.737 159.933 584.903 160.487 584.931 161.106H583.47C583.442 160.736 583.337 160.401 583.154 160.102C582.977 159.803 582.734 159.565 582.424 159.388C582.119 159.206 581.763 159.114 581.353 159.114C580.883 159.114 580.487 159.208 580.166 159.396C579.851 159.579 579.599 159.828 579.411 160.144C579.228 160.453 579.095 160.799 579.012 161.181C578.935 161.557 578.896 161.942 578.896 162.335V162.684C578.896 163.076 578.935 163.464 579.012 163.846C579.09 164.228 579.22 164.573 579.402 164.883C579.59 165.193 579.842 165.442 580.158 165.63C580.479 165.813 580.877 165.904 581.353 165.904Z" fill="white"/>
<g opacity="0.4">
<path d="M57 294.7C141.5 294.7 161 275.2 161 221.7V160.2" stroke="black"/>
<circle cx="161" cy="221.2" r="5" fill="#FF0000"/>
<circle cx="161" cy="162.2" r="5" fill="#FF0000"/>
<rect width="88" height="24" transform="translate(181.107 151)" fill="#FF0000"/>
<path d="M186.871 164.609V164.418C186.871 163.771 186.965 163.17 187.153 162.617C187.341 162.058 187.612 161.574 187.966 161.164C188.32 160.749 188.749 160.428 189.253 160.201C189.757 159.969 190.321 159.853 190.946 159.853C191.577 159.853 192.144 159.969 192.648 160.201C193.157 160.428 193.589 160.749 193.943 161.164C194.303 161.574 194.576 162.058 194.765 162.617C194.953 163.17 195.047 163.771 195.047 164.418V164.609C195.047 165.256 194.953 165.857 194.765 166.41C194.576 166.964 194.303 167.448 193.943 167.863C193.589 168.272 193.16 168.593 192.656 168.826C192.158 169.053 191.594 169.166 190.963 169.166C190.332 169.166 189.765 169.053 189.261 168.826C188.758 168.593 188.326 168.272 187.966 167.863C187.612 167.448 187.341 166.964 187.153 166.41C186.965 165.857 186.871 165.256 186.871 164.609ZM188.406 164.418V164.609C188.406 165.057 188.459 165.48 188.564 165.879C188.669 166.272 188.827 166.62 189.037 166.925C189.253 167.229 189.521 167.47 189.842 167.647C190.163 167.819 190.537 167.904 190.963 167.904C191.383 167.904 191.751 167.819 192.067 167.647C192.388 167.47 192.653 167.229 192.864 166.925C193.074 166.62 193.232 166.272 193.337 165.879C193.448 165.48 193.503 165.057 193.503 164.609V164.418C193.503 163.975 193.448 163.557 193.337 163.165C193.232 162.766 193.071 162.415 192.855 162.11C192.645 161.8 192.38 161.557 192.059 161.38C191.743 161.203 191.372 161.114 190.946 161.114C190.526 161.114 190.155 161.203 189.834 161.38C189.519 161.557 189.253 161.8 189.037 162.11C188.827 162.415 188.669 162.766 188.564 163.165C188.459 163.557 188.406 163.975 188.406 164.418ZM198.508 161.43V169H196.973V160.019H198.467L198.508 161.43ZM201.314 159.969L201.306 161.396C201.178 161.369 201.057 161.352 200.94 161.347C200.83 161.336 200.702 161.33 200.559 161.33C200.204 161.33 199.892 161.385 199.621 161.496C199.349 161.607 199.12 161.762 198.932 161.961C198.743 162.16 198.594 162.398 198.483 162.675C198.378 162.946 198.309 163.245 198.276 163.571L197.844 163.82C197.844 163.278 197.897 162.769 198.002 162.293C198.113 161.817 198.281 161.396 198.508 161.031C198.735 160.66 199.023 160.373 199.372 160.168C199.726 159.958 200.146 159.853 200.633 159.853C200.744 159.853 200.871 159.866 201.015 159.894C201.159 159.916 201.259 159.941 201.314 159.969ZM204.402 160.019V169H202.858V160.019H204.402ZM202.742 157.636C202.742 157.387 202.816 157.177 202.966 157.005C203.121 156.834 203.348 156.748 203.646 156.748C203.94 156.748 204.164 156.834 204.319 157.005C204.479 157.177 204.56 157.387 204.56 157.636C204.56 157.874 204.479 158.079 204.319 158.25C204.164 158.417 203.94 158.5 203.646 158.5C203.348 158.5 203.121 158.417 202.966 158.25C202.816 158.079 202.742 157.874 202.742 157.636ZM212.686 160.019H214.081V168.809C214.081 169.6 213.92 170.276 213.599 170.834C213.278 171.393 212.83 171.817 212.254 172.104C211.684 172.398 211.026 172.544 210.279 172.544C209.969 172.544 209.604 172.495 209.183 172.395C208.768 172.301 208.359 172.138 207.955 171.905C207.556 171.678 207.221 171.371 206.95 170.984L207.755 170.071C208.132 170.525 208.525 170.84 208.934 171.017C209.349 171.194 209.759 171.283 210.163 171.283C210.65 171.283 211.07 171.191 211.424 171.009C211.778 170.826 212.052 170.555 212.246 170.195C212.445 169.841 212.545 169.404 212.545 168.884V161.994L212.686 160.019ZM206.502 164.609V164.435C206.502 163.748 206.582 163.126 206.743 162.567C206.909 162.002 207.144 161.518 207.448 161.114C207.758 160.71 208.132 160.4 208.569 160.185C209.006 159.963 209.499 159.853 210.046 159.853C210.611 159.853 211.103 159.952 211.524 160.151C211.95 160.345 212.31 160.63 212.603 161.006C212.902 161.377 213.137 161.825 213.309 162.351C213.48 162.877 213.599 163.472 213.666 164.136V164.899C213.605 165.558 213.486 166.15 213.309 166.676C213.137 167.201 212.902 167.65 212.603 168.021C212.31 168.391 211.95 168.676 211.524 168.875C211.098 169.069 210.6 169.166 210.03 169.166C209.493 169.166 209.006 169.053 208.569 168.826C208.137 168.599 207.766 168.281 207.457 167.871C207.147 167.462 206.909 166.98 206.743 166.427C206.582 165.868 206.502 165.262 206.502 164.609ZM208.038 164.435V164.609C208.038 165.057 208.082 165.478 208.17 165.871C208.264 166.264 208.406 166.609 208.594 166.908C208.787 167.207 209.034 167.442 209.333 167.614C209.631 167.78 209.988 167.863 210.403 167.863C210.912 167.863 211.333 167.755 211.665 167.539C211.997 167.323 212.26 167.038 212.454 166.684C212.653 166.33 212.808 165.945 212.918 165.53V163.53C212.858 163.225 212.764 162.932 212.636 162.65C212.514 162.362 212.354 162.108 212.155 161.886C211.961 161.659 211.72 161.479 211.433 161.347C211.145 161.214 210.807 161.147 210.42 161.147C209.999 161.147 209.637 161.236 209.333 161.413C209.034 161.585 208.787 161.823 208.594 162.127C208.406 162.426 208.264 162.774 208.17 163.173C208.082 163.566 208.038 163.986 208.038 164.435ZM218.082 160.019V169H216.538V160.019H218.082ZM216.421 157.636C216.421 157.387 216.496 157.177 216.646 157.005C216.8 156.834 217.027 156.748 217.326 156.748C217.619 156.748 217.844 156.834 217.999 157.005C218.159 157.177 218.239 157.387 218.239 157.636C218.239 157.874 218.159 158.079 217.999 158.25C217.844 158.417 217.619 158.5 217.326 158.5C217.027 158.5 216.8 158.417 216.646 158.25C216.496 158.079 216.421 157.874 216.421 157.636ZM222.083 161.936V169H220.547V160.019H222L222.083 161.936ZM221.717 164.169L221.078 164.144C221.084 163.53 221.175 162.963 221.352 162.442C221.529 161.917 221.778 161.46 222.099 161.073C222.42 160.685 222.802 160.387 223.245 160.176C223.693 159.96 224.188 159.853 224.73 159.853C225.173 159.853 225.572 159.913 225.926 160.035C226.28 160.151 226.582 160.34 226.831 160.6C227.085 160.86 227.279 161.197 227.412 161.612C227.544 162.022 227.611 162.523 227.611 163.115V169H226.067V163.098C226.067 162.628 225.998 162.251 225.859 161.969C225.721 161.681 225.519 161.474 225.253 161.347C224.988 161.214 224.661 161.147 224.274 161.147C223.892 161.147 223.543 161.228 223.228 161.388C222.918 161.549 222.65 161.77 222.423 162.052C222.201 162.334 222.027 162.658 221.9 163.023C221.778 163.383 221.717 163.765 221.717 164.169ZM235.289 156.914L230.25 170.038H228.931L233.978 156.914H235.289ZM242.262 167.464V162.841C242.262 162.487 242.19 162.18 242.046 161.919C241.908 161.654 241.697 161.449 241.415 161.305C241.133 161.161 240.784 161.089 240.369 161.089C239.982 161.089 239.641 161.156 239.348 161.289C239.06 161.421 238.833 161.596 238.667 161.812C238.507 162.027 238.427 162.26 238.427 162.509H236.891C236.891 162.188 236.974 161.87 237.14 161.554C237.306 161.239 237.544 160.954 237.854 160.699C238.169 160.439 238.546 160.234 238.983 160.085C239.426 159.93 239.918 159.853 240.46 159.853C241.113 159.853 241.689 159.963 242.187 160.185C242.691 160.406 243.083 160.741 243.366 161.189C243.653 161.632 243.797 162.188 243.797 162.857V167.041C243.797 167.34 243.822 167.658 243.872 167.996C243.927 168.333 244.008 168.624 244.113 168.867V169H242.511C242.433 168.823 242.372 168.588 242.328 168.294C242.284 167.996 242.262 167.719 242.262 167.464ZM242.527 163.555L242.544 164.634H240.992C240.555 164.634 240.164 164.67 239.821 164.742C239.478 164.808 239.19 164.91 238.958 165.049C238.726 165.187 238.549 165.361 238.427 165.572C238.305 165.777 238.244 166.017 238.244 166.294C238.244 166.576 238.308 166.833 238.435 167.066C238.562 167.298 238.753 167.484 239.008 167.622C239.268 167.755 239.586 167.821 239.962 167.821C240.433 167.821 240.848 167.722 241.208 167.522C241.567 167.323 241.852 167.08 242.062 166.792C242.278 166.504 242.395 166.225 242.411 165.954L243.067 166.692C243.028 166.925 242.923 167.182 242.751 167.464C242.58 167.747 242.35 168.018 242.062 168.278C241.78 168.532 241.443 168.745 241.05 168.917C240.662 169.083 240.225 169.166 239.738 169.166C239.13 169.166 238.596 169.047 238.136 168.809C237.682 168.571 237.328 168.253 237.074 167.854C236.825 167.451 236.7 167 236.7 166.501C236.7 166.02 236.794 165.597 236.982 165.231C237.171 164.861 237.442 164.554 237.796 164.31C238.15 164.061 238.576 163.873 239.074 163.746C239.572 163.618 240.128 163.555 240.743 163.555H242.527ZM246.205 156.25H247.749V167.257L247.616 169H246.205V156.25ZM253.816 164.435V164.609C253.816 165.262 253.739 165.868 253.584 166.427C253.429 166.98 253.202 167.462 252.903 167.871C252.604 168.281 252.239 168.599 251.808 168.826C251.376 169.053 250.881 169.166 250.322 169.166C249.752 169.166 249.251 169.069 248.819 168.875C248.393 168.676 248.034 168.391 247.74 168.021C247.447 167.65 247.212 167.201 247.035 166.676C246.863 166.15 246.744 165.558 246.678 164.899V164.136C246.744 163.472 246.863 162.877 247.035 162.351C247.212 161.825 247.447 161.377 247.74 161.006C248.034 160.63 248.393 160.345 248.819 160.151C249.245 159.952 249.741 159.853 250.305 159.853C250.87 159.853 251.37 159.963 251.808 160.185C252.245 160.4 252.61 160.71 252.903 161.114C253.202 161.518 253.429 162.002 253.584 162.567C253.739 163.126 253.816 163.748 253.816 164.435ZM252.272 164.609V164.435C252.272 163.986 252.231 163.566 252.148 163.173C252.065 162.774 251.932 162.426 251.75 162.127C251.567 161.823 251.326 161.585 251.027 161.413C250.729 161.236 250.361 161.147 249.923 161.147C249.536 161.147 249.198 161.214 248.911 161.347C248.628 161.479 248.388 161.659 248.188 161.886C247.989 162.108 247.826 162.362 247.699 162.65C247.577 162.932 247.486 163.225 247.425 163.53V165.53C247.513 165.918 247.657 166.291 247.856 166.651C248.061 167.005 248.332 167.296 248.67 167.522C249.013 167.749 249.436 167.863 249.94 167.863C250.355 167.863 250.709 167.78 251.002 167.614C251.301 167.442 251.542 167.207 251.725 166.908C251.913 166.609 252.051 166.264 252.14 165.871C252.228 165.478 252.272 165.057 252.272 164.609ZM259.353 167.904C259.718 167.904 260.056 167.83 260.366 167.68C260.676 167.531 260.93 167.326 261.129 167.066C261.329 166.8 261.442 166.499 261.47 166.161H262.931C262.903 166.692 262.723 167.188 262.391 167.647C262.065 168.101 261.636 168.469 261.104 168.751C260.573 169.028 259.989 169.166 259.353 169.166C258.678 169.166 258.089 169.047 257.585 168.809C257.087 168.571 256.672 168.245 256.34 167.83C256.013 167.415 255.767 166.939 255.601 166.402C255.441 165.86 255.36 165.287 255.36 164.684V164.335C255.36 163.732 255.441 163.162 255.601 162.625C255.767 162.083 256.013 161.604 256.34 161.189C256.672 160.774 257.087 160.447 257.585 160.209C258.089 159.972 258.678 159.853 259.353 159.853C260.056 159.853 260.67 159.996 261.196 160.284C261.722 160.566 262.134 160.954 262.433 161.446C262.737 161.933 262.903 162.487 262.931 163.106H261.47C261.442 162.736 261.337 162.401 261.154 162.102C260.977 161.803 260.734 161.565 260.424 161.388C260.119 161.206 259.763 161.114 259.353 161.114C258.883 161.114 258.487 161.208 258.166 161.396C257.851 161.579 257.599 161.828 257.411 162.144C257.228 162.453 257.095 162.799 257.012 163.181C256.935 163.557 256.896 163.942 256.896 164.335V164.684C256.896 165.076 256.935 165.464 257.012 165.846C257.09 166.228 257.22 166.573 257.402 166.883C257.59 167.193 257.842 167.442 258.158 167.63C258.479 167.813 258.877 167.904 259.353 167.904Z" fill="white"/>
</g>
</svg>
