<svg width="900" height="500" viewBox="0 0 900 500" fill="none" xmlns="http://www.w3.org/2000/svg">
<rect width="900" height="500" fill="white"/>
<rect width="88" height="24" transform="translate(397 103)" fill="#FF0000"/>
<path d="M402.764 116.609V116.418C402.764 115.771 402.858 115.17 403.046 114.617C403.234 114.058 403.505 113.574 403.859 113.164C404.214 112.749 404.642 112.428 405.146 112.201C405.65 111.969 406.214 111.853 406.839 111.853C407.47 111.853 408.037 111.969 408.541 112.201C409.05 112.428 409.482 112.749 409.836 113.164C410.196 113.574 410.47 114.058 410.658 114.617C410.846 115.17 410.94 115.771 410.94 116.418V116.609C410.94 117.256 410.846 117.857 410.658 118.41C410.47 118.964 410.196 119.448 409.836 119.863C409.482 120.272 409.053 120.593 408.549 120.826C408.051 121.053 407.487 121.166 406.856 121.166C406.225 121.166 405.658 121.053 405.154 120.826C404.651 120.593 404.219 120.272 403.859 119.863C403.505 119.448 403.234 118.964 403.046 118.41C402.858 117.857 402.764 117.256 402.764 116.609ZM404.299 116.418V116.609C404.299 117.057 404.352 117.48 404.457 117.879C404.562 118.272 404.72 118.62 404.93 118.925C405.146 119.229 405.414 119.47 405.735 119.647C406.056 119.819 406.43 119.904 406.856 119.904C407.277 119.904 407.645 119.819 407.96 119.647C408.281 119.47 408.547 119.229 408.757 118.925C408.967 118.62 409.125 118.272 409.23 117.879C409.341 117.48 409.396 117.057 409.396 116.609V116.418C409.396 115.975 409.341 115.557 409.23 115.165C409.125 114.766 408.964 114.415 408.749 114.11C408.538 113.8 408.273 113.557 407.952 113.38C407.636 113.203 407.265 113.114 406.839 113.114C406.419 113.114 406.048 113.203 405.727 113.38C405.412 113.557 405.146 113.8 404.93 114.11C404.72 114.415 404.562 114.766 404.457 115.165C404.352 115.557 404.299 115.975 404.299 116.418ZM414.401 113.43V121H412.866V112.019H414.36L414.401 113.43ZM417.207 111.969L417.199 113.396C417.071 113.369 416.95 113.352 416.833 113.347C416.723 113.336 416.596 113.33 416.452 113.33C416.097 113.33 415.785 113.385 415.514 113.496C415.243 113.607 415.013 113.762 414.825 113.961C414.637 114.16 414.487 114.398 414.376 114.675C414.271 114.946 414.202 115.245 414.169 115.571L413.737 115.82C413.737 115.278 413.79 114.769 413.895 114.293C414.006 113.817 414.174 113.396 414.401 113.031C414.628 112.66 414.916 112.373 415.265 112.168C415.619 111.958 416.039 111.853 416.526 111.853C416.637 111.853 416.764 111.866 416.908 111.894C417.052 111.916 417.152 111.941 417.207 111.969ZM420.295 112.019V121H418.751V112.019H420.295ZM418.635 109.636C418.635 109.387 418.709 109.177 418.859 109.005C419.014 108.834 419.241 108.748 419.54 108.748C419.833 108.748 420.057 108.834 420.212 109.005C420.372 109.177 420.453 109.387 420.453 109.636C420.453 109.874 420.372 110.079 420.212 110.25C420.057 110.417 419.833 110.5 419.54 110.5C419.241 110.5 419.014 110.417 418.859 110.25C418.709 110.079 418.635 109.874 418.635 109.636ZM428.579 112.019H429.974V120.809C429.974 121.6 429.813 122.276 429.492 122.834C429.171 123.393 428.723 123.817 428.147 124.104C427.577 124.398 426.919 124.544 426.172 124.544C425.862 124.544 425.497 124.495 425.076 124.395C424.661 124.301 424.252 124.138 423.848 123.905C423.449 123.678 423.114 123.371 422.843 122.984L423.648 122.071C424.025 122.525 424.418 122.84 424.827 123.017C425.242 123.194 425.652 123.283 426.056 123.283C426.543 123.283 426.963 123.191 427.317 123.009C427.672 122.826 427.945 122.555 428.139 122.195C428.338 121.841 428.438 121.404 428.438 120.884V113.994L428.579 112.019ZM422.395 116.609V116.435C422.395 115.748 422.475 115.126 422.636 114.567C422.802 114.002 423.037 113.518 423.341 113.114C423.651 112.71 424.025 112.4 424.462 112.185C424.899 111.963 425.392 111.853 425.939 111.853C426.504 111.853 426.996 111.952 427.417 112.151C427.843 112.345 428.203 112.63 428.496 113.006C428.795 113.377 429.03 113.825 429.202 114.351C429.373 114.877 429.492 115.472 429.559 116.136V116.899C429.498 117.558 429.379 118.15 429.202 118.676C429.03 119.201 428.795 119.65 428.496 120.021C428.203 120.391 427.843 120.676 427.417 120.875C426.991 121.069 426.493 121.166 425.923 121.166C425.386 121.166 424.899 121.053 424.462 120.826C424.03 120.599 423.66 120.281 423.35 119.871C423.04 119.462 422.802 118.98 422.636 118.427C422.475 117.868 422.395 117.262 422.395 116.609ZM423.931 116.435V116.609C423.931 117.057 423.975 117.478 424.063 117.871C424.158 118.264 424.299 118.609 424.487 118.908C424.681 119.207 424.927 119.442 425.226 119.614C425.524 119.78 425.881 119.863 426.296 119.863C426.806 119.863 427.226 119.755 427.558 119.539C427.89 119.323 428.153 119.038 428.347 118.684C428.546 118.33 428.701 117.945 428.812 117.53V115.53C428.751 115.225 428.657 114.932 428.529 114.65C428.408 114.362 428.247 114.108 428.048 113.886C427.854 113.659 427.613 113.479 427.326 113.347C427.038 113.214 426.7 113.147 426.313 113.147C425.892 113.147 425.53 113.236 425.226 113.413C424.927 113.585 424.681 113.823 424.487 114.127C424.299 114.426 424.158 114.774 424.063 115.173C423.975 115.566 423.931 115.986 423.931 116.435ZM433.975 112.019V121H432.431V112.019H433.975ZM432.314 109.636C432.314 109.387 432.389 109.177 432.539 109.005C432.694 108.834 432.92 108.748 433.219 108.748C433.513 108.748 433.737 108.834 433.892 109.005C434.052 109.177 434.132 109.387 434.132 109.636C434.132 109.874 434.052 110.079 433.892 110.25C433.737 110.417 433.513 110.5 433.219 110.5C432.92 110.5 432.694 110.417 432.539 110.25C432.389 110.079 432.314 109.874 432.314 109.636ZM437.976 113.936V121H436.44V112.019H437.893L437.976 113.936ZM437.61 116.169L436.971 116.144C436.977 115.53 437.068 114.963 437.245 114.442C437.422 113.917 437.671 113.46 437.992 113.073C438.313 112.685 438.695 112.387 439.138 112.176C439.586 111.96 440.081 111.853 440.624 111.853C441.066 111.853 441.465 111.913 441.819 112.035C442.173 112.151 442.475 112.34 442.724 112.6C442.978 112.86 443.172 113.197 443.305 113.612C443.438 114.022 443.504 114.523 443.504 115.115V121H441.96V115.098C441.96 114.628 441.891 114.251 441.752 113.969C441.614 113.681 441.412 113.474 441.146 113.347C440.881 113.214 440.554 113.147 440.167 113.147C439.785 113.147 439.437 113.228 439.121 113.388C438.811 113.549 438.543 113.77 438.316 114.052C438.095 114.334 437.92 114.658 437.793 115.023C437.671 115.383 437.61 115.765 437.61 116.169ZM451.182 108.914L446.144 122.038H444.824L449.871 108.914H451.182ZM458.155 119.464V114.841C458.155 114.487 458.083 114.18 457.939 113.919C457.801 113.654 457.59 113.449 457.308 113.305C457.026 113.161 456.677 113.089 456.262 113.089C455.875 113.089 455.535 113.156 455.241 113.289C454.953 113.421 454.727 113.596 454.561 113.812C454.4 114.027 454.32 114.26 454.32 114.509H452.784C452.784 114.188 452.867 113.87 453.033 113.554C453.199 113.239 453.437 112.954 453.747 112.699C454.062 112.439 454.439 112.234 454.876 112.085C455.319 111.93 455.811 111.853 456.354 111.853C457.007 111.853 457.582 111.963 458.08 112.185C458.584 112.406 458.977 112.741 459.259 113.189C459.547 113.632 459.69 114.188 459.69 114.857V119.041C459.69 119.34 459.715 119.658 459.765 119.996C459.82 120.333 459.901 120.624 460.006 120.867V121H458.404C458.326 120.823 458.265 120.588 458.221 120.294C458.177 119.996 458.155 119.719 458.155 119.464ZM458.42 115.555L458.437 116.634H456.885C456.448 116.634 456.057 116.67 455.714 116.742C455.371 116.808 455.083 116.91 454.851 117.049C454.619 117.187 454.442 117.361 454.32 117.572C454.198 117.777 454.137 118.017 454.137 118.294C454.137 118.576 454.201 118.833 454.328 119.066C454.455 119.298 454.646 119.484 454.901 119.622C455.161 119.755 455.479 119.821 455.855 119.821C456.326 119.821 456.741 119.722 457.101 119.522C457.46 119.323 457.745 119.08 457.956 118.792C458.171 118.504 458.288 118.225 458.304 117.954L458.96 118.692C458.921 118.925 458.816 119.182 458.645 119.464C458.473 119.747 458.243 120.018 457.956 120.278C457.673 120.532 457.336 120.745 456.943 120.917C456.556 121.083 456.118 121.166 455.631 121.166C455.023 121.166 454.489 121.047 454.029 120.809C453.576 120.571 453.221 120.253 452.967 119.854C452.718 119.451 452.593 119 452.593 118.501C452.593 118.02 452.687 117.597 452.875 117.231C453.064 116.861 453.335 116.554 453.689 116.31C454.043 116.061 454.469 115.873 454.967 115.746C455.465 115.618 456.021 115.555 456.636 115.555H458.42ZM462.098 108.25H463.642V119.257L463.509 121H462.098V108.25ZM469.709 116.435V116.609C469.709 117.262 469.632 117.868 469.477 118.427C469.322 118.98 469.095 119.462 468.796 119.871C468.498 120.281 468.132 120.599 467.701 120.826C467.269 121.053 466.774 121.166 466.215 121.166C465.645 121.166 465.144 121.069 464.712 120.875C464.286 120.676 463.927 120.391 463.633 120.021C463.34 119.65 463.105 119.201 462.928 118.676C462.756 118.15 462.637 117.558 462.571 116.899V116.136C462.637 115.472 462.756 114.877 462.928 114.351C463.105 113.825 463.34 113.377 463.633 113.006C463.927 112.63 464.286 112.345 464.712 112.151C465.139 111.952 465.634 111.853 466.198 111.853C466.763 111.853 467.264 111.963 467.701 112.185C468.138 112.4 468.503 112.71 468.796 113.114C469.095 113.518 469.322 114.002 469.477 114.567C469.632 115.126 469.709 115.748 469.709 116.435ZM468.166 116.609V116.435C468.166 115.986 468.124 115.566 468.041 115.173C467.958 114.774 467.825 114.426 467.643 114.127C467.46 113.823 467.219 113.585 466.92 113.413C466.622 113.236 466.254 113.147 465.816 113.147C465.429 113.147 465.091 113.214 464.804 113.347C464.521 113.479 464.281 113.659 464.082 113.886C463.882 114.108 463.719 114.362 463.592 114.65C463.47 114.932 463.379 115.225 463.318 115.53V117.53C463.406 117.918 463.55 118.291 463.75 118.651C463.954 119.005 464.225 119.296 464.563 119.522C464.906 119.749 465.329 119.863 465.833 119.863C466.248 119.863 466.602 119.78 466.896 119.614C467.194 119.442 467.435 119.207 467.618 118.908C467.806 118.609 467.944 118.264 468.033 117.871C468.121 117.478 468.166 117.057 468.166 116.609ZM475.246 119.904C475.611 119.904 475.949 119.83 476.259 119.68C476.569 119.531 476.823 119.326 477.022 119.066C477.222 118.8 477.335 118.499 477.363 118.161H478.824C478.796 118.692 478.616 119.188 478.284 119.647C477.958 120.101 477.529 120.469 476.998 120.751C476.466 121.028 475.882 121.166 475.246 121.166C474.571 121.166 473.982 121.047 473.478 120.809C472.98 120.571 472.565 120.245 472.233 119.83C471.906 119.415 471.66 118.939 471.494 118.402C471.334 117.86 471.253 117.287 471.253 116.684V116.335C471.253 115.732 471.334 115.162 471.494 114.625C471.66 114.083 471.906 113.604 472.233 113.189C472.565 112.774 472.98 112.447 473.478 112.209C473.982 111.972 474.571 111.853 475.246 111.853C475.949 111.853 476.563 111.996 477.089 112.284C477.615 112.566 478.027 112.954 478.326 113.446C478.63 113.933 478.796 114.487 478.824 115.106H477.363C477.335 114.736 477.23 114.401 477.047 114.102C476.87 113.803 476.627 113.565 476.317 113.388C476.013 113.206 475.656 113.114 475.246 113.114C474.776 113.114 474.38 113.208 474.059 113.396C473.744 113.579 473.492 113.828 473.304 114.144C473.121 114.453 472.988 114.799 472.905 115.181C472.828 115.557 472.789 115.942 472.789 116.335V116.684C472.789 117.076 472.828 117.464 472.905 117.846C472.983 118.228 473.113 118.573 473.295 118.883C473.484 119.193 473.735 119.442 474.051 119.63C474.372 119.813 474.77 119.904 475.246 119.904Z" fill="white"/>
<rect width="88" height="24" transform="translate(745 104)" fill="#FF0000"/>
<path d="M750.764 117.609V117.418C750.764 116.771 750.858 116.17 751.046 115.617C751.234 115.058 751.505 114.574 751.859 114.164C752.214 113.749 752.642 113.428 753.146 113.201C753.65 112.969 754.214 112.853 754.839 112.853C755.47 112.853 756.037 112.969 756.541 113.201C757.05 113.428 757.482 113.749 757.836 114.164C758.196 114.574 758.47 115.058 758.658 115.617C758.846 116.17 758.94 116.771 758.94 117.418V117.609C758.94 118.256 758.846 118.857 758.658 119.41C758.47 119.964 758.196 120.448 757.836 120.863C757.482 121.272 757.053 121.593 756.549 121.826C756.051 122.053 755.487 122.166 754.856 122.166C754.225 122.166 753.658 122.053 753.154 121.826C752.651 121.593 752.219 121.272 751.859 120.863C751.505 120.448 751.234 119.964 751.046 119.41C750.858 118.857 750.764 118.256 750.764 117.609ZM752.299 117.418V117.609C752.299 118.057 752.352 118.48 752.457 118.879C752.562 119.272 752.72 119.62 752.93 119.925C753.146 120.229 753.414 120.47 753.735 120.647C754.056 120.819 754.43 120.904 754.856 120.904C755.277 120.904 755.645 120.819 755.96 120.647C756.281 120.47 756.547 120.229 756.757 119.925C756.967 119.62 757.125 119.272 757.23 118.879C757.341 118.48 757.396 118.057 757.396 117.609V117.418C757.396 116.975 757.341 116.557 757.23 116.165C757.125 115.766 756.964 115.415 756.749 115.11C756.538 114.8 756.273 114.557 755.952 114.38C755.636 114.203 755.265 114.114 754.839 114.114C754.419 114.114 754.048 114.203 753.727 114.38C753.412 114.557 753.146 114.8 752.93 115.11C752.72 115.415 752.562 115.766 752.457 116.165C752.352 116.557 752.299 116.975 752.299 117.418ZM762.401 114.43V122H760.866V113.019H762.36L762.401 114.43ZM765.207 112.969L765.199 114.396C765.071 114.369 764.95 114.352 764.833 114.347C764.723 114.336 764.596 114.33 764.452 114.33C764.097 114.33 763.785 114.385 763.514 114.496C763.243 114.607 763.013 114.762 762.825 114.961C762.637 115.16 762.487 115.398 762.376 115.675C762.271 115.946 762.202 116.245 762.169 116.571L761.737 116.82C761.737 116.278 761.79 115.769 761.895 115.293C762.006 114.817 762.174 114.396 762.401 114.031C762.628 113.66 762.916 113.373 763.265 113.168C763.619 112.958 764.039 112.853 764.526 112.853C764.637 112.853 764.764 112.866 764.908 112.894C765.052 112.916 765.152 112.941 765.207 112.969ZM768.295 113.019V122H766.751V113.019H768.295ZM766.635 110.636C766.635 110.387 766.709 110.177 766.859 110.005C767.014 109.834 767.241 109.748 767.54 109.748C767.833 109.748 768.057 109.834 768.212 110.005C768.372 110.177 768.453 110.387 768.453 110.636C768.453 110.874 768.372 111.079 768.212 111.25C768.057 111.417 767.833 111.5 767.54 111.5C767.241 111.5 767.014 111.417 766.859 111.25C766.709 111.079 766.635 110.874 766.635 110.636ZM776.579 113.019H777.974V121.809C777.974 122.6 777.813 123.276 777.492 123.834C777.171 124.393 776.723 124.817 776.147 125.104C775.577 125.398 774.919 125.544 774.172 125.544C773.862 125.544 773.497 125.495 773.076 125.395C772.661 125.301 772.252 125.138 771.848 124.905C771.449 124.678 771.114 124.371 770.843 123.984L771.648 123.071C772.025 123.525 772.418 123.84 772.827 124.017C773.242 124.194 773.652 124.283 774.056 124.283C774.543 124.283 774.963 124.191 775.317 124.009C775.672 123.826 775.945 123.555 776.139 123.195C776.338 122.841 776.438 122.404 776.438 121.884V114.994L776.579 113.019ZM770.395 117.609V117.435C770.395 116.748 770.475 116.126 770.636 115.567C770.802 115.002 771.037 114.518 771.341 114.114C771.651 113.71 772.025 113.4 772.462 113.185C772.899 112.963 773.392 112.853 773.939 112.853C774.504 112.853 774.996 112.952 775.417 113.151C775.843 113.345 776.203 113.63 776.496 114.006C776.795 114.377 777.03 114.825 777.202 115.351C777.373 115.877 777.492 116.472 777.559 117.136V117.899C777.498 118.558 777.379 119.15 777.202 119.676C777.03 120.201 776.795 120.65 776.496 121.021C776.203 121.391 775.843 121.676 775.417 121.875C774.991 122.069 774.493 122.166 773.923 122.166C773.386 122.166 772.899 122.053 772.462 121.826C772.03 121.599 771.66 121.281 771.35 120.871C771.04 120.462 770.802 119.98 770.636 119.427C770.475 118.868 770.395 118.262 770.395 117.609ZM771.931 117.435V117.609C771.931 118.057 771.975 118.478 772.063 118.871C772.158 119.264 772.299 119.609 772.487 119.908C772.681 120.207 772.927 120.442 773.226 120.614C773.524 120.78 773.881 120.863 774.296 120.863C774.806 120.863 775.226 120.755 775.558 120.539C775.89 120.323 776.153 120.038 776.347 119.684C776.546 119.33 776.701 118.945 776.812 118.53V116.53C776.751 116.225 776.657 115.932 776.529 115.65C776.408 115.362 776.247 115.108 776.048 114.886C775.854 114.659 775.613 114.479 775.326 114.347C775.038 114.214 774.7 114.147 774.313 114.147C773.892 114.147 773.53 114.236 773.226 114.413C772.927 114.585 772.681 114.823 772.487 115.127C772.299 115.426 772.158 115.774 772.063 116.173C771.975 116.566 771.931 116.986 771.931 117.435ZM781.975 113.019V122H780.431V113.019H781.975ZM780.314 110.636C780.314 110.387 780.389 110.177 780.539 110.005C780.694 109.834 780.92 109.748 781.219 109.748C781.513 109.748 781.737 109.834 781.892 110.005C782.052 110.177 782.132 110.387 782.132 110.636C782.132 110.874 782.052 111.079 781.892 111.25C781.737 111.417 781.513 111.5 781.219 111.5C780.92 111.5 780.694 111.417 780.539 111.25C780.389 111.079 780.314 110.874 780.314 110.636ZM785.976 114.936V122H784.44V113.019H785.893L785.976 114.936ZM785.61 117.169L784.971 117.144C784.977 116.53 785.068 115.963 785.245 115.442C785.422 114.917 785.671 114.46 785.992 114.073C786.313 113.685 786.695 113.387 787.138 113.176C787.586 112.96 788.081 112.853 788.624 112.853C789.066 112.853 789.465 112.913 789.819 113.035C790.173 113.151 790.475 113.34 790.724 113.6C790.978 113.86 791.172 114.197 791.305 114.612C791.438 115.022 791.504 115.523 791.504 116.115V122H789.96V116.098C789.96 115.628 789.891 115.251 789.752 114.969C789.614 114.681 789.412 114.474 789.146 114.347C788.881 114.214 788.554 114.147 788.167 114.147C787.785 114.147 787.437 114.228 787.121 114.388C786.811 114.549 786.543 114.77 786.316 115.052C786.095 115.334 785.92 115.658 785.793 116.023C785.671 116.383 785.61 116.765 785.61 117.169ZM799.182 109.914L794.144 123.038H792.824L797.871 109.914H799.182ZM806.155 120.464V115.841C806.155 115.487 806.083 115.18 805.939 114.919C805.801 114.654 805.59 114.449 805.308 114.305C805.026 114.161 804.677 114.089 804.262 114.089C803.875 114.089 803.535 114.156 803.241 114.289C802.953 114.421 802.727 114.596 802.561 114.812C802.4 115.027 802.32 115.26 802.32 115.509H800.784C800.784 115.188 800.867 114.87 801.033 114.554C801.199 114.239 801.437 113.954 801.747 113.699C802.062 113.439 802.439 113.234 802.876 113.085C803.319 112.93 803.811 112.853 804.354 112.853C805.007 112.853 805.582 112.963 806.08 113.185C806.584 113.406 806.977 113.741 807.259 114.189C807.547 114.632 807.69 115.188 807.69 115.857V120.041C807.69 120.34 807.715 120.658 807.765 120.996C807.82 121.333 807.901 121.624 808.006 121.867V122H806.404C806.326 121.823 806.265 121.588 806.221 121.294C806.177 120.996 806.155 120.719 806.155 120.464ZM806.42 116.555L806.437 117.634H804.885C804.448 117.634 804.057 117.67 803.714 117.742C803.371 117.808 803.083 117.91 802.851 118.049C802.619 118.187 802.442 118.361 802.32 118.572C802.198 118.777 802.137 119.017 802.137 119.294C802.137 119.576 802.201 119.833 802.328 120.066C802.455 120.298 802.646 120.484 802.901 120.622C803.161 120.755 803.479 120.821 803.855 120.821C804.326 120.821 804.741 120.722 805.101 120.522C805.46 120.323 805.745 120.08 805.956 119.792C806.171 119.504 806.288 119.225 806.304 118.954L806.96 119.692C806.921 119.925 806.816 120.182 806.645 120.464C806.473 120.747 806.243 121.018 805.956 121.278C805.673 121.532 805.336 121.745 804.943 121.917C804.556 122.083 804.118 122.166 803.631 122.166C803.023 122.166 802.489 122.047 802.029 121.809C801.576 121.571 801.221 121.253 800.967 120.854C800.718 120.451 800.593 120 800.593 119.501C800.593 119.02 800.687 118.597 800.875 118.231C801.064 117.861 801.335 117.554 801.689 117.31C802.043 117.061 802.469 116.873 802.967 116.746C803.465 116.618 804.021 116.555 804.636 116.555H806.42ZM810.098 109.25H811.642V120.257L811.509 122H810.098V109.25ZM817.709 117.435V117.609C817.709 118.262 817.632 118.868 817.477 119.427C817.322 119.98 817.095 120.462 816.796 120.871C816.498 121.281 816.132 121.599 815.701 121.826C815.269 122.053 814.774 122.166 814.215 122.166C813.645 122.166 813.144 122.069 812.712 121.875C812.286 121.676 811.927 121.391 811.633 121.021C811.34 120.65 811.105 120.201 810.928 119.676C810.756 119.15 810.637 118.558 810.571 117.899V117.136C810.637 116.472 810.756 115.877 810.928 115.351C811.105 114.825 811.34 114.377 811.633 114.006C811.927 113.63 812.286 113.345 812.712 113.151C813.139 112.952 813.634 112.853 814.198 112.853C814.763 112.853 815.264 112.963 815.701 113.185C816.138 113.4 816.503 113.71 816.796 114.114C817.095 114.518 817.322 115.002 817.477 115.567C817.632 116.126 817.709 116.748 817.709 117.435ZM816.166 117.609V117.435C816.166 116.986 816.124 116.566 816.041 116.173C815.958 115.774 815.825 115.426 815.643 115.127C815.46 114.823 815.219 114.585 814.92 114.413C814.622 114.236 814.254 114.147 813.816 114.147C813.429 114.147 813.091 114.214 812.804 114.347C812.521 114.479 812.281 114.659 812.082 114.886C811.882 115.108 811.719 115.362 811.592 115.65C811.47 115.932 811.379 116.225 811.318 116.53V118.53C811.406 118.918 811.55 119.291 811.75 119.651C811.954 120.005 812.225 120.296 812.563 120.522C812.906 120.749 813.329 120.863 813.833 120.863C814.248 120.863 814.602 120.78 814.896 120.614C815.194 120.442 815.435 120.207 815.618 119.908C815.806 119.609 815.944 119.264 816.033 118.871C816.121 118.478 816.166 118.057 816.166 117.609ZM823.246 120.904C823.611 120.904 823.949 120.83 824.259 120.68C824.569 120.531 824.823 120.326 825.022 120.066C825.222 119.8 825.335 119.499 825.363 119.161H826.824C826.796 119.692 826.616 120.188 826.284 120.647C825.958 121.101 825.529 121.469 824.998 121.751C824.466 122.028 823.882 122.166 823.246 122.166C822.571 122.166 821.982 122.047 821.478 121.809C820.98 121.571 820.565 121.245 820.233 120.83C819.906 120.415 819.66 119.939 819.494 119.402C819.334 118.86 819.253 118.287 819.253 117.684V117.335C819.253 116.732 819.334 116.162 819.494 115.625C819.66 115.083 819.906 114.604 820.233 114.189C820.565 113.774 820.98 113.447 821.478 113.209C821.982 112.972 822.571 112.853 823.246 112.853C823.949 112.853 824.563 112.996 825.089 113.284C825.615 113.566 826.027 113.954 826.326 114.446C826.63 114.933 826.796 115.487 826.824 116.106H825.363C825.335 115.736 825.23 115.401 825.047 115.102C824.87 114.803 824.627 114.565 824.317 114.388C824.013 114.206 823.656 114.114 823.246 114.114C822.776 114.114 822.38 114.208 822.059 114.396C821.744 114.579 821.492 114.828 821.304 115.144C821.121 115.453 820.988 115.799 820.905 116.181C820.828 116.557 820.789 116.942 820.789 117.335V117.684C820.789 118.076 820.828 118.464 820.905 118.846C820.983 119.228 821.113 119.573 821.295 119.883C821.484 120.193 821.735 120.442 822.051 120.63C822.372 120.813 822.77 120.904 823.246 120.904Z" fill="white"/>
<path d="M380.334 114.706V396.706" stroke="black"/>
<path d="M728 115V397" stroke="black"/>
<circle cx="380.334" cy="116.706" r="5" fill="#FF0000"/>
<circle cx="728" cy="117" r="5" fill="#FF0000"/>
<circle cx="380.334" cy="178.706" r="5" fill="#FF0000"/>
<circle cx="728" cy="179" r="5" fill="#FF0000"/>
<circle cx="380.334" cy="249.706" r="5" fill="#0500FF"/>
<circle cx="728" cy="250" r="5" fill="#0500FF"/>
<circle cx="380.334" cy="331.706" r="5" fill="#0500FF"/>
<circle cx="728" cy="332" r="5" fill="#0500FF"/>
<path d="M443.013 242.808C459.208 230.546 474.288 216.924 488.495 202.451C496.066 194.738 501.328 184.966 504.59 174.746C509.087 160.654 508.593 146.839 508.593 132.227C508.593 124.995 502.358 132.948 499.305 135.029C497.385 136.338 494.446 139.34 497.063 135.27C498.286 133.366 501.364 127.583 503.989 127.583C508.098 127.583 513.589 132.079 517.041 133.868C521.029 135.936 525.252 138.34 529.492 139.754" stroke="black" stroke-width="3" stroke-linecap="round"/>
<path d="M368.064 103C363.42 109.021 358.915 114.194 356.534 121.577C354.961 126.454 353.038 131.195 351.489 136.15C349.681 141.936 350.048 147.776 350.048 153.767C350.048 162.269 349.538 170.45 351.849 178.669C355.225 190.67 361.69 197.305 372.068 203.532C377.073 206.535 389.397 205.541 393.608 201.33C398.403 196.535 399.938 186.832 401.055 180.271C402.921 169.305 401.215 156.604 401.215 145.519C401.215 135.114 398.709 123.11 391.286 115.411C385.476 109.387 379.869 103.721 370.947 103.721" stroke="black" stroke-width="3" stroke-linecap="round"/>
<path d="M403.377 180.111C423.521 180.458 424.276 204.678 424.276 220.187C424.276 221.774 425.176 231.9 423.155 228.435C422.197 226.794 415.244 221.168 415.628 221.349C417.716 222.331 419.039 225.612 421.073 226.193C422.113 226.49 431.014 220.684 431.483 219.747" stroke="black" stroke-width="3" stroke-linecap="round"/>
<path d="M242 235.82C246.068 235.82 302.996 239.362 304.275 234.884C305.789 229.587 295.947 226.084 292.569 224.395C287.624 221.923 286.449 220.366 289.947 224.864C294.262 230.412 301.308 232.26 305.68 237.881C306.146 238.479 291.905 247.262 290.884 249.306" stroke="black" stroke-width="3" stroke-linecap="round"/>
<path d="M571 237.392C590.603 237.392 610.207 237.392 629.81 237.392C631.989 237.392 640.705 236.97 635.055 233.646C631.511 231.562 613.363 222.906 624.941 229.338C627.293 230.645 638.031 238.538 636.366 240.389C633.689 243.363 626.735 247.451 623.255 249.191" stroke="black" stroke-width="3" stroke-linecap="round"/>
<path d="M493.833 104.424C493.833 111.101 493.833 117.779 493.833 124.456C493.833 124.712 493.696 125.543 493.882 125.728C494.49 126.336 497.365 126.175 498.101 126.205C502.713 126.393 507.364 126.217 511.981 126.217C515.194 126.217 518.406 126.217 521.618 126.217C523.679 126.217 525.304 125.943 527.293 125.605C528.727 125.362 530.123 125.336 531.586 125.336C532.075 125.336 532.778 125.542 532.796 124.896C532.838 123.439 532.796 121.975 532.796 120.518C532.796 117.871 533.044 115.077 532.747 112.446C532.451 109.816 532.335 106.795 532.588 104.13C532.674 103.23 532.226 103.543 531.231 103.543C529.988 103.543 528.772 103.763 527.513 103.763C524.871 103.763 522.23 103.763 519.588 103.763C514.684 103.763 509.841 103.323 504.937 103.323C501.382 103.323 497.828 103.323 494.273 103.323" stroke="#131212" stroke-width="3" stroke-linecap="round"/>
<rect width="38" height="24" transform="translate(397.3 239)" fill="#0500FF"/>
<path d="M408.921 255.464V250.841C408.921 250.487 408.849 250.18 408.705 249.919C408.566 249.654 408.356 249.449 408.074 249.305C407.792 249.161 407.443 249.089 407.028 249.089C406.641 249.089 406.3 249.156 406.007 249.289C405.719 249.421 405.492 249.596 405.326 249.812C405.166 250.027 405.086 250.26 405.086 250.509H403.55C403.55 250.188 403.633 249.87 403.799 249.554C403.965 249.239 404.203 248.954 404.513 248.699C404.828 248.439 405.205 248.234 405.642 248.085C406.085 247.93 406.577 247.853 407.119 247.853C407.772 247.853 408.348 247.963 408.846 248.185C409.349 248.406 409.742 248.741 410.025 249.189C410.312 249.632 410.456 250.188 410.456 250.857V255.041C410.456 255.34 410.481 255.658 410.531 255.996C410.586 256.333 410.667 256.624 410.772 256.867V257H409.17C409.092 256.823 409.031 256.588 408.987 256.294C408.943 255.996 408.921 255.719 408.921 255.464ZM409.186 251.555L409.203 252.634H407.651C407.213 252.634 406.823 252.67 406.48 252.742C406.137 252.808 405.849 252.91 405.617 253.049C405.384 253.187 405.207 253.361 405.086 253.572C404.964 253.777 404.903 254.017 404.903 254.294C404.903 254.576 404.967 254.833 405.094 255.066C405.221 255.298 405.412 255.484 405.667 255.622C405.927 255.755 406.245 255.821 406.621 255.821C407.092 255.821 407.507 255.722 407.866 255.522C408.226 255.323 408.511 255.08 408.721 254.792C408.937 254.504 409.053 254.225 409.07 253.954L409.726 254.692C409.687 254.925 409.582 255.182 409.41 255.464C409.239 255.747 409.009 256.018 408.721 256.278C408.439 256.532 408.102 256.745 407.709 256.917C407.321 257.083 406.884 257.166 406.397 257.166C405.788 257.166 405.254 257.047 404.795 256.809C404.341 256.571 403.987 256.253 403.733 255.854C403.484 255.451 403.359 255 403.359 254.501C403.359 254.02 403.453 253.597 403.641 253.231C403.829 252.861 404.101 252.554 404.455 252.31C404.809 252.061 405.235 251.873 405.733 251.746C406.231 251.618 406.787 251.555 407.402 251.555H409.186ZM412.863 244.25H414.407V255.257L414.275 257H412.863V244.25ZM420.475 252.435V252.609C420.475 253.262 420.398 253.868 420.243 254.427C420.088 254.98 419.861 255.462 419.562 255.871C419.263 256.281 418.898 256.599 418.467 256.826C418.035 257.053 417.54 257.166 416.981 257.166C416.411 257.166 415.91 257.069 415.478 256.875C415.052 256.676 414.692 256.391 414.399 256.021C414.106 255.65 413.871 255.201 413.694 254.676C413.522 254.15 413.403 253.558 413.337 252.899V252.136C413.403 251.472 413.522 250.877 413.694 250.351C413.871 249.825 414.106 249.377 414.399 249.006C414.692 248.63 415.052 248.345 415.478 248.151C415.904 247.952 416.4 247.853 416.964 247.853C417.529 247.853 418.029 247.963 418.467 248.185C418.904 248.4 419.269 248.71 419.562 249.114C419.861 249.518 420.088 250.002 420.243 250.567C420.398 251.126 420.475 251.748 420.475 252.435ZM418.931 252.609V252.435C418.931 251.986 418.89 251.566 418.807 251.173C418.724 250.774 418.591 250.426 418.408 250.127C418.226 249.823 417.985 249.585 417.686 249.413C417.387 249.236 417.019 249.147 416.582 249.147C416.195 249.147 415.857 249.214 415.57 249.347C415.287 249.479 415.047 249.659 414.847 249.886C414.648 250.108 414.485 250.362 414.358 250.65C414.236 250.932 414.145 251.225 414.084 251.53V253.53C414.172 253.918 414.316 254.291 414.515 254.651C414.72 255.005 414.991 255.296 415.329 255.522C415.672 255.749 416.095 255.863 416.599 255.863C417.014 255.863 417.368 255.78 417.661 255.614C417.96 255.442 418.201 255.207 418.384 254.908C418.572 254.609 418.71 254.264 418.799 253.871C418.887 253.478 418.931 253.057 418.931 252.609ZM426.012 255.904C426.377 255.904 426.715 255.83 427.025 255.68C427.335 255.531 427.589 255.326 427.788 255.066C427.988 254.8 428.101 254.499 428.129 254.161H429.59C429.562 254.692 429.382 255.188 429.05 255.647C428.724 256.101 428.295 256.469 427.763 256.751C427.232 257.028 426.648 257.166 426.012 257.166C425.337 257.166 424.747 257.047 424.244 256.809C423.746 256.571 423.331 256.245 422.999 255.83C422.672 255.415 422.426 254.939 422.26 254.402C422.099 253.86 422.019 253.287 422.019 252.684V252.335C422.019 251.732 422.099 251.162 422.26 250.625C422.426 250.083 422.672 249.604 422.999 249.189C423.331 248.774 423.746 248.447 424.244 248.209C424.747 247.972 425.337 247.853 426.012 247.853C426.715 247.853 427.329 247.996 427.855 248.284C428.38 248.566 428.793 248.954 429.092 249.446C429.396 249.933 429.562 250.487 429.59 251.106H428.129C428.101 250.736 427.996 250.401 427.813 250.102C427.636 249.803 427.393 249.565 427.083 249.388C426.778 249.206 426.421 249.114 426.012 249.114C425.542 249.114 425.146 249.208 424.825 249.396C424.509 249.579 424.258 249.828 424.07 250.144C423.887 250.453 423.754 250.799 423.671 251.181C423.594 251.557 423.555 251.942 423.555 252.335V252.684C423.555 253.076 423.594 253.464 423.671 253.846C423.749 254.228 423.879 254.573 424.061 254.883C424.249 255.193 424.501 255.442 424.817 255.63C425.138 255.813 425.536 255.904 426.012 255.904Z" fill="white"/>
<rect width="38" height="24" transform="translate(839 104)" fill="#0500FF"/>
<path d="M850.621 120.464V115.841C850.621 115.487 850.549 115.18 850.405 114.919C850.266 114.654 850.056 114.449 849.774 114.305C849.492 114.161 849.143 114.089 848.728 114.089C848.341 114.089 848 114.156 847.707 114.289C847.419 114.421 847.192 114.596 847.026 114.812C846.866 115.027 846.786 115.26 846.786 115.509H845.25C845.25 115.188 845.333 114.87 845.499 114.554C845.665 114.239 845.903 113.954 846.213 113.699C846.528 113.439 846.905 113.234 847.342 113.085C847.785 112.93 848.277 112.853 848.819 112.853C849.472 112.853 850.048 112.963 850.546 113.185C851.049 113.406 851.442 113.741 851.725 114.189C852.012 114.632 852.156 115.188 852.156 115.857V120.041C852.156 120.34 852.181 120.658 852.231 120.996C852.286 121.333 852.367 121.624 852.472 121.867V122H850.87C850.792 121.823 850.731 121.588 850.687 121.294C850.643 120.996 850.621 120.719 850.621 120.464ZM850.886 116.555L850.903 117.634H849.351C848.913 117.634 848.523 117.67 848.18 117.742C847.837 117.808 847.549 117.91 847.317 118.049C847.084 118.187 846.907 118.361 846.786 118.572C846.664 118.777 846.603 119.017 846.603 119.294C846.603 119.576 846.667 119.833 846.794 120.066C846.921 120.298 847.112 120.484 847.367 120.622C847.627 120.755 847.945 120.821 848.321 120.821C848.792 120.821 849.207 120.722 849.566 120.522C849.926 120.323 850.211 120.08 850.421 119.792C850.637 119.504 850.753 119.225 850.77 118.954L851.426 119.692C851.387 119.925 851.282 120.182 851.11 120.464C850.939 120.747 850.709 121.018 850.421 121.278C850.139 121.532 849.802 121.745 849.409 121.917C849.021 122.083 848.584 122.166 848.097 122.166C847.488 122.166 846.954 122.047 846.495 121.809C846.041 121.571 845.687 121.253 845.433 120.854C845.184 120.451 845.059 120 845.059 119.501C845.059 119.02 845.153 118.597 845.341 118.231C845.529 117.861 845.801 117.554 846.155 117.31C846.509 117.061 846.935 116.873 847.433 116.746C847.931 116.618 848.487 116.555 849.102 116.555H850.886ZM854.563 109.25H856.107V120.257L855.975 122H854.563V109.25ZM862.175 117.435V117.609C862.175 118.262 862.098 118.868 861.943 119.427C861.788 119.98 861.561 120.462 861.262 120.871C860.963 121.281 860.598 121.599 860.167 121.826C859.735 122.053 859.24 122.166 858.681 122.166C858.111 122.166 857.61 122.069 857.178 121.875C856.752 121.676 856.392 121.391 856.099 121.021C855.806 120.65 855.571 120.201 855.394 119.676C855.222 119.15 855.103 118.558 855.037 117.899V117.136C855.103 116.472 855.222 115.877 855.394 115.351C855.571 114.825 855.806 114.377 856.099 114.006C856.392 113.63 856.752 113.345 857.178 113.151C857.604 112.952 858.1 112.853 858.664 112.853C859.229 112.853 859.729 112.963 860.167 113.185C860.604 113.4 860.969 113.71 861.262 114.114C861.561 114.518 861.788 115.002 861.943 115.567C862.098 116.126 862.175 116.748 862.175 117.435ZM860.631 117.609V117.435C860.631 116.986 860.59 116.566 860.507 116.173C860.424 115.774 860.291 115.426 860.108 115.127C859.926 114.823 859.685 114.585 859.386 114.413C859.087 114.236 858.719 114.147 858.282 114.147C857.895 114.147 857.557 114.214 857.27 114.347C856.987 114.479 856.747 114.659 856.547 114.886C856.348 115.108 856.185 115.362 856.058 115.65C855.936 115.932 855.845 116.225 855.784 116.53V118.53C855.872 118.918 856.016 119.291 856.215 119.651C856.42 120.005 856.691 120.296 857.029 120.522C857.372 120.749 857.795 120.863 858.299 120.863C858.714 120.863 859.068 120.78 859.361 120.614C859.66 120.442 859.901 120.207 860.083 119.908C860.272 119.609 860.41 119.264 860.499 118.871C860.587 118.478 860.631 118.057 860.631 117.609ZM867.712 120.904C868.077 120.904 868.415 120.83 868.725 120.68C869.035 120.531 869.289 120.326 869.488 120.066C869.688 119.8 869.801 119.499 869.829 119.161H871.29C871.262 119.692 871.082 120.188 870.75 120.647C870.424 121.101 869.995 121.469 869.463 121.751C868.932 122.028 868.348 122.166 867.712 122.166C867.037 122.166 866.447 122.047 865.944 121.809C865.446 121.571 865.031 121.245 864.699 120.83C864.372 120.415 864.126 119.939 863.96 119.402C863.799 118.86 863.719 118.287 863.719 117.684V117.335C863.719 116.732 863.799 116.162 863.96 115.625C864.126 115.083 864.372 114.604 864.699 114.189C865.031 113.774 865.446 113.447 865.944 113.209C866.447 112.972 867.037 112.853 867.712 112.853C868.415 112.853 869.029 112.996 869.555 113.284C870.08 113.566 870.493 113.954 870.792 114.446C871.096 114.933 871.262 115.487 871.29 116.106H869.829C869.801 115.736 869.696 115.401 869.513 115.102C869.336 114.803 869.093 114.565 868.783 114.388C868.478 114.206 868.121 114.114 867.712 114.114C867.242 114.114 866.846 114.208 866.525 114.396C866.209 114.579 865.958 114.828 865.77 115.144C865.587 115.453 865.454 115.799 865.371 116.181C865.294 116.557 865.255 116.942 865.255 117.335V117.684C865.255 118.076 865.294 118.464 865.371 118.846C865.449 119.228 865.579 119.573 865.761 119.883C865.949 120.193 866.201 120.442 866.517 120.63C866.838 120.813 867.236 120.904 867.712 120.904Z" fill="white"/>
<path d="M60 249.387V396.593" stroke="black"/>
<circle cx="60" cy="249.593" r="5" fill="#0500FF"/>
<circle cx="60" cy="331.593" r="5" fill="#0500FF"/>
<rect width="88" height="24" transform="translate(118 237.593)" fill="#FF0000"/>
<path d="M123.764 251.202V251.011C123.764 250.363 123.858 249.763 124.046 249.209C124.234 248.65 124.505 248.166 124.859 247.757C125.214 247.342 125.642 247.021 126.146 246.794C126.65 246.561 127.214 246.445 127.839 246.445C128.47 246.445 129.037 246.561 129.541 246.794C130.05 247.021 130.482 247.342 130.836 247.757C131.196 248.166 131.47 248.65 131.658 249.209C131.846 249.763 131.94 250.363 131.94 251.011V251.202C131.94 251.849 131.846 252.449 131.658 253.003C131.47 253.556 131.196 254.04 130.836 254.456C130.482 254.865 130.053 255.186 129.549 255.418C129.051 255.645 128.487 255.759 127.856 255.759C127.225 255.759 126.658 255.645 126.154 255.418C125.651 255.186 125.219 254.865 124.859 254.456C124.505 254.04 124.234 253.556 124.046 253.003C123.858 252.449 123.764 251.849 123.764 251.202ZM125.299 251.011V251.202C125.299 251.65 125.352 252.073 125.457 252.472C125.562 252.865 125.72 253.213 125.93 253.518C126.146 253.822 126.414 254.063 126.735 254.24C127.056 254.411 127.43 254.497 127.856 254.497C128.277 254.497 128.645 254.411 128.96 254.24C129.281 254.063 129.547 253.822 129.757 253.518C129.967 253.213 130.125 252.865 130.23 252.472C130.341 252.073 130.396 251.65 130.396 251.202V251.011C130.396 250.568 130.341 250.15 130.23 249.757C130.125 249.359 129.964 249.007 129.749 248.703C129.538 248.393 129.273 248.15 128.952 247.973C128.636 247.796 128.265 247.707 127.839 247.707C127.419 247.707 127.048 247.796 126.727 247.973C126.412 248.15 126.146 248.393 125.93 248.703C125.72 249.007 125.562 249.359 125.457 249.757C125.352 250.15 125.299 250.568 125.299 251.011ZM135.401 248.022V255.593H133.866V246.611H135.36L135.401 248.022ZM138.207 246.561L138.199 247.989C138.071 247.962 137.95 247.945 137.833 247.939C137.723 247.928 137.596 247.923 137.452 247.923C137.097 247.923 136.785 247.978 136.514 248.089C136.243 248.199 136.013 248.354 135.825 248.554C135.637 248.753 135.487 248.991 135.376 249.268C135.271 249.539 135.202 249.838 135.169 250.164L134.737 250.413C134.737 249.871 134.79 249.362 134.895 248.886C135.006 248.41 135.174 247.989 135.401 247.624C135.628 247.253 135.916 246.965 136.265 246.761C136.619 246.55 137.039 246.445 137.526 246.445C137.637 246.445 137.764 246.459 137.908 246.487C138.052 246.509 138.152 246.534 138.207 246.561ZM141.295 246.611V255.593H139.751V246.611H141.295ZM139.635 244.229C139.635 243.98 139.709 243.77 139.859 243.598C140.014 243.427 140.241 243.341 140.54 243.341C140.833 243.341 141.057 243.427 141.212 243.598C141.372 243.77 141.453 243.98 141.453 244.229C141.453 244.467 141.372 244.672 141.212 244.843C141.057 245.009 140.833 245.092 140.54 245.092C140.241 245.092 140.014 245.009 139.859 244.843C139.709 244.672 139.635 244.467 139.635 244.229ZM149.579 246.611H150.974V255.402C150.974 256.193 150.813 256.868 150.492 257.427C150.171 257.986 149.723 258.409 149.147 258.697C148.577 258.99 147.919 259.137 147.172 259.137C146.862 259.137 146.497 259.087 146.076 258.988C145.661 258.894 145.252 258.73 144.848 258.498C144.449 258.271 144.114 257.964 143.843 257.577L144.648 256.664C145.025 257.117 145.418 257.433 145.827 257.61C146.242 257.787 146.652 257.875 147.056 257.875C147.543 257.875 147.963 257.784 148.317 257.602C148.672 257.419 148.945 257.148 149.139 256.788C149.338 256.434 149.438 255.997 149.438 255.477V248.587L149.579 246.611ZM143.395 251.202V251.027C143.395 250.341 143.475 249.719 143.636 249.16C143.802 248.595 144.037 248.111 144.341 247.707C144.651 247.303 145.025 246.993 145.462 246.777C145.899 246.556 146.392 246.445 146.939 246.445C147.504 246.445 147.996 246.545 148.417 246.744C148.843 246.938 149.203 247.223 149.496 247.599C149.795 247.97 150.03 248.418 150.202 248.944C150.373 249.47 150.492 250.064 150.559 250.728V251.492C150.498 252.151 150.379 252.743 150.202 253.268C150.03 253.794 149.795 254.242 149.496 254.613C149.203 254.984 148.843 255.269 148.417 255.468C147.991 255.662 147.493 255.759 146.923 255.759C146.386 255.759 145.899 255.645 145.462 255.418C145.03 255.192 144.66 254.873 144.35 254.464C144.04 254.054 143.802 253.573 143.636 253.019C143.475 252.461 143.395 251.855 143.395 251.202ZM144.931 251.027V251.202C144.931 251.65 144.975 252.07 145.063 252.463C145.158 252.856 145.299 253.202 145.487 253.501C145.681 253.8 145.927 254.035 146.226 254.206C146.524 254.372 146.881 254.456 147.296 254.456C147.806 254.456 148.226 254.348 148.558 254.132C148.89 253.916 149.153 253.631 149.347 253.277C149.546 252.923 149.701 252.538 149.812 252.123V250.122C149.751 249.818 149.657 249.525 149.529 249.243C149.408 248.955 149.247 248.7 149.048 248.479C148.854 248.252 148.613 248.072 148.326 247.939C148.038 247.807 147.7 247.74 147.313 247.74C146.892 247.74 146.53 247.829 146.226 248.006C145.927 248.177 145.681 248.415 145.487 248.72C145.299 249.018 145.158 249.367 145.063 249.766C144.975 250.158 144.931 250.579 144.931 251.027ZM154.975 246.611V255.593H153.431V246.611H154.975ZM153.314 244.229C153.314 243.98 153.389 243.77 153.539 243.598C153.694 243.427 153.92 243.341 154.219 243.341C154.513 243.341 154.737 243.427 154.892 243.598C155.052 243.77 155.132 243.98 155.132 244.229C155.132 244.467 155.052 244.672 154.892 244.843C154.737 245.009 154.513 245.092 154.219 245.092C153.92 245.092 153.694 245.009 153.539 244.843C153.389 244.672 153.314 244.467 153.314 244.229ZM158.976 248.529V255.593H157.44V246.611H158.893L158.976 248.529ZM158.61 250.762L157.971 250.737C157.977 250.122 158.068 249.555 158.245 249.035C158.422 248.509 158.671 248.053 158.992 247.665C159.313 247.278 159.695 246.979 160.138 246.769C160.586 246.553 161.081 246.445 161.624 246.445C162.066 246.445 162.465 246.506 162.819 246.628C163.173 246.744 163.475 246.932 163.724 247.192C163.978 247.452 164.172 247.79 164.305 248.205C164.438 248.615 164.504 249.115 164.504 249.707V255.593H162.96V249.691C162.96 249.22 162.891 248.844 162.752 248.562C162.614 248.274 162.412 248.067 162.146 247.939C161.881 247.807 161.554 247.74 161.167 247.74C160.785 247.74 160.437 247.82 160.121 247.981C159.811 248.141 159.543 248.363 159.316 248.645C159.095 248.927 158.92 249.251 158.793 249.616C158.671 249.976 158.61 250.358 158.61 250.762ZM172.182 243.507L167.144 256.63H165.824L170.871 243.507H172.182ZM179.155 254.057V249.434C179.155 249.079 179.083 248.772 178.939 248.512C178.801 248.247 178.59 248.042 178.308 247.898C178.026 247.754 177.677 247.682 177.262 247.682C176.875 247.682 176.535 247.748 176.241 247.881C175.953 248.014 175.727 248.188 175.561 248.404C175.4 248.62 175.32 248.852 175.32 249.102H173.784C173.784 248.781 173.867 248.462 174.033 248.147C174.199 247.831 174.437 247.546 174.747 247.292C175.062 247.032 175.439 246.827 175.876 246.678C176.319 246.523 176.811 246.445 177.354 246.445C178.007 246.445 178.582 246.556 179.08 246.777C179.584 246.999 179.977 247.333 180.259 247.782C180.547 248.224 180.69 248.781 180.69 249.45V253.634C180.69 253.933 180.715 254.251 180.765 254.588C180.82 254.926 180.901 255.216 181.006 255.46V255.593H179.404C179.326 255.416 179.265 255.18 179.221 254.887C179.177 254.588 179.155 254.312 179.155 254.057ZM179.42 250.147L179.437 251.227H177.885C177.448 251.227 177.057 251.262 176.714 251.334C176.371 251.401 176.083 251.503 175.851 251.642C175.619 251.78 175.442 251.954 175.32 252.164C175.198 252.369 175.137 252.61 175.137 252.887C175.137 253.169 175.201 253.426 175.328 253.659C175.455 253.891 175.646 254.076 175.901 254.215C176.161 254.348 176.479 254.414 176.855 254.414C177.326 254.414 177.741 254.314 178.101 254.115C178.46 253.916 178.745 253.672 178.956 253.385C179.171 253.097 179.288 252.817 179.304 252.546L179.96 253.285C179.921 253.518 179.816 253.775 179.645 254.057C179.473 254.339 179.243 254.61 178.956 254.871C178.673 255.125 178.336 255.338 177.943 255.51C177.556 255.676 177.118 255.759 176.631 255.759C176.023 255.759 175.489 255.64 175.029 255.402C174.576 255.164 174.221 254.846 173.967 254.447C173.718 254.043 173.593 253.592 173.593 253.094C173.593 252.613 173.687 252.189 173.875 251.824C174.064 251.453 174.335 251.146 174.689 250.903C175.043 250.654 175.469 250.466 175.967 250.338C176.465 250.211 177.021 250.147 177.636 250.147H179.42ZM183.098 242.843H184.642V253.85L184.509 255.593H183.098V242.843ZM190.709 251.027V251.202C190.709 251.855 190.632 252.461 190.477 253.019C190.322 253.573 190.095 254.054 189.796 254.464C189.498 254.873 189.132 255.192 188.701 255.418C188.269 255.645 187.774 255.759 187.215 255.759C186.645 255.759 186.144 255.662 185.712 255.468C185.286 255.269 184.927 254.984 184.633 254.613C184.34 254.242 184.105 253.794 183.928 253.268C183.756 252.743 183.637 252.151 183.571 251.492V250.728C183.637 250.064 183.756 249.47 183.928 248.944C184.105 248.418 184.34 247.97 184.633 247.599C184.927 247.223 185.286 246.938 185.712 246.744C186.139 246.545 186.634 246.445 187.198 246.445C187.763 246.445 188.264 246.556 188.701 246.777C189.138 246.993 189.503 247.303 189.796 247.707C190.095 248.111 190.322 248.595 190.477 249.16C190.632 249.719 190.709 250.341 190.709 251.027ZM189.166 251.202V251.027C189.166 250.579 189.124 250.158 189.041 249.766C188.958 249.367 188.825 249.018 188.643 248.72C188.46 248.415 188.219 248.177 187.92 248.006C187.622 247.829 187.254 247.74 186.816 247.74C186.429 247.74 186.091 247.807 185.804 247.939C185.521 248.072 185.281 248.252 185.082 248.479C184.882 248.7 184.719 248.955 184.592 249.243C184.47 249.525 184.379 249.818 184.318 250.122V252.123C184.406 252.51 184.55 252.884 184.75 253.244C184.954 253.598 185.225 253.888 185.563 254.115C185.906 254.342 186.329 254.456 186.833 254.456C187.248 254.456 187.602 254.372 187.896 254.206C188.194 254.035 188.435 253.8 188.618 253.501C188.806 253.202 188.944 252.856 189.033 252.463C189.121 252.07 189.166 251.65 189.166 251.202ZM196.246 254.497C196.611 254.497 196.949 254.422 197.259 254.273C197.569 254.123 197.823 253.919 198.022 253.659C198.222 253.393 198.335 253.091 198.363 252.754H199.824C199.796 253.285 199.616 253.78 199.284 254.24C198.958 254.693 198.529 255.061 197.998 255.344C197.466 255.62 196.882 255.759 196.246 255.759C195.571 255.759 194.982 255.64 194.478 255.402C193.98 255.164 193.565 254.837 193.233 254.422C192.906 254.007 192.66 253.531 192.494 252.995C192.334 252.452 192.253 251.879 192.253 251.276V250.928C192.253 250.324 192.334 249.754 192.494 249.218C192.66 248.675 192.906 248.197 193.233 247.782C193.565 247.367 193.98 247.04 194.478 246.802C194.982 246.564 195.571 246.445 196.246 246.445C196.949 246.445 197.563 246.589 198.089 246.877C198.615 247.159 199.027 247.546 199.326 248.039C199.63 248.526 199.796 249.079 199.824 249.699H198.363C198.335 249.328 198.23 248.994 198.047 248.695C197.87 248.396 197.627 248.158 197.317 247.981C197.013 247.798 196.656 247.707 196.246 247.707C195.776 247.707 195.38 247.801 195.059 247.989C194.744 248.172 194.492 248.421 194.304 248.736C194.121 249.046 193.988 249.392 193.905 249.774C193.828 250.15 193.789 250.535 193.789 250.928V251.276C193.789 251.669 193.828 252.057 193.905 252.438C193.983 252.82 194.113 253.166 194.295 253.476C194.484 253.786 194.735 254.035 195.051 254.223C195.372 254.406 195.77 254.497 196.246 254.497Z" fill="white"/>
<g opacity="0.22">
<circle cx="60" cy="331.592" r="5" fill="#0500FF"/>
<path d="M60 114.592V396.592" stroke="black"/>
<circle cx="60" cy="116.592" r="5" fill="#FF0000"/>
<circle cx="60" cy="178.592" r="5" fill="#FF0000"/>
<circle cx="60" cy="249.592" r="5" fill="#0500FF"/>
<rect width="88" height="24" transform="translate(72 104.592)" fill="#FF0000"/>
<path d="M77.7637 118.201V118.01C77.7637 117.363 77.8577 116.763 78.0459 116.209C78.234 115.65 78.5052 115.166 78.8594 114.757C79.2135 114.341 79.6424 114.021 80.146 113.794C80.6496 113.561 81.214 113.445 81.8394 113.445C82.4702 113.445 83.0374 113.561 83.541 113.794C84.0501 114.021 84.4818 114.341 84.8359 114.757C85.1956 115.166 85.4696 115.65 85.6577 116.209C85.8459 116.763 85.9399 117.363 85.9399 118.01V118.201C85.9399 118.849 85.8459 119.449 85.6577 120.003C85.4696 120.556 85.1956 121.04 84.8359 121.455C84.4818 121.865 84.0529 122.186 83.5493 122.418C83.0513 122.645 82.4868 122.758 81.856 122.758C81.2251 122.758 80.6579 122.645 80.1543 122.418C79.6507 122.186 79.2191 121.865 78.8594 121.455C78.5052 121.04 78.234 120.556 78.0459 120.003C77.8577 119.449 77.7637 118.849 77.7637 118.201ZM79.2993 118.01V118.201C79.2993 118.65 79.3519 119.073 79.457 119.471C79.5622 119.864 79.7199 120.213 79.9302 120.517C80.146 120.822 80.4144 121.062 80.7354 121.239C81.0563 121.411 81.4299 121.497 81.856 121.497C82.2765 121.497 82.6445 121.411 82.96 121.239C83.2809 121.062 83.5465 120.822 83.7568 120.517C83.9671 120.213 84.1248 119.864 84.23 119.471C84.3407 119.073 84.396 118.65 84.396 118.201V118.01C84.396 117.568 84.3407 117.15 84.23 116.757C84.1248 116.359 83.9644 116.007 83.7485 115.703C83.5382 115.393 83.2726 115.149 82.9517 114.972C82.6362 114.795 82.2655 114.707 81.8394 114.707C81.4188 114.707 81.048 114.795 80.7271 114.972C80.4116 115.149 80.146 115.393 79.9302 115.703C79.7199 116.007 79.5622 116.359 79.457 116.757C79.3519 117.15 79.2993 117.568 79.2993 118.01ZM89.4014 115.022V122.592H87.8657V113.611H89.3599L89.4014 115.022ZM92.207 113.561L92.1987 114.989C92.0715 114.961 91.9497 114.945 91.8335 114.939C91.7228 114.928 91.5955 114.923 91.4517 114.923C91.0975 114.923 90.7848 114.978 90.5137 115.089C90.2425 115.199 90.0129 115.354 89.8247 115.553C89.6366 115.753 89.4871 115.991 89.3765 116.267C89.2713 116.538 89.2021 116.837 89.1689 117.164L88.7373 117.413C88.7373 116.87 88.7899 116.361 88.895 115.885C89.0057 115.41 89.1745 114.989 89.4014 114.624C89.6283 114.253 89.916 113.965 90.2646 113.76C90.6188 113.55 91.0394 113.445 91.5264 113.445C91.637 113.445 91.7643 113.459 91.9082 113.487C92.0521 113.509 92.1517 113.534 92.207 113.561ZM95.2949 113.611V122.592H93.751V113.611H95.2949ZM93.6348 111.229C93.6348 110.98 93.7095 110.769 93.8589 110.598C94.0138 110.426 94.2407 110.341 94.5396 110.341C94.8328 110.341 95.057 110.426 95.2119 110.598C95.3724 110.769 95.4526 110.98 95.4526 111.229C95.4526 111.467 95.3724 111.671 95.2119 111.843C95.057 112.009 94.8328 112.092 94.5396 112.092C94.2407 112.092 94.0138 112.009 93.8589 111.843C93.7095 111.671 93.6348 111.467 93.6348 111.229ZM103.579 113.611H104.974V122.402C104.974 123.193 104.813 123.868 104.492 124.427C104.171 124.986 103.723 125.409 103.147 125.697C102.577 125.99 101.919 126.137 101.172 126.137C100.862 126.137 100.497 126.087 100.076 125.987C99.6611 125.893 99.2516 125.73 98.8477 125.498C98.4492 125.271 98.1144 124.964 97.8433 124.576L98.6484 123.663C99.0247 124.117 99.4176 124.432 99.8271 124.61C100.242 124.787 100.652 124.875 101.056 124.875C101.543 124.875 101.963 124.784 102.317 124.601C102.672 124.419 102.945 124.147 103.139 123.788C103.338 123.434 103.438 122.996 103.438 122.476V115.587L103.579 113.611ZM97.395 118.201V118.027C97.395 117.341 97.4753 116.718 97.6357 116.159C97.8018 115.595 98.0369 115.111 98.3413 114.707C98.6512 114.303 99.0247 113.993 99.4619 113.777C99.8991 113.556 100.392 113.445 100.939 113.445C101.504 113.445 101.996 113.545 102.417 113.744C102.843 113.938 103.203 114.223 103.496 114.599C103.795 114.97 104.03 115.418 104.202 115.944C104.373 116.469 104.492 117.064 104.559 117.728V118.492C104.498 119.15 104.379 119.743 104.202 120.268C104.03 120.794 103.795 121.242 103.496 121.613C103.203 121.984 102.843 122.269 102.417 122.468C101.991 122.662 101.493 122.758 100.923 122.758C100.386 122.758 99.8991 122.645 99.4619 122.418C99.0303 122.191 98.6595 121.873 98.3496 121.464C98.0397 121.054 97.8018 120.573 97.6357 120.019C97.4753 119.46 97.395 118.854 97.395 118.201ZM98.9307 118.027V118.201C98.9307 118.65 98.9749 119.07 99.0635 119.463C99.1576 119.856 99.2987 120.202 99.4868 120.501C99.6805 120.799 99.9268 121.035 100.226 121.206C100.524 121.372 100.881 121.455 101.296 121.455C101.806 121.455 102.226 121.347 102.558 121.132C102.89 120.916 103.153 120.631 103.347 120.277C103.546 119.922 103.701 119.538 103.812 119.123V117.122C103.751 116.818 103.657 116.525 103.529 116.242C103.408 115.955 103.247 115.7 103.048 115.479C102.854 115.252 102.613 115.072 102.326 114.939C102.038 114.806 101.7 114.74 101.313 114.74C100.892 114.74 100.53 114.828 100.226 115.006C99.9268 115.177 99.6805 115.415 99.4868 115.719C99.2987 116.018 99.1576 116.367 99.0635 116.765C98.9749 117.158 98.9307 117.579 98.9307 118.027ZM108.975 113.611V122.592H107.431V113.611H108.975ZM107.314 111.229C107.314 110.98 107.389 110.769 107.539 110.598C107.694 110.426 107.92 110.341 108.219 110.341C108.513 110.341 108.737 110.426 108.892 110.598C109.052 110.769 109.132 110.98 109.132 111.229C109.132 111.467 109.052 111.671 108.892 111.843C108.737 112.009 108.513 112.092 108.219 112.092C107.92 112.092 107.694 112.009 107.539 111.843C107.389 111.671 107.314 111.467 107.314 111.229ZM112.976 115.529V122.592H111.44V113.611H112.893L112.976 115.529ZM112.61 117.761L111.971 117.737C111.977 117.122 112.068 116.555 112.245 116.035C112.422 115.509 112.671 115.053 112.992 114.665C113.313 114.278 113.695 113.979 114.138 113.769C114.586 113.553 115.081 113.445 115.624 113.445C116.066 113.445 116.465 113.506 116.819 113.628C117.173 113.744 117.475 113.932 117.724 114.192C117.978 114.452 118.172 114.79 118.305 115.205C118.438 115.614 118.504 116.115 118.504 116.707V122.592H116.96V116.691C116.96 116.22 116.891 115.844 116.752 115.562C116.614 115.274 116.412 115.066 116.146 114.939C115.881 114.806 115.554 114.74 115.167 114.74C114.785 114.74 114.437 114.82 114.121 114.981C113.811 115.141 113.543 115.362 113.316 115.645C113.095 115.927 112.92 116.251 112.793 116.616C112.671 116.976 112.61 117.357 112.61 117.761ZM126.182 110.507L121.144 123.63H119.824L124.871 110.507H126.182ZM133.155 121.057V116.433C133.155 116.079 133.083 115.772 132.939 115.512C132.801 115.246 132.59 115.042 132.308 114.898C132.026 114.754 131.677 114.682 131.262 114.682C130.875 114.682 130.535 114.748 130.241 114.881C129.953 115.014 129.727 115.188 129.561 115.404C129.4 115.62 129.32 115.852 129.32 116.101H127.784C127.784 115.78 127.867 115.462 128.033 115.147C128.199 114.831 128.437 114.546 128.747 114.292C129.062 114.032 129.439 113.827 129.876 113.677C130.319 113.522 130.811 113.445 131.354 113.445C132.007 113.445 132.582 113.556 133.08 113.777C133.584 113.998 133.977 114.333 134.259 114.781C134.547 115.224 134.69 115.78 134.69 116.45V120.633C134.69 120.932 134.715 121.251 134.765 121.588C134.82 121.926 134.901 122.216 135.006 122.46V122.592H133.404C133.326 122.415 133.265 122.18 133.221 121.887C133.177 121.588 133.155 121.311 133.155 121.057ZM133.42 117.147L133.437 118.226H131.885C131.448 118.226 131.057 118.262 130.714 118.334C130.371 118.401 130.083 118.503 129.851 118.641C129.619 118.78 129.442 118.954 129.32 119.164C129.198 119.369 129.137 119.61 129.137 119.886C129.137 120.169 129.201 120.426 129.328 120.658C129.455 120.891 129.646 121.076 129.901 121.215C130.161 121.347 130.479 121.414 130.855 121.414C131.326 121.414 131.741 121.314 132.101 121.115C132.46 120.916 132.745 120.672 132.956 120.384C133.171 120.097 133.288 119.817 133.304 119.546L133.96 120.285C133.921 120.517 133.816 120.775 133.645 121.057C133.473 121.339 133.243 121.61 132.956 121.87C132.673 122.125 132.336 122.338 131.943 122.509C131.556 122.675 131.118 122.758 130.631 122.758C130.023 122.758 129.489 122.64 129.029 122.402C128.576 122.164 128.221 121.845 127.967 121.447C127.718 121.043 127.593 120.592 127.593 120.094C127.593 119.612 127.687 119.189 127.875 118.824C128.064 118.453 128.335 118.146 128.689 117.903C129.043 117.654 129.469 117.465 129.967 117.338C130.465 117.211 131.021 117.147 131.636 117.147H133.42ZM137.098 109.842H138.642V120.849L138.509 122.592H137.098V109.842ZM144.709 118.027V118.201C144.709 118.854 144.632 119.46 144.477 120.019C144.322 120.573 144.095 121.054 143.796 121.464C143.498 121.873 143.132 122.191 142.701 122.418C142.269 122.645 141.774 122.758 141.215 122.758C140.645 122.758 140.144 122.662 139.712 122.468C139.286 122.269 138.927 121.984 138.633 121.613C138.34 121.242 138.105 120.794 137.928 120.268C137.756 119.743 137.637 119.15 137.571 118.492V117.728C137.637 117.064 137.756 116.469 137.928 115.944C138.105 115.418 138.34 114.97 138.633 114.599C138.927 114.223 139.286 113.938 139.712 113.744C140.139 113.545 140.634 113.445 141.198 113.445C141.763 113.445 142.264 113.556 142.701 113.777C143.138 113.993 143.503 114.303 143.796 114.707C144.095 115.111 144.322 115.595 144.477 116.159C144.632 116.718 144.709 117.341 144.709 118.027ZM143.166 118.201V118.027C143.166 117.579 143.124 117.158 143.041 116.765C142.958 116.367 142.825 116.018 142.643 115.719C142.46 115.415 142.219 115.177 141.92 115.006C141.622 114.828 141.254 114.74 140.816 114.74C140.429 114.74 140.091 114.806 139.804 114.939C139.521 115.072 139.281 115.252 139.082 115.479C138.882 115.7 138.719 115.955 138.592 116.242C138.47 116.525 138.379 116.818 138.318 117.122V119.123C138.406 119.51 138.55 119.884 138.75 120.243C138.954 120.598 139.225 120.888 139.563 121.115C139.906 121.342 140.329 121.455 140.833 121.455C141.248 121.455 141.602 121.372 141.896 121.206C142.194 121.035 142.435 120.799 142.618 120.501C142.806 120.202 142.944 119.856 143.033 119.463C143.121 119.07 143.166 118.65 143.166 118.201ZM150.246 121.497C150.611 121.497 150.949 121.422 151.259 121.273C151.569 121.123 151.823 120.918 152.022 120.658C152.222 120.393 152.335 120.091 152.363 119.754H153.824C153.796 120.285 153.616 120.78 153.284 121.239C152.958 121.693 152.529 122.061 151.998 122.343C151.466 122.62 150.882 122.758 150.246 122.758C149.571 122.758 148.982 122.64 148.478 122.402C147.98 122.164 147.565 121.837 147.233 121.422C146.906 121.007 146.66 120.531 146.494 119.994C146.334 119.452 146.253 118.879 146.253 118.276V117.927C146.253 117.324 146.334 116.754 146.494 116.217C146.66 115.675 146.906 115.196 147.233 114.781C147.565 114.366 147.98 114.04 148.478 113.802C148.982 113.564 149.571 113.445 150.246 113.445C150.949 113.445 151.563 113.589 152.089 113.877C152.615 114.159 153.027 114.546 153.326 115.039C153.63 115.526 153.796 116.079 153.824 116.699H152.363C152.335 116.328 152.23 115.993 152.047 115.695C151.87 115.396 151.627 115.158 151.317 114.981C151.013 114.798 150.656 114.707 150.246 114.707C149.776 114.707 149.38 114.801 149.059 114.989C148.744 115.172 148.492 115.421 148.304 115.736C148.121 116.046 147.988 116.392 147.905 116.774C147.828 117.15 147.789 117.535 147.789 117.927V118.276C147.789 118.669 147.828 119.056 147.905 119.438C147.983 119.82 148.113 120.166 148.295 120.476C148.484 120.786 148.735 121.035 149.051 121.223C149.372 121.405 149.77 121.497 150.246 121.497Z" fill="white"/>
</g>
<rect width="38" height="24" transform="translate(70 237.593)" fill="#0500FF"/>
<path d="M81.6206 254.057V249.434C81.6206 249.079 81.5487 248.772 81.4048 248.512C81.2664 248.247 81.0562 248.042 80.7739 247.898C80.4917 247.754 80.1431 247.682 79.728 247.682C79.3407 247.682 79.0003 247.748 78.707 247.881C78.4193 248.014 78.1924 248.188 78.0264 248.404C77.8659 248.62 77.7856 248.852 77.7856 249.102H76.25C76.25 248.781 76.333 248.462 76.499 248.147C76.665 247.831 76.903 247.546 77.2129 247.292C77.5283 247.032 77.9046 246.827 78.3418 246.678C78.7845 246.523 79.277 246.445 79.8193 246.445C80.4723 246.445 81.0479 246.556 81.5459 246.777C82.0495 246.999 82.4424 247.333 82.7246 247.782C83.0124 248.224 83.1562 248.781 83.1562 249.45V253.634C83.1562 253.933 83.1812 254.251 83.231 254.588C83.2863 254.926 83.3665 255.216 83.4717 255.46V255.593H81.8696C81.7922 255.416 81.7313 255.18 81.687 254.887C81.6427 254.588 81.6206 254.312 81.6206 254.057ZM81.8862 250.147L81.9028 251.227H80.3506C79.9134 251.227 79.5233 251.262 79.1802 251.334C78.8371 251.401 78.5493 251.503 78.3169 251.642C78.0845 251.78 77.9074 251.954 77.7856 252.164C77.6639 252.369 77.603 252.61 77.603 252.887C77.603 253.169 77.6667 253.426 77.7939 253.659C77.9212 253.891 78.1121 254.076 78.3667 254.215C78.6268 254.348 78.945 254.414 79.3213 254.414C79.7917 254.414 80.2067 254.314 80.5664 254.115C80.9261 253.916 81.2111 253.672 81.4214 253.385C81.6372 253.097 81.7534 252.817 81.77 252.546L82.4258 253.285C82.387 253.518 82.2819 253.775 82.1104 254.057C81.9388 254.339 81.7091 254.61 81.4214 254.871C81.1392 255.125 80.8016 255.338 80.4087 255.51C80.0213 255.676 79.5841 255.759 79.0972 255.759C78.4884 255.759 77.9544 255.64 77.4951 255.402C77.0413 255.164 76.6872 254.846 76.4326 254.447C76.1836 254.043 76.0591 253.592 76.0591 253.094C76.0591 252.613 76.1532 252.189 76.3413 251.824C76.5295 251.453 76.8006 251.146 77.1548 250.903C77.509 250.654 77.9351 250.466 78.4331 250.338C78.9312 250.211 79.4873 250.147 80.1016 250.147H81.8862ZM85.5635 242.843H87.1074V253.85L86.9746 255.593H85.5635V242.843ZM93.1753 251.027V251.202C93.1753 251.855 93.0978 252.461 92.9429 253.019C92.7879 253.573 92.561 254.054 92.2622 254.464C91.9634 254.873 91.5981 255.192 91.1665 255.418C90.7349 255.645 90.2396 255.759 89.6807 255.759C89.1107 255.759 88.6099 255.662 88.1782 255.468C87.7521 255.269 87.3924 254.984 87.0991 254.613C86.8058 254.242 86.5706 253.794 86.3936 253.268C86.222 252.743 86.103 252.151 86.0366 251.492V250.728C86.103 250.064 86.222 249.47 86.3936 248.944C86.5706 248.418 86.8058 247.97 87.0991 247.599C87.3924 247.223 87.7521 246.938 88.1782 246.744C88.6043 246.545 89.0996 246.445 89.6641 246.445C90.2285 246.445 90.7293 246.556 91.1665 246.777C91.6037 246.993 91.9689 247.303 92.2622 247.707C92.561 248.111 92.7879 248.595 92.9429 249.16C93.0978 249.719 93.1753 250.341 93.1753 251.027ZM91.6313 251.202V251.027C91.6313 250.579 91.5898 250.158 91.5068 249.766C91.4238 249.367 91.291 249.018 91.1084 248.72C90.9258 248.415 90.6851 248.177 90.3862 248.006C90.0874 247.829 89.7194 247.74 89.2822 247.74C88.8949 247.74 88.5573 247.807 88.2695 247.939C87.9873 248.072 87.7466 248.252 87.5474 248.479C87.3481 248.7 87.1849 248.955 87.0576 249.243C86.9359 249.525 86.8446 249.818 86.7837 250.122V252.123C86.8722 252.51 87.0161 252.884 87.2153 253.244C87.4201 253.598 87.6912 253.888 88.0288 254.115C88.3719 254.342 88.7952 254.456 89.2988 254.456C89.7139 254.456 90.068 254.372 90.3613 254.206C90.6602 254.035 90.9009 253.8 91.0835 253.501C91.2716 253.202 91.41 252.856 91.4985 252.463C91.5871 252.07 91.6313 251.65 91.6313 251.202ZM98.7119 254.497C99.0771 254.497 99.4147 254.422 99.7246 254.273C100.035 254.123 100.289 253.919 100.488 253.659C100.688 253.393 100.801 253.091 100.829 252.754H102.29C102.262 253.285 102.082 253.78 101.75 254.24C101.424 254.693 100.995 255.061 100.463 255.344C99.9321 255.62 99.3483 255.759 98.7119 255.759C98.0368 255.759 97.4474 255.64 96.9438 255.402C96.4458 255.164 96.0308 254.837 95.6987 254.422C95.3722 254.007 95.126 253.531 94.96 252.995C94.7995 252.452 94.7192 251.879 94.7192 251.276V250.928C94.7192 250.324 94.7995 249.754 94.96 249.218C95.126 248.675 95.3722 248.197 95.6987 247.782C96.0308 247.367 96.4458 247.04 96.9438 246.802C97.4474 246.564 98.0368 246.445 98.7119 246.445C99.4147 246.445 100.029 246.589 100.555 246.877C101.08 247.159 101.493 247.546 101.792 248.039C102.096 248.526 102.262 249.079 102.29 249.699H100.829C100.801 249.328 100.696 248.994 100.513 248.695C100.336 248.396 100.093 248.158 99.7827 247.981C99.4784 247.798 99.1214 247.707 98.7119 247.707C98.2415 247.707 97.8459 247.801 97.5249 247.989C97.2095 248.172 96.9577 248.421 96.7695 248.736C96.5869 249.046 96.4541 249.392 96.3711 249.774C96.2936 250.15 96.2549 250.535 96.2549 250.928V251.276C96.2549 251.669 96.2936 252.057 96.3711 252.438C96.4486 252.82 96.5786 253.166 96.7612 253.476C96.9494 253.786 97.2012 254.035 97.5166 254.223C97.8376 254.406 98.236 254.497 98.7119 254.497Z" fill="white"/>
<path d="M184.105 69.0718C178.922 74.56 174.928 83.3977 169.331 87.8757C168.443 88.5859 167.882 89.7037 166.893 90.363C165.954 90.9891 166.436 87.3528 166.893 86.7813C167.615 85.8788 166.705 83.5712 166.246 85.6371C166.085 86.3642 165.818 89.3664 166.694 89.6168C169.115 90.3084 172.627 89.6665 175.151 89.6665" stroke="black" stroke-width="3" stroke-linecap="round"/>
<path d="M197.536 50.2679C197.536 53.5639 196.999 57.2884 197.586 60.5155C198.26 64.2239 202.92 60.3757 203.804 59.0232C207.113 53.9633 204.172 49.1965 199.327 47.5817" stroke="black" stroke-width="3" stroke-linecap="round"/>
<path d="M208.281 59.2222C208.281 56.0656 207.88 52.5304 208.729 49.472C209.008 48.4687 208.94 45.3865 209.227 46.3878C210.137 49.5729 212.231 52.3408 213.206 55.5908C213.302 55.9106 215.439 61.9358 216.141 61.3115C216.86 60.6724 216.689 56.1176 217.037 54.9441C218.039 51.5621 219.026 48.6053 219.026 44.8954" stroke="black" stroke-width="3" stroke-linecap="round"/>
<path d="M224.399 45.7908C224.399 48.0652 225.611 54.5733 224.2 56.3369C222.109 58.9504 225.756 60.1176 227.981 60.1176" stroke="black" stroke-width="3" stroke-linecap="round"/>
<path d="M230.667 44C230.667 46.6039 231.463 55.2317 236.039 51.1634C236.859 50.4352 238.651 49.7397 238.726 48.4771C238.834 46.6432 238.726 45.3884 238.726 48.0294C238.726 54.9106 232.458 59.9904 232.458 67.281" stroke="black" stroke-width="3" stroke-linecap="round"/>
<path d="M201.118 71.7581C198.709 71.7581 197.756 73.2777 196.84 75.3398C195.303 78.7975 199.044 77.6 200.919 78.2251C207.79 80.5154 200.745 85.1895 196.641 85.1895" stroke="black" stroke-width="3" stroke-linecap="round"/>
<path d="M205.595 78.9215C208.317 78.9215 209.64 79.2109 211.415 77.0809C214.438 73.4541 205.745 74.2362 204.302 74.8921C201.17 76.3154 203.462 79.4227 205.396 80.7123C208.38 82.7016 211.119 82.5032 214.549 82.5032" stroke="black" stroke-width="3" stroke-linecap="round"/>
<path d="M216.34 74.4443C216.34 70.6968 216.34 85.6869 216.34 85.6869C216.34 85.6869 215.023 80.3333 216.788 78.9215C218.599 77.4726 220.132 75.3398 222.608 75.3398" stroke="black" stroke-width="3" stroke-linecap="round"/>
<path d="M224.399 78.026C224.399 80.8566 224.781 88.2191 227.981 83.5976C229.903 80.8203 231.87 78.3054 233.353 75.3398" stroke="black" stroke-width="3" stroke-linecap="round"/>
<path d="M236.935 80.7123C239.046 80.7123 244.834 79.9963 244.994 77.1306C245.208 73.2746 241.815 72.0317 238.278 73.9966C236.026 75.2476 236.319 80.0407 238.278 81.6077C241.468 84.1599 242.484 84.294 246.785 84.294" stroke="black" stroke-width="3" stroke-linecap="round"/>
<path d="M247.68 71.7581C247.68 74.6619 247.586 77.6782 249.023 80.2646C250.711 83.302 250.366 84.9711 250.366 80.2646C250.366 77.4831 251.875 75.8093 252.157 73.5489C252.34 72.0839 256.788 71.4503 257.53 69.9672" stroke="black" stroke-width="3" stroke-linecap="round"/>
</svg>
