<svg width="900" height="500" viewBox="0 0 900 500" fill="none" xmlns="http://www.w3.org/2000/svg">
<rect width="900" height="500" fill="white"/>
<path d="M717.107 290.5C801.607 290.5 821.107 271 821.107 217.5C821.107 217.5 821.107 181.541 821.107 158.5C821.107 97 791.607 86 717.107 86" stroke="black"/>
<path d="M386.107 296.5C470.607 296.5 490.107 277 490.107 223.5V162" stroke="black"/>
<path d="M58 161V443" stroke="black"/>
<path d="M716.107 85.5V437" stroke="black"/>
<path d="M385.107 161V443" stroke="black"/>
<circle cx="58" cy="163" r="5" fill="#0500FF"/>
<circle cx="385.107" cy="163" r="5" fill="#0500FF"/>
<circle cx="58" cy="225" r="5" fill="#0500FF"/>
<circle cx="385.107" cy="225" r="5" fill="#0500FF"/>
<circle cx="490.107" cy="223" r="5" fill="#FF0000"/>
<circle cx="490.107" cy="164" r="5" fill="#FF0000"/>
<circle cx="58" cy="296" r="5" fill="black"/>
<circle cx="716.107" cy="290" r="5" fill="black"/>
<circle cx="716.107" cy="86" r="5" fill="black"/>
<circle cx="385.107" cy="296" r="5" fill="black"/>
<circle cx="58" cy="378" r="5" fill="black"/>
<circle cx="716.107" cy="372" r="5" fill="black"/>
<circle cx="385.107" cy="378" r="5" fill="black"/>
<circle cx="716.107" cy="214" r="5" fill="#FF0000"/>
<circle cx="716.107" cy="155" r="5" fill="#FF0000"/>
<circle cx="821.107" cy="152" r="5" fill="#0500FF"/>
<circle cx="821.107" cy="214" r="5" fill="#0500FF"/>
<path d="M253.107 276.769C271.782 276.769 290.236 275.34 308.826 275.34C313.413 275.34 301.109 265.401 298.508 262.799C295.571 259.863 301.487 265.896 302 266.768C303.831 269.88 307.397 271.52 307.397 275.34C307.397 278.867 304.061 281.393 301.683 283.912C299.862 285.84 297.396 293.471 297.396 289.627" stroke="black" stroke-width="3" stroke-linecap="round"/>
<path d="M582.107 276.769C600.782 276.769 619.236 275.34 637.826 275.34C642.413 275.34 630.109 265.401 627.508 262.799C624.571 259.863 630.487 265.896 631 266.768C632.831 269.88 636.397 271.52 636.397 275.34C636.397 278.867 633.061 281.393 630.683 283.912C628.862 285.84 626.396 293.471 626.396 289.627" stroke="black" stroke-width="3" stroke-linecap="round"/>
<path d="M488.401 158.618C488.401 145.094 488.401 131.569 488.401 118.045C488.401 112.769 486.952 107.69 486.952 102.467C486.952 101.18 487.608 98.4825 485.865 98.4825C484.392 98.4825 481.88 97.708 481.88 95.9466C481.88 89.9634 484.298 91.2124 489.126 89.2246C491.022 88.4438 491.299 96.5754 491.299 97.7579C491.299 99.9926 491.541 100.656 489.126 100.656C486.496 100.656 487.387 99.6995 485.865 98.4825C482.688 95.941 489.126 90.1904 489.126 93.773C489.126 98.3008 485.503 99.0268 485.503 94.1353" stroke="#131212" stroke-width="3" stroke-linecap="round"/>
<path d="M383.345 156.445C383.345 150.494 384.676 145.392 385.478 139.781C386.099 135.435 389.361 131.791 391.677 128.188C394.179 124.296 397.569 120.671 400.733 117.32C404.504 113.327 410.195 109.055 415.385 107.016C418.644 105.735 421.526 103.643 425.005 102.87C428.331 102.131 431.119 99.8554 434.464 99.2472C437.756 98.6487 441.271 96.3088 444.567 96.3088C446.895 96.3088 451.971 94.8924 453.986 93.773C456.629 92.3045 461.961 93.4107 464.894 93.4107C467.105 93.4107 469.136 92.7646 471.174 92.6862C474.868 92.5441 478.22 91.9617 481.881 91.9617" stroke="#131212" stroke-width="3" stroke-linecap="round"/>
<path d="M503.616 83C503.616 89.198 503.855 97.1959 503.616 103.393C503.588 104.137 502.388 105.626 503.053 106.291C504.19 107.429 509.54 106.262 510.781 106.09C515.636 105.416 521.151 105.003 526.036 105.003C534.579 105.003 543.911 104.279 552.844 104.279C556.421 104.279 560.018 104.141 563.591 104.279C568.05 104.45 568.099 105.606 568.099 100.092C568.099 94.926 567.375 90.3579 567.375 85.2799C567.375 81.8515 567.841 81.0937 564.155 81.0937C560.653 81.0937 557.151 81.0937 553.649 81.0937C545.342 81.0937 536.14 82.1334 528.009 80.7315C523.647 79.9795 519.056 80.3692 514.645 80.3692C511.587 80.3692 507.616 79.5938 503.616 81.0938" stroke="#131212" stroke-width="3" stroke-linecap="round"/>
<path d="M580.416 80.3692C580.416 82.0611 580.529 101.051 581.543 101.34C588.727 103.393 596.776 102.765 604.245 103.594C608.745 104.094 610.122 105.72 610.122 99.8912C610.122 95.0583 611.103 87.9473 608.109 83.8309C607.392 82.8444 608.843 80.4306 607.063 80.3692C602.687 80.2184 598.278 80.3692 593.9 80.3692C589.692 80.3692 583.389 81.4934 579.692 79.6447" stroke="#131212" stroke-width="3" stroke-linecap="round"/>
<path d="M534.592 149.399C534.592 140.678 534.965 131.772 533.857 123.127C533.501 120.352 532.782 117.296 532.63 114.57C532.591 113.869 532.974 110.399 532.14 111.136C530.184 112.861 529.241 113.598 531.431 111.408C532.952 109.888 537.371 111.132 538.026 113.098" stroke="#131212" stroke-width="3" stroke-linecap="round"/>
<path d="M425.656 179.317C433.496 185.256 442.281 188.284 451.708 191.021C458.707 193.053 465.366 195.663 472.475 197.44C480.276 199.39 488.141 199.518 495.884 201.215C503.179 202.814 511.19 201.971 518.622 201.971C528.752 201.971 539.869 203.26 549.876 201.551C559.042 199.986 566.914 197.038 575.173 192.909C581.516 189.737 589.302 185.337 592.918 178.939C594.008 177.011 596.182 175.537 596.904 173.443C597.787 170.881 597.987 167.497 598.582 164.801C599.829 159.154 600.146 152.917 600.679 147.181C601.708 136.128 601.17 126.434 596.694 116.305C595.99 114.713 595.28 110.654 594.051 109.425C593.547 108.921 593.49 110.74 593.128 111.355C591.613 113.93 589.899 113.05 591.953 110.767C593.109 109.483 594.901 109.769 596.149 110.767C597.049 111.488 600.49 112.11 599.337 112.11" stroke="#131212" stroke-width="3" stroke-linecap="round"/>
<rect width="38" height="24" transform="translate(69.1069 150.801)" fill="#0500FF"/>
<path d="M80.7275 167.265V162.642C80.7275 162.287 80.6556 161.98 80.5117 161.72C80.3734 161.455 80.1631 161.25 79.8809 161.106C79.5986 160.962 79.25 160.89 78.835 160.89C78.4476 160.89 78.1073 160.957 77.814 161.089C77.5262 161.222 77.2993 161.396 77.1333 161.612C76.9728 161.828 76.8926 162.061 76.8926 162.31H75.3569C75.3569 161.989 75.4399 161.67 75.606 161.355C75.772 161.04 76.0099 160.755 76.3198 160.5C76.6353 160.24 77.0116 160.035 77.4487 159.886C77.8914 159.731 78.384 159.653 78.9263 159.653C79.5793 159.653 80.1548 159.764 80.6528 159.985C81.1564 160.207 81.5493 160.542 81.8315 160.99C82.1193 161.432 82.2632 161.989 82.2632 162.658V166.842C82.2632 167.141 82.2881 167.459 82.3379 167.796C82.3932 168.134 82.4735 168.424 82.5786 168.668V168.801H80.9766C80.8991 168.624 80.8382 168.389 80.7939 168.095C80.7497 167.796 80.7275 167.52 80.7275 167.265ZM80.9932 163.355L81.0098 164.435H79.4575C79.0203 164.435 78.6302 164.471 78.2871 164.542C77.944 164.609 77.6562 164.711 77.4238 164.85C77.1914 164.988 77.0143 165.162 76.8926 165.373C76.7708 165.577 76.71 165.818 76.71 166.095C76.71 166.377 76.7736 166.634 76.9009 166.867C77.0282 167.099 77.2191 167.285 77.4736 167.423C77.7337 167.556 78.0519 167.622 78.4282 167.622C78.8986 167.622 79.3136 167.522 79.6733 167.323C80.033 167.124 80.318 166.881 80.5283 166.593C80.7441 166.305 80.8604 166.026 80.877 165.754L81.5327 166.493C81.494 166.726 81.3888 166.983 81.2173 167.265C81.0457 167.547 80.8161 167.819 80.5283 168.079C80.2461 168.333 79.9085 168.546 79.5156 168.718C79.1283 168.884 78.6911 168.967 78.2041 168.967C77.5954 168.967 77.0614 168.848 76.6021 168.61C76.1483 168.372 75.7941 168.054 75.5396 167.655C75.2905 167.251 75.166 166.8 75.166 166.302C75.166 165.821 75.2601 165.397 75.4482 165.032C75.6364 164.661 75.9076 164.354 76.2617 164.111C76.6159 163.862 77.042 163.674 77.54 163.546C78.0381 163.419 78.5942 163.355 79.2085 163.355H80.9932ZM84.6704 156.051H86.2144V167.058L86.0815 168.801H84.6704V156.051ZM92.2822 164.235V164.41C92.2822 165.063 92.2048 165.669 92.0498 166.228C91.8949 166.781 91.668 167.262 91.3691 167.672C91.0703 168.081 90.7051 168.4 90.2734 168.626C89.8418 168.853 89.3465 168.967 88.7876 168.967C88.2176 168.967 87.7168 168.87 87.2852 168.676C86.859 168.477 86.4993 168.192 86.2061 167.821C85.9128 167.451 85.6776 167.002 85.5005 166.477C85.3289 165.951 85.21 165.359 85.1436 164.7V163.937C85.21 163.272 85.3289 162.678 85.5005 162.152C85.6776 161.626 85.9128 161.178 86.2061 160.807C86.4993 160.431 86.859 160.146 87.2852 159.952C87.7113 159.753 88.2065 159.653 88.771 159.653C89.3354 159.653 89.8363 159.764 90.2734 159.985C90.7106 160.201 91.0758 160.511 91.3691 160.915C91.668 161.319 91.8949 161.803 92.0498 162.368C92.2048 162.927 92.2822 163.549 92.2822 164.235ZM90.7383 164.41V164.235C90.7383 163.787 90.6968 163.367 90.6138 162.974C90.5308 162.575 90.3979 162.227 90.2153 161.928C90.0327 161.623 89.792 161.385 89.4932 161.214C89.1943 161.037 88.8263 160.948 88.3892 160.948C88.0018 160.948 87.6642 161.015 87.3765 161.147C87.0942 161.28 86.8535 161.46 86.6543 161.687C86.4551 161.908 86.2918 162.163 86.1646 162.451C86.0428 162.733 85.9515 163.026 85.8906 163.331V165.331C85.9792 165.718 86.123 166.092 86.3223 166.452C86.527 166.806 86.7982 167.096 87.1357 167.323C87.4788 167.55 87.9022 167.664 88.4058 167.664C88.8208 167.664 89.175 167.581 89.4683 167.415C89.7671 167.243 90.0078 167.008 90.1904 166.709C90.3786 166.41 90.5169 166.064 90.6055 165.671C90.694 165.278 90.7383 164.858 90.7383 164.41ZM97.8188 167.705C98.1841 167.705 98.5216 167.63 98.8315 167.481C99.1414 167.332 99.396 167.127 99.5952 166.867C99.7944 166.601 99.9079 166.299 99.9355 165.962H101.396C101.369 166.493 101.189 166.988 100.857 167.448C100.53 167.902 100.102 168.27 99.5703 168.552C99.0391 168.828 98.4552 168.967 97.8188 168.967C97.1437 168.967 96.5544 168.848 96.0508 168.61C95.5527 168.372 95.1377 168.045 94.8057 167.63C94.4792 167.215 94.2329 166.739 94.0669 166.203C93.9064 165.66 93.8262 165.088 93.8262 164.484V164.136C93.8262 163.533 93.9064 162.963 94.0669 162.426C94.2329 161.883 94.4792 161.405 94.8057 160.99C95.1377 160.575 95.5527 160.248 96.0508 160.01C96.5544 159.772 97.1437 159.653 97.8188 159.653C98.5216 159.653 99.1359 159.797 99.6616 160.085C100.187 160.367 100.6 160.755 100.898 161.247C101.203 161.734 101.369 162.287 101.396 162.907H99.9355C99.9079 162.536 99.8027 162.202 99.6201 161.903C99.443 161.604 99.1995 161.366 98.8896 161.189C98.5853 161.006 98.2284 160.915 97.8188 160.915C97.3485 160.915 96.9528 161.009 96.6318 161.197C96.3164 161.38 96.0646 161.629 95.8765 161.944C95.6938 162.254 95.561 162.6 95.478 162.982C95.4006 163.358 95.3618 163.743 95.3618 164.136V164.484C95.3618 164.877 95.4006 165.265 95.478 165.646C95.5555 166.028 95.6855 166.374 95.8682 166.684C96.0563 166.994 96.3081 167.243 96.6235 167.431C96.9445 167.614 97.3429 167.705 97.8188 167.705Z" fill="white"/>
<rect width="38" height="24" transform="translate(396 151)" fill="#0500FF"/>
<path d="M407.621 167.464V162.841C407.621 162.487 407.549 162.18 407.405 161.919C407.266 161.654 407.056 161.449 406.774 161.305C406.492 161.161 406.143 161.089 405.728 161.089C405.341 161.089 405 161.156 404.707 161.289C404.419 161.421 404.192 161.596 404.026 161.812C403.866 162.027 403.786 162.26 403.786 162.509H402.25C402.25 162.188 402.333 161.87 402.499 161.554C402.665 161.239 402.903 160.954 403.213 160.699C403.528 160.439 403.905 160.234 404.342 160.085C404.785 159.93 405.277 159.853 405.819 159.853C406.472 159.853 407.048 159.963 407.546 160.185C408.049 160.406 408.442 160.741 408.725 161.189C409.012 161.632 409.156 162.188 409.156 162.857V167.041C409.156 167.34 409.181 167.658 409.231 167.996C409.286 168.333 409.367 168.624 409.472 168.867V169H407.87C407.792 168.823 407.731 168.588 407.687 168.294C407.643 167.996 407.621 167.719 407.621 167.464ZM407.886 163.555L407.903 164.634H406.351C405.913 164.634 405.523 164.67 405.18 164.742C404.837 164.808 404.549 164.91 404.317 165.049C404.084 165.187 403.907 165.361 403.786 165.572C403.664 165.777 403.603 166.017 403.603 166.294C403.603 166.576 403.667 166.833 403.794 167.066C403.921 167.298 404.112 167.484 404.367 167.622C404.627 167.755 404.945 167.821 405.321 167.821C405.792 167.821 406.207 167.722 406.566 167.522C406.926 167.323 407.211 167.08 407.421 166.792C407.637 166.504 407.753 166.225 407.77 165.954L408.426 166.692C408.387 166.925 408.282 167.182 408.11 167.464C407.939 167.747 407.709 168.018 407.421 168.278C407.139 168.532 406.802 168.745 406.409 168.917C406.021 169.083 405.584 169.166 405.097 169.166C404.488 169.166 403.954 169.047 403.495 168.809C403.041 168.571 402.687 168.253 402.433 167.854C402.184 167.451 402.059 167 402.059 166.501C402.059 166.02 402.153 165.597 402.341 165.231C402.529 164.861 402.801 164.554 403.155 164.31C403.509 164.061 403.935 163.873 404.433 163.746C404.931 163.618 405.487 163.555 406.102 163.555H407.886ZM411.563 156.25H413.107V167.257L412.975 169H411.563V156.25ZM419.175 164.435V164.609C419.175 165.262 419.098 165.868 418.943 166.427C418.788 166.98 418.561 167.462 418.262 167.871C417.963 168.281 417.598 168.599 417.167 168.826C416.735 169.053 416.24 169.166 415.681 169.166C415.111 169.166 414.61 169.069 414.178 168.875C413.752 168.676 413.392 168.391 413.099 168.021C412.806 167.65 412.571 167.201 412.394 166.676C412.222 166.15 412.103 165.558 412.037 164.899V164.136C412.103 163.472 412.222 162.877 412.394 162.351C412.571 161.825 412.806 161.377 413.099 161.006C413.392 160.63 413.752 160.345 414.178 160.151C414.604 159.952 415.1 159.853 415.664 159.853C416.229 159.853 416.729 159.963 417.167 160.185C417.604 160.4 417.969 160.71 418.262 161.114C418.561 161.518 418.788 162.002 418.943 162.567C419.098 163.126 419.175 163.748 419.175 164.435ZM417.631 164.609V164.435C417.631 163.986 417.59 163.566 417.507 163.173C417.424 162.774 417.291 162.426 417.108 162.127C416.926 161.823 416.685 161.585 416.386 161.413C416.087 161.236 415.719 161.147 415.282 161.147C414.895 161.147 414.557 161.214 414.27 161.347C413.987 161.479 413.747 161.659 413.547 161.886C413.348 162.108 413.185 162.362 413.058 162.65C412.936 162.932 412.845 163.225 412.784 163.53V165.53C412.872 165.918 413.016 166.291 413.215 166.651C413.42 167.005 413.691 167.296 414.029 167.522C414.372 167.749 414.795 167.863 415.299 167.863C415.714 167.863 416.068 167.78 416.361 167.614C416.66 167.442 416.901 167.207 417.083 166.908C417.272 166.609 417.41 166.264 417.499 165.871C417.587 165.478 417.631 165.057 417.631 164.609ZM424.712 167.904C425.077 167.904 425.415 167.83 425.725 167.68C426.035 167.531 426.289 167.326 426.488 167.066C426.688 166.8 426.801 166.499 426.829 166.161H428.29C428.262 166.692 428.082 167.188 427.75 167.647C427.424 168.101 426.995 168.469 426.463 168.751C425.932 169.028 425.348 169.166 424.712 169.166C424.037 169.166 423.447 169.047 422.944 168.809C422.446 168.571 422.031 168.245 421.699 167.83C421.372 167.415 421.126 166.939 420.96 166.402C420.799 165.86 420.719 165.287 420.719 164.684V164.335C420.719 163.732 420.799 163.162 420.96 162.625C421.126 162.083 421.372 161.604 421.699 161.189C422.031 160.774 422.446 160.447 422.944 160.209C423.447 159.972 424.037 159.853 424.712 159.853C425.415 159.853 426.029 159.996 426.555 160.284C427.08 160.566 427.493 160.954 427.792 161.446C428.096 161.933 428.262 162.487 428.29 163.106H426.829C426.801 162.736 426.696 162.401 426.513 162.102C426.336 161.803 426.093 161.565 425.783 161.388C425.478 161.206 425.121 161.114 424.712 161.114C424.242 161.114 423.846 161.208 423.525 161.396C423.209 161.579 422.958 161.828 422.77 162.144C422.587 162.453 422.454 162.799 422.371 163.181C422.294 163.557 422.255 163.942 422.255 164.335V164.684C422.255 165.076 422.294 165.464 422.371 165.846C422.449 166.228 422.579 166.573 422.761 166.883C422.949 167.193 423.201 167.442 423.517 167.63C423.838 167.813 424.236 167.904 424.712 167.904Z" fill="white"/>
<rect width="38" height="24" transform="translate(826 55)" fill="#0500FF"/>
<path d="M837.621 71.4644V66.8408C837.621 66.4867 837.549 66.1795 837.405 65.9194C837.266 65.6538 837.056 65.4491 836.774 65.3052C836.492 65.1613 836.143 65.0894 835.728 65.0894C835.341 65.0894 835 65.1558 834.707 65.2886C834.419 65.4214 834.192 65.5957 834.026 65.8115C833.866 66.0273 833.786 66.2598 833.786 66.5088H832.25C832.25 66.1878 832.333 65.8696 832.499 65.5542C832.665 65.2388 832.903 64.9538 833.213 64.6992C833.528 64.4391 833.905 64.2344 834.342 64.085C834.785 63.93 835.277 63.8525 835.819 63.8525C836.472 63.8525 837.048 63.9632 837.546 64.1846C838.049 64.4059 838.442 64.7407 838.725 65.189C839.012 65.6317 839.156 66.1878 839.156 66.8574V71.041C839.156 71.3398 839.181 71.658 839.231 71.9956C839.286 72.3332 839.367 72.6237 839.472 72.8672V73H837.87C837.792 72.8229 837.731 72.5877 837.687 72.2944C837.643 71.9956 837.621 71.7189 837.621 71.4644ZM837.886 67.5547L837.903 68.6338H836.351C835.913 68.6338 835.523 68.6698 835.18 68.7417C834.837 68.8081 834.549 68.9105 834.317 69.0488C834.084 69.1872 833.907 69.3615 833.786 69.5718C833.664 69.7765 833.603 70.0173 833.603 70.2939C833.603 70.5762 833.667 70.8335 833.794 71.0659C833.921 71.2983 834.112 71.4837 834.367 71.6221C834.627 71.7549 834.945 71.8213 835.321 71.8213C835.792 71.8213 836.207 71.7217 836.566 71.5225C836.926 71.3232 837.211 71.0798 837.421 70.792C837.637 70.5042 837.753 70.2248 837.77 69.9536L838.426 70.6924C838.387 70.9248 838.282 71.1821 838.11 71.4644C837.939 71.7466 837.709 72.0177 837.421 72.2778C837.139 72.5324 836.802 72.7454 836.409 72.917C836.021 73.083 835.584 73.166 835.097 73.166C834.488 73.166 833.954 73.047 833.495 72.8091C833.041 72.5711 832.687 72.2529 832.433 71.8545C832.184 71.4505 832.059 70.9995 832.059 70.5015C832.059 70.02 832.153 69.5967 832.341 69.2314C832.529 68.8607 832.801 68.5535 833.155 68.3101C833.509 68.061 833.935 67.8729 834.433 67.7456C834.931 67.6183 835.487 67.5547 836.102 67.5547H837.886ZM841.563 60.25H843.107V71.2568L842.975 73H841.563V60.25ZM849.175 68.4346V68.6089C849.175 69.2619 849.098 69.8678 848.943 70.4268C848.788 70.9801 848.561 71.4616 848.262 71.8711C847.963 72.2806 847.598 72.5988 847.167 72.8257C846.735 73.0526 846.24 73.166 845.681 73.166C845.111 73.166 844.61 73.0692 844.178 72.8755C843.752 72.6763 843.392 72.3913 843.099 72.0205C842.806 71.6497 842.571 71.2015 842.394 70.6758C842.222 70.1501 842.103 69.5579 842.037 68.8994V68.1357C842.103 67.4717 842.222 66.8768 842.394 66.3511C842.571 65.8254 842.806 65.3771 843.099 65.0063C843.392 64.63 843.752 64.3451 844.178 64.1514C844.604 63.9521 845.1 63.8525 845.664 63.8525C846.229 63.8525 846.729 63.9632 847.167 64.1846C847.604 64.4004 847.969 64.7103 848.262 65.1143C848.561 65.5182 848.788 66.0024 848.943 66.5669C849.098 67.1258 849.175 67.7484 849.175 68.4346ZM847.631 68.6089V68.4346C847.631 67.9863 847.59 67.5658 847.507 67.1729C847.424 66.7744 847.291 66.4258 847.108 66.127C846.926 65.8226 846.685 65.5846 846.386 65.4131C846.087 65.236 845.719 65.1475 845.282 65.1475C844.895 65.1475 844.557 65.2139 844.27 65.3467C843.987 65.4795 843.747 65.6593 843.547 65.8862C843.348 66.1076 843.185 66.3621 843.058 66.6499C842.936 66.9321 842.845 67.2254 842.784 67.5298V69.5303C842.872 69.9176 843.016 70.2912 843.215 70.6509C843.42 71.005 843.691 71.2956 844.029 71.5225C844.372 71.7493 844.795 71.8628 845.299 71.8628C845.714 71.8628 846.068 71.7798 846.361 71.6138C846.66 71.4422 846.901 71.207 847.083 70.9082C847.272 70.6094 847.41 70.2635 847.499 69.8706C847.587 69.4777 847.631 69.0571 847.631 68.6089ZM854.712 71.9043C855.077 71.9043 855.415 71.8296 855.725 71.6802C856.035 71.5308 856.289 71.326 856.488 71.0659C856.688 70.8003 856.801 70.4987 856.829 70.1611H858.29C858.262 70.6924 858.082 71.1877 857.75 71.647C857.424 72.1007 856.995 72.4688 856.463 72.751C855.932 73.0277 855.348 73.166 854.712 73.166C854.037 73.166 853.447 73.047 852.944 72.8091C852.446 72.5711 852.031 72.2446 851.699 71.8296C851.372 71.4146 851.126 70.9386 850.96 70.4019C850.799 69.8595 850.719 69.2868 850.719 68.6836V68.335C850.719 67.7318 850.799 67.1618 850.96 66.625C851.126 66.0827 851.372 65.604 851.699 65.189C852.031 64.7739 852.446 64.4474 852.944 64.2095C853.447 63.9715 854.037 63.8525 854.712 63.8525C855.415 63.8525 856.029 63.9964 856.555 64.2842C857.08 64.5664 857.493 64.9538 857.792 65.4463C858.096 65.9333 858.262 66.4867 858.29 67.1064H856.829C856.801 66.7357 856.696 66.4009 856.513 66.1021C856.336 65.8032 856.093 65.5653 855.783 65.3882C855.478 65.2056 855.121 65.1143 854.712 65.1143C854.242 65.1143 853.846 65.2083 853.525 65.3965C853.209 65.5791 852.958 65.8281 852.77 66.1436C852.587 66.4535 852.454 66.7993 852.371 67.1812C852.294 67.5575 852.255 67.9421 852.255 68.335V68.6836C852.255 69.0765 852.294 69.4639 852.371 69.8457C852.449 70.2275 852.579 70.5734 852.761 70.8833C852.949 71.1932 853.201 71.4422 853.517 71.6304C853.838 71.813 854.236 71.9043 854.712 71.9043Z" fill="white"/>
<rect width="38" height="24" transform="translate(821 55)" fill="#0500FF"/>
<path d="M832.621 71.4644V66.8408C832.621 66.4867 832.549 66.1795 832.405 65.9194C832.266 65.6538 832.056 65.4491 831.774 65.3052C831.492 65.1613 831.143 65.0894 830.728 65.0894C830.341 65.0894 830 65.1558 829.707 65.2886C829.419 65.4214 829.192 65.5957 829.026 65.8115C828.866 66.0273 828.786 66.2598 828.786 66.5088H827.25C827.25 66.1878 827.333 65.8696 827.499 65.5542C827.665 65.2388 827.903 64.9538 828.213 64.6992C828.528 64.4391 828.905 64.2344 829.342 64.085C829.785 63.93 830.277 63.8525 830.819 63.8525C831.472 63.8525 832.048 63.9632 832.546 64.1846C833.049 64.4059 833.442 64.7407 833.725 65.189C834.012 65.6317 834.156 66.1878 834.156 66.8574V71.041C834.156 71.3398 834.181 71.658 834.231 71.9956C834.286 72.3332 834.367 72.6237 834.472 72.8672V73H832.87C832.792 72.8229 832.731 72.5877 832.687 72.2944C832.643 71.9956 832.621 71.7189 832.621 71.4644ZM832.886 67.5547L832.903 68.6338H831.351C830.913 68.6338 830.523 68.6698 830.18 68.7417C829.837 68.8081 829.549 68.9105 829.317 69.0488C829.084 69.1872 828.907 69.3615 828.786 69.5718C828.664 69.7765 828.603 70.0173 828.603 70.2939C828.603 70.5762 828.667 70.8335 828.794 71.0659C828.921 71.2983 829.112 71.4837 829.367 71.6221C829.627 71.7549 829.945 71.8213 830.321 71.8213C830.792 71.8213 831.207 71.7217 831.566 71.5225C831.926 71.3232 832.211 71.0798 832.421 70.792C832.637 70.5042 832.753 70.2248 832.77 69.9536L833.426 70.6924C833.387 70.9248 833.282 71.1821 833.11 71.4644C832.939 71.7466 832.709 72.0177 832.421 72.2778C832.139 72.5324 831.802 72.7454 831.409 72.917C831.021 73.083 830.584 73.166 830.097 73.166C829.488 73.166 828.954 73.047 828.495 72.8091C828.041 72.5711 827.687 72.2529 827.433 71.8545C827.184 71.4505 827.059 70.9995 827.059 70.5015C827.059 70.02 827.153 69.5967 827.341 69.2314C827.529 68.8607 827.801 68.5535 828.155 68.3101C828.509 68.061 828.935 67.8729 829.433 67.7456C829.931 67.6183 830.487 67.5547 831.102 67.5547H832.886ZM836.563 60.25H838.107V71.2568L837.975 73H836.563V60.25ZM844.175 68.4346V68.6089C844.175 69.2619 844.098 69.8678 843.943 70.4268C843.788 70.9801 843.561 71.4616 843.262 71.8711C842.963 72.2806 842.598 72.5988 842.167 72.8257C841.735 73.0526 841.24 73.166 840.681 73.166C840.111 73.166 839.61 73.0692 839.178 72.8755C838.752 72.6763 838.392 72.3913 838.099 72.0205C837.806 71.6497 837.571 71.2015 837.394 70.6758C837.222 70.1501 837.103 69.5579 837.037 68.8994V68.1357C837.103 67.4717 837.222 66.8768 837.394 66.3511C837.571 65.8254 837.806 65.3771 838.099 65.0063C838.392 64.63 838.752 64.3451 839.178 64.1514C839.604 63.9521 840.1 63.8525 840.664 63.8525C841.229 63.8525 841.729 63.9632 842.167 64.1846C842.604 64.4004 842.969 64.7103 843.262 65.1143C843.561 65.5182 843.788 66.0024 843.943 66.5669C844.098 67.1258 844.175 67.7484 844.175 68.4346ZM842.631 68.6089V68.4346C842.631 67.9863 842.59 67.5658 842.507 67.1729C842.424 66.7744 842.291 66.4258 842.108 66.127C841.926 65.8226 841.685 65.5846 841.386 65.4131C841.087 65.236 840.719 65.1475 840.282 65.1475C839.895 65.1475 839.557 65.2139 839.27 65.3467C838.987 65.4795 838.747 65.6593 838.547 65.8862C838.348 66.1076 838.185 66.3621 838.058 66.6499C837.936 66.9321 837.845 67.2254 837.784 67.5298V69.5303C837.872 69.9176 838.016 70.2912 838.215 70.6509C838.42 71.005 838.691 71.2956 839.029 71.5225C839.372 71.7493 839.795 71.8628 840.299 71.8628C840.714 71.8628 841.068 71.7798 841.361 71.6138C841.66 71.4422 841.901 71.207 842.083 70.9082C842.272 70.6094 842.41 70.2635 842.499 69.8706C842.587 69.4777 842.631 69.0571 842.631 68.6089ZM849.712 71.9043C850.077 71.9043 850.415 71.8296 850.725 71.6802C851.035 71.5308 851.289 71.326 851.488 71.0659C851.688 70.8003 851.801 70.4987 851.829 70.1611H853.29C853.262 70.6924 853.082 71.1877 852.75 71.647C852.424 72.1007 851.995 72.4688 851.463 72.751C850.932 73.0277 850.348 73.166 849.712 73.166C849.037 73.166 848.447 73.047 847.944 72.8091C847.446 72.5711 847.031 72.2446 846.699 71.8296C846.372 71.4146 846.126 70.9386 845.96 70.4019C845.799 69.8595 845.719 69.2868 845.719 68.6836V68.335C845.719 67.7318 845.799 67.1618 845.96 66.625C846.126 66.0827 846.372 65.604 846.699 65.189C847.031 64.7739 847.446 64.4474 847.944 64.2095C848.447 63.9715 849.037 63.8525 849.712 63.8525C850.415 63.8525 851.029 63.9964 851.555 64.2842C852.08 64.5664 852.493 64.9538 852.792 65.4463C853.096 65.9333 853.262 66.4867 853.29 67.1064H851.829C851.801 66.7357 851.696 66.4009 851.513 66.1021C851.336 65.8032 851.093 65.5653 850.783 65.3882C850.478 65.2056 850.121 65.1143 849.712 65.1143C849.242 65.1143 848.846 65.2083 848.525 65.3965C848.209 65.5791 847.958 65.8281 847.77 66.1436C847.587 66.4535 847.454 66.7993 847.371 67.1812C847.294 67.5575 847.255 67.9421 847.255 68.335V68.6836C847.255 69.0765 847.294 69.4639 847.371 69.8457C847.449 70.2275 847.579 70.5734 847.761 70.8833C847.949 71.1932 848.201 71.4422 848.517 71.6304C848.838 71.813 849.236 71.9043 849.712 71.9043Z" fill="white"/>
<rect width="88" height="24" transform="translate(503 152)" fill="#FF0000"/>
<path d="M508.764 165.609V165.418C508.764 164.771 508.858 164.17 509.046 163.617C509.234 163.058 509.505 162.574 509.859 162.164C510.214 161.749 510.642 161.428 511.146 161.201C511.65 160.969 512.214 160.853 512.839 160.853C513.47 160.853 514.037 160.969 514.541 161.201C515.05 161.428 515.482 161.749 515.836 162.164C516.196 162.574 516.47 163.058 516.658 163.617C516.846 164.17 516.94 164.771 516.94 165.418V165.609C516.94 166.256 516.846 166.857 516.658 167.41C516.47 167.964 516.196 168.448 515.836 168.863C515.482 169.272 515.053 169.593 514.549 169.826C514.051 170.053 513.487 170.166 512.856 170.166C512.225 170.166 511.658 170.053 511.154 169.826C510.651 169.593 510.219 169.272 509.859 168.863C509.505 168.448 509.234 167.964 509.046 167.41C508.858 166.857 508.764 166.256 508.764 165.609ZM510.299 165.418V165.609C510.299 166.057 510.352 166.48 510.457 166.879C510.562 167.272 510.72 167.62 510.93 167.925C511.146 168.229 511.414 168.47 511.735 168.647C512.056 168.819 512.43 168.904 512.856 168.904C513.277 168.904 513.645 168.819 513.96 168.647C514.281 168.47 514.547 168.229 514.757 167.925C514.967 167.62 515.125 167.272 515.23 166.879C515.341 166.48 515.396 166.057 515.396 165.609V165.418C515.396 164.975 515.341 164.557 515.23 164.165C515.125 163.766 514.964 163.415 514.749 163.11C514.538 162.8 514.273 162.557 513.952 162.38C513.636 162.203 513.265 162.114 512.839 162.114C512.419 162.114 512.048 162.203 511.727 162.38C511.412 162.557 511.146 162.8 510.93 163.11C510.72 163.415 510.562 163.766 510.457 164.165C510.352 164.557 510.299 164.975 510.299 165.418ZM520.401 162.43V170H518.866V161.019H520.36L520.401 162.43ZM523.207 160.969L523.199 162.396C523.071 162.369 522.95 162.352 522.833 162.347C522.723 162.336 522.596 162.33 522.452 162.33C522.097 162.33 521.785 162.385 521.514 162.496C521.243 162.607 521.013 162.762 520.825 162.961C520.637 163.16 520.487 163.398 520.376 163.675C520.271 163.946 520.202 164.245 520.169 164.571L519.737 164.82C519.737 164.278 519.79 163.769 519.895 163.293C520.006 162.817 520.174 162.396 520.401 162.031C520.628 161.66 520.916 161.373 521.265 161.168C521.619 160.958 522.039 160.853 522.526 160.853C522.637 160.853 522.764 160.866 522.908 160.894C523.052 160.916 523.152 160.941 523.207 160.969ZM526.295 161.019V170H524.751V161.019H526.295ZM524.635 158.636C524.635 158.387 524.709 158.177 524.859 158.005C525.014 157.834 525.241 157.748 525.54 157.748C525.833 157.748 526.057 157.834 526.212 158.005C526.372 158.177 526.453 158.387 526.453 158.636C526.453 158.874 526.372 159.079 526.212 159.25C526.057 159.417 525.833 159.5 525.54 159.5C525.241 159.5 525.014 159.417 524.859 159.25C524.709 159.079 524.635 158.874 524.635 158.636ZM534.579 161.019H535.974V169.809C535.974 170.6 535.813 171.276 535.492 171.834C535.171 172.393 534.723 172.817 534.147 173.104C533.577 173.398 532.919 173.544 532.172 173.544C531.862 173.544 531.497 173.495 531.076 173.395C530.661 173.301 530.252 173.138 529.848 172.905C529.449 172.678 529.114 172.371 528.843 171.984L529.648 171.071C530.025 171.525 530.418 171.84 530.827 172.017C531.242 172.194 531.652 172.283 532.056 172.283C532.543 172.283 532.963 172.191 533.317 172.009C533.672 171.826 533.945 171.555 534.139 171.195C534.338 170.841 534.438 170.404 534.438 169.884V162.994L534.579 161.019ZM528.395 165.609V165.435C528.395 164.748 528.475 164.126 528.636 163.567C528.802 163.002 529.037 162.518 529.341 162.114C529.651 161.71 530.025 161.4 530.462 161.185C530.899 160.963 531.392 160.853 531.939 160.853C532.504 160.853 532.996 160.952 533.417 161.151C533.843 161.345 534.203 161.63 534.496 162.006C534.795 162.377 535.03 162.825 535.202 163.351C535.373 163.877 535.492 164.472 535.559 165.136V165.899C535.498 166.558 535.379 167.15 535.202 167.676C535.03 168.201 534.795 168.65 534.496 169.021C534.203 169.391 533.843 169.676 533.417 169.875C532.991 170.069 532.493 170.166 531.923 170.166C531.386 170.166 530.899 170.053 530.462 169.826C530.03 169.599 529.66 169.281 529.35 168.871C529.04 168.462 528.802 167.98 528.636 167.427C528.475 166.868 528.395 166.262 528.395 165.609ZM529.931 165.435V165.609C529.931 166.057 529.975 166.478 530.063 166.871C530.158 167.264 530.299 167.609 530.487 167.908C530.681 168.207 530.927 168.442 531.226 168.614C531.524 168.78 531.881 168.863 532.296 168.863C532.806 168.863 533.226 168.755 533.558 168.539C533.89 168.323 534.153 168.038 534.347 167.684C534.546 167.33 534.701 166.945 534.812 166.53V164.53C534.751 164.225 534.657 163.932 534.529 163.65C534.408 163.362 534.247 163.108 534.048 162.886C533.854 162.659 533.613 162.479 533.326 162.347C533.038 162.214 532.7 162.147 532.313 162.147C531.892 162.147 531.53 162.236 531.226 162.413C530.927 162.585 530.681 162.823 530.487 163.127C530.299 163.426 530.158 163.774 530.063 164.173C529.975 164.566 529.931 164.986 529.931 165.435ZM539.975 161.019V170H538.431V161.019H539.975ZM538.314 158.636C538.314 158.387 538.389 158.177 538.539 158.005C538.694 157.834 538.92 157.748 539.219 157.748C539.513 157.748 539.737 157.834 539.892 158.005C540.052 158.177 540.132 158.387 540.132 158.636C540.132 158.874 540.052 159.079 539.892 159.25C539.737 159.417 539.513 159.5 539.219 159.5C538.92 159.5 538.694 159.417 538.539 159.25C538.389 159.079 538.314 158.874 538.314 158.636ZM543.976 162.936V170H542.44V161.019H543.893L543.976 162.936ZM543.61 165.169L542.971 165.144C542.977 164.53 543.068 163.963 543.245 163.442C543.422 162.917 543.671 162.46 543.992 162.073C544.313 161.685 544.695 161.387 545.138 161.176C545.586 160.96 546.081 160.853 546.624 160.853C547.066 160.853 547.465 160.913 547.819 161.035C548.173 161.151 548.475 161.34 548.724 161.6C548.978 161.86 549.172 162.197 549.305 162.612C549.438 163.022 549.504 163.523 549.504 164.115V170H547.96V164.098C547.96 163.628 547.891 163.251 547.752 162.969C547.614 162.681 547.412 162.474 547.146 162.347C546.881 162.214 546.554 162.147 546.167 162.147C545.785 162.147 545.437 162.228 545.121 162.388C544.811 162.549 544.543 162.77 544.316 163.052C544.095 163.334 543.92 163.658 543.793 164.023C543.671 164.383 543.61 164.765 543.61 165.169ZM557.182 157.914L552.144 171.038H550.824L555.871 157.914H557.182ZM564.155 168.464V163.841C564.155 163.487 564.083 163.18 563.939 162.919C563.801 162.654 563.59 162.449 563.308 162.305C563.026 162.161 562.677 162.089 562.262 162.089C561.875 162.089 561.535 162.156 561.241 162.289C560.953 162.421 560.727 162.596 560.561 162.812C560.4 163.027 560.32 163.26 560.32 163.509H558.784C558.784 163.188 558.867 162.87 559.033 162.554C559.199 162.239 559.437 161.954 559.747 161.699C560.062 161.439 560.439 161.234 560.876 161.085C561.319 160.93 561.811 160.853 562.354 160.853C563.007 160.853 563.582 160.963 564.08 161.185C564.584 161.406 564.977 161.741 565.259 162.189C565.547 162.632 565.69 163.188 565.69 163.857V168.041C565.69 168.34 565.715 168.658 565.765 168.996C565.82 169.333 565.901 169.624 566.006 169.867V170H564.404C564.326 169.823 564.265 169.588 564.221 169.294C564.177 168.996 564.155 168.719 564.155 168.464ZM564.42 164.555L564.437 165.634H562.885C562.448 165.634 562.057 165.67 561.714 165.742C561.371 165.808 561.083 165.91 560.851 166.049C560.619 166.187 560.442 166.361 560.32 166.572C560.198 166.777 560.137 167.017 560.137 167.294C560.137 167.576 560.201 167.833 560.328 168.066C560.455 168.298 560.646 168.484 560.901 168.622C561.161 168.755 561.479 168.821 561.855 168.821C562.326 168.821 562.741 168.722 563.101 168.522C563.46 168.323 563.745 168.08 563.956 167.792C564.171 167.504 564.288 167.225 564.304 166.954L564.96 167.692C564.921 167.925 564.816 168.182 564.645 168.464C564.473 168.747 564.243 169.018 563.956 169.278C563.673 169.532 563.336 169.745 562.943 169.917C562.556 170.083 562.118 170.166 561.631 170.166C561.023 170.166 560.489 170.047 560.029 169.809C559.576 169.571 559.221 169.253 558.967 168.854C558.718 168.451 558.593 168 558.593 167.501C558.593 167.02 558.687 166.597 558.875 166.231C559.064 165.861 559.335 165.554 559.689 165.31C560.043 165.061 560.469 164.873 560.967 164.746C561.465 164.618 562.021 164.555 562.636 164.555H564.42ZM568.098 157.25H569.642V168.257L569.509 170H568.098V157.25ZM575.709 165.435V165.609C575.709 166.262 575.632 166.868 575.477 167.427C575.322 167.98 575.095 168.462 574.796 168.871C574.498 169.281 574.132 169.599 573.701 169.826C573.269 170.053 572.774 170.166 572.215 170.166C571.645 170.166 571.144 170.069 570.712 169.875C570.286 169.676 569.927 169.391 569.633 169.021C569.34 168.65 569.105 168.201 568.928 167.676C568.756 167.15 568.637 166.558 568.571 165.899V165.136C568.637 164.472 568.756 163.877 568.928 163.351C569.105 162.825 569.34 162.377 569.633 162.006C569.927 161.63 570.286 161.345 570.712 161.151C571.139 160.952 571.634 160.853 572.198 160.853C572.763 160.853 573.264 160.963 573.701 161.185C574.138 161.4 574.503 161.71 574.796 162.114C575.095 162.518 575.322 163.002 575.477 163.567C575.632 164.126 575.709 164.748 575.709 165.435ZM574.166 165.609V165.435C574.166 164.986 574.124 164.566 574.041 164.173C573.958 163.774 573.825 163.426 573.643 163.127C573.46 162.823 573.219 162.585 572.92 162.413C572.622 162.236 572.254 162.147 571.816 162.147C571.429 162.147 571.091 162.214 570.804 162.347C570.521 162.479 570.281 162.659 570.082 162.886C569.882 163.108 569.719 163.362 569.592 163.65C569.47 163.932 569.379 164.225 569.318 164.53V166.53C569.406 166.918 569.55 167.291 569.75 167.651C569.954 168.005 570.225 168.296 570.563 168.522C570.906 168.749 571.329 168.863 571.833 168.863C572.248 168.863 572.602 168.78 572.896 168.614C573.194 168.442 573.435 168.207 573.618 167.908C573.806 167.609 573.944 167.264 574.033 166.871C574.121 166.478 574.166 166.057 574.166 165.609ZM581.246 168.904C581.611 168.904 581.949 168.83 582.259 168.68C582.569 168.531 582.823 168.326 583.022 168.066C583.222 167.8 583.335 167.499 583.363 167.161H584.824C584.796 167.692 584.616 168.188 584.284 168.647C583.958 169.101 583.529 169.469 582.998 169.751C582.466 170.028 581.882 170.166 581.246 170.166C580.571 170.166 579.982 170.047 579.478 169.809C578.98 169.571 578.565 169.245 578.233 168.83C577.906 168.415 577.66 167.939 577.494 167.402C577.334 166.86 577.253 166.287 577.253 165.684V165.335C577.253 164.732 577.334 164.162 577.494 163.625C577.66 163.083 577.906 162.604 578.233 162.189C578.565 161.774 578.98 161.447 579.478 161.209C579.982 160.972 580.571 160.853 581.246 160.853C581.949 160.853 582.563 160.996 583.089 161.284C583.615 161.566 584.027 161.954 584.326 162.446C584.63 162.933 584.796 163.487 584.824 164.106H583.363C583.335 163.736 583.23 163.401 583.047 163.102C582.87 162.803 582.627 162.565 582.317 162.388C582.013 162.206 581.656 162.114 581.246 162.114C580.776 162.114 580.38 162.208 580.059 162.396C579.744 162.579 579.492 162.828 579.304 163.144C579.121 163.453 578.988 163.799 578.905 164.181C578.828 164.557 578.789 164.942 578.789 165.335V165.684C578.789 166.076 578.828 166.464 578.905 166.846C578.983 167.228 579.113 167.573 579.295 167.883C579.484 168.193 579.735 168.442 580.051 168.63C580.372 168.813 580.77 168.904 581.246 168.904Z" fill="white"/>
<rect width="88" height="24" transform="translate(725 55)" fill="#FF0000"/>
<path d="M730.764 68.6089V68.418C730.764 67.7705 730.858 67.1701 731.046 66.6167C731.234 66.0578 731.505 65.5736 731.859 65.1641C732.214 64.749 732.642 64.4281 733.146 64.2012C733.65 63.9688 734.214 63.8525 734.839 63.8525C735.47 63.8525 736.037 63.9688 736.541 64.2012C737.05 64.4281 737.482 64.749 737.836 65.1641C738.196 65.5736 738.47 66.0578 738.658 66.6167C738.846 67.1701 738.94 67.7705 738.94 68.418V68.6089C738.94 69.2563 738.846 69.8568 738.658 70.4102C738.47 70.9635 738.196 71.4478 737.836 71.8628C737.482 72.2723 737.053 72.5933 736.549 72.8257C736.051 73.0526 735.487 73.166 734.856 73.166C734.225 73.166 733.658 73.0526 733.154 72.8257C732.651 72.5933 732.219 72.2723 731.859 71.8628C731.505 71.4478 731.234 70.9635 731.046 70.4102C730.858 69.8568 730.764 69.2563 730.764 68.6089ZM732.299 68.418V68.6089C732.299 69.0571 732.352 69.4805 732.457 69.8789C732.562 70.2718 732.72 70.6204 732.93 70.9248C733.146 71.2292 733.414 71.4699 733.735 71.647C734.056 71.8185 734.43 71.9043 734.856 71.9043C735.277 71.9043 735.645 71.8185 735.96 71.647C736.281 71.4699 736.547 71.2292 736.757 70.9248C736.967 70.6204 737.125 70.2718 737.23 69.8789C737.341 69.4805 737.396 69.0571 737.396 68.6089V68.418C737.396 67.9753 737.341 67.5575 737.23 67.1646C737.125 66.7661 736.964 66.4147 736.749 66.1104C736.538 65.8005 736.273 65.557 735.952 65.3799C735.636 65.2028 735.265 65.1143 734.839 65.1143C734.419 65.1143 734.048 65.2028 733.727 65.3799C733.412 65.557 733.146 65.8005 732.93 66.1104C732.72 66.4147 732.562 66.7661 732.457 67.1646C732.352 67.5575 732.299 67.9753 732.299 68.418ZM742.401 65.4297V73H740.866V64.0186H742.36L742.401 65.4297ZM745.207 63.9688L745.199 65.3965C745.071 65.3688 744.95 65.3522 744.833 65.3467C744.723 65.3356 744.596 65.3301 744.452 65.3301C744.097 65.3301 743.785 65.3854 743.514 65.4961C743.243 65.6068 743.013 65.7617 742.825 65.9609C742.637 66.1602 742.487 66.3981 742.376 66.6748C742.271 66.946 742.202 67.2448 742.169 67.5713L741.737 67.8203C741.737 67.278 741.79 66.7689 741.895 66.293C742.006 65.8171 742.174 65.3965 742.401 65.0312C742.628 64.6605 742.916 64.3727 743.265 64.168C743.619 63.9577 744.039 63.8525 744.526 63.8525C744.637 63.8525 744.764 63.8664 744.908 63.894C745.052 63.9162 745.152 63.9411 745.207 63.9688ZM748.295 64.0186V73H746.751V64.0186H748.295ZM746.635 61.6362C746.635 61.3872 746.709 61.1769 746.859 61.0054C747.014 60.8338 747.241 60.748 747.54 60.748C747.833 60.748 748.057 60.8338 748.212 61.0054C748.372 61.1769 748.453 61.3872 748.453 61.6362C748.453 61.8742 748.372 62.0789 748.212 62.2505C748.057 62.4165 747.833 62.4995 747.54 62.4995C747.241 62.4995 747.014 62.4165 746.859 62.2505C746.709 62.0789 746.635 61.8742 746.635 61.6362ZM756.579 64.0186H757.974V72.8091C757.974 73.6004 757.813 74.2756 757.492 74.8345C757.171 75.3934 756.723 75.8167 756.147 76.1045C755.577 76.3978 754.919 76.5444 754.172 76.5444C753.862 76.5444 753.497 76.4946 753.076 76.395C752.661 76.3009 752.252 76.1377 751.848 75.9053C751.449 75.6784 751.114 75.3713 750.843 74.9839L751.648 74.0708C752.025 74.5246 752.418 74.84 752.827 75.0171C753.242 75.1942 753.652 75.2827 754.056 75.2827C754.543 75.2827 754.963 75.1914 755.317 75.0088C755.672 74.8262 755.945 74.555 756.139 74.1953C756.338 73.8411 756.438 73.404 756.438 72.8838V65.9941L756.579 64.0186ZM750.395 68.6089V68.4346C750.395 67.7484 750.475 67.1258 750.636 66.5669C750.802 66.0024 751.037 65.5182 751.341 65.1143C751.651 64.7103 752.025 64.4004 752.462 64.1846C752.899 63.9632 753.392 63.8525 753.939 63.8525C754.504 63.8525 754.996 63.9521 755.417 64.1514C755.843 64.3451 756.203 64.63 756.496 65.0063C756.795 65.3771 757.03 65.8254 757.202 66.3511C757.373 66.8768 757.492 67.4717 757.559 68.1357V68.8994C757.498 69.5579 757.379 70.1501 757.202 70.6758C757.03 71.2015 756.795 71.6497 756.496 72.0205C756.203 72.3913 755.843 72.6763 755.417 72.8755C754.991 73.0692 754.493 73.166 753.923 73.166C753.386 73.166 752.899 73.0526 752.462 72.8257C752.03 72.5988 751.66 72.2806 751.35 71.8711C751.04 71.4616 750.802 70.9801 750.636 70.4268C750.475 69.8678 750.395 69.2619 750.395 68.6089ZM751.931 68.4346V68.6089C751.931 69.0571 751.975 69.4777 752.063 69.8706C752.158 70.2635 752.299 70.6094 752.487 70.9082C752.681 71.207 752.927 71.4422 753.226 71.6138C753.524 71.7798 753.881 71.8628 754.296 71.8628C754.806 71.8628 755.226 71.7549 755.558 71.5391C755.89 71.3232 756.153 71.0382 756.347 70.6841C756.546 70.3299 756.701 69.9453 756.812 69.5303V67.5298C756.751 67.2254 756.657 66.9321 756.529 66.6499C756.408 66.3621 756.247 66.1076 756.048 65.8862C755.854 65.6593 755.613 65.4795 755.326 65.3467C755.038 65.2139 754.7 65.1475 754.313 65.1475C753.892 65.1475 753.53 65.236 753.226 65.4131C752.927 65.5846 752.681 65.8226 752.487 66.127C752.299 66.4258 752.158 66.7744 752.063 67.1729C751.975 67.5658 751.931 67.9863 751.931 68.4346ZM761.975 64.0186V73H760.431V64.0186H761.975ZM760.314 61.6362C760.314 61.3872 760.389 61.1769 760.539 61.0054C760.694 60.8338 760.92 60.748 761.219 60.748C761.513 60.748 761.737 60.8338 761.892 61.0054C762.052 61.1769 762.132 61.3872 762.132 61.6362C762.132 61.8742 762.052 62.0789 761.892 62.2505C761.737 62.4165 761.513 62.4995 761.219 62.4995C760.92 62.4995 760.694 62.4165 760.539 62.2505C760.389 62.0789 760.314 61.8742 760.314 61.6362ZM765.976 65.936V73H764.44V64.0186H765.893L765.976 65.936ZM765.61 68.1689L764.971 68.144C764.977 67.5298 765.068 66.9626 765.245 66.4424C765.422 65.9167 765.671 65.4601 765.992 65.0728C766.313 64.6854 766.695 64.3866 767.138 64.1763C767.586 63.9604 768.081 63.8525 768.624 63.8525C769.066 63.8525 769.465 63.9134 769.819 64.0352C770.173 64.1514 770.475 64.3395 770.724 64.5996C770.978 64.8597 771.172 65.1973 771.305 65.6123C771.438 66.0218 771.504 66.5226 771.504 67.1147V73H769.96V67.0981C769.96 66.6278 769.891 66.2515 769.752 65.9692C769.614 65.6815 769.412 65.474 769.146 65.3467C768.881 65.2139 768.554 65.1475 768.167 65.1475C767.785 65.1475 767.437 65.2277 767.121 65.3882C766.811 65.5487 766.543 65.77 766.316 66.0522C766.095 66.3345 765.92 66.6582 765.793 67.0234C765.671 67.3831 765.61 67.765 765.61 68.1689ZM779.182 60.9141L774.144 74.0376H772.824L777.871 60.9141H779.182ZM786.155 71.4644V66.8408C786.155 66.4867 786.083 66.1795 785.939 65.9194C785.801 65.6538 785.59 65.4491 785.308 65.3052C785.026 65.1613 784.677 65.0894 784.262 65.0894C783.875 65.0894 783.535 65.1558 783.241 65.2886C782.953 65.4214 782.727 65.5957 782.561 65.8115C782.4 66.0273 782.32 66.2598 782.32 66.5088H780.784C780.784 66.1878 780.867 65.8696 781.033 65.5542C781.199 65.2388 781.437 64.9538 781.747 64.6992C782.062 64.4391 782.439 64.2344 782.876 64.085C783.319 63.93 783.811 63.8525 784.354 63.8525C785.007 63.8525 785.582 63.9632 786.08 64.1846C786.584 64.4059 786.977 64.7407 787.259 65.189C787.547 65.6317 787.69 66.1878 787.69 66.8574V71.041C787.69 71.3398 787.715 71.658 787.765 71.9956C787.82 72.3332 787.901 72.6237 788.006 72.8672V73H786.404C786.326 72.8229 786.265 72.5877 786.221 72.2944C786.177 71.9956 786.155 71.7189 786.155 71.4644ZM786.42 67.5547L786.437 68.6338H784.885C784.448 68.6338 784.057 68.6698 783.714 68.7417C783.371 68.8081 783.083 68.9105 782.851 69.0488C782.619 69.1872 782.442 69.3615 782.32 69.5718C782.198 69.7765 782.137 70.0173 782.137 70.2939C782.137 70.5762 782.201 70.8335 782.328 71.0659C782.455 71.2983 782.646 71.4837 782.901 71.6221C783.161 71.7549 783.479 71.8213 783.855 71.8213C784.326 71.8213 784.741 71.7217 785.101 71.5225C785.46 71.3232 785.745 71.0798 785.956 70.792C786.171 70.5042 786.288 70.2248 786.304 69.9536L786.96 70.6924C786.921 70.9248 786.816 71.1821 786.645 71.4644C786.473 71.7466 786.243 72.0177 785.956 72.2778C785.673 72.5324 785.336 72.7454 784.943 72.917C784.556 73.083 784.118 73.166 783.631 73.166C783.023 73.166 782.489 73.047 782.029 72.8091C781.576 72.5711 781.221 72.2529 780.967 71.8545C780.718 71.4505 780.593 70.9995 780.593 70.5015C780.593 70.02 780.687 69.5967 780.875 69.2314C781.064 68.8607 781.335 68.5535 781.689 68.3101C782.043 68.061 782.469 67.8729 782.967 67.7456C783.465 67.6183 784.021 67.5547 784.636 67.5547H786.42ZM790.098 60.25H791.642V71.2568L791.509 73H790.098V60.25ZM797.709 68.4346V68.6089C797.709 69.2619 797.632 69.8678 797.477 70.4268C797.322 70.9801 797.095 71.4616 796.796 71.8711C796.498 72.2806 796.132 72.5988 795.701 72.8257C795.269 73.0526 794.774 73.166 794.215 73.166C793.645 73.166 793.144 73.0692 792.712 72.8755C792.286 72.6763 791.927 72.3913 791.633 72.0205C791.34 71.6497 791.105 71.2015 790.928 70.6758C790.756 70.1501 790.637 69.5579 790.571 68.8994V68.1357C790.637 67.4717 790.756 66.8768 790.928 66.3511C791.105 65.8254 791.34 65.3771 791.633 65.0063C791.927 64.63 792.286 64.3451 792.712 64.1514C793.139 63.9521 793.634 63.8525 794.198 63.8525C794.763 63.8525 795.264 63.9632 795.701 64.1846C796.138 64.4004 796.503 64.7103 796.796 65.1143C797.095 65.5182 797.322 66.0024 797.477 66.5669C797.632 67.1258 797.709 67.7484 797.709 68.4346ZM796.166 68.6089V68.4346C796.166 67.9863 796.124 67.5658 796.041 67.1729C795.958 66.7744 795.825 66.4258 795.643 66.127C795.46 65.8226 795.219 65.5846 794.92 65.4131C794.622 65.236 794.254 65.1475 793.816 65.1475C793.429 65.1475 793.091 65.2139 792.804 65.3467C792.521 65.4795 792.281 65.6593 792.082 65.8862C791.882 66.1076 791.719 66.3621 791.592 66.6499C791.47 66.9321 791.379 67.2254 791.318 67.5298V69.5303C791.406 69.9176 791.55 70.2912 791.75 70.6509C791.954 71.005 792.225 71.2956 792.563 71.5225C792.906 71.7493 793.329 71.8628 793.833 71.8628C794.248 71.8628 794.602 71.7798 794.896 71.6138C795.194 71.4422 795.435 71.207 795.618 70.9082C795.806 70.6094 795.944 70.2635 796.033 69.8706C796.121 69.4777 796.166 69.0571 796.166 68.6089ZM803.246 71.9043C803.611 71.9043 803.949 71.8296 804.259 71.6802C804.569 71.5308 804.823 71.326 805.022 71.0659C805.222 70.8003 805.335 70.4987 805.363 70.1611H806.824C806.796 70.6924 806.616 71.1877 806.284 71.647C805.958 72.1007 805.529 72.4688 804.998 72.751C804.466 73.0277 803.882 73.166 803.246 73.166C802.571 73.166 801.982 73.047 801.478 72.8091C800.98 72.5711 800.565 72.2446 800.233 71.8296C799.906 71.4146 799.66 70.9386 799.494 70.4019C799.334 69.8595 799.253 69.2868 799.253 68.6836V68.335C799.253 67.7318 799.334 67.1618 799.494 66.625C799.66 66.0827 799.906 65.604 800.233 65.189C800.565 64.7739 800.98 64.4474 801.478 64.2095C801.982 63.9715 802.571 63.8525 803.246 63.8525C803.949 63.8525 804.563 63.9964 805.089 64.2842C805.615 64.5664 806.027 64.9538 806.326 65.4463C806.63 65.9333 806.796 66.4867 806.824 67.1064H805.363C805.335 66.7357 805.23 66.4009 805.047 66.1021C804.87 65.8032 804.627 65.5653 804.317 65.3882C804.013 65.2056 803.656 65.1143 803.246 65.1143C802.776 65.1143 802.38 65.2083 802.059 65.3965C801.744 65.5791 801.492 65.8281 801.304 66.1436C801.121 66.4535 800.988 66.7993 800.905 67.1812C800.828 67.5575 800.789 67.9421 800.789 68.335V68.6836C800.789 69.0765 800.828 69.4639 800.905 69.8457C800.983 70.2275 801.113 70.5734 801.295 70.8833C801.484 71.1932 801.735 71.4422 802.051 71.6304C802.372 71.813 802.77 71.9043 803.246 71.9043Z" fill="white"/>
<g opacity="0.4">
<path d="M59 296.5C143.5 296.5 163 277 163 223.5V162" stroke="black"/>
<circle cx="163" cy="223" r="5" fill="#FF0000"/>
<circle cx="163" cy="164" r="5" fill="#FF0000"/>
<rect width="88" height="24" transform="translate(177.107 150.801)" fill="#FF0000"/>
<path d="M182.871 164.41V164.219C182.871 163.571 182.965 162.971 183.153 162.417C183.341 161.859 183.612 161.374 183.966 160.965C184.32 160.55 184.749 160.229 185.253 160.002C185.757 159.77 186.321 159.653 186.946 159.653C187.577 159.653 188.144 159.77 188.648 160.002C189.157 160.229 189.589 160.55 189.943 160.965C190.303 161.374 190.576 161.859 190.765 162.417C190.953 162.971 191.047 163.571 191.047 164.219V164.41C191.047 165.057 190.953 165.658 190.765 166.211C190.576 166.764 190.303 167.249 189.943 167.664C189.589 168.073 189.16 168.394 188.656 168.626C188.158 168.853 187.594 168.967 186.963 168.967C186.332 168.967 185.765 168.853 185.261 168.626C184.758 168.394 184.326 168.073 183.966 167.664C183.612 167.249 183.341 166.764 183.153 166.211C182.965 165.658 182.871 165.057 182.871 164.41ZM184.406 164.219V164.41C184.406 164.858 184.459 165.281 184.564 165.68C184.669 166.073 184.827 166.421 185.037 166.726C185.253 167.03 185.521 167.271 185.842 167.448C186.163 167.619 186.537 167.705 186.963 167.705C187.383 167.705 187.751 167.619 188.067 167.448C188.388 167.271 188.653 167.03 188.864 166.726C189.074 166.421 189.232 166.073 189.337 165.68C189.448 165.281 189.503 164.858 189.503 164.41V164.219C189.503 163.776 189.448 163.358 189.337 162.965C189.232 162.567 189.071 162.215 188.855 161.911C188.645 161.601 188.38 161.358 188.059 161.181C187.743 161.004 187.372 160.915 186.946 160.915C186.526 160.915 186.155 161.004 185.834 161.181C185.519 161.358 185.253 161.601 185.037 161.911C184.827 162.215 184.669 162.567 184.564 162.965C184.459 163.358 184.406 163.776 184.406 164.219ZM194.508 161.23V168.801H192.973V159.819H194.467L194.508 161.23ZM197.314 159.77L197.306 161.197C197.178 161.17 197.057 161.153 196.94 161.147C196.83 161.136 196.702 161.131 196.559 161.131C196.204 161.131 195.892 161.186 195.621 161.297C195.349 161.408 195.12 161.562 194.932 161.762C194.743 161.961 194.594 162.199 194.483 162.476C194.378 162.747 194.309 163.046 194.276 163.372L193.844 163.621C193.844 163.079 193.897 162.57 194.002 162.094C194.113 161.618 194.281 161.197 194.508 160.832C194.735 160.461 195.023 160.174 195.372 159.969C195.726 159.758 196.146 159.653 196.633 159.653C196.744 159.653 196.871 159.667 197.015 159.695C197.159 159.717 197.259 159.742 197.314 159.77ZM200.402 159.819V168.801H198.858V159.819H200.402ZM198.742 157.437C198.742 157.188 198.816 156.978 198.966 156.806C199.121 156.635 199.348 156.549 199.646 156.549C199.94 156.549 200.164 156.635 200.319 156.806C200.479 156.978 200.56 157.188 200.56 157.437C200.56 157.675 200.479 157.88 200.319 158.051C200.164 158.217 199.94 158.3 199.646 158.3C199.348 158.3 199.121 158.217 198.966 158.051C198.816 157.88 198.742 157.675 198.742 157.437ZM208.686 159.819H210.081V168.61C210.081 169.401 209.92 170.076 209.599 170.635C209.278 171.194 208.83 171.618 208.254 171.905C207.684 172.199 207.026 172.345 206.279 172.345C205.969 172.345 205.604 172.295 205.183 172.196C204.768 172.102 204.359 171.938 203.955 171.706C203.556 171.479 203.221 171.172 202.95 170.785L203.755 169.872C204.132 170.325 204.525 170.641 204.934 170.818C205.349 170.995 205.759 171.083 206.163 171.083C206.65 171.083 207.07 170.992 207.424 170.81C207.778 170.627 208.052 170.356 208.246 169.996C208.445 169.642 208.545 169.205 208.545 168.685V161.795L208.686 159.819ZM202.502 164.41V164.235C202.502 163.549 202.582 162.927 202.743 162.368C202.909 161.803 203.144 161.319 203.448 160.915C203.758 160.511 204.132 160.201 204.569 159.985C205.006 159.764 205.499 159.653 206.046 159.653C206.611 159.653 207.103 159.753 207.524 159.952C207.95 160.146 208.31 160.431 208.603 160.807C208.902 161.178 209.137 161.626 209.309 162.152C209.48 162.678 209.599 163.272 209.666 163.937V164.7C209.605 165.359 209.486 165.951 209.309 166.477C209.137 167.002 208.902 167.451 208.603 167.821C208.31 168.192 207.95 168.477 207.524 168.676C207.098 168.87 206.6 168.967 206.03 168.967C205.493 168.967 205.006 168.853 204.569 168.626C204.137 168.4 203.766 168.081 203.457 167.672C203.147 167.262 202.909 166.781 202.743 166.228C202.582 165.669 202.502 165.063 202.502 164.41ZM204.038 164.235V164.41C204.038 164.858 204.082 165.278 204.17 165.671C204.264 166.064 204.406 166.41 204.594 166.709C204.787 167.008 205.034 167.243 205.333 167.415C205.631 167.581 205.988 167.664 206.403 167.664C206.912 167.664 207.333 167.556 207.665 167.34C207.997 167.124 208.26 166.839 208.454 166.485C208.653 166.131 208.808 165.746 208.918 165.331V163.331C208.858 163.026 208.764 162.733 208.636 162.451C208.514 162.163 208.354 161.908 208.155 161.687C207.961 161.46 207.72 161.28 207.433 161.147C207.145 161.015 206.807 160.948 206.42 160.948C205.999 160.948 205.637 161.037 205.333 161.214C205.034 161.385 204.787 161.623 204.594 161.928C204.406 162.227 204.264 162.575 204.17 162.974C204.082 163.367 204.038 163.787 204.038 164.235ZM214.082 159.819V168.801H212.538V159.819H214.082ZM212.421 157.437C212.421 157.188 212.496 156.978 212.646 156.806C212.8 156.635 213.027 156.549 213.326 156.549C213.619 156.549 213.844 156.635 213.999 156.806C214.159 156.978 214.239 157.188 214.239 157.437C214.239 157.675 214.159 157.88 213.999 158.051C213.844 158.217 213.619 158.3 213.326 158.3C213.027 158.3 212.8 158.217 212.646 158.051C212.496 157.88 212.421 157.675 212.421 157.437ZM218.083 161.737V168.801H216.547V159.819H218L218.083 161.737ZM217.717 163.97L217.078 163.945C217.084 163.331 217.175 162.763 217.352 162.243C217.529 161.717 217.778 161.261 218.099 160.874C218.42 160.486 218.802 160.187 219.245 159.977C219.693 159.761 220.188 159.653 220.73 159.653C221.173 159.653 221.572 159.714 221.926 159.836C222.28 159.952 222.582 160.14 222.831 160.4C223.085 160.66 223.279 160.998 223.412 161.413C223.544 161.823 223.611 162.323 223.611 162.916V168.801H222.067V162.899C222.067 162.429 221.998 162.052 221.859 161.77C221.721 161.482 221.519 161.275 221.253 161.147C220.988 161.015 220.661 160.948 220.274 160.948C219.892 160.948 219.543 161.028 219.228 161.189C218.918 161.349 218.65 161.571 218.423 161.853C218.201 162.135 218.027 162.459 217.9 162.824C217.778 163.184 217.717 163.566 217.717 163.97ZM231.289 156.715L226.25 169.838H224.931L229.978 156.715H231.289ZM238.262 167.265V162.642C238.262 162.287 238.19 161.98 238.046 161.72C237.908 161.455 237.697 161.25 237.415 161.106C237.133 160.962 236.784 160.89 236.369 160.89C235.982 160.89 235.641 160.957 235.348 161.089C235.06 161.222 234.833 161.396 234.667 161.612C234.507 161.828 234.427 162.061 234.427 162.31H232.891C232.891 161.989 232.974 161.67 233.14 161.355C233.306 161.04 233.544 160.755 233.854 160.5C234.169 160.24 234.546 160.035 234.983 159.886C235.426 159.731 235.918 159.653 236.46 159.653C237.113 159.653 237.689 159.764 238.187 159.985C238.691 160.207 239.083 160.542 239.366 160.99C239.653 161.432 239.797 161.989 239.797 162.658V166.842C239.797 167.141 239.822 167.459 239.872 167.796C239.927 168.134 240.008 168.424 240.113 168.668V168.801H238.511C238.433 168.624 238.372 168.389 238.328 168.095C238.284 167.796 238.262 167.52 238.262 167.265ZM238.527 163.355L238.544 164.435H236.992C236.555 164.435 236.164 164.471 235.821 164.542C235.478 164.609 235.19 164.711 234.958 164.85C234.726 164.988 234.549 165.162 234.427 165.373C234.305 165.577 234.244 165.818 234.244 166.095C234.244 166.377 234.308 166.634 234.435 166.867C234.562 167.099 234.753 167.285 235.008 167.423C235.268 167.556 235.586 167.622 235.962 167.622C236.433 167.622 236.848 167.522 237.208 167.323C237.567 167.124 237.852 166.881 238.062 166.593C238.278 166.305 238.395 166.026 238.411 165.754L239.067 166.493C239.028 166.726 238.923 166.983 238.751 167.265C238.58 167.547 238.35 167.819 238.062 168.079C237.78 168.333 237.443 168.546 237.05 168.718C236.662 168.884 236.225 168.967 235.738 168.967C235.13 168.967 234.596 168.848 234.136 168.61C233.682 168.372 233.328 168.054 233.074 167.655C232.825 167.251 232.7 166.8 232.7 166.302C232.7 165.821 232.794 165.397 232.982 165.032C233.171 164.661 233.442 164.354 233.796 164.111C234.15 163.862 234.576 163.674 235.074 163.546C235.572 163.419 236.128 163.355 236.743 163.355H238.527ZM242.205 156.051H243.749V167.058L243.616 168.801H242.205V156.051ZM249.816 164.235V164.41C249.816 165.063 249.739 165.669 249.584 166.228C249.429 166.781 249.202 167.262 248.903 167.672C248.604 168.081 248.239 168.4 247.808 168.626C247.376 168.853 246.881 168.967 246.322 168.967C245.752 168.967 245.251 168.87 244.819 168.676C244.393 168.477 244.034 168.192 243.74 167.821C243.447 167.451 243.212 167.002 243.035 166.477C242.863 165.951 242.744 165.359 242.678 164.7V163.937C242.744 163.272 242.863 162.678 243.035 162.152C243.212 161.626 243.447 161.178 243.74 160.807C244.034 160.431 244.393 160.146 244.819 159.952C245.245 159.753 245.741 159.653 246.305 159.653C246.87 159.653 247.37 159.764 247.808 159.985C248.245 160.201 248.61 160.511 248.903 160.915C249.202 161.319 249.429 161.803 249.584 162.368C249.739 162.927 249.816 163.549 249.816 164.235ZM248.272 164.41V164.235C248.272 163.787 248.231 163.367 248.148 162.974C248.065 162.575 247.932 162.227 247.75 161.928C247.567 161.623 247.326 161.385 247.027 161.214C246.729 161.037 246.361 160.948 245.923 160.948C245.536 160.948 245.198 161.015 244.911 161.147C244.628 161.28 244.388 161.46 244.188 161.687C243.989 161.908 243.826 162.163 243.699 162.451C243.577 162.733 243.486 163.026 243.425 163.331V165.331C243.513 165.718 243.657 166.092 243.856 166.452C244.061 166.806 244.332 167.096 244.67 167.323C245.013 167.55 245.436 167.664 245.94 167.664C246.355 167.664 246.709 167.581 247.002 167.415C247.301 167.243 247.542 167.008 247.725 166.709C247.913 166.41 248.051 166.064 248.14 165.671C248.228 165.278 248.272 164.858 248.272 164.41ZM255.353 167.705C255.718 167.705 256.056 167.63 256.366 167.481C256.676 167.332 256.93 167.127 257.129 166.867C257.329 166.601 257.442 166.299 257.47 165.962H258.931C258.903 166.493 258.723 166.988 258.391 167.448C258.065 167.902 257.636 168.27 257.104 168.552C256.573 168.828 255.989 168.967 255.353 168.967C254.678 168.967 254.089 168.848 253.585 168.61C253.087 168.372 252.672 168.045 252.34 167.63C252.013 167.215 251.767 166.739 251.601 166.203C251.441 165.66 251.36 165.088 251.36 164.484V164.136C251.36 163.533 251.441 162.963 251.601 162.426C251.767 161.883 252.013 161.405 252.34 160.99C252.672 160.575 253.087 160.248 253.585 160.01C254.089 159.772 254.678 159.653 255.353 159.653C256.056 159.653 256.67 159.797 257.196 160.085C257.722 160.367 258.134 160.755 258.433 161.247C258.737 161.734 258.903 162.287 258.931 162.907H257.47C257.442 162.536 257.337 162.202 257.154 161.903C256.977 161.604 256.734 161.366 256.424 161.189C256.119 161.006 255.763 160.915 255.353 160.915C254.883 160.915 254.487 161.009 254.166 161.197C253.851 161.38 253.599 161.629 253.411 161.944C253.228 162.254 253.095 162.6 253.012 162.982C252.935 163.358 252.896 163.743 252.896 164.136V164.484C252.896 164.877 252.935 165.265 253.012 165.646C253.09 166.028 253.22 166.374 253.402 166.684C253.59 166.994 253.842 167.243 254.158 167.431C254.479 167.614 254.877 167.705 255.353 167.705Z" fill="white"/>
</g>
</svg>
