<svg width="900" height="500" viewBox="0 0 900 500" fill="none" xmlns="http://www.w3.org/2000/svg">
<rect width="900" height="500" fill="white"/>
<path d="M368 285.7C452.5 285.7 472 266.2 472 212.7V151.2" stroke="black"/>
<circle cx="472" cy="212.2" r="5" fill="#FF0000"/>
<circle cx="472" cy="153.2" r="5" fill="#FF0000"/>
<rect width="88" height="24" transform="translate(492.107 142)" fill="#FF0000"/>
<path d="M497.871 155.609V155.418C497.871 154.771 497.965 154.17 498.153 153.617C498.341 153.058 498.612 152.574 498.966 152.164C499.32 151.749 499.749 151.428 500.253 151.201C500.757 150.969 501.321 150.853 501.946 150.853C502.577 150.853 503.144 150.969 503.648 151.201C504.157 151.428 504.589 151.749 504.943 152.164C505.303 152.574 505.576 153.058 505.765 153.617C505.953 154.17 506.047 154.771 506.047 155.418V155.609C506.047 156.256 505.953 156.857 505.765 157.41C505.576 157.964 505.303 158.448 504.943 158.863C504.589 159.272 504.16 159.593 503.656 159.826C503.158 160.053 502.594 160.166 501.963 160.166C501.332 160.166 500.765 160.053 500.261 159.826C499.758 159.593 499.326 159.272 498.966 158.863C498.612 158.448 498.341 157.964 498.153 157.41C497.965 156.857 497.871 156.256 497.871 155.609ZM499.406 155.418V155.609C499.406 156.057 499.459 156.48 499.564 156.879C499.669 157.272 499.827 157.62 500.037 157.925C500.253 158.229 500.521 158.47 500.842 158.647C501.163 158.819 501.537 158.904 501.963 158.904C502.383 158.904 502.751 158.819 503.067 158.647C503.388 158.47 503.653 158.229 503.864 157.925C504.074 157.62 504.232 157.272 504.337 156.879C504.448 156.48 504.503 156.057 504.503 155.609V155.418C504.503 154.975 504.448 154.557 504.337 154.165C504.232 153.766 504.071 153.415 503.855 153.11C503.645 152.8 503.38 152.557 503.059 152.38C502.743 152.203 502.372 152.114 501.946 152.114C501.526 152.114 501.155 152.203 500.834 152.38C500.519 152.557 500.253 152.8 500.037 153.11C499.827 153.415 499.669 153.766 499.564 154.165C499.459 154.557 499.406 154.975 499.406 155.418ZM509.508 152.43V160H507.973V151.019H509.467L509.508 152.43ZM512.314 150.969L512.306 152.396C512.178 152.369 512.057 152.352 511.94 152.347C511.83 152.336 511.702 152.33 511.559 152.33C511.204 152.33 510.892 152.385 510.621 152.496C510.349 152.607 510.12 152.762 509.932 152.961C509.743 153.16 509.594 153.398 509.483 153.675C509.378 153.946 509.309 154.245 509.276 154.571L508.844 154.82C508.844 154.278 508.897 153.769 509.002 153.293C509.113 152.817 509.281 152.396 509.508 152.031C509.735 151.66 510.023 151.373 510.372 151.168C510.726 150.958 511.146 150.853 511.633 150.853C511.744 150.853 511.871 150.866 512.015 150.894C512.159 150.916 512.259 150.941 512.314 150.969ZM515.402 151.019V160H513.858V151.019H515.402ZM513.742 148.636C513.742 148.387 513.816 148.177 513.966 148.005C514.121 147.834 514.348 147.748 514.646 147.748C514.94 147.748 515.164 147.834 515.319 148.005C515.479 148.177 515.56 148.387 515.56 148.636C515.56 148.874 515.479 149.079 515.319 149.25C515.164 149.417 514.94 149.5 514.646 149.5C514.348 149.5 514.121 149.417 513.966 149.25C513.816 149.079 513.742 148.874 513.742 148.636ZM523.686 151.019H525.081V159.809C525.081 160.6 524.92 161.276 524.599 161.834C524.278 162.393 523.83 162.817 523.254 163.104C522.684 163.398 522.026 163.544 521.279 163.544C520.969 163.544 520.604 163.495 520.183 163.395C519.768 163.301 519.359 163.138 518.955 162.905C518.556 162.678 518.221 162.371 517.95 161.984L518.755 161.071C519.132 161.525 519.525 161.84 519.934 162.017C520.349 162.194 520.759 162.283 521.163 162.283C521.65 162.283 522.07 162.191 522.424 162.009C522.778 161.826 523.052 161.555 523.246 161.195C523.445 160.841 523.545 160.404 523.545 159.884V152.994L523.686 151.019ZM517.502 155.609V155.435C517.502 154.748 517.582 154.126 517.743 153.567C517.909 153.002 518.144 152.518 518.448 152.114C518.758 151.71 519.132 151.4 519.569 151.185C520.006 150.963 520.499 150.853 521.046 150.853C521.611 150.853 522.103 150.952 522.524 151.151C522.95 151.345 523.31 151.63 523.603 152.006C523.902 152.377 524.137 152.825 524.309 153.351C524.48 153.877 524.599 154.472 524.666 155.136V155.899C524.605 156.558 524.486 157.15 524.309 157.676C524.137 158.201 523.902 158.65 523.603 159.021C523.31 159.391 522.95 159.676 522.524 159.875C522.098 160.069 521.6 160.166 521.03 160.166C520.493 160.166 520.006 160.053 519.569 159.826C519.137 159.599 518.766 159.281 518.457 158.871C518.147 158.462 517.909 157.98 517.743 157.427C517.582 156.868 517.502 156.262 517.502 155.609ZM519.038 155.435V155.609C519.038 156.057 519.082 156.478 519.17 156.871C519.264 157.264 519.406 157.609 519.594 157.908C519.787 158.207 520.034 158.442 520.333 158.614C520.631 158.78 520.988 158.863 521.403 158.863C521.912 158.863 522.333 158.755 522.665 158.539C522.997 158.323 523.26 158.038 523.454 157.684C523.653 157.33 523.808 156.945 523.918 156.53V154.53C523.858 154.225 523.764 153.932 523.636 153.65C523.514 153.362 523.354 153.108 523.155 152.886C522.961 152.659 522.72 152.479 522.433 152.347C522.145 152.214 521.807 152.147 521.42 152.147C520.999 152.147 520.637 152.236 520.333 152.413C520.034 152.585 519.787 152.823 519.594 153.127C519.406 153.426 519.264 153.774 519.17 154.173C519.082 154.566 519.038 154.986 519.038 155.435ZM529.082 151.019V160H527.538V151.019H529.082ZM527.421 148.636C527.421 148.387 527.496 148.177 527.646 148.005C527.8 147.834 528.027 147.748 528.326 147.748C528.619 147.748 528.844 147.834 528.999 148.005C529.159 148.177 529.239 148.387 529.239 148.636C529.239 148.874 529.159 149.079 528.999 149.25C528.844 149.417 528.619 149.5 528.326 149.5C528.027 149.5 527.8 149.417 527.646 149.25C527.496 149.079 527.421 148.874 527.421 148.636ZM533.083 152.936V160H531.547V151.019H533L533.083 152.936ZM532.717 155.169L532.078 155.144C532.084 154.53 532.175 153.963 532.352 153.442C532.529 152.917 532.778 152.46 533.099 152.073C533.42 151.685 533.802 151.387 534.245 151.176C534.693 150.96 535.188 150.853 535.73 150.853C536.173 150.853 536.572 150.913 536.926 151.035C537.28 151.151 537.582 151.34 537.831 151.6C538.085 151.86 538.279 152.197 538.412 152.612C538.544 153.022 538.611 153.523 538.611 154.115V160H537.067V154.098C537.067 153.628 536.998 153.251 536.859 152.969C536.721 152.681 536.519 152.474 536.253 152.347C535.988 152.214 535.661 152.147 535.274 152.147C534.892 152.147 534.543 152.228 534.228 152.388C533.918 152.549 533.65 152.77 533.423 153.052C533.201 153.334 533.027 153.658 532.9 154.023C532.778 154.383 532.717 154.765 532.717 155.169ZM546.289 147.914L541.25 161.038H539.931L544.978 147.914H546.289ZM553.262 158.464V153.841C553.262 153.487 553.19 153.18 553.046 152.919C552.908 152.654 552.697 152.449 552.415 152.305C552.133 152.161 551.784 152.089 551.369 152.089C550.982 152.089 550.641 152.156 550.348 152.289C550.06 152.421 549.833 152.596 549.667 152.812C549.507 153.027 549.427 153.26 549.427 153.509H547.891C547.891 153.188 547.974 152.87 548.14 152.554C548.306 152.239 548.544 151.954 548.854 151.699C549.169 151.439 549.546 151.234 549.983 151.085C550.426 150.93 550.918 150.853 551.46 150.853C552.113 150.853 552.689 150.963 553.187 151.185C553.691 151.406 554.083 151.741 554.366 152.189C554.653 152.632 554.797 153.188 554.797 153.857V158.041C554.797 158.34 554.822 158.658 554.872 158.996C554.927 159.333 555.008 159.624 555.113 159.867V160H553.511C553.433 159.823 553.372 159.588 553.328 159.294C553.284 158.996 553.262 158.719 553.262 158.464ZM553.527 154.555L553.544 155.634H551.992C551.555 155.634 551.164 155.67 550.821 155.742C550.478 155.808 550.19 155.91 549.958 156.049C549.726 156.187 549.549 156.361 549.427 156.572C549.305 156.777 549.244 157.017 549.244 157.294C549.244 157.576 549.308 157.833 549.435 158.066C549.562 158.298 549.753 158.484 550.008 158.622C550.268 158.755 550.586 158.821 550.962 158.821C551.433 158.821 551.848 158.722 552.208 158.522C552.567 158.323 552.852 158.08 553.062 157.792C553.278 157.504 553.395 157.225 553.411 156.954L554.067 157.692C554.028 157.925 553.923 158.182 553.751 158.464C553.58 158.747 553.35 159.018 553.062 159.278C552.78 159.532 552.443 159.745 552.05 159.917C551.662 160.083 551.225 160.166 550.738 160.166C550.13 160.166 549.596 160.047 549.136 159.809C548.682 159.571 548.328 159.253 548.074 158.854C547.825 158.451 547.7 158 547.7 157.501C547.7 157.02 547.794 156.597 547.982 156.231C548.171 155.861 548.442 155.554 548.796 155.31C549.15 155.061 549.576 154.873 550.074 154.746C550.572 154.618 551.128 154.555 551.743 154.555H553.527ZM557.205 147.25H558.749V158.257L558.616 160H557.205V147.25ZM564.816 155.435V155.609C564.816 156.262 564.739 156.868 564.584 157.427C564.429 157.98 564.202 158.462 563.903 158.871C563.604 159.281 563.239 159.599 562.808 159.826C562.376 160.053 561.881 160.166 561.322 160.166C560.752 160.166 560.251 160.069 559.819 159.875C559.393 159.676 559.034 159.391 558.74 159.021C558.447 158.65 558.212 158.201 558.035 157.676C557.863 157.15 557.744 156.558 557.678 155.899V155.136C557.744 154.472 557.863 153.877 558.035 153.351C558.212 152.825 558.447 152.377 558.74 152.006C559.034 151.63 559.393 151.345 559.819 151.151C560.245 150.952 560.741 150.853 561.305 150.853C561.87 150.853 562.37 150.963 562.808 151.185C563.245 151.4 563.61 151.71 563.903 152.114C564.202 152.518 564.429 153.002 564.584 153.567C564.739 154.126 564.816 154.748 564.816 155.435ZM563.272 155.609V155.435C563.272 154.986 563.231 154.566 563.148 154.173C563.065 153.774 562.932 153.426 562.75 153.127C562.567 152.823 562.326 152.585 562.027 152.413C561.729 152.236 561.361 152.147 560.923 152.147C560.536 152.147 560.198 152.214 559.911 152.347C559.628 152.479 559.388 152.659 559.188 152.886C558.989 153.108 558.826 153.362 558.699 153.65C558.577 153.932 558.486 154.225 558.425 154.53V156.53C558.513 156.918 558.657 157.291 558.856 157.651C559.061 158.005 559.332 158.296 559.67 158.522C560.013 158.749 560.436 158.863 560.94 158.863C561.355 158.863 561.709 158.78 562.002 158.614C562.301 158.442 562.542 158.207 562.725 157.908C562.913 157.609 563.051 157.264 563.14 156.871C563.228 156.478 563.272 156.057 563.272 155.609ZM570.353 158.904C570.718 158.904 571.056 158.83 571.366 158.68C571.676 158.531 571.93 158.326 572.129 158.066C572.329 157.8 572.442 157.499 572.47 157.161H573.931C573.903 157.692 573.723 158.188 573.391 158.647C573.065 159.101 572.636 159.469 572.104 159.751C571.573 160.028 570.989 160.166 570.353 160.166C569.678 160.166 569.089 160.047 568.585 159.809C568.087 159.571 567.672 159.245 567.34 158.83C567.013 158.415 566.767 157.939 566.601 157.402C566.441 156.86 566.36 156.287 566.36 155.684V155.335C566.36 154.732 566.441 154.162 566.601 153.625C566.767 153.083 567.013 152.604 567.34 152.189C567.672 151.774 568.087 151.447 568.585 151.209C569.089 150.972 569.678 150.853 570.353 150.853C571.056 150.853 571.67 150.996 572.196 151.284C572.722 151.566 573.134 151.954 573.433 152.446C573.737 152.933 573.903 153.487 573.931 154.106H572.47C572.442 153.736 572.337 153.401 572.154 153.102C571.977 152.803 571.734 152.565 571.424 152.388C571.119 152.206 570.763 152.114 570.353 152.114C569.883 152.114 569.487 152.208 569.166 152.396C568.851 152.579 568.599 152.828 568.411 153.144C568.228 153.453 568.095 153.799 568.012 154.181C567.935 154.557 567.896 154.942 567.896 155.335V155.684C567.896 156.076 567.935 156.464 568.012 156.846C568.09 157.228 568.22 157.573 568.402 157.883C568.59 158.193 568.842 158.442 569.158 158.63C569.479 158.813 569.877 158.904 570.353 158.904Z" fill="white"/>
<g opacity="0.4">
<path d="M45 286.7C129.5 286.7 149 267.2 149 213.7V152.2" stroke="black"/>
<circle cx="149" cy="213.2" r="5" fill="#FF0000"/>
<circle cx="149" cy="154.2" r="5" fill="#FF0000"/>
<rect width="88" height="24" transform="translate(169.107 143)" fill="#FF0000"/>
<path d="M174.871 156.609V156.418C174.871 155.771 174.965 155.17 175.153 154.617C175.341 154.058 175.612 153.574 175.966 153.164C176.32 152.749 176.749 152.428 177.253 152.201C177.757 151.969 178.321 151.853 178.946 151.853C179.577 151.853 180.144 151.969 180.648 152.201C181.157 152.428 181.589 152.749 181.943 153.164C182.303 153.574 182.576 154.058 182.765 154.617C182.953 155.17 183.047 155.771 183.047 156.418V156.609C183.047 157.256 182.953 157.857 182.765 158.41C182.576 158.964 182.303 159.448 181.943 159.863C181.589 160.272 181.16 160.593 180.656 160.826C180.158 161.053 179.594 161.166 178.963 161.166C178.332 161.166 177.765 161.053 177.261 160.826C176.758 160.593 176.326 160.272 175.966 159.863C175.612 159.448 175.341 158.964 175.153 158.41C174.965 157.857 174.871 157.256 174.871 156.609ZM176.406 156.418V156.609C176.406 157.057 176.459 157.48 176.564 157.879C176.669 158.272 176.827 158.62 177.037 158.925C177.253 159.229 177.521 159.47 177.842 159.647C178.163 159.819 178.537 159.904 178.963 159.904C179.383 159.904 179.751 159.819 180.067 159.647C180.388 159.47 180.653 159.229 180.864 158.925C181.074 158.62 181.232 158.272 181.337 157.879C181.448 157.48 181.503 157.057 181.503 156.609V156.418C181.503 155.975 181.448 155.557 181.337 155.165C181.232 154.766 181.071 154.415 180.855 154.11C180.645 153.8 180.38 153.557 180.059 153.38C179.743 153.203 179.372 153.114 178.946 153.114C178.526 153.114 178.155 153.203 177.834 153.38C177.519 153.557 177.253 153.8 177.037 154.11C176.827 154.415 176.669 154.766 176.564 155.165C176.459 155.557 176.406 155.975 176.406 156.418ZM186.508 153.43V161H184.973V152.019H186.467L186.508 153.43ZM189.314 151.969L189.306 153.396C189.178 153.369 189.057 153.352 188.94 153.347C188.83 153.336 188.702 153.33 188.559 153.33C188.204 153.33 187.892 153.385 187.621 153.496C187.349 153.607 187.12 153.762 186.932 153.961C186.743 154.16 186.594 154.398 186.483 154.675C186.378 154.946 186.309 155.245 186.276 155.571L185.844 155.82C185.844 155.278 185.897 154.769 186.002 154.293C186.113 153.817 186.281 153.396 186.508 153.031C186.735 152.66 187.023 152.373 187.372 152.168C187.726 151.958 188.146 151.853 188.633 151.853C188.744 151.853 188.871 151.866 189.015 151.894C189.159 151.916 189.259 151.941 189.314 151.969ZM192.402 152.019V161H190.858V152.019H192.402ZM190.742 149.636C190.742 149.387 190.816 149.177 190.966 149.005C191.121 148.834 191.348 148.748 191.646 148.748C191.94 148.748 192.164 148.834 192.319 149.005C192.479 149.177 192.56 149.387 192.56 149.636C192.56 149.874 192.479 150.079 192.319 150.25C192.164 150.417 191.94 150.5 191.646 150.5C191.348 150.5 191.121 150.417 190.966 150.25C190.816 150.079 190.742 149.874 190.742 149.636ZM200.686 152.019H202.081V160.809C202.081 161.6 201.92 162.276 201.599 162.834C201.278 163.393 200.83 163.817 200.254 164.104C199.684 164.398 199.026 164.544 198.279 164.544C197.969 164.544 197.604 164.495 197.183 164.395C196.768 164.301 196.359 164.138 195.955 163.905C195.556 163.678 195.221 163.371 194.95 162.984L195.755 162.071C196.132 162.525 196.525 162.84 196.934 163.017C197.349 163.194 197.759 163.283 198.163 163.283C198.65 163.283 199.07 163.191 199.424 163.009C199.778 162.826 200.052 162.555 200.246 162.195C200.445 161.841 200.545 161.404 200.545 160.884V153.994L200.686 152.019ZM194.502 156.609V156.435C194.502 155.748 194.582 155.126 194.743 154.567C194.909 154.002 195.144 153.518 195.448 153.114C195.758 152.71 196.132 152.4 196.569 152.185C197.006 151.963 197.499 151.853 198.046 151.853C198.611 151.853 199.103 151.952 199.524 152.151C199.95 152.345 200.31 152.63 200.603 153.006C200.902 153.377 201.137 153.825 201.309 154.351C201.48 154.877 201.599 155.472 201.666 156.136V156.899C201.605 157.558 201.486 158.15 201.309 158.676C201.137 159.201 200.902 159.65 200.603 160.021C200.31 160.391 199.95 160.676 199.524 160.875C199.098 161.069 198.6 161.166 198.03 161.166C197.493 161.166 197.006 161.053 196.569 160.826C196.137 160.599 195.766 160.281 195.457 159.871C195.147 159.462 194.909 158.98 194.743 158.427C194.582 157.868 194.502 157.262 194.502 156.609ZM196.038 156.435V156.609C196.038 157.057 196.082 157.478 196.17 157.871C196.264 158.264 196.406 158.609 196.594 158.908C196.787 159.207 197.034 159.442 197.333 159.614C197.631 159.78 197.988 159.863 198.403 159.863C198.912 159.863 199.333 159.755 199.665 159.539C199.997 159.323 200.26 159.038 200.454 158.684C200.653 158.33 200.808 157.945 200.918 157.53V155.53C200.858 155.225 200.764 154.932 200.636 154.65C200.514 154.362 200.354 154.108 200.155 153.886C199.961 153.659 199.72 153.479 199.433 153.347C199.145 153.214 198.807 153.147 198.42 153.147C197.999 153.147 197.637 153.236 197.333 153.413C197.034 153.585 196.787 153.823 196.594 154.127C196.406 154.426 196.264 154.774 196.17 155.173C196.082 155.566 196.038 155.986 196.038 156.435ZM206.082 152.019V161H204.538V152.019H206.082ZM204.421 149.636C204.421 149.387 204.496 149.177 204.646 149.005C204.8 148.834 205.027 148.748 205.326 148.748C205.619 148.748 205.844 148.834 205.999 149.005C206.159 149.177 206.239 149.387 206.239 149.636C206.239 149.874 206.159 150.079 205.999 150.25C205.844 150.417 205.619 150.5 205.326 150.5C205.027 150.5 204.8 150.417 204.646 150.25C204.496 150.079 204.421 149.874 204.421 149.636ZM210.083 153.936V161H208.547V152.019H210L210.083 153.936ZM209.717 156.169L209.078 156.144C209.084 155.53 209.175 154.963 209.352 154.442C209.529 153.917 209.778 153.46 210.099 153.073C210.42 152.685 210.802 152.387 211.245 152.176C211.693 151.96 212.188 151.853 212.73 151.853C213.173 151.853 213.572 151.913 213.926 152.035C214.28 152.151 214.582 152.34 214.831 152.6C215.085 152.86 215.279 153.197 215.412 153.612C215.544 154.022 215.611 154.523 215.611 155.115V161H214.067V155.098C214.067 154.628 213.998 154.251 213.859 153.969C213.721 153.681 213.519 153.474 213.253 153.347C212.988 153.214 212.661 153.147 212.274 153.147C211.892 153.147 211.543 153.228 211.228 153.388C210.918 153.549 210.65 153.77 210.423 154.052C210.201 154.334 210.027 154.658 209.9 155.023C209.778 155.383 209.717 155.765 209.717 156.169ZM223.289 148.914L218.25 162.038H216.931L221.978 148.914H223.289ZM230.262 159.464V154.841C230.262 154.487 230.19 154.18 230.046 153.919C229.908 153.654 229.697 153.449 229.415 153.305C229.133 153.161 228.784 153.089 228.369 153.089C227.982 153.089 227.641 153.156 227.348 153.289C227.06 153.421 226.833 153.596 226.667 153.812C226.507 154.027 226.427 154.26 226.427 154.509H224.891C224.891 154.188 224.974 153.87 225.14 153.554C225.306 153.239 225.544 152.954 225.854 152.699C226.169 152.439 226.546 152.234 226.983 152.085C227.426 151.93 227.918 151.853 228.46 151.853C229.113 151.853 229.689 151.963 230.187 152.185C230.691 152.406 231.083 152.741 231.366 153.189C231.653 153.632 231.797 154.188 231.797 154.857V159.041C231.797 159.34 231.822 159.658 231.872 159.996C231.927 160.333 232.008 160.624 232.113 160.867V161H230.511C230.433 160.823 230.372 160.588 230.328 160.294C230.284 159.996 230.262 159.719 230.262 159.464ZM230.527 155.555L230.544 156.634H228.992C228.555 156.634 228.164 156.67 227.821 156.742C227.478 156.808 227.19 156.91 226.958 157.049C226.726 157.187 226.549 157.361 226.427 157.572C226.305 157.777 226.244 158.017 226.244 158.294C226.244 158.576 226.308 158.833 226.435 159.066C226.562 159.298 226.753 159.484 227.008 159.622C227.268 159.755 227.586 159.821 227.962 159.821C228.433 159.821 228.848 159.722 229.208 159.522C229.567 159.323 229.852 159.08 230.062 158.792C230.278 158.504 230.395 158.225 230.411 157.954L231.067 158.692C231.028 158.925 230.923 159.182 230.751 159.464C230.58 159.747 230.35 160.018 230.062 160.278C229.78 160.532 229.443 160.745 229.05 160.917C228.662 161.083 228.225 161.166 227.738 161.166C227.13 161.166 226.596 161.047 226.136 160.809C225.682 160.571 225.328 160.253 225.074 159.854C224.825 159.451 224.7 159 224.7 158.501C224.7 158.02 224.794 157.597 224.982 157.231C225.171 156.861 225.442 156.554 225.796 156.31C226.15 156.061 226.576 155.873 227.074 155.746C227.572 155.618 228.128 155.555 228.743 155.555H230.527ZM234.205 148.25H235.749V159.257L235.616 161H234.205V148.25ZM241.816 156.435V156.609C241.816 157.262 241.739 157.868 241.584 158.427C241.429 158.98 241.202 159.462 240.903 159.871C240.604 160.281 240.239 160.599 239.808 160.826C239.376 161.053 238.881 161.166 238.322 161.166C237.752 161.166 237.251 161.069 236.819 160.875C236.393 160.676 236.034 160.391 235.74 160.021C235.447 159.65 235.212 159.201 235.035 158.676C234.863 158.15 234.744 157.558 234.678 156.899V156.136C234.744 155.472 234.863 154.877 235.035 154.351C235.212 153.825 235.447 153.377 235.74 153.006C236.034 152.63 236.393 152.345 236.819 152.151C237.245 151.952 237.741 151.853 238.305 151.853C238.87 151.853 239.37 151.963 239.808 152.185C240.245 152.4 240.61 152.71 240.903 153.114C241.202 153.518 241.429 154.002 241.584 154.567C241.739 155.126 241.816 155.748 241.816 156.435ZM240.272 156.609V156.435C240.272 155.986 240.231 155.566 240.148 155.173C240.065 154.774 239.932 154.426 239.75 154.127C239.567 153.823 239.326 153.585 239.027 153.413C238.729 153.236 238.361 153.147 237.923 153.147C237.536 153.147 237.198 153.214 236.911 153.347C236.628 153.479 236.388 153.659 236.188 153.886C235.989 154.108 235.826 154.362 235.699 154.65C235.577 154.932 235.486 155.225 235.425 155.53V157.53C235.513 157.918 235.657 158.291 235.856 158.651C236.061 159.005 236.332 159.296 236.67 159.522C237.013 159.749 237.436 159.863 237.94 159.863C238.355 159.863 238.709 159.78 239.002 159.614C239.301 159.442 239.542 159.207 239.725 158.908C239.913 158.609 240.051 158.264 240.14 157.871C240.228 157.478 240.272 157.057 240.272 156.609ZM247.353 159.904C247.718 159.904 248.056 159.83 248.366 159.68C248.676 159.531 248.93 159.326 249.129 159.066C249.329 158.8 249.442 158.499 249.47 158.161H250.931C250.903 158.692 250.723 159.188 250.391 159.647C250.065 160.101 249.636 160.469 249.104 160.751C248.573 161.028 247.989 161.166 247.353 161.166C246.678 161.166 246.089 161.047 245.585 160.809C245.087 160.571 244.672 160.245 244.34 159.83C244.013 159.415 243.767 158.939 243.601 158.402C243.441 157.86 243.36 157.287 243.36 156.684V156.335C243.36 155.732 243.441 155.162 243.601 154.625C243.767 154.083 244.013 153.604 244.34 153.189C244.672 152.774 245.087 152.447 245.585 152.209C246.089 151.972 246.678 151.853 247.353 151.853C248.056 151.853 248.67 151.996 249.196 152.284C249.722 152.566 250.134 152.954 250.433 153.446C250.737 153.933 250.903 154.487 250.931 155.106H249.47C249.442 154.736 249.337 154.401 249.154 154.102C248.977 153.803 248.734 153.565 248.424 153.388C248.119 153.206 247.763 153.114 247.353 153.114C246.883 153.114 246.487 153.208 246.166 153.396C245.851 153.579 245.599 153.828 245.411 154.144C245.228 154.453 245.095 154.799 245.012 155.181C244.935 155.557 244.896 155.942 244.896 156.335V156.684C244.896 157.076 244.935 157.464 245.012 157.846C245.09 158.228 245.22 158.573 245.402 158.883C245.59 159.193 245.842 159.442 246.158 159.63C246.479 159.813 246.877 159.904 247.353 159.904Z" fill="white"/>
</g>
<path d="M42 151.023V433.023" stroke="black"/>
<path d="M368 151.023V433.023" stroke="black"/>
<path d="M729 151.023V433.023" stroke="black"/>
<circle cx="42" cy="153.023" r="5" fill="#0500FF"/>
<circle cx="368" cy="153.023" r="5" fill="#0500FF"/>
<circle cx="729" cy="153.023" r="5" fill="#0500FF"/>
<circle cx="42" cy="215.023" r="5" fill="#0500FF"/>
<circle cx="368" cy="215.023" r="5" fill="#0500FF"/>
<circle cx="729" cy="215.023" r="5" fill="#0500FF"/>
<circle cx="42" cy="286.023" r="5" fill="#FF0000"/>
<circle cx="368" cy="286.023" r="5" fill="#FF0000"/>
<circle cx="729" cy="286.023" r="5" fill="#FF0000"/>
<circle cx="42" cy="368.023" r="5" fill="#FF0000"/>
<circle cx="368" cy="368.023" r="5" fill="#FF0000"/>
<circle cx="729" cy="368.023" r="5" fill="#FF0000"/>
<path d="M808.533 153.794C808.533 153.173 808.654 152.614 808.896 152.118C809.143 151.622 809.482 151.239 809.916 150.97C810.354 150.7 810.852 150.566 811.41 150.566C812.273 150.566 812.971 150.864 813.502 151.462C814.037 152.06 814.305 152.855 814.305 153.847V153.923C814.305 154.54 814.186 155.095 813.947 155.587C813.713 156.075 813.375 156.456 812.934 156.73C812.496 157.003 811.992 157.14 811.422 157.14C810.562 157.14 809.865 156.841 809.33 156.243C808.799 155.646 808.533 154.855 808.533 153.87V153.794ZM809.623 153.923C809.623 154.626 809.785 155.191 810.109 155.616C810.438 156.042 810.875 156.255 811.422 156.255C811.973 156.255 812.41 156.04 812.734 155.611C813.059 155.177 813.221 154.571 813.221 153.794C813.221 153.099 813.055 152.536 812.723 152.107C812.395 151.673 811.957 151.456 811.41 151.456C810.875 151.456 810.443 151.669 810.115 152.095C809.787 152.521 809.623 153.13 809.623 153.923ZM818.729 151.655C818.564 151.628 818.387 151.614 818.195 151.614C817.484 151.614 817.002 151.917 816.748 152.523V157.023H815.664V150.683H816.719L816.736 151.415C817.092 150.849 817.596 150.566 818.248 150.566C818.459 150.566 818.619 150.593 818.729 150.648V151.655ZM820.908 157.023H819.824V150.683H820.908V157.023ZM819.736 149.001C819.736 148.825 819.789 148.677 819.895 148.556C820.004 148.435 820.164 148.374 820.375 148.374C820.586 148.374 820.746 148.435 820.855 148.556C820.965 148.677 821.02 148.825 821.02 149.001C821.02 149.177 820.965 149.323 820.855 149.441C820.746 149.558 820.586 149.616 820.375 149.616C820.164 149.616 820.004 149.558 819.895 149.441C819.789 149.323 819.736 149.177 819.736 149.001ZM822.391 153.8C822.391 152.812 822.619 152.027 823.076 151.445C823.533 150.859 824.139 150.566 824.893 150.566C825.666 150.566 826.27 150.839 826.703 151.386L826.756 150.683H827.746V156.87C827.746 157.691 827.502 158.337 827.014 158.81C826.529 159.282 825.877 159.519 825.057 159.519C824.6 159.519 824.152 159.421 823.715 159.226C823.277 159.03 822.943 158.763 822.713 158.423L823.275 157.773C823.74 158.347 824.309 158.634 824.98 158.634C825.508 158.634 825.918 158.486 826.211 158.189C826.508 157.892 826.656 157.474 826.656 156.935V156.39C826.223 156.89 825.631 157.14 824.881 157.14C824.139 157.14 823.537 156.841 823.076 156.243C822.619 155.646 822.391 154.831 822.391 153.8ZM823.48 153.923C823.48 154.638 823.627 155.2 823.92 155.611C824.213 156.017 824.623 156.22 825.15 156.22C825.834 156.22 826.336 155.909 826.656 155.288V152.394C826.324 151.788 825.826 151.486 825.162 151.486C824.635 151.486 824.223 151.691 823.926 152.101C823.629 152.511 823.48 153.118 823.48 153.923ZM830.564 157.023H829.48V150.683H830.564V157.023ZM829.393 149.001C829.393 148.825 829.445 148.677 829.551 148.556C829.66 148.435 829.82 148.374 830.031 148.374C830.242 148.374 830.402 148.435 830.512 148.556C830.621 148.677 830.676 148.825 830.676 149.001C830.676 149.177 830.621 149.323 830.512 149.441C830.402 149.558 830.242 149.616 830.031 149.616C829.82 149.616 829.66 149.558 829.551 149.441C829.445 149.323 829.393 149.177 829.393 149.001ZM833.33 150.683L833.365 151.48C833.85 150.87 834.482 150.566 835.264 150.566C836.604 150.566 837.279 151.321 837.291 152.833V157.023H836.207V152.827C836.203 152.37 836.098 152.032 835.891 151.814C835.688 151.595 835.369 151.486 834.936 151.486C834.584 151.486 834.275 151.579 834.01 151.767C833.744 151.954 833.537 152.2 833.389 152.505V157.023H832.305V150.683H833.33ZM839.143 157.755H838.211L841.773 148.491H842.699L839.143 157.755ZM847.785 157.023C847.723 156.898 847.672 156.675 847.633 156.355C847.129 156.878 846.527 157.14 845.828 157.14C845.203 157.14 844.689 156.964 844.287 156.612C843.889 156.257 843.689 155.808 843.689 155.265C843.689 154.605 843.939 154.093 844.439 153.73C844.943 153.362 845.65 153.179 846.561 153.179H847.615V152.681C847.615 152.302 847.502 152.001 847.275 151.779C847.049 151.552 846.715 151.439 846.273 151.439C845.887 151.439 845.562 151.536 845.301 151.732C845.039 151.927 844.908 152.163 844.908 152.441H843.818C843.818 152.124 843.93 151.82 844.152 151.527C844.379 151.23 844.684 150.995 845.066 150.823C845.453 150.652 845.877 150.566 846.338 150.566C847.068 150.566 847.641 150.749 848.055 151.116C848.469 151.48 848.684 151.982 848.699 152.622V155.54C848.699 156.122 848.773 156.585 848.922 156.929V157.023H847.785ZM845.986 156.196C846.326 156.196 846.648 156.109 846.953 155.933C847.258 155.757 847.479 155.529 847.615 155.247V153.946H846.766C845.438 153.946 844.773 154.335 844.773 155.112C844.773 155.452 844.887 155.718 845.113 155.909C845.34 156.101 845.631 156.196 845.986 156.196ZM855.766 153.923C855.766 154.892 855.543 155.671 855.098 156.261C854.652 156.847 854.055 157.14 853.305 157.14C852.504 157.14 851.885 156.857 851.447 156.29L851.395 157.023H850.398V148.023H851.482V151.38C851.92 150.837 852.523 150.566 853.293 150.566C854.062 150.566 854.666 150.857 855.104 151.439C855.545 152.021 855.766 152.818 855.766 153.829V153.923ZM854.682 153.8C854.682 153.062 854.539 152.491 854.254 152.089C853.969 151.687 853.559 151.486 853.023 151.486C852.309 151.486 851.795 151.818 851.482 152.482V155.224C851.814 155.888 852.332 156.22 853.035 156.22C853.555 156.22 853.959 156.019 854.248 155.616C854.537 155.214 854.682 154.609 854.682 153.8ZM859.68 156.255C860.066 156.255 860.404 156.138 860.693 155.904C860.982 155.669 861.143 155.376 861.174 155.025H862.199C862.18 155.388 862.055 155.734 861.824 156.062C861.594 156.39 861.285 156.652 860.898 156.847C860.516 157.042 860.109 157.14 859.68 157.14C858.816 157.14 858.129 156.853 857.617 156.279C857.109 155.7 856.855 154.911 856.855 153.911V153.73C856.855 153.112 856.969 152.564 857.195 152.083C857.422 151.603 857.746 151.23 858.168 150.964C858.594 150.698 859.096 150.566 859.674 150.566C860.385 150.566 860.975 150.779 861.443 151.204C861.916 151.63 862.168 152.183 862.199 152.862H861.174C861.143 152.452 860.986 152.116 860.705 151.855C860.428 151.589 860.084 151.456 859.674 151.456C859.123 151.456 858.695 151.655 858.391 152.054C858.09 152.448 857.939 153.021 857.939 153.771V153.976C857.939 154.706 858.09 155.269 858.391 155.663C858.691 156.058 859.121 156.255 859.68 156.255Z" fill="white"/>
<path d="M196.292 255.829C212.564 256.208 228.729 257.515 245.082 257.515C249.296 257.515 261.231 259.759 257.724 257.421C254.469 255.251 251.219 253.568 247.704 251.615C244.196 249.666 255.202 256.142 256.601 257.89C259.212 261.154 249.22 270.328 246.861 272.686" stroke="black" stroke-width="3" stroke-linecap="round"/>
<path d="M552.678 254.144C570.659 254.144 588.639 254.144 606.619 254.144C624.123 254.144 603.014 251.709 602.311 246.09C602.027 243.816 606.279 248.389 608.305 249.461C609.077 249.87 616.12 251.909 614.673 253.769C611.214 258.216 603.982 259.418 601.562 264.258" stroke="black" stroke-width="3" stroke-linecap="round"/>
<path d="M353.484 137C351.11 145.309 346.726 152.698 345.229 161.305C343.977 168.504 342.753 175.73 342.753 183.042C342.753 191.896 342.507 200.789 342.753 209.64C343.107 222.408 354.71 239.356 368.158 239.356C385.015 239.356 400.008 228.886 409.615 215.235C415.959 206.219 423.003 197.376 427.408 187.307C433.038 174.438 435.204 160.537 435.204 146.493C435.204 143.399 435.797 139.837 434.378 137C433.74 135.723 432.934 131.694 431.443 131.268C426.51 129.858 422.994 124.996 417.823 123.38C403.208 118.813 388.675 120.142 374.074 123.793C363.901 126.336 355.142 133.275 349.356 141.953" stroke="#131212" stroke-width="3" stroke-linecap="round"/>
<path d="M384 67C375.965 72.0221 380.339 71.5541 383.222 77C385.099 80.5444 381.141 82 378 82" stroke="#131212" stroke-width="3" stroke-linecap="round"/>
<path d="M387.978 74.5367C389.051 74.0464 389.692 73.5843 390.456 72.6892C390.927 72.1365 392.272 70.2436 391.951 69.4297C391.574 68.4702 389.963 69.3649 389.544 69.7332C388.597 70.5654 388.251 71.6623 387.663 72.7684C387.062 73.8992 386.605 77.2613 387.511 78.2845C388.39 79.2775 389.916 80 391.133 80" stroke="#131212" stroke-width="3" stroke-linecap="round"/>
<path d="M396 69V79" stroke="#131212" stroke-width="3" stroke-linecap="round"/>
<path d="M400 70.0681C399.096 70.0681 397.861 69.9066 396.963 70.081C396.486 70.1737 396.383 70.8325 396 71" stroke="#131212" stroke-width="3" stroke-linecap="round"/>
<path d="M403 71.0131C403.454 72.5405 403.778 74.2083 404.364 75.6684C404.558 76.1519 404.763 77.3283 404.831 76.9127C405.068 75.467 406.343 73.6102 406.914 72.2713C407.285 71.4033 408 69.9575 408 69" stroke="#131212" stroke-width="3" stroke-linecap="round"/>
<path d="M412.518 72.6275C415.065 72.6275 414.663 70.7699 414.663 68.484C414.663 67.7807 414.744 67.3027 413.922 67.208C412.383 67.0308 411.985 66.5334 411.671 68.2096C410.973 71.9308 410.377 76.1231 412.28 79.5288C413.647 81.9761 415.359 83 418 83" stroke="#131212" stroke-width="3" stroke-linecap="round"/>
<path d="M420 78C420 75.1545 420 72.3089 420 69.4634C420 67.9691 420 68.2253 420 69.5718C420 70.1861 420 70.8004 420 71.4146C420 72.0547 420.36 71.2727 420.682 70.9268C421.049 70.5325 421.496 70.0172 421.818 69.5854C422.659 68.4577 423.795 68.431 425 68" stroke="#131212" stroke-width="3" stroke-linecap="round"/>
<path d="M397.423 118.004C397.423 107.615 397.008 86.5 397.008 86.8388C397.008 88.161 395.082 89.4681 394.284 90.3939C393.002 91.8812 392.061 93.5126 391.098 95.1495C390.602 95.9919 389.683 96.4821 389.505 97.458C389.309 98.5389 388.333 100.02 389.113 98.266C389.895 96.5058 391.425 94.7474 392.645 93.2565C393.153 92.6347 396.592 87.8408 396.592 88.7087C396.592 91.0841 399.926 92.6653 401.371 94.1106C402.612 95.3516 405.474 97.1231 406.15 98.4737" stroke="#131212" stroke-width="3" stroke-linecap="round"/>
<rect width="38" height="24" transform="translate(58 141)" fill="#0500FF"/>
<path d="M69.6206 157.464V152.841C69.6206 152.487 69.5487 152.18 69.4048 151.919C69.2664 151.654 69.0562 151.449 68.7739 151.305C68.4917 151.161 68.1431 151.089 67.728 151.089C67.3407 151.089 67.0003 151.156 66.707 151.289C66.4193 151.421 66.1924 151.596 66.0264 151.812C65.8659 152.027 65.7856 152.26 65.7856 152.509H64.25C64.25 152.188 64.333 151.87 64.499 151.554C64.665 151.239 64.903 150.954 65.2129 150.699C65.5283 150.439 65.9046 150.234 66.3418 150.085C66.7845 149.93 67.277 149.853 67.8193 149.853C68.4723 149.853 69.0479 149.963 69.5459 150.185C70.0495 150.406 70.4424 150.741 70.7246 151.189C71.0124 151.632 71.1562 152.188 71.1562 152.857V157.041C71.1562 157.34 71.1812 157.658 71.231 157.996C71.2863 158.333 71.3665 158.624 71.4717 158.867V159H69.8696C69.7922 158.823 69.7313 158.588 69.687 158.294C69.6427 157.996 69.6206 157.719 69.6206 157.464ZM69.8862 153.555L69.9028 154.634H68.3506C67.9134 154.634 67.5233 154.67 67.1802 154.742C66.8371 154.808 66.5493 154.91 66.3169 155.049C66.0845 155.187 65.9074 155.361 65.7856 155.572C65.6639 155.777 65.603 156.017 65.603 156.294C65.603 156.576 65.6667 156.833 65.7939 157.066C65.9212 157.298 66.1121 157.484 66.3667 157.622C66.6268 157.755 66.945 157.821 67.3213 157.821C67.7917 157.821 68.2067 157.722 68.5664 157.522C68.9261 157.323 69.2111 157.08 69.4214 156.792C69.6372 156.504 69.7534 156.225 69.77 155.954L70.4258 156.692C70.387 156.925 70.2819 157.182 70.1104 157.464C69.9388 157.747 69.7091 158.018 69.4214 158.278C69.1392 158.532 68.8016 158.745 68.4087 158.917C68.0213 159.083 67.5841 159.166 67.0972 159.166C66.4884 159.166 65.9544 159.047 65.4951 158.809C65.0413 158.571 64.6872 158.253 64.4326 157.854C64.1836 157.451 64.0591 157 64.0591 156.501C64.0591 156.02 64.1532 155.597 64.3413 155.231C64.5295 154.861 64.8006 154.554 65.1548 154.31C65.509 154.061 65.9351 153.873 66.4331 153.746C66.9312 153.618 67.4873 153.555 68.1016 153.555H69.8862ZM73.5635 146.25H75.1074V157.257L74.9746 159H73.5635V146.25ZM81.1753 154.435V154.609C81.1753 155.262 81.0978 155.868 80.9429 156.427C80.7879 156.98 80.561 157.462 80.2622 157.871C79.9634 158.281 79.5981 158.599 79.1665 158.826C78.7349 159.053 78.2396 159.166 77.6807 159.166C77.1107 159.166 76.6099 159.069 76.1782 158.875C75.7521 158.676 75.3924 158.391 75.0991 158.021C74.8058 157.65 74.5706 157.201 74.3936 156.676C74.222 156.15 74.103 155.558 74.0366 154.899V154.136C74.103 153.472 74.222 152.877 74.3936 152.351C74.5706 151.825 74.8058 151.377 75.0991 151.006C75.3924 150.63 75.7521 150.345 76.1782 150.151C76.6043 149.952 77.0996 149.853 77.6641 149.853C78.2285 149.853 78.7293 149.963 79.1665 150.185C79.6037 150.4 79.9689 150.71 80.2622 151.114C80.561 151.518 80.7879 152.002 80.9429 152.567C81.0978 153.126 81.1753 153.748 81.1753 154.435ZM79.6313 154.609V154.435C79.6313 153.986 79.5898 153.566 79.5068 153.173C79.4238 152.774 79.291 152.426 79.1084 152.127C78.9258 151.823 78.6851 151.585 78.3862 151.413C78.0874 151.236 77.7194 151.147 77.2822 151.147C76.8949 151.147 76.5573 151.214 76.2695 151.347C75.9873 151.479 75.7466 151.659 75.5474 151.886C75.3481 152.108 75.1849 152.362 75.0576 152.65C74.9359 152.932 74.8446 153.225 74.7837 153.53V155.53C74.8722 155.918 75.0161 156.291 75.2153 156.651C75.4201 157.005 75.6912 157.296 76.0288 157.522C76.3719 157.749 76.7952 157.863 77.2988 157.863C77.7139 157.863 78.068 157.78 78.3613 157.614C78.6602 157.442 78.9009 157.207 79.0835 156.908C79.2716 156.609 79.41 156.264 79.4985 155.871C79.5871 155.478 79.6313 155.057 79.6313 154.609ZM86.7119 157.904C87.0771 157.904 87.4147 157.83 87.7246 157.68C88.0345 157.531 88.2891 157.326 88.4883 157.066C88.6875 156.8 88.8009 156.499 88.8286 156.161H90.2896C90.2619 156.692 90.082 157.188 89.75 157.647C89.4235 158.101 88.9946 158.469 88.4634 158.751C87.9321 159.028 87.3483 159.166 86.7119 159.166C86.0368 159.166 85.4474 159.047 84.9438 158.809C84.4458 158.571 84.0308 158.245 83.6987 157.83C83.3722 157.415 83.126 156.939 82.96 156.402C82.7995 155.86 82.7192 155.287 82.7192 154.684V154.335C82.7192 153.732 82.7995 153.162 82.96 152.625C83.126 152.083 83.3722 151.604 83.6987 151.189C84.0308 150.774 84.4458 150.447 84.9438 150.209C85.4474 149.972 86.0368 149.853 86.7119 149.853C87.4147 149.853 88.029 149.996 88.5547 150.284C89.0804 150.566 89.4927 150.954 89.7915 151.446C90.0959 151.933 90.2619 152.487 90.2896 153.106H88.8286C88.8009 152.736 88.6958 152.401 88.5132 152.102C88.3361 151.803 88.0926 151.565 87.7827 151.388C87.4784 151.206 87.1214 151.114 86.7119 151.114C86.2415 151.114 85.8459 151.208 85.5249 151.396C85.2095 151.579 84.9577 151.828 84.7695 152.144C84.5869 152.453 84.4541 152.799 84.3711 153.181C84.2936 153.557 84.2549 153.942 84.2549 154.335V154.684C84.2549 155.076 84.2936 155.464 84.3711 155.846C84.4486 156.228 84.5786 156.573 84.7612 156.883C84.9494 157.193 85.2012 157.442 85.5166 157.63C85.8376 157.813 86.236 157.904 86.7119 157.904Z" fill="white"/>
<rect width="38" height="24" transform="translate(381 140)" fill="#0500FF"/>
<path d="M392.621 156.464V151.841C392.621 151.487 392.549 151.18 392.405 150.919C392.266 150.654 392.056 150.449 391.774 150.305C391.492 150.161 391.143 150.089 390.728 150.089C390.341 150.089 390 150.156 389.707 150.289C389.419 150.421 389.192 150.596 389.026 150.812C388.866 151.027 388.786 151.26 388.786 151.509H387.25C387.25 151.188 387.333 150.87 387.499 150.554C387.665 150.239 387.903 149.954 388.213 149.699C388.528 149.439 388.905 149.234 389.342 149.085C389.785 148.93 390.277 148.853 390.819 148.853C391.472 148.853 392.048 148.963 392.546 149.185C393.049 149.406 393.442 149.741 393.725 150.189C394.012 150.632 394.156 151.188 394.156 151.857V156.041C394.156 156.34 394.181 156.658 394.231 156.996C394.286 157.333 394.367 157.624 394.472 157.867V158H392.87C392.792 157.823 392.731 157.588 392.687 157.294C392.643 156.996 392.621 156.719 392.621 156.464ZM392.886 152.555L392.903 153.634H391.351C390.913 153.634 390.523 153.67 390.18 153.742C389.837 153.808 389.549 153.91 389.317 154.049C389.084 154.187 388.907 154.361 388.786 154.572C388.664 154.777 388.603 155.017 388.603 155.294C388.603 155.576 388.667 155.833 388.794 156.066C388.921 156.298 389.112 156.484 389.367 156.622C389.627 156.755 389.945 156.821 390.321 156.821C390.792 156.821 391.207 156.722 391.566 156.522C391.926 156.323 392.211 156.08 392.421 155.792C392.637 155.504 392.753 155.225 392.77 154.954L393.426 155.692C393.387 155.925 393.282 156.182 393.11 156.464C392.939 156.747 392.709 157.018 392.421 157.278C392.139 157.532 391.802 157.745 391.409 157.917C391.021 158.083 390.584 158.166 390.097 158.166C389.488 158.166 388.954 158.047 388.495 157.809C388.041 157.571 387.687 157.253 387.433 156.854C387.184 156.451 387.059 156 387.059 155.501C387.059 155.02 387.153 154.597 387.341 154.231C387.529 153.861 387.801 153.554 388.155 153.31C388.509 153.061 388.935 152.873 389.433 152.746C389.931 152.618 390.487 152.555 391.102 152.555H392.886ZM396.563 145.25H398.107V156.257L397.975 158H396.563V145.25ZM404.175 153.435V153.609C404.175 154.262 404.098 154.868 403.943 155.427C403.788 155.98 403.561 156.462 403.262 156.871C402.963 157.281 402.598 157.599 402.167 157.826C401.735 158.053 401.24 158.166 400.681 158.166C400.111 158.166 399.61 158.069 399.178 157.875C398.752 157.676 398.392 157.391 398.099 157.021C397.806 156.65 397.571 156.201 397.394 155.676C397.222 155.15 397.103 154.558 397.037 153.899V153.136C397.103 152.472 397.222 151.877 397.394 151.351C397.571 150.825 397.806 150.377 398.099 150.006C398.392 149.63 398.752 149.345 399.178 149.151C399.604 148.952 400.1 148.853 400.664 148.853C401.229 148.853 401.729 148.963 402.167 149.185C402.604 149.4 402.969 149.71 403.262 150.114C403.561 150.518 403.788 151.002 403.943 151.567C404.098 152.126 404.175 152.748 404.175 153.435ZM402.631 153.609V153.435C402.631 152.986 402.59 152.566 402.507 152.173C402.424 151.774 402.291 151.426 402.108 151.127C401.926 150.823 401.685 150.585 401.386 150.413C401.087 150.236 400.719 150.147 400.282 150.147C399.895 150.147 399.557 150.214 399.27 150.347C398.987 150.479 398.747 150.659 398.547 150.886C398.348 151.108 398.185 151.362 398.058 151.65C397.936 151.932 397.845 152.225 397.784 152.53V154.53C397.872 154.918 398.016 155.291 398.215 155.651C398.42 156.005 398.691 156.296 399.029 156.522C399.372 156.749 399.795 156.863 400.299 156.863C400.714 156.863 401.068 156.78 401.361 156.614C401.66 156.442 401.901 156.207 402.083 155.908C402.272 155.609 402.41 155.264 402.499 154.871C402.587 154.478 402.631 154.057 402.631 153.609ZM409.712 156.904C410.077 156.904 410.415 156.83 410.725 156.68C411.035 156.531 411.289 156.326 411.488 156.066C411.688 155.8 411.801 155.499 411.829 155.161H413.29C413.262 155.692 413.082 156.188 412.75 156.647C412.424 157.101 411.995 157.469 411.463 157.751C410.932 158.028 410.348 158.166 409.712 158.166C409.037 158.166 408.447 158.047 407.944 157.809C407.446 157.571 407.031 157.245 406.699 156.83C406.372 156.415 406.126 155.939 405.96 155.402C405.799 154.86 405.719 154.287 405.719 153.684V153.335C405.719 152.732 405.799 152.162 405.96 151.625C406.126 151.083 406.372 150.604 406.699 150.189C407.031 149.774 407.446 149.447 407.944 149.209C408.447 148.972 409.037 148.853 409.712 148.853C410.415 148.853 411.029 148.996 411.555 149.284C412.08 149.566 412.493 149.954 412.792 150.446C413.096 150.933 413.262 151.487 413.29 152.106H411.829C411.801 151.736 411.696 151.401 411.513 151.102C411.336 150.803 411.093 150.565 410.783 150.388C410.478 150.206 410.121 150.114 409.712 150.114C409.242 150.114 408.846 150.208 408.525 150.396C408.209 150.579 407.958 150.828 407.77 151.144C407.587 151.453 407.454 151.799 407.371 152.181C407.294 152.557 407.255 152.942 407.255 153.335V153.684C407.255 154.076 407.294 154.464 407.371 154.846C407.449 155.228 407.579 155.573 407.761 155.883C407.949 156.193 408.201 156.442 408.517 156.63C408.838 156.813 409.236 156.904 409.712 156.904Z" fill="white"/>
<rect width="38" height="24" transform="translate(747 141)" fill="#0500FF"/>
<path d="M758.621 157.464V152.841C758.621 152.487 758.549 152.18 758.405 151.919C758.266 151.654 758.056 151.449 757.774 151.305C757.492 151.161 757.143 151.089 756.728 151.089C756.341 151.089 756 151.156 755.707 151.289C755.419 151.421 755.192 151.596 755.026 151.812C754.866 152.027 754.786 152.26 754.786 152.509H753.25C753.25 152.188 753.333 151.87 753.499 151.554C753.665 151.239 753.903 150.954 754.213 150.699C754.528 150.439 754.905 150.234 755.342 150.085C755.785 149.93 756.277 149.853 756.819 149.853C757.472 149.853 758.048 149.963 758.546 150.185C759.049 150.406 759.442 150.741 759.725 151.189C760.012 151.632 760.156 152.188 760.156 152.857V157.041C760.156 157.34 760.181 157.658 760.231 157.996C760.286 158.333 760.367 158.624 760.472 158.867V159H758.87C758.792 158.823 758.731 158.588 758.687 158.294C758.643 157.996 758.621 157.719 758.621 157.464ZM758.886 153.555L758.903 154.634H757.351C756.913 154.634 756.523 154.67 756.18 154.742C755.837 154.808 755.549 154.91 755.317 155.049C755.084 155.187 754.907 155.361 754.786 155.572C754.664 155.777 754.603 156.017 754.603 156.294C754.603 156.576 754.667 156.833 754.794 157.066C754.921 157.298 755.112 157.484 755.367 157.622C755.627 157.755 755.945 157.821 756.321 157.821C756.792 157.821 757.207 157.722 757.566 157.522C757.926 157.323 758.211 157.08 758.421 156.792C758.637 156.504 758.753 156.225 758.77 155.954L759.426 156.692C759.387 156.925 759.282 157.182 759.11 157.464C758.939 157.747 758.709 158.018 758.421 158.278C758.139 158.532 757.802 158.745 757.409 158.917C757.021 159.083 756.584 159.166 756.097 159.166C755.488 159.166 754.954 159.047 754.495 158.809C754.041 158.571 753.687 158.253 753.433 157.854C753.184 157.451 753.059 157 753.059 156.501C753.059 156.02 753.153 155.597 753.341 155.231C753.529 154.861 753.801 154.554 754.155 154.31C754.509 154.061 754.935 153.873 755.433 153.746C755.931 153.618 756.487 153.555 757.102 153.555H758.886ZM762.563 146.25H764.107V157.257L763.975 159H762.563V146.25ZM770.175 154.435V154.609C770.175 155.262 770.098 155.868 769.943 156.427C769.788 156.98 769.561 157.462 769.262 157.871C768.963 158.281 768.598 158.599 768.167 158.826C767.735 159.053 767.24 159.166 766.681 159.166C766.111 159.166 765.61 159.069 765.178 158.875C764.752 158.676 764.392 158.391 764.099 158.021C763.806 157.65 763.571 157.201 763.394 156.676C763.222 156.15 763.103 155.558 763.037 154.899V154.136C763.103 153.472 763.222 152.877 763.394 152.351C763.571 151.825 763.806 151.377 764.099 151.006C764.392 150.63 764.752 150.345 765.178 150.151C765.604 149.952 766.1 149.853 766.664 149.853C767.229 149.853 767.729 149.963 768.167 150.185C768.604 150.4 768.969 150.71 769.262 151.114C769.561 151.518 769.788 152.002 769.943 152.567C770.098 153.126 770.175 153.748 770.175 154.435ZM768.631 154.609V154.435C768.631 153.986 768.59 153.566 768.507 153.173C768.424 152.774 768.291 152.426 768.108 152.127C767.926 151.823 767.685 151.585 767.386 151.413C767.087 151.236 766.719 151.147 766.282 151.147C765.895 151.147 765.557 151.214 765.27 151.347C764.987 151.479 764.747 151.659 764.547 151.886C764.348 152.108 764.185 152.362 764.058 152.65C763.936 152.932 763.845 153.225 763.784 153.53V155.53C763.872 155.918 764.016 156.291 764.215 156.651C764.42 157.005 764.691 157.296 765.029 157.522C765.372 157.749 765.795 157.863 766.299 157.863C766.714 157.863 767.068 157.78 767.361 157.614C767.66 157.442 767.901 157.207 768.083 156.908C768.272 156.609 768.41 156.264 768.499 155.871C768.587 155.478 768.631 155.057 768.631 154.609ZM775.712 157.904C776.077 157.904 776.415 157.83 776.725 157.68C777.035 157.531 777.289 157.326 777.488 157.066C777.688 156.8 777.801 156.499 777.829 156.161H779.29C779.262 156.692 779.082 157.188 778.75 157.647C778.424 158.101 777.995 158.469 777.463 158.751C776.932 159.028 776.348 159.166 775.712 159.166C775.037 159.166 774.447 159.047 773.944 158.809C773.446 158.571 773.031 158.245 772.699 157.83C772.372 157.415 772.126 156.939 771.96 156.402C771.799 155.86 771.719 155.287 771.719 154.684V154.335C771.719 153.732 771.799 153.162 771.96 152.625C772.126 152.083 772.372 151.604 772.699 151.189C773.031 150.774 773.446 150.447 773.944 150.209C774.447 149.972 775.037 149.853 775.712 149.853C776.415 149.853 777.029 149.996 777.555 150.284C778.08 150.566 778.493 150.954 778.792 151.446C779.096 151.933 779.262 152.487 779.29 153.106H777.829C777.801 152.736 777.696 152.401 777.513 152.102C777.336 151.803 777.093 151.565 776.783 151.388C776.478 151.206 776.121 151.114 775.712 151.114C775.242 151.114 774.846 151.208 774.525 151.396C774.209 151.579 773.958 151.828 773.77 152.144C773.587 152.453 773.454 152.799 773.371 153.181C773.294 153.557 773.255 153.942 773.255 154.335V154.684C773.255 155.076 773.294 155.464 773.371 155.846C773.449 156.228 773.579 156.573 773.761 156.883C773.949 157.193 774.201 157.442 774.517 157.63C774.838 157.813 775.236 157.904 775.712 157.904Z" fill="white"/>
<rect width="88" height="24" transform="translate(52 293)" fill="#FF0000"/>
<path d="M57.7637 306.609V306.418C57.7637 305.771 57.8577 305.17 58.0459 304.617C58.234 304.058 58.5052 303.574 58.8594 303.164C59.2135 302.749 59.6424 302.428 60.146 302.201C60.6496 301.969 61.214 301.853 61.8394 301.853C62.4702 301.853 63.0374 301.969 63.541 302.201C64.0501 302.428 64.4818 302.749 64.8359 303.164C65.1956 303.574 65.4696 304.058 65.6577 304.617C65.8459 305.17 65.9399 305.771 65.9399 306.418V306.609C65.9399 307.256 65.8459 307.857 65.6577 308.41C65.4696 308.964 65.1956 309.448 64.8359 309.863C64.4818 310.272 64.0529 310.593 63.5493 310.826C63.0513 311.053 62.4868 311.166 61.856 311.166C61.2251 311.166 60.6579 311.053 60.1543 310.826C59.6507 310.593 59.2191 310.272 58.8594 309.863C58.5052 309.448 58.234 308.964 58.0459 308.41C57.8577 307.857 57.7637 307.256 57.7637 306.609ZM59.2993 306.418V306.609C59.2993 307.057 59.3519 307.48 59.457 307.879C59.5622 308.272 59.7199 308.62 59.9302 308.925C60.146 309.229 60.4144 309.47 60.7354 309.647C61.0563 309.819 61.4299 309.904 61.856 309.904C62.2765 309.904 62.6445 309.819 62.96 309.647C63.2809 309.47 63.5465 309.229 63.7568 308.925C63.9671 308.62 64.1248 308.272 64.23 307.879C64.3407 307.48 64.396 307.057 64.396 306.609V306.418C64.396 305.975 64.3407 305.557 64.23 305.165C64.1248 304.766 63.9644 304.415 63.7485 304.11C63.5382 303.8 63.2726 303.557 62.9517 303.38C62.6362 303.203 62.2655 303.114 61.8394 303.114C61.4188 303.114 61.048 303.203 60.7271 303.38C60.4116 303.557 60.146 303.8 59.9302 304.11C59.7199 304.415 59.5622 304.766 59.457 305.165C59.3519 305.557 59.2993 305.975 59.2993 306.418ZM69.4014 303.43V311H67.8657V302.019H69.3599L69.4014 303.43ZM72.207 301.969L72.1987 303.396C72.0715 303.369 71.9497 303.352 71.8335 303.347C71.7228 303.336 71.5955 303.33 71.4517 303.33C71.0975 303.33 70.7848 303.385 70.5137 303.496C70.2425 303.607 70.0129 303.762 69.8247 303.961C69.6366 304.16 69.4871 304.398 69.3765 304.675C69.2713 304.946 69.2021 305.245 69.1689 305.571L68.7373 305.82C68.7373 305.278 68.7899 304.769 68.895 304.293C69.0057 303.817 69.1745 303.396 69.4014 303.031C69.6283 302.66 69.916 302.373 70.2646 302.168C70.6188 301.958 71.0394 301.853 71.5264 301.853C71.637 301.853 71.7643 301.866 71.9082 301.894C72.0521 301.916 72.1517 301.941 72.207 301.969ZM75.2949 302.019V311H73.751V302.019H75.2949ZM73.6348 299.636C73.6348 299.387 73.7095 299.177 73.8589 299.005C74.0138 298.834 74.2407 298.748 74.5396 298.748C74.8328 298.748 75.057 298.834 75.2119 299.005C75.3724 299.177 75.4526 299.387 75.4526 299.636C75.4526 299.874 75.3724 300.079 75.2119 300.25C75.057 300.417 74.8328 300.5 74.5396 300.5C74.2407 300.5 74.0138 300.417 73.8589 300.25C73.7095 300.079 73.6348 299.874 73.6348 299.636ZM83.5791 302.019H84.9736V310.809C84.9736 311.6 84.8132 312.276 84.4922 312.834C84.1712 313.393 83.723 313.817 83.1475 314.104C82.5775 314.398 81.9189 314.544 81.1719 314.544C80.862 314.544 80.4967 314.495 80.0762 314.395C79.6611 314.301 79.2516 314.138 78.8477 313.905C78.4492 313.678 78.1144 313.371 77.8433 312.984L78.6484 312.071C79.0247 312.525 79.4176 312.84 79.8271 313.017C80.2422 313.194 80.6517 313.283 81.0557 313.283C81.5426 313.283 81.9632 313.191 82.3174 313.009C82.6715 312.826 82.9455 312.555 83.1392 312.195C83.3384 311.841 83.438 311.404 83.438 310.884V303.994L83.5791 302.019ZM77.395 306.609V306.435C77.395 305.748 77.4753 305.126 77.6357 304.567C77.8018 304.002 78.0369 303.518 78.3413 303.114C78.6512 302.71 79.0247 302.4 79.4619 302.185C79.8991 301.963 80.3916 301.853 80.9395 301.853C81.5039 301.853 81.9964 301.952 82.417 302.151C82.8431 302.345 83.2028 302.63 83.4961 303.006C83.7949 303.377 84.0301 303.825 84.2017 304.351C84.3732 304.877 84.4922 305.472 84.5586 306.136V306.899C84.4977 307.558 84.3787 308.15 84.2017 308.676C84.0301 309.201 83.7949 309.65 83.4961 310.021C83.2028 310.391 82.8431 310.676 82.417 310.875C81.9909 311.069 81.4928 311.166 80.9229 311.166C80.3861 311.166 79.8991 311.053 79.4619 310.826C79.0303 310.599 78.6595 310.281 78.3496 309.871C78.0397 309.462 77.8018 308.98 77.6357 308.427C77.4753 307.868 77.395 307.262 77.395 306.609ZM78.9307 306.435V306.609C78.9307 307.057 78.9749 307.478 79.0635 307.871C79.1576 308.264 79.2987 308.609 79.4868 308.908C79.6805 309.207 79.9268 309.442 80.2256 309.614C80.5244 309.78 80.8813 309.863 81.2964 309.863C81.8055 309.863 82.2261 309.755 82.5581 309.539C82.8901 309.323 83.153 309.038 83.3467 308.684C83.5459 308.33 83.7008 307.945 83.8115 307.53V305.53C83.7507 305.225 83.6566 304.932 83.5293 304.65C83.4076 304.362 83.2471 304.108 83.0479 303.886C82.8542 303.659 82.6134 303.479 82.3257 303.347C82.0379 303.214 81.7004 303.147 81.313 303.147C80.8924 303.147 80.5299 303.236 80.2256 303.413C79.9268 303.585 79.6805 303.823 79.4868 304.127C79.2987 304.426 79.1576 304.774 79.0635 305.173C78.9749 305.566 78.9307 305.986 78.9307 306.435ZM88.9746 302.019V311H87.4307V302.019H88.9746ZM87.3145 299.636C87.3145 299.387 87.3892 299.177 87.5386 299.005C87.6935 298.834 87.9204 298.748 88.2192 298.748C88.5125 298.748 88.7367 298.834 88.8916 299.005C89.0521 299.177 89.1323 299.387 89.1323 299.636C89.1323 299.874 89.0521 300.079 88.8916 300.25C88.7367 300.417 88.5125 300.5 88.2192 300.5C87.9204 300.5 87.6935 300.417 87.5386 300.25C87.3892 300.079 87.3145 299.874 87.3145 299.636ZM92.9756 303.936V311H91.4399V302.019H92.8926L92.9756 303.936ZM92.6104 306.169L91.9712 306.144C91.9767 305.53 92.068 304.963 92.2451 304.442C92.4222 303.917 92.6712 303.46 92.9922 303.073C93.3132 302.685 93.695 302.387 94.1377 302.176C94.5859 301.96 95.0812 301.853 95.6235 301.853C96.0662 301.853 96.4647 301.913 96.8188 302.035C97.173 302.151 97.4746 302.34 97.7236 302.6C97.9782 302.86 98.1719 303.197 98.3047 303.612C98.4375 304.022 98.5039 304.523 98.5039 305.115V311H96.96V305.098C96.96 304.628 96.8908 304.251 96.7524 303.969C96.6141 303.681 96.4121 303.474 96.1465 303.347C95.8809 303.214 95.5544 303.147 95.167 303.147C94.7852 303.147 94.4365 303.228 94.1211 303.388C93.8112 303.549 93.5428 303.77 93.3159 304.052C93.0946 304.334 92.9202 304.658 92.793 305.023C92.6712 305.383 92.6104 305.765 92.6104 306.169ZM106.182 298.914L101.144 312.038H99.8237L104.871 298.914H106.182ZM113.155 309.464V304.841C113.155 304.487 113.083 304.18 112.939 303.919C112.801 303.654 112.59 303.449 112.308 303.305C112.026 303.161 111.677 303.089 111.262 303.089C110.875 303.089 110.535 303.156 110.241 303.289C109.953 303.421 109.727 303.596 109.561 303.812C109.4 304.027 109.32 304.26 109.32 304.509H107.784C107.784 304.188 107.867 303.87 108.033 303.554C108.199 303.239 108.437 302.954 108.747 302.699C109.062 302.439 109.439 302.234 109.876 302.085C110.319 301.93 110.811 301.853 111.354 301.853C112.007 301.853 112.582 301.963 113.08 302.185C113.584 302.406 113.977 302.741 114.259 303.189C114.547 303.632 114.69 304.188 114.69 304.857V309.041C114.69 309.34 114.715 309.658 114.765 309.996C114.82 310.333 114.901 310.624 115.006 310.867V311H113.404C113.326 310.823 113.265 310.588 113.221 310.294C113.177 309.996 113.155 309.719 113.155 309.464ZM113.42 305.555L113.437 306.634H111.885C111.448 306.634 111.057 306.67 110.714 306.742C110.371 306.808 110.083 306.91 109.851 307.049C109.619 307.187 109.442 307.361 109.32 307.572C109.198 307.777 109.137 308.017 109.137 308.294C109.137 308.576 109.201 308.833 109.328 309.066C109.455 309.298 109.646 309.484 109.901 309.622C110.161 309.755 110.479 309.821 110.855 309.821C111.326 309.821 111.741 309.722 112.101 309.522C112.46 309.323 112.745 309.08 112.956 308.792C113.171 308.504 113.288 308.225 113.304 307.954L113.96 308.692C113.921 308.925 113.816 309.182 113.645 309.464C113.473 309.747 113.243 310.018 112.956 310.278C112.673 310.532 112.336 310.745 111.943 310.917C111.556 311.083 111.118 311.166 110.631 311.166C110.023 311.166 109.489 311.047 109.029 310.809C108.576 310.571 108.221 310.253 107.967 309.854C107.718 309.451 107.593 309 107.593 308.501C107.593 308.02 107.687 307.597 107.875 307.231C108.064 306.861 108.335 306.554 108.689 306.31C109.043 306.061 109.469 305.873 109.967 305.746C110.465 305.618 111.021 305.555 111.636 305.555H113.42ZM117.098 298.25H118.642V309.257L118.509 311H117.098V298.25ZM124.709 306.435V306.609C124.709 307.262 124.632 307.868 124.477 308.427C124.322 308.98 124.095 309.462 123.796 309.871C123.498 310.281 123.132 310.599 122.701 310.826C122.269 311.053 121.774 311.166 121.215 311.166C120.645 311.166 120.144 311.069 119.712 310.875C119.286 310.676 118.927 310.391 118.633 310.021C118.34 309.65 118.105 309.201 117.928 308.676C117.756 308.15 117.637 307.558 117.571 306.899V306.136C117.637 305.472 117.756 304.877 117.928 304.351C118.105 303.825 118.34 303.377 118.633 303.006C118.927 302.63 119.286 302.345 119.712 302.151C120.139 301.952 120.634 301.853 121.198 301.853C121.763 301.853 122.264 301.963 122.701 302.185C123.138 302.4 123.503 302.71 123.796 303.114C124.095 303.518 124.322 304.002 124.477 304.567C124.632 305.126 124.709 305.748 124.709 306.435ZM123.166 306.609V306.435C123.166 305.986 123.124 305.566 123.041 305.173C122.958 304.774 122.825 304.426 122.643 304.127C122.46 303.823 122.219 303.585 121.92 303.413C121.622 303.236 121.254 303.147 120.816 303.147C120.429 303.147 120.091 303.214 119.804 303.347C119.521 303.479 119.281 303.659 119.082 303.886C118.882 304.108 118.719 304.362 118.592 304.65C118.47 304.932 118.379 305.225 118.318 305.53V307.53C118.406 307.918 118.55 308.291 118.75 308.651C118.954 309.005 119.225 309.296 119.563 309.522C119.906 309.749 120.329 309.863 120.833 309.863C121.248 309.863 121.602 309.78 121.896 309.614C122.194 309.442 122.435 309.207 122.618 308.908C122.806 308.609 122.944 308.264 123.033 307.871C123.121 307.478 123.166 307.057 123.166 306.609ZM130.246 309.904C130.611 309.904 130.949 309.83 131.259 309.68C131.569 309.531 131.823 309.326 132.022 309.066C132.222 308.8 132.335 308.499 132.363 308.161H133.824C133.796 308.692 133.616 309.188 133.284 309.647C132.958 310.101 132.529 310.469 131.998 310.751C131.466 311.028 130.882 311.166 130.246 311.166C129.571 311.166 128.982 311.047 128.478 310.809C127.98 310.571 127.565 310.245 127.233 309.83C126.906 309.415 126.66 308.939 126.494 308.402C126.334 307.86 126.253 307.287 126.253 306.684V306.335C126.253 305.732 126.334 305.162 126.494 304.625C126.66 304.083 126.906 303.604 127.233 303.189C127.565 302.774 127.98 302.447 128.478 302.209C128.982 301.972 129.571 301.853 130.246 301.853C130.949 301.853 131.563 301.996 132.089 302.284C132.615 302.566 133.027 302.954 133.326 303.446C133.63 303.933 133.796 304.487 133.824 305.106H132.363C132.335 304.736 132.23 304.401 132.047 304.102C131.87 303.803 131.627 303.565 131.317 303.388C131.013 303.206 130.656 303.114 130.246 303.114C129.776 303.114 129.38 303.208 129.059 303.396C128.744 303.579 128.492 303.828 128.304 304.144C128.121 304.453 127.988 304.799 127.905 305.181C127.828 305.557 127.789 305.942 127.789 306.335V306.684C127.789 307.076 127.828 307.464 127.905 307.846C127.983 308.228 128.113 308.573 128.295 308.883C128.484 309.193 128.735 309.442 129.051 309.63C129.372 309.813 129.77 309.904 130.246 309.904Z" fill="white"/>
<rect width="88" height="24" transform="translate(792 141)" fill="#FF0000"/>
<path d="M797.764 154.609V154.418C797.764 153.771 797.858 153.17 798.046 152.617C798.234 152.058 798.505 151.574 798.859 151.164C799.214 150.749 799.642 150.428 800.146 150.201C800.65 149.969 801.214 149.853 801.839 149.853C802.47 149.853 803.037 149.969 803.541 150.201C804.05 150.428 804.482 150.749 804.836 151.164C805.196 151.574 805.47 152.058 805.658 152.617C805.846 153.17 805.94 153.771 805.94 154.418V154.609C805.94 155.256 805.846 155.857 805.658 156.41C805.47 156.964 805.196 157.448 804.836 157.863C804.482 158.272 804.053 158.593 803.549 158.826C803.051 159.053 802.487 159.166 801.856 159.166C801.225 159.166 800.658 159.053 800.154 158.826C799.651 158.593 799.219 158.272 798.859 157.863C798.505 157.448 798.234 156.964 798.046 156.41C797.858 155.857 797.764 155.256 797.764 154.609ZM799.299 154.418V154.609C799.299 155.057 799.352 155.48 799.457 155.879C799.562 156.272 799.72 156.62 799.93 156.925C800.146 157.229 800.414 157.47 800.735 157.647C801.056 157.819 801.43 157.904 801.856 157.904C802.277 157.904 802.645 157.819 802.96 157.647C803.281 157.47 803.547 157.229 803.757 156.925C803.967 156.62 804.125 156.272 804.23 155.879C804.341 155.48 804.396 155.057 804.396 154.609V154.418C804.396 153.975 804.341 153.557 804.23 153.165C804.125 152.766 803.964 152.415 803.749 152.11C803.538 151.8 803.273 151.557 802.952 151.38C802.636 151.203 802.265 151.114 801.839 151.114C801.419 151.114 801.048 151.203 800.727 151.38C800.412 151.557 800.146 151.8 799.93 152.11C799.72 152.415 799.562 152.766 799.457 153.165C799.352 153.557 799.299 153.975 799.299 154.418ZM809.401 151.43V159H807.866V150.019H809.36L809.401 151.43ZM812.207 149.969L812.199 151.396C812.071 151.369 811.95 151.352 811.833 151.347C811.723 151.336 811.596 151.33 811.452 151.33C811.097 151.33 810.785 151.385 810.514 151.496C810.243 151.607 810.013 151.762 809.825 151.961C809.637 152.16 809.487 152.398 809.376 152.675C809.271 152.946 809.202 153.245 809.169 153.571L808.737 153.82C808.737 153.278 808.79 152.769 808.895 152.293C809.006 151.817 809.174 151.396 809.401 151.031C809.628 150.66 809.916 150.373 810.265 150.168C810.619 149.958 811.039 149.853 811.526 149.853C811.637 149.853 811.764 149.866 811.908 149.894C812.052 149.916 812.152 149.941 812.207 149.969ZM815.295 150.019V159H813.751V150.019H815.295ZM813.635 147.636C813.635 147.387 813.709 147.177 813.859 147.005C814.014 146.834 814.241 146.748 814.54 146.748C814.833 146.748 815.057 146.834 815.212 147.005C815.372 147.177 815.453 147.387 815.453 147.636C815.453 147.874 815.372 148.079 815.212 148.25C815.057 148.417 814.833 148.5 814.54 148.5C814.241 148.5 814.014 148.417 813.859 148.25C813.709 148.079 813.635 147.874 813.635 147.636ZM823.579 150.019H824.974V158.809C824.974 159.6 824.813 160.276 824.492 160.834C824.171 161.393 823.723 161.817 823.147 162.104C822.577 162.398 821.919 162.544 821.172 162.544C820.862 162.544 820.497 162.495 820.076 162.395C819.661 162.301 819.252 162.138 818.848 161.905C818.449 161.678 818.114 161.371 817.843 160.984L818.648 160.071C819.025 160.525 819.418 160.84 819.827 161.017C820.242 161.194 820.652 161.283 821.056 161.283C821.543 161.283 821.963 161.191 822.317 161.009C822.672 160.826 822.945 160.555 823.139 160.195C823.338 159.841 823.438 159.404 823.438 158.884V151.994L823.579 150.019ZM817.395 154.609V154.435C817.395 153.748 817.475 153.126 817.636 152.567C817.802 152.002 818.037 151.518 818.341 151.114C818.651 150.71 819.025 150.4 819.462 150.185C819.899 149.963 820.392 149.853 820.939 149.853C821.504 149.853 821.996 149.952 822.417 150.151C822.843 150.345 823.203 150.63 823.496 151.006C823.795 151.377 824.03 151.825 824.202 152.351C824.373 152.877 824.492 153.472 824.559 154.136V154.899C824.498 155.558 824.379 156.15 824.202 156.676C824.03 157.201 823.795 157.65 823.496 158.021C823.203 158.391 822.843 158.676 822.417 158.875C821.991 159.069 821.493 159.166 820.923 159.166C820.386 159.166 819.899 159.053 819.462 158.826C819.03 158.599 818.66 158.281 818.35 157.871C818.04 157.462 817.802 156.98 817.636 156.427C817.475 155.868 817.395 155.262 817.395 154.609ZM818.931 154.435V154.609C818.931 155.057 818.975 155.478 819.063 155.871C819.158 156.264 819.299 156.609 819.487 156.908C819.681 157.207 819.927 157.442 820.226 157.614C820.524 157.78 820.881 157.863 821.296 157.863C821.806 157.863 822.226 157.755 822.558 157.539C822.89 157.323 823.153 157.038 823.347 156.684C823.546 156.33 823.701 155.945 823.812 155.53V153.53C823.751 153.225 823.657 152.932 823.529 152.65C823.408 152.362 823.247 152.108 823.048 151.886C822.854 151.659 822.613 151.479 822.326 151.347C822.038 151.214 821.7 151.147 821.313 151.147C820.892 151.147 820.53 151.236 820.226 151.413C819.927 151.585 819.681 151.823 819.487 152.127C819.299 152.426 819.158 152.774 819.063 153.173C818.975 153.566 818.931 153.986 818.931 154.435ZM828.975 150.019V159H827.431V150.019H828.975ZM827.314 147.636C827.314 147.387 827.389 147.177 827.539 147.005C827.694 146.834 827.92 146.748 828.219 146.748C828.513 146.748 828.737 146.834 828.892 147.005C829.052 147.177 829.132 147.387 829.132 147.636C829.132 147.874 829.052 148.079 828.892 148.25C828.737 148.417 828.513 148.5 828.219 148.5C827.92 148.5 827.694 148.417 827.539 148.25C827.389 148.079 827.314 147.874 827.314 147.636ZM832.976 151.936V159H831.44V150.019H832.893L832.976 151.936ZM832.61 154.169L831.971 154.144C831.977 153.53 832.068 152.963 832.245 152.442C832.422 151.917 832.671 151.46 832.992 151.073C833.313 150.685 833.695 150.387 834.138 150.176C834.586 149.96 835.081 149.853 835.624 149.853C836.066 149.853 836.465 149.913 836.819 150.035C837.173 150.151 837.475 150.34 837.724 150.6C837.978 150.86 838.172 151.197 838.305 151.612C838.438 152.022 838.504 152.523 838.504 153.115V159H836.96V153.098C836.96 152.628 836.891 152.251 836.752 151.969C836.614 151.681 836.412 151.474 836.146 151.347C835.881 151.214 835.554 151.147 835.167 151.147C834.785 151.147 834.437 151.228 834.121 151.388C833.811 151.549 833.543 151.77 833.316 152.052C833.095 152.334 832.92 152.658 832.793 153.023C832.671 153.383 832.61 153.765 832.61 154.169ZM846.182 146.914L841.144 160.038H839.824L844.871 146.914H846.182ZM853.155 157.464V152.841C853.155 152.487 853.083 152.18 852.939 151.919C852.801 151.654 852.59 151.449 852.308 151.305C852.026 151.161 851.677 151.089 851.262 151.089C850.875 151.089 850.535 151.156 850.241 151.289C849.953 151.421 849.727 151.596 849.561 151.812C849.4 152.027 849.32 152.26 849.32 152.509H847.784C847.784 152.188 847.867 151.87 848.033 151.554C848.199 151.239 848.437 150.954 848.747 150.699C849.062 150.439 849.439 150.234 849.876 150.085C850.319 149.93 850.811 149.853 851.354 149.853C852.007 149.853 852.582 149.963 853.08 150.185C853.584 150.406 853.977 150.741 854.259 151.189C854.547 151.632 854.69 152.188 854.69 152.857V157.041C854.69 157.34 854.715 157.658 854.765 157.996C854.82 158.333 854.901 158.624 855.006 158.867V159H853.404C853.326 158.823 853.265 158.588 853.221 158.294C853.177 157.996 853.155 157.719 853.155 157.464ZM853.42 153.555L853.437 154.634H851.885C851.448 154.634 851.057 154.67 850.714 154.742C850.371 154.808 850.083 154.91 849.851 155.049C849.619 155.187 849.442 155.361 849.32 155.572C849.198 155.777 849.137 156.017 849.137 156.294C849.137 156.576 849.201 156.833 849.328 157.066C849.455 157.298 849.646 157.484 849.901 157.622C850.161 157.755 850.479 157.821 850.855 157.821C851.326 157.821 851.741 157.722 852.101 157.522C852.46 157.323 852.745 157.08 852.956 156.792C853.171 156.504 853.288 156.225 853.304 155.954L853.96 156.692C853.921 156.925 853.816 157.182 853.645 157.464C853.473 157.747 853.243 158.018 852.956 158.278C852.673 158.532 852.336 158.745 851.943 158.917C851.556 159.083 851.118 159.166 850.631 159.166C850.023 159.166 849.489 159.047 849.029 158.809C848.576 158.571 848.221 158.253 847.967 157.854C847.718 157.451 847.593 157 847.593 156.501C847.593 156.02 847.687 155.597 847.875 155.231C848.064 154.861 848.335 154.554 848.689 154.31C849.043 154.061 849.469 153.873 849.967 153.746C850.465 153.618 851.021 153.555 851.636 153.555H853.42ZM857.098 146.25H858.642V157.257L858.509 159H857.098V146.25ZM864.709 154.435V154.609C864.709 155.262 864.632 155.868 864.477 156.427C864.322 156.98 864.095 157.462 863.796 157.871C863.498 158.281 863.132 158.599 862.701 158.826C862.269 159.053 861.774 159.166 861.215 159.166C860.645 159.166 860.144 159.069 859.712 158.875C859.286 158.676 858.927 158.391 858.633 158.021C858.34 157.65 858.105 157.201 857.928 156.676C857.756 156.15 857.637 155.558 857.571 154.899V154.136C857.637 153.472 857.756 152.877 857.928 152.351C858.105 151.825 858.34 151.377 858.633 151.006C858.927 150.63 859.286 150.345 859.712 150.151C860.139 149.952 860.634 149.853 861.198 149.853C861.763 149.853 862.264 149.963 862.701 150.185C863.138 150.4 863.503 150.71 863.796 151.114C864.095 151.518 864.322 152.002 864.477 152.567C864.632 153.126 864.709 153.748 864.709 154.435ZM863.166 154.609V154.435C863.166 153.986 863.124 153.566 863.041 153.173C862.958 152.774 862.825 152.426 862.643 152.127C862.46 151.823 862.219 151.585 861.92 151.413C861.622 151.236 861.254 151.147 860.816 151.147C860.429 151.147 860.091 151.214 859.804 151.347C859.521 151.479 859.281 151.659 859.082 151.886C858.882 152.108 858.719 152.362 858.592 152.65C858.47 152.932 858.379 153.225 858.318 153.53V155.53C858.406 155.918 858.55 156.291 858.75 156.651C858.954 157.005 859.225 157.296 859.563 157.522C859.906 157.749 860.329 157.863 860.833 157.863C861.248 157.863 861.602 157.78 861.896 157.614C862.194 157.442 862.435 157.207 862.618 156.908C862.806 156.609 862.944 156.264 863.033 155.871C863.121 155.478 863.166 155.057 863.166 154.609ZM870.246 157.904C870.611 157.904 870.949 157.83 871.259 157.68C871.569 157.531 871.823 157.326 872.022 157.066C872.222 156.8 872.335 156.499 872.363 156.161H873.824C873.796 156.692 873.616 157.188 873.284 157.647C872.958 158.101 872.529 158.469 871.998 158.751C871.466 159.028 870.882 159.166 870.246 159.166C869.571 159.166 868.982 159.047 868.478 158.809C867.98 158.571 867.565 158.245 867.233 157.83C866.906 157.415 866.66 156.939 866.494 156.402C866.334 155.86 866.253 155.287 866.253 154.684V154.335C866.253 153.732 866.334 153.162 866.494 152.625C866.66 152.083 866.906 151.604 867.233 151.189C867.565 150.774 867.98 150.447 868.478 150.209C868.982 149.972 869.571 149.853 870.246 149.853C870.949 149.853 871.563 149.996 872.089 150.284C872.615 150.566 873.027 150.954 873.326 151.446C873.63 151.933 873.796 152.487 873.824 153.106H872.363C872.335 152.736 872.23 152.401 872.047 152.102C871.87 151.803 871.627 151.565 871.317 151.388C871.013 151.206 870.656 151.114 870.246 151.114C869.776 151.114 869.38 151.208 869.059 151.396C868.744 151.579 868.492 151.828 868.304 152.144C868.121 152.453 867.988 152.799 867.905 153.181C867.828 153.557 867.789 153.942 867.789 154.335V154.684C867.789 155.076 867.828 155.464 867.905 155.846C867.983 156.228 868.113 156.573 868.295 156.883C868.484 157.193 868.735 157.442 869.051 157.63C869.372 157.813 869.77 157.904 870.246 157.904Z" fill="white"/>
<path d="M509.016 125.391C513.499 126.139 518.31 131.174 521.574 133.938C529.739 140.855 537.182 148.7 544.914 156.095C550.176 161.128 555.82 166.157 560.364 171.874C560.976 172.643 561.875 173.12 562.271 173.912" stroke="black" stroke-width="3" stroke-linecap="round"/>
<path d="M558.721 126.575C555.977 127.124 552.615 132.057 550.897 133.938C543.775 141.736 538.374 150.867 532.685 159.711C527.231 168.19 521.407 176.315 514.342 183.38" stroke="black" stroke-width="3" stroke-linecap="round"/>
<path d="M423.535 140.038C423.535 145.187 423.535 150.337 423.535 155.486C423.535 157.165 423.535 158.844 423.535 160.523C423.535 162.663 423.081 163.21 425.457 163.21C437.227 163.21 449.092 163.545 460.811 163.545C461.754 163.545 463.497 164.536 463.497 163.135C463.497 158.749 463.185 154.117 462.565 149.777C462.303 147.945 462.49 145.988 462.49 144.143C462.49 143.64 462.836 141.541 462.415 141.12C461.997 140.702 459.849 141.046 459.393 141.046C456.855 141.046 454.119 141.342 451.613 140.878C448.885 140.372 445.957 140.71 443.181 140.71C439.835 140.71 436.489 140.71 433.143 140.71C431.402 140.71 429.661 140.71 427.92 140.71C427.083 140.71 424.508 140.641 424.207 140.038" stroke="black" stroke-width="3" stroke-linecap="round"/>
<path d="M502.604 168.247C502.604 172.793 501.059 175.211 497.081 177.612C489.469 182.209 480.114 183.023 471.447 183.023C465.594 183.023 457.639 183.944 452.884 179.665C449.809 176.897 448.669 174.322 447.53 170.336C447.173 169.087 446.889 167.594 446.354 166.418C446.17 166.013 446.277 164.93 445.832 165.747C445.006 167.262 443.848 168.683 442.978 170.224C442.917 170.332 441.897 172.463 441.821 172.463C441.711 172.463 442.975 169.658 443.015 169.59C443.334 169.043 444.311 166.456 445.03 166.251C446.481 165.836 448.807 167.35 449.992 167.911C451.583 168.663 453.322 169.674 454.582 170.933" stroke="black" stroke-width="3" stroke-linecap="round"/>
<path d="M467.679 160.523C469.623 157.121 472.197 154.061 473.873 150.486C474.517 149.111 475.702 147.109 477.082 146.419" stroke="black" stroke-width="3" stroke-linecap="round"/>
<path d="M468.015 145.411C467.685 145.411 468.834 146.231 469.06 146.456C471.566 148.963 473.847 151.7 476.336 154.236C477.906 155.836 479.601 157.147 481.298 158.583C481.969 159.15 482.289 159.908 483.126 160.187" stroke="black" stroke-width="3" stroke-linecap="round"/>
<path d="M465.328 206.866C467.729 207.644 469.22 209.614 470.962 211.343C473.529 213.891 476.096 216.395 478.574 219.03C480.155 220.711 481.875 222.291 483.649 223.768C484.171 224.204 484.595 224.369 484.805 225" stroke="black" stroke-width="3" stroke-linecap="round"/>
<path d="M479.097 202.5C478.98 203.785 478.005 204.963 477.343 206.008C475.166 209.44 472.974 212.861 470.701 216.231C468.911 218.886 466.979 221.493 465.048 224.048C464.478 224.803 463.61 225.452 463.313 226.343" stroke="black" stroke-width="3" stroke-linecap="round"/>
</svg>
