<svg width="900" height="500" viewBox="0 0 900 500" fill="none" xmlns="http://www.w3.org/2000/svg">
<rect width="900" height="500" fill="white"/>
<path d="M42 151.023V433.023" stroke="black"/>
<path d="M368 151.023V433.023" stroke="black"/>
<path d="M729 151.023V433.023" stroke="black"/>
<circle cx="42" cy="153.023" r="5" fill="#0500FF"/>
<circle cx="368" cy="153.023" r="5" fill="#0500FF"/>
<circle cx="729" cy="153.023" r="5" fill="#0500FF"/>
<circle cx="42" cy="215.023" r="5" fill="#0500FF"/>
<circle cx="368" cy="215.023" r="5" fill="#0500FF"/>
<circle cx="729" cy="215.023" r="5" fill="#0500FF"/>
<circle cx="42" cy="286.023" r="5" fill="#FF0000"/>
<circle cx="368" cy="286.023" r="5" fill="#FF0000"/>
<circle cx="729" cy="286.023" r="5" fill="#FF0000"/>
<circle cx="42" cy="368.023" r="5" fill="#FF0000"/>
<circle cx="368" cy="368.023" r="5" fill="#FF0000"/>
<circle cx="729" cy="368.023" r="5" fill="#FF0000"/>
<path d="M808.533 153.794C808.533 153.173 808.654 152.614 808.896 152.118C809.143 151.622 809.482 151.239 809.916 150.97C810.354 150.7 810.852 150.566 811.41 150.566C812.273 150.566 812.971 150.864 813.502 151.462C814.037 152.06 814.305 152.855 814.305 153.847V153.923C814.305 154.54 814.186 155.095 813.947 155.587C813.713 156.075 813.375 156.456 812.934 156.73C812.496 157.003 811.992 157.14 811.422 157.14C810.562 157.14 809.865 156.841 809.33 156.243C808.799 155.646 808.533 154.855 808.533 153.87V153.794ZM809.623 153.923C809.623 154.626 809.785 155.191 810.109 155.616C810.438 156.042 810.875 156.255 811.422 156.255C811.973 156.255 812.41 156.04 812.734 155.611C813.059 155.177 813.221 154.571 813.221 153.794C813.221 153.099 813.055 152.536 812.723 152.107C812.395 151.673 811.957 151.456 811.41 151.456C810.875 151.456 810.443 151.669 810.115 152.095C809.787 152.521 809.623 153.13 809.623 153.923ZM818.729 151.655C818.564 151.628 818.387 151.614 818.195 151.614C817.484 151.614 817.002 151.917 816.748 152.523V157.023H815.664V150.683H816.719L816.736 151.415C817.092 150.849 817.596 150.566 818.248 150.566C818.459 150.566 818.619 150.593 818.729 150.648V151.655ZM820.908 157.023H819.824V150.683H820.908V157.023ZM819.736 149.001C819.736 148.825 819.789 148.677 819.895 148.556C820.004 148.435 820.164 148.374 820.375 148.374C820.586 148.374 820.746 148.435 820.855 148.556C820.965 148.677 821.02 148.825 821.02 149.001C821.02 149.177 820.965 149.323 820.855 149.441C820.746 149.558 820.586 149.616 820.375 149.616C820.164 149.616 820.004 149.558 819.895 149.441C819.789 149.323 819.736 149.177 819.736 149.001ZM822.391 153.8C822.391 152.812 822.619 152.027 823.076 151.445C823.533 150.859 824.139 150.566 824.893 150.566C825.666 150.566 826.27 150.839 826.703 151.386L826.756 150.683H827.746V156.87C827.746 157.691 827.502 158.337 827.014 158.81C826.529 159.282 825.877 159.519 825.057 159.519C824.6 159.519 824.152 159.421 823.715 159.226C823.277 159.03 822.943 158.763 822.713 158.423L823.275 157.773C823.74 158.347 824.309 158.634 824.98 158.634C825.508 158.634 825.918 158.486 826.211 158.189C826.508 157.892 826.656 157.474 826.656 156.935V156.39C826.223 156.89 825.631 157.14 824.881 157.14C824.139 157.14 823.537 156.841 823.076 156.243C822.619 155.646 822.391 154.831 822.391 153.8ZM823.48 153.923C823.48 154.638 823.627 155.2 823.92 155.611C824.213 156.017 824.623 156.22 825.15 156.22C825.834 156.22 826.336 155.909 826.656 155.288V152.394C826.324 151.788 825.826 151.486 825.162 151.486C824.635 151.486 824.223 151.691 823.926 152.101C823.629 152.511 823.48 153.118 823.48 153.923ZM830.564 157.023H829.48V150.683H830.564V157.023ZM829.393 149.001C829.393 148.825 829.445 148.677 829.551 148.556C829.66 148.435 829.82 148.374 830.031 148.374C830.242 148.374 830.402 148.435 830.512 148.556C830.621 148.677 830.676 148.825 830.676 149.001C830.676 149.177 830.621 149.323 830.512 149.441C830.402 149.558 830.242 149.616 830.031 149.616C829.82 149.616 829.66 149.558 829.551 149.441C829.445 149.323 829.393 149.177 829.393 149.001ZM833.33 150.683L833.365 151.48C833.85 150.87 834.482 150.566 835.264 150.566C836.604 150.566 837.279 151.321 837.291 152.833V157.023H836.207V152.827C836.203 152.37 836.098 152.032 835.891 151.814C835.688 151.595 835.369 151.486 834.936 151.486C834.584 151.486 834.275 151.579 834.01 151.767C833.744 151.954 833.537 152.2 833.389 152.505V157.023H832.305V150.683H833.33ZM839.143 157.755H838.211L841.773 148.491H842.699L839.143 157.755ZM847.785 157.023C847.723 156.898 847.672 156.675 847.633 156.355C847.129 156.878 846.527 157.14 845.828 157.14C845.203 157.14 844.689 156.964 844.287 156.612C843.889 156.257 843.689 155.808 843.689 155.265C843.689 154.605 843.939 154.093 844.439 153.73C844.943 153.362 845.65 153.179 846.561 153.179H847.615V152.681C847.615 152.302 847.502 152.001 847.275 151.779C847.049 151.552 846.715 151.439 846.273 151.439C845.887 151.439 845.562 151.536 845.301 151.732C845.039 151.927 844.908 152.163 844.908 152.441H843.818C843.818 152.124 843.93 151.82 844.152 151.527C844.379 151.23 844.684 150.995 845.066 150.823C845.453 150.652 845.877 150.566 846.338 150.566C847.068 150.566 847.641 150.749 848.055 151.116C848.469 151.48 848.684 151.982 848.699 152.622V155.54C848.699 156.122 848.773 156.585 848.922 156.929V157.023H847.785ZM845.986 156.196C846.326 156.196 846.648 156.109 846.953 155.933C847.258 155.757 847.479 155.529 847.615 155.247V153.946H846.766C845.438 153.946 844.773 154.335 844.773 155.112C844.773 155.452 844.887 155.718 845.113 155.909C845.34 156.101 845.631 156.196 845.986 156.196ZM855.766 153.923C855.766 154.892 855.543 155.671 855.098 156.261C854.652 156.847 854.055 157.14 853.305 157.14C852.504 157.14 851.885 156.857 851.447 156.29L851.395 157.023H850.398V148.023H851.482V151.38C851.92 150.837 852.523 150.566 853.293 150.566C854.062 150.566 854.666 150.857 855.104 151.439C855.545 152.021 855.766 152.818 855.766 153.829V153.923ZM854.682 153.8C854.682 153.062 854.539 152.491 854.254 152.089C853.969 151.687 853.559 151.486 853.023 151.486C852.309 151.486 851.795 151.818 851.482 152.482V155.224C851.814 155.888 852.332 156.22 853.035 156.22C853.555 156.22 853.959 156.019 854.248 155.616C854.537 155.214 854.682 154.609 854.682 153.8ZM859.68 156.255C860.066 156.255 860.404 156.138 860.693 155.904C860.982 155.669 861.143 155.376 861.174 155.025H862.199C862.18 155.388 862.055 155.734 861.824 156.062C861.594 156.39 861.285 156.652 860.898 156.847C860.516 157.042 860.109 157.14 859.68 157.14C858.816 157.14 858.129 156.853 857.617 156.279C857.109 155.7 856.855 154.911 856.855 153.911V153.73C856.855 153.112 856.969 152.564 857.195 152.083C857.422 151.603 857.746 151.23 858.168 150.964C858.594 150.698 859.096 150.566 859.674 150.566C860.385 150.566 860.975 150.779 861.443 151.204C861.916 151.63 862.168 152.183 862.199 152.862H861.174C861.143 152.452 860.986 152.116 860.705 151.855C860.428 151.589 860.084 151.456 859.674 151.456C859.123 151.456 858.695 151.655 858.391 152.054C858.09 152.448 857.939 153.021 857.939 153.771V153.976C857.939 154.706 858.09 155.269 858.391 155.663C858.691 156.058 859.121 156.255 859.68 156.255Z" fill="white"/>
<path d="M422.141 271.264C420.128 255.829 413.377 235.529 423.182 221.218C430.133 211.075 439.733 203.522 449.166 195.915C453.426 192.479 457.823 189.083 462.498 186.226C466.147 183.996 470.547 181.365 473.228 177.938C475.327 175.257 477.004 171.876 478.353 168.77C478.868 167.585 481.401 162.279 479.074 164.606C477.277 166.402 473.877 167.597 471.587 168.53C470.569 168.944 467.303 171.451 468.264 169.29C469.327 166.899 474.236 163.438 476.351 164.926C478.986 166.781 488.442 171.92 488.442 175.416" stroke="black" stroke-width="3" stroke-linecap="round"/>
<path d="M196.292 255.829C212.563 256.208 228.729 257.515 245.082 257.515C249.296 257.515 261.231 259.759 257.724 257.421C254.469 255.251 251.219 253.568 247.704 251.615C244.196 249.666 255.202 256.142 256.601 257.89C259.212 261.154 249.22 270.328 246.861 272.686" stroke="black" stroke-width="3" stroke-linecap="round"/>
<path d="M552.678 254.144C570.659 254.144 588.639 254.144 606.619 254.144C624.123 254.144 603.014 251.709 602.311 246.09C602.027 243.816 606.279 248.389 608.305 249.461C609.077 249.87 616.12 251.909 614.673 253.769C611.214 258.216 603.982 259.418 601.562 264.258" stroke="black" stroke-width="3" stroke-linecap="round"/>
<path d="M445.364 142.796C445.364 148.285 445.364 153.774 445.364 159.263C445.364 160.064 445.453 160.731 445.604 161.522C445.923 163.2 445.945 163.042 447.726 162.892C453.825 162.378 460.121 162.823 466.247 162.823C471.71 162.823 477.533 162.221 482.937 161.437C487.447 160.782 491.956 160.975 496.511 160.975C501.361 160.975 506.211 160.975 511.061 160.975C511.802 160.975 512.533 161.242 512.533 160.324C512.533 157.711 512.457 155.125 512.841 152.536C513.3 149.44 513.765 146.403 513.765 143.258C513.765 141.438 506.54 141.255 505.138 141.255C500.642 141.255 496.146 141.255 491.65 141.255C481.882 141.255 471.708 140.443 462.019 141.717C456.72 142.415 451.029 141.871 445.672 141.871" stroke="#131212" stroke-width="3" stroke-linecap="round"/>
<path d="M353.484 137C351.11 145.309 346.726 152.698 345.229 161.305C343.977 168.504 342.753 175.73 342.753 183.042C342.753 191.896 342.507 200.789 342.753 209.64C343.107 222.408 354.71 239.356 368.158 239.356C385.014 239.356 400.008 228.886 409.615 215.235C415.959 206.219 423.003 197.376 427.408 187.307C433.038 174.438 435.204 160.537 435.204 146.493C435.204 143.399 435.797 139.837 434.378 137C433.74 135.723 432.934 131.694 431.443 131.268C426.51 129.858 422.994 124.996 417.823 123.38C403.208 118.813 388.675 120.142 374.074 123.793C363.901 126.336 355.142 133.275 349.356 141.953" stroke="#131212" stroke-width="3" stroke-linecap="round"/>
<path d="M384 67C375.965 72.0221 380.339 71.5541 383.222 77C385.099 80.5444 381.141 82 378 82" stroke="#131212" stroke-width="3" stroke-linecap="round"/>
<path d="M387.978 74.5367C389.051 74.0464 389.692 73.5843 390.456 72.6892C390.927 72.1365 392.272 70.2436 391.951 69.4297C391.574 68.4702 389.963 69.3649 389.544 69.7332C388.597 70.5654 388.251 71.6623 387.663 72.7684C387.062 73.8992 386.605 77.2613 387.511 78.2845C388.39 79.2775 389.916 80 391.133 80" stroke="#131212" stroke-width="3" stroke-linecap="round"/>
<path d="M396 69V79" stroke="#131212" stroke-width="3" stroke-linecap="round"/>
<path d="M400 70.0681C399.096 70.0681 397.861 69.9066 396.963 70.081C396.486 70.1737 396.383 70.8325 396 71" stroke="#131212" stroke-width="3" stroke-linecap="round"/>
<path d="M403 71.0131C403.454 72.5405 403.778 74.2083 404.364 75.6684C404.558 76.1519 404.763 77.3283 404.831 76.9127C405.068 75.467 406.343 73.6102 406.914 72.2713C407.285 71.4033 408 69.9575 408 69" stroke="#131212" stroke-width="3" stroke-linecap="round"/>
<path d="M412.518 72.6275C415.065 72.6275 414.663 70.7699 414.663 68.484C414.663 67.7807 414.744 67.3027 413.922 67.208C412.383 67.0308 411.985 66.5334 411.671 68.2096C410.973 71.9308 410.377 76.1231 412.28 79.5288C413.647 81.9761 415.359 83 418 83" stroke="#131212" stroke-width="3" stroke-linecap="round"/>
<path d="M420 78C420 75.1545 420 72.3089 420 69.4634C420 67.9691 420 68.2253 420 69.5718C420 70.1861 420 70.8004 420 71.4146C420 72.0547 420.36 71.2727 420.682 70.9268C421.049 70.5325 421.496 70.0172 421.818 69.5854C422.659 68.4577 423.795 68.431 425 68" stroke="#131212" stroke-width="3" stroke-linecap="round"/>
<path d="M397.423 118.004C397.423 107.615 397.008 86.5 397.008 86.8388C397.008 88.161 395.082 89.4681 394.284 90.3939C393.002 91.8812 392.061 93.5126 391.098 95.1495C390.602 95.9919 389.683 96.4821 389.505 97.458C389.309 98.5389 388.333 100.02 389.113 98.266C389.895 96.5058 391.425 94.7474 392.645 93.2565C393.153 92.6347 396.592 87.8408 396.592 88.7087C396.592 91.0841 399.926 92.6653 401.371 94.1106C402.612 95.3516 405.474 97.1231 406.15 98.4737" stroke="#131212" stroke-width="3" stroke-linecap="round"/>
<rect width="38" height="24" transform="translate(58 141)" fill="#0500FF"/>
<path d="M69.6206 157.464V152.841C69.6206 152.487 69.5487 152.18 69.4048 151.919C69.2664 151.654 69.0562 151.449 68.7739 151.305C68.4917 151.161 68.1431 151.089 67.728 151.089C67.3407 151.089 67.0003 151.156 66.707 151.289C66.4193 151.421 66.1924 151.596 66.0264 151.812C65.8659 152.027 65.7856 152.26 65.7856 152.509H64.25C64.25 152.188 64.333 151.87 64.499 151.554C64.665 151.239 64.903 150.954 65.2129 150.699C65.5283 150.439 65.9046 150.234 66.3418 150.085C66.7845 149.93 67.277 149.853 67.8193 149.853C68.4723 149.853 69.0479 149.963 69.5459 150.185C70.0495 150.406 70.4424 150.741 70.7246 151.189C71.0124 151.632 71.1562 152.188 71.1562 152.857V157.041C71.1562 157.34 71.1812 157.658 71.231 157.996C71.2863 158.333 71.3665 158.624 71.4717 158.867V159H69.8696C69.7922 158.823 69.7313 158.588 69.687 158.294C69.6427 157.996 69.6206 157.719 69.6206 157.464ZM69.8862 153.555L69.9028 154.634H68.3506C67.9134 154.634 67.5233 154.67 67.1802 154.742C66.8371 154.808 66.5493 154.91 66.3169 155.049C66.0845 155.187 65.9074 155.361 65.7856 155.572C65.6639 155.777 65.603 156.017 65.603 156.294C65.603 156.576 65.6667 156.833 65.7939 157.066C65.9212 157.298 66.1121 157.484 66.3667 157.622C66.6268 157.755 66.945 157.821 67.3213 157.821C67.7917 157.821 68.2067 157.722 68.5664 157.522C68.9261 157.323 69.2111 157.08 69.4214 156.792C69.6372 156.504 69.7534 156.225 69.77 155.954L70.4258 156.692C70.387 156.925 70.2819 157.182 70.1104 157.464C69.9388 157.747 69.7091 158.018 69.4214 158.278C69.1392 158.532 68.8016 158.745 68.4087 158.917C68.0213 159.083 67.5841 159.166 67.0972 159.166C66.4884 159.166 65.9544 159.047 65.4951 158.809C65.0413 158.571 64.6872 158.253 64.4326 157.854C64.1836 157.451 64.0591 157 64.0591 156.501C64.0591 156.02 64.1532 155.597 64.3413 155.231C64.5295 154.861 64.8006 154.554 65.1548 154.31C65.509 154.061 65.9351 153.873 66.4331 153.746C66.9312 153.618 67.4873 153.555 68.1016 153.555H69.8862ZM73.5635 146.25H75.1074V157.257L74.9746 159H73.5635V146.25ZM81.1753 154.435V154.609C81.1753 155.262 81.0978 155.868 80.9429 156.427C80.7879 156.98 80.561 157.462 80.2622 157.871C79.9634 158.281 79.5981 158.599 79.1665 158.826C78.7349 159.053 78.2396 159.166 77.6807 159.166C77.1107 159.166 76.6099 159.069 76.1782 158.875C75.7521 158.676 75.3924 158.391 75.0991 158.021C74.8058 157.65 74.5706 157.201 74.3936 156.676C74.222 156.15 74.103 155.558 74.0366 154.899V154.136C74.103 153.472 74.222 152.877 74.3936 152.351C74.5706 151.825 74.8058 151.377 75.0991 151.006C75.3924 150.63 75.7521 150.345 76.1782 150.151C76.6043 149.952 77.0996 149.853 77.6641 149.853C78.2285 149.853 78.7293 149.963 79.1665 150.185C79.6037 150.4 79.9689 150.71 80.2622 151.114C80.561 151.518 80.7879 152.002 80.9429 152.567C81.0978 153.126 81.1753 153.748 81.1753 154.435ZM79.6313 154.609V154.435C79.6313 153.986 79.5898 153.566 79.5068 153.173C79.4238 152.774 79.291 152.426 79.1084 152.127C78.9258 151.823 78.6851 151.585 78.3862 151.413C78.0874 151.236 77.7194 151.147 77.2822 151.147C76.8949 151.147 76.5573 151.214 76.2695 151.347C75.9873 151.479 75.7466 151.659 75.5474 151.886C75.3481 152.108 75.1849 152.362 75.0576 152.65C74.9359 152.932 74.8446 153.225 74.7837 153.53V155.53C74.8722 155.918 75.0161 156.291 75.2153 156.651C75.4201 157.005 75.6912 157.296 76.0288 157.522C76.3719 157.749 76.7952 157.863 77.2988 157.863C77.7139 157.863 78.068 157.78 78.3613 157.614C78.6602 157.442 78.9009 157.207 79.0835 156.908C79.2716 156.609 79.41 156.264 79.4985 155.871C79.5871 155.478 79.6313 155.057 79.6313 154.609ZM86.7119 157.904C87.0771 157.904 87.4147 157.83 87.7246 157.68C88.0345 157.531 88.2891 157.326 88.4883 157.066C88.6875 156.8 88.8009 156.499 88.8286 156.161H90.2896C90.2619 156.692 90.082 157.188 89.75 157.647C89.4235 158.101 88.9946 158.469 88.4634 158.751C87.9321 159.028 87.3483 159.166 86.7119 159.166C86.0368 159.166 85.4474 159.047 84.9438 158.809C84.4458 158.571 84.0308 158.245 83.6987 157.83C83.3722 157.415 83.126 156.939 82.96 156.402C82.7995 155.86 82.7192 155.287 82.7192 154.684V154.335C82.7192 153.732 82.7995 153.162 82.96 152.625C83.126 152.083 83.3722 151.604 83.6987 151.189C84.0308 150.774 84.4458 150.447 84.9438 150.209C85.4474 149.972 86.0368 149.853 86.7119 149.853C87.4147 149.853 88.029 149.996 88.5547 150.284C89.0804 150.566 89.4927 150.954 89.7915 151.446C90.0959 151.933 90.2619 152.487 90.2896 153.106H88.8286C88.8009 152.736 88.6958 152.401 88.5132 152.102C88.3361 151.803 88.0926 151.565 87.7827 151.388C87.4784 151.206 87.1214 151.114 86.7119 151.114C86.2415 151.114 85.8459 151.208 85.5249 151.396C85.2095 151.579 84.9577 151.828 84.7695 152.144C84.5869 152.453 84.4541 152.799 84.3711 153.181C84.2936 153.557 84.2549 153.942 84.2549 154.335V154.684C84.2549 155.076 84.2936 155.464 84.3711 155.846C84.4486 156.228 84.5786 156.573 84.7612 156.883C84.9494 157.193 85.2012 157.442 85.5166 157.63C85.8376 157.813 86.236 157.904 86.7119 157.904Z" fill="white"/>
<rect width="38" height="24" transform="translate(381 140)" fill="#0500FF"/>
<path d="M392.621 156.464V151.841C392.621 151.487 392.549 151.18 392.405 150.919C392.266 150.654 392.056 150.449 391.774 150.305C391.492 150.161 391.143 150.089 390.728 150.089C390.341 150.089 390 150.156 389.707 150.289C389.419 150.421 389.192 150.596 389.026 150.812C388.866 151.027 388.786 151.26 388.786 151.509H387.25C387.25 151.188 387.333 150.87 387.499 150.554C387.665 150.239 387.903 149.954 388.213 149.699C388.528 149.439 388.905 149.234 389.342 149.085C389.785 148.93 390.277 148.853 390.819 148.853C391.472 148.853 392.048 148.963 392.546 149.185C393.049 149.406 393.442 149.741 393.725 150.189C394.012 150.632 394.156 151.188 394.156 151.857V156.041C394.156 156.34 394.181 156.658 394.231 156.996C394.286 157.333 394.367 157.624 394.472 157.867V158H392.87C392.792 157.823 392.731 157.588 392.687 157.294C392.643 156.996 392.621 156.719 392.621 156.464ZM392.886 152.555L392.903 153.634H391.351C390.913 153.634 390.523 153.67 390.18 153.742C389.837 153.808 389.549 153.91 389.317 154.049C389.084 154.187 388.907 154.361 388.786 154.572C388.664 154.777 388.603 155.017 388.603 155.294C388.603 155.576 388.667 155.833 388.794 156.066C388.921 156.298 389.112 156.484 389.367 156.622C389.627 156.755 389.945 156.821 390.321 156.821C390.792 156.821 391.207 156.722 391.566 156.522C391.926 156.323 392.211 156.08 392.421 155.792C392.637 155.504 392.753 155.225 392.77 154.954L393.426 155.692C393.387 155.925 393.282 156.182 393.11 156.464C392.939 156.747 392.709 157.018 392.421 157.278C392.139 157.532 391.802 157.745 391.409 157.917C391.021 158.083 390.584 158.166 390.097 158.166C389.488 158.166 388.954 158.047 388.495 157.809C388.041 157.571 387.687 157.253 387.433 156.854C387.184 156.451 387.059 156 387.059 155.501C387.059 155.02 387.153 154.597 387.341 154.231C387.529 153.861 387.801 153.554 388.155 153.31C388.509 153.061 388.935 152.873 389.433 152.746C389.931 152.618 390.487 152.555 391.102 152.555H392.886ZM396.563 145.25H398.107V156.257L397.975 158H396.563V145.25ZM404.175 153.435V153.609C404.175 154.262 404.098 154.868 403.943 155.427C403.788 155.98 403.561 156.462 403.262 156.871C402.963 157.281 402.598 157.599 402.167 157.826C401.735 158.053 401.24 158.166 400.681 158.166C400.111 158.166 399.61 158.069 399.178 157.875C398.752 157.676 398.392 157.391 398.099 157.021C397.806 156.65 397.571 156.201 397.394 155.676C397.222 155.15 397.103 154.558 397.037 153.899V153.136C397.103 152.472 397.222 151.877 397.394 151.351C397.571 150.825 397.806 150.377 398.099 150.006C398.392 149.63 398.752 149.345 399.178 149.151C399.604 148.952 400.1 148.853 400.664 148.853C401.229 148.853 401.729 148.963 402.167 149.185C402.604 149.4 402.969 149.71 403.262 150.114C403.561 150.518 403.788 151.002 403.943 151.567C404.098 152.126 404.175 152.748 404.175 153.435ZM402.631 153.609V153.435C402.631 152.986 402.59 152.566 402.507 152.173C402.424 151.774 402.291 151.426 402.108 151.127C401.926 150.823 401.685 150.585 401.386 150.413C401.087 150.236 400.719 150.147 400.282 150.147C399.895 150.147 399.557 150.214 399.27 150.347C398.987 150.479 398.747 150.659 398.547 150.886C398.348 151.108 398.185 151.362 398.058 151.65C397.936 151.932 397.845 152.225 397.784 152.53V154.53C397.872 154.918 398.016 155.291 398.215 155.651C398.42 156.005 398.691 156.296 399.029 156.522C399.372 156.749 399.795 156.863 400.299 156.863C400.714 156.863 401.068 156.78 401.361 156.614C401.66 156.442 401.901 156.207 402.083 155.908C402.272 155.609 402.41 155.264 402.499 154.871C402.587 154.478 402.631 154.057 402.631 153.609ZM409.712 156.904C410.077 156.904 410.415 156.83 410.725 156.68C411.035 156.531 411.289 156.326 411.488 156.066C411.688 155.8 411.801 155.499 411.829 155.161H413.29C413.262 155.692 413.082 156.188 412.75 156.647C412.424 157.101 411.995 157.469 411.463 157.751C410.932 158.028 410.348 158.166 409.712 158.166C409.037 158.166 408.447 158.047 407.944 157.809C407.446 157.571 407.031 157.245 406.699 156.83C406.372 156.415 406.126 155.939 405.96 155.402C405.799 154.86 405.719 154.287 405.719 153.684V153.335C405.719 152.732 405.799 152.162 405.96 151.625C406.126 151.083 406.372 150.604 406.699 150.189C407.031 149.774 407.446 149.447 407.944 149.209C408.447 148.972 409.037 148.853 409.712 148.853C410.415 148.853 411.029 148.996 411.555 149.284C412.08 149.566 412.493 149.954 412.792 150.446C413.096 150.933 413.262 151.487 413.29 152.106H411.829C411.801 151.736 411.696 151.401 411.513 151.102C411.336 150.803 411.093 150.565 410.783 150.388C410.478 150.206 410.121 150.114 409.712 150.114C409.242 150.114 408.846 150.208 408.525 150.396C408.209 150.579 407.958 150.828 407.77 151.144C407.587 151.453 407.454 151.799 407.371 152.181C407.294 152.557 407.255 152.942 407.255 153.335V153.684C407.255 154.076 407.294 154.464 407.371 154.846C407.449 155.228 407.579 155.573 407.761 155.883C407.949 156.193 408.201 156.442 408.517 156.63C408.838 156.813 409.236 156.904 409.712 156.904Z" fill="white"/>
<rect width="38" height="24" transform="translate(747 141)" fill="#0500FF"/>
<path d="M758.621 157.464V152.841C758.621 152.487 758.549 152.18 758.405 151.919C758.266 151.654 758.056 151.449 757.774 151.305C757.492 151.161 757.143 151.089 756.728 151.089C756.341 151.089 756 151.156 755.707 151.289C755.419 151.421 755.192 151.596 755.026 151.812C754.866 152.027 754.786 152.26 754.786 152.509H753.25C753.25 152.188 753.333 151.87 753.499 151.554C753.665 151.239 753.903 150.954 754.213 150.699C754.528 150.439 754.905 150.234 755.342 150.085C755.785 149.93 756.277 149.853 756.819 149.853C757.472 149.853 758.048 149.963 758.546 150.185C759.049 150.406 759.442 150.741 759.725 151.189C760.012 151.632 760.156 152.188 760.156 152.857V157.041C760.156 157.34 760.181 157.658 760.231 157.996C760.286 158.333 760.367 158.624 760.472 158.867V159H758.87C758.792 158.823 758.731 158.588 758.687 158.294C758.643 157.996 758.621 157.719 758.621 157.464ZM758.886 153.555L758.903 154.634H757.351C756.913 154.634 756.523 154.67 756.18 154.742C755.837 154.808 755.549 154.91 755.317 155.049C755.084 155.187 754.907 155.361 754.786 155.572C754.664 155.777 754.603 156.017 754.603 156.294C754.603 156.576 754.667 156.833 754.794 157.066C754.921 157.298 755.112 157.484 755.367 157.622C755.627 157.755 755.945 157.821 756.321 157.821C756.792 157.821 757.207 157.722 757.566 157.522C757.926 157.323 758.211 157.08 758.421 156.792C758.637 156.504 758.753 156.225 758.77 155.954L759.426 156.692C759.387 156.925 759.282 157.182 759.11 157.464C758.939 157.747 758.709 158.018 758.421 158.278C758.139 158.532 757.802 158.745 757.409 158.917C757.021 159.083 756.584 159.166 756.097 159.166C755.488 159.166 754.954 159.047 754.495 158.809C754.041 158.571 753.687 158.253 753.433 157.854C753.184 157.451 753.059 157 753.059 156.501C753.059 156.02 753.153 155.597 753.341 155.231C753.529 154.861 753.801 154.554 754.155 154.31C754.509 154.061 754.935 153.873 755.433 153.746C755.931 153.618 756.487 153.555 757.102 153.555H758.886ZM762.563 146.25H764.107V157.257L763.975 159H762.563V146.25ZM770.175 154.435V154.609C770.175 155.262 770.098 155.868 769.943 156.427C769.788 156.98 769.561 157.462 769.262 157.871C768.963 158.281 768.598 158.599 768.167 158.826C767.735 159.053 767.24 159.166 766.681 159.166C766.111 159.166 765.61 159.069 765.178 158.875C764.752 158.676 764.392 158.391 764.099 158.021C763.806 157.65 763.571 157.201 763.394 156.676C763.222 156.15 763.103 155.558 763.037 154.899V154.136C763.103 153.472 763.222 152.877 763.394 152.351C763.571 151.825 763.806 151.377 764.099 151.006C764.392 150.63 764.752 150.345 765.178 150.151C765.604 149.952 766.1 149.853 766.664 149.853C767.229 149.853 767.729 149.963 768.167 150.185C768.604 150.4 768.969 150.71 769.262 151.114C769.561 151.518 769.788 152.002 769.943 152.567C770.098 153.126 770.175 153.748 770.175 154.435ZM768.631 154.609V154.435C768.631 153.986 768.59 153.566 768.507 153.173C768.424 152.774 768.291 152.426 768.108 152.127C767.926 151.823 767.685 151.585 767.386 151.413C767.087 151.236 766.719 151.147 766.282 151.147C765.895 151.147 765.557 151.214 765.27 151.347C764.987 151.479 764.747 151.659 764.547 151.886C764.348 152.108 764.185 152.362 764.058 152.65C763.936 152.932 763.845 153.225 763.784 153.53V155.53C763.872 155.918 764.016 156.291 764.215 156.651C764.42 157.005 764.691 157.296 765.029 157.522C765.372 157.749 765.795 157.863 766.299 157.863C766.714 157.863 767.068 157.78 767.361 157.614C767.66 157.442 767.901 157.207 768.083 156.908C768.272 156.609 768.41 156.264 768.499 155.871C768.587 155.478 768.631 155.057 768.631 154.609ZM775.712 157.904C776.077 157.904 776.415 157.83 776.725 157.68C777.035 157.531 777.289 157.326 777.488 157.066C777.688 156.8 777.801 156.499 777.829 156.161H779.29C779.262 156.692 779.082 157.188 778.75 157.647C778.424 158.101 777.995 158.469 777.463 158.751C776.932 159.028 776.348 159.166 775.712 159.166C775.037 159.166 774.447 159.047 773.944 158.809C773.446 158.571 773.031 158.245 772.699 157.83C772.372 157.415 772.126 156.939 771.96 156.402C771.799 155.86 771.719 155.287 771.719 154.684V154.335C771.719 153.732 771.799 153.162 771.96 152.625C772.126 152.083 772.372 151.604 772.699 151.189C773.031 150.774 773.446 150.447 773.944 150.209C774.447 149.972 775.037 149.853 775.712 149.853C776.415 149.853 777.029 149.996 777.555 150.284C778.08 150.566 778.493 150.954 778.792 151.446C779.096 151.933 779.262 152.487 779.29 153.106H777.829C777.801 152.736 777.696 152.401 777.513 152.102C777.336 151.803 777.093 151.565 776.783 151.388C776.478 151.206 776.121 151.114 775.712 151.114C775.242 151.114 774.846 151.208 774.525 151.396C774.209 151.579 773.958 151.828 773.77 152.144C773.587 152.453 773.454 152.799 773.371 153.181C773.294 153.557 773.255 153.942 773.255 154.335V154.684C773.255 155.076 773.294 155.464 773.371 155.846C773.449 156.228 773.579 156.573 773.761 156.883C773.949 157.193 774.201 157.442 774.517 157.63C774.838 157.813 775.236 157.904 775.712 157.904Z" fill="white"/>
<rect width="88" height="24" transform="translate(62 274)" fill="#FF0000"/>
<path d="M67.7637 287.609V287.418C67.7637 286.771 67.8577 286.17 68.0459 285.617C68.234 285.058 68.5052 284.574 68.8594 284.164C69.2135 283.749 69.6424 283.428 70.146 283.201C70.6496 282.969 71.214 282.853 71.8394 282.853C72.4702 282.853 73.0374 282.969 73.541 283.201C74.0501 283.428 74.4818 283.749 74.8359 284.164C75.1956 284.574 75.4696 285.058 75.6577 285.617C75.8459 286.17 75.9399 286.771 75.9399 287.418V287.609C75.9399 288.256 75.8459 288.857 75.6577 289.41C75.4696 289.964 75.1956 290.448 74.8359 290.863C74.4818 291.272 74.0529 291.593 73.5493 291.826C73.0513 292.053 72.4868 292.166 71.856 292.166C71.2251 292.166 70.6579 292.053 70.1543 291.826C69.6507 291.593 69.2191 291.272 68.8594 290.863C68.5052 290.448 68.234 289.964 68.0459 289.41C67.8577 288.857 67.7637 288.256 67.7637 287.609ZM69.2993 287.418V287.609C69.2993 288.057 69.3519 288.48 69.457 288.879C69.5622 289.272 69.7199 289.62 69.9302 289.925C70.146 290.229 70.4144 290.47 70.7354 290.647C71.0563 290.819 71.4299 290.904 71.856 290.904C72.2765 290.904 72.6445 290.819 72.96 290.647C73.2809 290.47 73.5465 290.229 73.7568 289.925C73.9671 289.62 74.1248 289.272 74.23 288.879C74.3407 288.48 74.396 288.057 74.396 287.609V287.418C74.396 286.975 74.3407 286.557 74.23 286.165C74.1248 285.766 73.9644 285.415 73.7485 285.11C73.5382 284.8 73.2726 284.557 72.9517 284.38C72.6362 284.203 72.2655 284.114 71.8394 284.114C71.4188 284.114 71.048 284.203 70.7271 284.38C70.4116 284.557 70.146 284.8 69.9302 285.11C69.7199 285.415 69.5622 285.766 69.457 286.165C69.3519 286.557 69.2993 286.975 69.2993 287.418ZM79.4014 284.43V292H77.8657V283.019H79.3599L79.4014 284.43ZM82.207 282.969L82.1987 284.396C82.0715 284.369 81.9497 284.352 81.8335 284.347C81.7228 284.336 81.5955 284.33 81.4517 284.33C81.0975 284.33 80.7848 284.385 80.5137 284.496C80.2425 284.607 80.0129 284.762 79.8247 284.961C79.6366 285.16 79.4871 285.398 79.3765 285.675C79.2713 285.946 79.2021 286.245 79.1689 286.571L78.7373 286.82C78.7373 286.278 78.7899 285.769 78.895 285.293C79.0057 284.817 79.1745 284.396 79.4014 284.031C79.6283 283.66 79.916 283.373 80.2646 283.168C80.6188 282.958 81.0394 282.853 81.5264 282.853C81.637 282.853 81.7643 282.866 81.9082 282.894C82.0521 282.916 82.1517 282.941 82.207 282.969ZM85.2949 283.019V292H83.751V283.019H85.2949ZM83.6348 280.636C83.6348 280.387 83.7095 280.177 83.8589 280.005C84.0138 279.834 84.2407 279.748 84.5396 279.748C84.8328 279.748 85.057 279.834 85.2119 280.005C85.3724 280.177 85.4526 280.387 85.4526 280.636C85.4526 280.874 85.3724 281.079 85.2119 281.25C85.057 281.417 84.8328 281.5 84.5396 281.5C84.2407 281.5 84.0138 281.417 83.8589 281.25C83.7095 281.079 83.6348 280.874 83.6348 280.636ZM93.5791 283.019H94.9736V291.809C94.9736 292.6 94.8132 293.276 94.4922 293.834C94.1712 294.393 93.723 294.817 93.1475 295.104C92.5775 295.398 91.9189 295.544 91.1719 295.544C90.862 295.544 90.4967 295.495 90.0762 295.395C89.6611 295.301 89.2516 295.138 88.8477 294.905C88.4492 294.678 88.1144 294.371 87.8433 293.984L88.6484 293.071C89.0247 293.525 89.4176 293.84 89.8271 294.017C90.2422 294.194 90.6517 294.283 91.0557 294.283C91.5426 294.283 91.9632 294.191 92.3174 294.009C92.6715 293.826 92.9455 293.555 93.1392 293.195C93.3384 292.841 93.438 292.404 93.438 291.884V284.994L93.5791 283.019ZM87.395 287.609V287.435C87.395 286.748 87.4753 286.126 87.6357 285.567C87.8018 285.002 88.0369 284.518 88.3413 284.114C88.6512 283.71 89.0247 283.4 89.4619 283.185C89.8991 282.963 90.3916 282.853 90.9395 282.853C91.5039 282.853 91.9964 282.952 92.417 283.151C92.8431 283.345 93.2028 283.63 93.4961 284.006C93.7949 284.377 94.0301 284.825 94.2017 285.351C94.3732 285.877 94.4922 286.472 94.5586 287.136V287.899C94.4977 288.558 94.3787 289.15 94.2017 289.676C94.0301 290.201 93.7949 290.65 93.4961 291.021C93.2028 291.391 92.8431 291.676 92.417 291.875C91.9909 292.069 91.4928 292.166 90.9229 292.166C90.3861 292.166 89.8991 292.053 89.4619 291.826C89.0303 291.599 88.6595 291.281 88.3496 290.871C88.0397 290.462 87.8018 289.98 87.6357 289.427C87.4753 288.868 87.395 288.262 87.395 287.609ZM88.9307 287.435V287.609C88.9307 288.057 88.9749 288.478 89.0635 288.871C89.1576 289.264 89.2987 289.609 89.4868 289.908C89.6805 290.207 89.9268 290.442 90.2256 290.614C90.5244 290.78 90.8813 290.863 91.2964 290.863C91.8055 290.863 92.2261 290.755 92.5581 290.539C92.8901 290.323 93.153 290.038 93.3467 289.684C93.5459 289.33 93.7008 288.945 93.8115 288.53V286.53C93.7507 286.225 93.6566 285.932 93.5293 285.65C93.4076 285.362 93.2471 285.108 93.0479 284.886C92.8542 284.659 92.6134 284.479 92.3257 284.347C92.0379 284.214 91.7004 284.147 91.313 284.147C90.8924 284.147 90.5299 284.236 90.2256 284.413C89.9268 284.585 89.6805 284.823 89.4868 285.127C89.2987 285.426 89.1576 285.774 89.0635 286.173C88.9749 286.566 88.9307 286.986 88.9307 287.435ZM98.9746 283.019V292H97.4307V283.019H98.9746ZM97.3145 280.636C97.3145 280.387 97.3892 280.177 97.5386 280.005C97.6935 279.834 97.9204 279.748 98.2192 279.748C98.5125 279.748 98.7367 279.834 98.8916 280.005C99.0521 280.177 99.1323 280.387 99.1323 280.636C99.1323 280.874 99.0521 281.079 98.8916 281.25C98.7367 281.417 98.5125 281.5 98.2192 281.5C97.9204 281.5 97.6935 281.417 97.5386 281.25C97.3892 281.079 97.3145 280.874 97.3145 280.636ZM102.976 284.936V292H101.44V283.019H102.893L102.976 284.936ZM102.61 287.169L101.971 287.144C101.977 286.53 102.068 285.963 102.245 285.442C102.422 284.917 102.671 284.46 102.992 284.073C103.313 283.685 103.695 283.387 104.138 283.176C104.586 282.96 105.081 282.853 105.624 282.853C106.066 282.853 106.465 282.913 106.819 283.035C107.173 283.151 107.475 283.34 107.724 283.6C107.978 283.86 108.172 284.197 108.305 284.612C108.438 285.022 108.504 285.523 108.504 286.115V292H106.96V286.098C106.96 285.628 106.891 285.251 106.752 284.969C106.614 284.681 106.412 284.474 106.146 284.347C105.881 284.214 105.554 284.147 105.167 284.147C104.785 284.147 104.437 284.228 104.121 284.388C103.811 284.549 103.543 284.77 103.316 285.052C103.095 285.334 102.92 285.658 102.793 286.023C102.671 286.383 102.61 286.765 102.61 287.169ZM116.182 279.914L111.144 293.038H109.824L114.871 279.914H116.182ZM123.155 290.464V285.841C123.155 285.487 123.083 285.18 122.939 284.919C122.801 284.654 122.59 284.449 122.308 284.305C122.026 284.161 121.677 284.089 121.262 284.089C120.875 284.089 120.535 284.156 120.241 284.289C119.953 284.421 119.727 284.596 119.561 284.812C119.4 285.027 119.32 285.26 119.32 285.509H117.784C117.784 285.188 117.867 284.87 118.033 284.554C118.199 284.239 118.437 283.954 118.747 283.699C119.062 283.439 119.439 283.234 119.876 283.085C120.319 282.93 120.811 282.853 121.354 282.853C122.007 282.853 122.582 282.963 123.08 283.185C123.584 283.406 123.977 283.741 124.259 284.189C124.547 284.632 124.69 285.188 124.69 285.857V290.041C124.69 290.34 124.715 290.658 124.765 290.996C124.82 291.333 124.901 291.624 125.006 291.867V292H123.404C123.326 291.823 123.265 291.588 123.221 291.294C123.177 290.996 123.155 290.719 123.155 290.464ZM123.42 286.555L123.437 287.634H121.885C121.448 287.634 121.057 287.67 120.714 287.742C120.371 287.808 120.083 287.91 119.851 288.049C119.619 288.187 119.442 288.361 119.32 288.572C119.198 288.777 119.137 289.017 119.137 289.294C119.137 289.576 119.201 289.833 119.328 290.066C119.455 290.298 119.646 290.484 119.901 290.622C120.161 290.755 120.479 290.821 120.855 290.821C121.326 290.821 121.741 290.722 122.101 290.522C122.46 290.323 122.745 290.08 122.956 289.792C123.171 289.504 123.288 289.225 123.304 288.954L123.96 289.692C123.921 289.925 123.816 290.182 123.645 290.464C123.473 290.747 123.243 291.018 122.956 291.278C122.673 291.532 122.336 291.745 121.943 291.917C121.556 292.083 121.118 292.166 120.631 292.166C120.023 292.166 119.489 292.047 119.029 291.809C118.576 291.571 118.221 291.253 117.967 290.854C117.718 290.451 117.593 290 117.593 289.501C117.593 289.02 117.687 288.597 117.875 288.231C118.064 287.861 118.335 287.554 118.689 287.31C119.043 287.061 119.469 286.873 119.967 286.746C120.465 286.618 121.021 286.555 121.636 286.555H123.42ZM127.098 279.25H128.642V290.257L128.509 292H127.098V279.25ZM134.709 287.435V287.609C134.709 288.262 134.632 288.868 134.477 289.427C134.322 289.98 134.095 290.462 133.796 290.871C133.498 291.281 133.132 291.599 132.701 291.826C132.269 292.053 131.774 292.166 131.215 292.166C130.645 292.166 130.144 292.069 129.712 291.875C129.286 291.676 128.927 291.391 128.633 291.021C128.34 290.65 128.105 290.201 127.928 289.676C127.756 289.15 127.637 288.558 127.571 287.899V287.136C127.637 286.472 127.756 285.877 127.928 285.351C128.105 284.825 128.34 284.377 128.633 284.006C128.927 283.63 129.286 283.345 129.712 283.151C130.139 282.952 130.634 282.853 131.198 282.853C131.763 282.853 132.264 282.963 132.701 283.185C133.138 283.4 133.503 283.71 133.796 284.114C134.095 284.518 134.322 285.002 134.477 285.567C134.632 286.126 134.709 286.748 134.709 287.435ZM133.166 287.609V287.435C133.166 286.986 133.124 286.566 133.041 286.173C132.958 285.774 132.825 285.426 132.643 285.127C132.46 284.823 132.219 284.585 131.92 284.413C131.622 284.236 131.254 284.147 130.816 284.147C130.429 284.147 130.091 284.214 129.804 284.347C129.521 284.479 129.281 284.659 129.082 284.886C128.882 285.108 128.719 285.362 128.592 285.65C128.47 285.932 128.379 286.225 128.318 286.53V288.53C128.406 288.918 128.55 289.291 128.75 289.651C128.954 290.005 129.225 290.296 129.563 290.522C129.906 290.749 130.329 290.863 130.833 290.863C131.248 290.863 131.602 290.78 131.896 290.614C132.194 290.442 132.435 290.207 132.618 289.908C132.806 289.609 132.944 289.264 133.033 288.871C133.121 288.478 133.166 288.057 133.166 287.609ZM140.246 290.904C140.611 290.904 140.949 290.83 141.259 290.68C141.569 290.531 141.823 290.326 142.022 290.066C142.222 289.8 142.335 289.499 142.363 289.161H143.824C143.796 289.692 143.616 290.188 143.284 290.647C142.958 291.101 142.529 291.469 141.998 291.751C141.466 292.028 140.882 292.166 140.246 292.166C139.571 292.166 138.982 292.047 138.478 291.809C137.98 291.571 137.565 291.245 137.233 290.83C136.906 290.415 136.66 289.939 136.494 289.402C136.334 288.86 136.253 288.287 136.253 287.684V287.335C136.253 286.732 136.334 286.162 136.494 285.625C136.66 285.083 136.906 284.604 137.233 284.189C137.565 283.774 137.98 283.447 138.478 283.209C138.982 282.972 139.571 282.853 140.246 282.853C140.949 282.853 141.563 282.996 142.089 283.284C142.615 283.566 143.027 283.954 143.326 284.446C143.63 284.933 143.796 285.487 143.824 286.106H142.363C142.335 285.736 142.23 285.401 142.047 285.102C141.87 284.803 141.627 284.565 141.317 284.388C141.013 284.206 140.656 284.114 140.246 284.114C139.776 284.114 139.38 284.208 139.059 284.396C138.744 284.579 138.492 284.828 138.304 285.144C138.121 285.453 137.988 285.799 137.905 286.181C137.828 286.557 137.789 286.942 137.789 287.335V287.684C137.789 288.076 137.828 288.464 137.905 288.846C137.983 289.228 138.113 289.573 138.295 289.883C138.484 290.193 138.735 290.442 139.051 290.63C139.372 290.813 139.77 290.904 140.246 290.904Z" fill="white"/>
<rect width="88" height="24" transform="translate(384 275)" fill="#FF0000"/>
<path d="M389.764 288.609V288.418C389.764 287.771 389.858 287.17 390.046 286.617C390.234 286.058 390.505 285.574 390.859 285.164C391.214 284.749 391.642 284.428 392.146 284.201C392.65 283.969 393.214 283.853 393.839 283.853C394.47 283.853 395.037 283.969 395.541 284.201C396.05 284.428 396.482 284.749 396.836 285.164C397.196 285.574 397.47 286.058 397.658 286.617C397.846 287.17 397.94 287.771 397.94 288.418V288.609C397.94 289.256 397.846 289.857 397.658 290.41C397.47 290.964 397.196 291.448 396.836 291.863C396.482 292.272 396.053 292.593 395.549 292.826C395.051 293.053 394.487 293.166 393.856 293.166C393.225 293.166 392.658 293.053 392.154 292.826C391.651 292.593 391.219 292.272 390.859 291.863C390.505 291.448 390.234 290.964 390.046 290.41C389.858 289.857 389.764 289.256 389.764 288.609ZM391.299 288.418V288.609C391.299 289.057 391.352 289.48 391.457 289.879C391.562 290.272 391.72 290.62 391.93 290.925C392.146 291.229 392.414 291.47 392.735 291.647C393.056 291.819 393.43 291.904 393.856 291.904C394.277 291.904 394.645 291.819 394.96 291.647C395.281 291.47 395.547 291.229 395.757 290.925C395.967 290.62 396.125 290.272 396.23 289.879C396.341 289.48 396.396 289.057 396.396 288.609V288.418C396.396 287.975 396.341 287.557 396.23 287.165C396.125 286.766 395.964 286.415 395.749 286.11C395.538 285.8 395.273 285.557 394.952 285.38C394.636 285.203 394.265 285.114 393.839 285.114C393.419 285.114 393.048 285.203 392.727 285.38C392.412 285.557 392.146 285.8 391.93 286.11C391.72 286.415 391.562 286.766 391.457 287.165C391.352 287.557 391.299 287.975 391.299 288.418ZM401.401 285.43V293H399.866V284.019H401.36L401.401 285.43ZM404.207 283.969L404.199 285.396C404.071 285.369 403.95 285.352 403.833 285.347C403.723 285.336 403.596 285.33 403.452 285.33C403.097 285.33 402.785 285.385 402.514 285.496C402.243 285.607 402.013 285.762 401.825 285.961C401.637 286.16 401.487 286.398 401.376 286.675C401.271 286.946 401.202 287.245 401.169 287.571L400.737 287.82C400.737 287.278 400.79 286.769 400.895 286.293C401.006 285.817 401.174 285.396 401.401 285.031C401.628 284.66 401.916 284.373 402.265 284.168C402.619 283.958 403.039 283.853 403.526 283.853C403.637 283.853 403.764 283.866 403.908 283.894C404.052 283.916 404.152 283.941 404.207 283.969ZM407.295 284.019V293H405.751V284.019H407.295ZM405.635 281.636C405.635 281.387 405.709 281.177 405.859 281.005C406.014 280.834 406.241 280.748 406.54 280.748C406.833 280.748 407.057 280.834 407.212 281.005C407.372 281.177 407.453 281.387 407.453 281.636C407.453 281.874 407.372 282.079 407.212 282.25C407.057 282.417 406.833 282.5 406.54 282.5C406.241 282.5 406.014 282.417 405.859 282.25C405.709 282.079 405.635 281.874 405.635 281.636ZM415.579 284.019H416.974V292.809C416.974 293.6 416.813 294.276 416.492 294.834C416.171 295.393 415.723 295.817 415.147 296.104C414.577 296.398 413.919 296.544 413.172 296.544C412.862 296.544 412.497 296.495 412.076 296.395C411.661 296.301 411.252 296.138 410.848 295.905C410.449 295.678 410.114 295.371 409.843 294.984L410.648 294.071C411.025 294.525 411.418 294.84 411.827 295.017C412.242 295.194 412.652 295.283 413.056 295.283C413.543 295.283 413.963 295.191 414.317 295.009C414.672 294.826 414.945 294.555 415.139 294.195C415.338 293.841 415.438 293.404 415.438 292.884V285.994L415.579 284.019ZM409.395 288.609V288.435C409.395 287.748 409.475 287.126 409.636 286.567C409.802 286.002 410.037 285.518 410.341 285.114C410.651 284.71 411.025 284.4 411.462 284.185C411.899 283.963 412.392 283.853 412.939 283.853C413.504 283.853 413.996 283.952 414.417 284.151C414.843 284.345 415.203 284.63 415.496 285.006C415.795 285.377 416.03 285.825 416.202 286.351C416.373 286.877 416.492 287.472 416.559 288.136V288.899C416.498 289.558 416.379 290.15 416.202 290.676C416.03 291.201 415.795 291.65 415.496 292.021C415.203 292.391 414.843 292.676 414.417 292.875C413.991 293.069 413.493 293.166 412.923 293.166C412.386 293.166 411.899 293.053 411.462 292.826C411.03 292.599 410.66 292.281 410.35 291.871C410.04 291.462 409.802 290.98 409.636 290.427C409.475 289.868 409.395 289.262 409.395 288.609ZM410.931 288.435V288.609C410.931 289.057 410.975 289.478 411.063 289.871C411.158 290.264 411.299 290.609 411.487 290.908C411.681 291.207 411.927 291.442 412.226 291.614C412.524 291.78 412.881 291.863 413.296 291.863C413.806 291.863 414.226 291.755 414.558 291.539C414.89 291.323 415.153 291.038 415.347 290.684C415.546 290.33 415.701 289.945 415.812 289.53V287.53C415.751 287.225 415.657 286.932 415.529 286.65C415.408 286.362 415.247 286.108 415.048 285.886C414.854 285.659 414.613 285.479 414.326 285.347C414.038 285.214 413.7 285.147 413.313 285.147C412.892 285.147 412.53 285.236 412.226 285.413C411.927 285.585 411.681 285.823 411.487 286.127C411.299 286.426 411.158 286.774 411.063 287.173C410.975 287.566 410.931 287.986 410.931 288.435ZM420.975 284.019V293H419.431V284.019H420.975ZM419.314 281.636C419.314 281.387 419.389 281.177 419.539 281.005C419.694 280.834 419.92 280.748 420.219 280.748C420.513 280.748 420.737 280.834 420.892 281.005C421.052 281.177 421.132 281.387 421.132 281.636C421.132 281.874 421.052 282.079 420.892 282.25C420.737 282.417 420.513 282.5 420.219 282.5C419.92 282.5 419.694 282.417 419.539 282.25C419.389 282.079 419.314 281.874 419.314 281.636ZM424.976 285.936V293H423.44V284.019H424.893L424.976 285.936ZM424.61 288.169L423.971 288.144C423.977 287.53 424.068 286.963 424.245 286.442C424.422 285.917 424.671 285.46 424.992 285.073C425.313 284.685 425.695 284.387 426.138 284.176C426.586 283.96 427.081 283.853 427.624 283.853C428.066 283.853 428.465 283.913 428.819 284.035C429.173 284.151 429.475 284.34 429.724 284.6C429.978 284.86 430.172 285.197 430.305 285.612C430.438 286.022 430.504 286.523 430.504 287.115V293H428.96V287.098C428.96 286.628 428.891 286.251 428.752 285.969C428.614 285.681 428.412 285.474 428.146 285.347C427.881 285.214 427.554 285.147 427.167 285.147C426.785 285.147 426.437 285.228 426.121 285.388C425.811 285.549 425.543 285.77 425.316 286.052C425.095 286.334 424.92 286.658 424.793 287.023C424.671 287.383 424.61 287.765 424.61 288.169ZM438.182 280.914L433.144 294.038H431.824L436.871 280.914H438.182ZM445.155 291.464V286.841C445.155 286.487 445.083 286.18 444.939 285.919C444.801 285.654 444.59 285.449 444.308 285.305C444.026 285.161 443.677 285.089 443.262 285.089C442.875 285.089 442.535 285.156 442.241 285.289C441.953 285.421 441.727 285.596 441.561 285.812C441.4 286.027 441.32 286.26 441.32 286.509H439.784C439.784 286.188 439.867 285.87 440.033 285.554C440.199 285.239 440.437 284.954 440.747 284.699C441.062 284.439 441.439 284.234 441.876 284.085C442.319 283.93 442.811 283.853 443.354 283.853C444.007 283.853 444.582 283.963 445.08 284.185C445.584 284.406 445.977 284.741 446.259 285.189C446.547 285.632 446.69 286.188 446.69 286.857V291.041C446.69 291.34 446.715 291.658 446.765 291.996C446.82 292.333 446.901 292.624 447.006 292.867V293H445.404C445.326 292.823 445.265 292.588 445.221 292.294C445.177 291.996 445.155 291.719 445.155 291.464ZM445.42 287.555L445.437 288.634H443.885C443.448 288.634 443.057 288.67 442.714 288.742C442.371 288.808 442.083 288.91 441.851 289.049C441.619 289.187 441.442 289.361 441.32 289.572C441.198 289.777 441.137 290.017 441.137 290.294C441.137 290.576 441.201 290.833 441.328 291.066C441.455 291.298 441.646 291.484 441.901 291.622C442.161 291.755 442.479 291.821 442.855 291.821C443.326 291.821 443.741 291.722 444.101 291.522C444.46 291.323 444.745 291.08 444.956 290.792C445.171 290.504 445.288 290.225 445.304 289.954L445.96 290.692C445.921 290.925 445.816 291.182 445.645 291.464C445.473 291.747 445.243 292.018 444.956 292.278C444.673 292.532 444.336 292.745 443.943 292.917C443.556 293.083 443.118 293.166 442.631 293.166C442.023 293.166 441.489 293.047 441.029 292.809C440.576 292.571 440.221 292.253 439.967 291.854C439.718 291.451 439.593 291 439.593 290.501C439.593 290.02 439.687 289.597 439.875 289.231C440.064 288.861 440.335 288.554 440.689 288.31C441.043 288.061 441.469 287.873 441.967 287.746C442.465 287.618 443.021 287.555 443.636 287.555H445.42ZM449.098 280.25H450.642V291.257L450.509 293H449.098V280.25ZM456.709 288.435V288.609C456.709 289.262 456.632 289.868 456.477 290.427C456.322 290.98 456.095 291.462 455.796 291.871C455.498 292.281 455.132 292.599 454.701 292.826C454.269 293.053 453.774 293.166 453.215 293.166C452.645 293.166 452.144 293.069 451.712 292.875C451.286 292.676 450.927 292.391 450.633 292.021C450.34 291.65 450.105 291.201 449.928 290.676C449.756 290.15 449.637 289.558 449.571 288.899V288.136C449.637 287.472 449.756 286.877 449.928 286.351C450.105 285.825 450.34 285.377 450.633 285.006C450.927 284.63 451.286 284.345 451.712 284.151C452.139 283.952 452.634 283.853 453.198 283.853C453.763 283.853 454.264 283.963 454.701 284.185C455.138 284.4 455.503 284.71 455.796 285.114C456.095 285.518 456.322 286.002 456.477 286.567C456.632 287.126 456.709 287.748 456.709 288.435ZM455.166 288.609V288.435C455.166 287.986 455.124 287.566 455.041 287.173C454.958 286.774 454.825 286.426 454.643 286.127C454.46 285.823 454.219 285.585 453.92 285.413C453.622 285.236 453.254 285.147 452.816 285.147C452.429 285.147 452.091 285.214 451.804 285.347C451.521 285.479 451.281 285.659 451.082 285.886C450.882 286.108 450.719 286.362 450.592 286.65C450.47 286.932 450.379 287.225 450.318 287.53V289.53C450.406 289.918 450.55 290.291 450.75 290.651C450.954 291.005 451.225 291.296 451.563 291.522C451.906 291.749 452.329 291.863 452.833 291.863C453.248 291.863 453.602 291.78 453.896 291.614C454.194 291.442 454.435 291.207 454.618 290.908C454.806 290.609 454.944 290.264 455.033 289.871C455.121 289.478 455.166 289.057 455.166 288.609ZM462.246 291.904C462.611 291.904 462.949 291.83 463.259 291.68C463.569 291.531 463.823 291.326 464.022 291.066C464.222 290.8 464.335 290.499 464.363 290.161H465.824C465.796 290.692 465.616 291.188 465.284 291.647C464.958 292.101 464.529 292.469 463.998 292.751C463.466 293.028 462.882 293.166 462.246 293.166C461.571 293.166 460.982 293.047 460.478 292.809C459.98 292.571 459.565 292.245 459.233 291.83C458.906 291.415 458.66 290.939 458.494 290.402C458.334 289.86 458.253 289.287 458.253 288.684V288.335C458.253 287.732 458.334 287.162 458.494 286.625C458.66 286.083 458.906 285.604 459.233 285.189C459.565 284.774 459.98 284.447 460.478 284.209C460.982 283.972 461.571 283.853 462.246 283.853C462.949 283.853 463.563 283.996 464.089 284.284C464.615 284.566 465.027 284.954 465.326 285.446C465.63 285.933 465.796 286.487 465.824 287.106H464.363C464.335 286.736 464.23 286.401 464.047 286.102C463.87 285.803 463.627 285.565 463.317 285.388C463.013 285.206 462.656 285.114 462.246 285.114C461.776 285.114 461.38 285.208 461.059 285.396C460.744 285.579 460.492 285.828 460.304 286.144C460.121 286.453 459.988 286.799 459.905 287.181C459.828 287.557 459.789 287.942 459.789 288.335V288.684C459.789 289.076 459.828 289.464 459.905 289.846C459.983 290.228 460.113 290.573 460.295 290.883C460.484 291.193 460.735 291.442 461.051 291.63C461.372 291.813 461.77 291.904 462.246 291.904Z" fill="white"/>
<rect width="88" height="24" transform="translate(797 141)" fill="#FF0000"/>
<path d="M802.764 154.609V154.418C802.764 153.771 802.858 153.17 803.046 152.617C803.234 152.058 803.505 151.574 803.859 151.164C804.214 150.749 804.642 150.428 805.146 150.201C805.65 149.969 806.214 149.853 806.839 149.853C807.47 149.853 808.037 149.969 808.541 150.201C809.05 150.428 809.482 150.749 809.836 151.164C810.196 151.574 810.47 152.058 810.658 152.617C810.846 153.17 810.94 153.771 810.94 154.418V154.609C810.94 155.256 810.846 155.857 810.658 156.41C810.47 156.964 810.196 157.448 809.836 157.863C809.482 158.272 809.053 158.593 808.549 158.826C808.051 159.053 807.487 159.166 806.856 159.166C806.225 159.166 805.658 159.053 805.154 158.826C804.651 158.593 804.219 158.272 803.859 157.863C803.505 157.448 803.234 156.964 803.046 156.41C802.858 155.857 802.764 155.256 802.764 154.609ZM804.299 154.418V154.609C804.299 155.057 804.352 155.48 804.457 155.879C804.562 156.272 804.72 156.62 804.93 156.925C805.146 157.229 805.414 157.47 805.735 157.647C806.056 157.819 806.43 157.904 806.856 157.904C807.277 157.904 807.645 157.819 807.96 157.647C808.281 157.47 808.547 157.229 808.757 156.925C808.967 156.62 809.125 156.272 809.23 155.879C809.341 155.48 809.396 155.057 809.396 154.609V154.418C809.396 153.975 809.341 153.557 809.23 153.165C809.125 152.766 808.964 152.415 808.749 152.11C808.538 151.8 808.273 151.557 807.952 151.38C807.636 151.203 807.265 151.114 806.839 151.114C806.419 151.114 806.048 151.203 805.727 151.38C805.412 151.557 805.146 151.8 804.93 152.11C804.72 152.415 804.562 152.766 804.457 153.165C804.352 153.557 804.299 153.975 804.299 154.418ZM814.401 151.43V159H812.866V150.019H814.36L814.401 151.43ZM817.207 149.969L817.199 151.396C817.071 151.369 816.95 151.352 816.833 151.347C816.723 151.336 816.596 151.33 816.452 151.33C816.097 151.33 815.785 151.385 815.514 151.496C815.243 151.607 815.013 151.762 814.825 151.961C814.637 152.16 814.487 152.398 814.376 152.675C814.271 152.946 814.202 153.245 814.169 153.571L813.737 153.82C813.737 153.278 813.79 152.769 813.895 152.293C814.006 151.817 814.174 151.396 814.401 151.031C814.628 150.66 814.916 150.373 815.265 150.168C815.619 149.958 816.039 149.853 816.526 149.853C816.637 149.853 816.764 149.866 816.908 149.894C817.052 149.916 817.152 149.941 817.207 149.969ZM820.295 150.019V159H818.751V150.019H820.295ZM818.635 147.636C818.635 147.387 818.709 147.177 818.859 147.005C819.014 146.834 819.241 146.748 819.54 146.748C819.833 146.748 820.057 146.834 820.212 147.005C820.372 147.177 820.453 147.387 820.453 147.636C820.453 147.874 820.372 148.079 820.212 148.25C820.057 148.417 819.833 148.5 819.54 148.5C819.241 148.5 819.014 148.417 818.859 148.25C818.709 148.079 818.635 147.874 818.635 147.636ZM828.579 150.019H829.974V158.809C829.974 159.6 829.813 160.276 829.492 160.834C829.171 161.393 828.723 161.817 828.147 162.104C827.577 162.398 826.919 162.544 826.172 162.544C825.862 162.544 825.497 162.495 825.076 162.395C824.661 162.301 824.252 162.138 823.848 161.905C823.449 161.678 823.114 161.371 822.843 160.984L823.648 160.071C824.025 160.525 824.418 160.84 824.827 161.017C825.242 161.194 825.652 161.283 826.056 161.283C826.543 161.283 826.963 161.191 827.317 161.009C827.672 160.826 827.945 160.555 828.139 160.195C828.338 159.841 828.438 159.404 828.438 158.884V151.994L828.579 150.019ZM822.395 154.609V154.435C822.395 153.748 822.475 153.126 822.636 152.567C822.802 152.002 823.037 151.518 823.341 151.114C823.651 150.71 824.025 150.4 824.462 150.185C824.899 149.963 825.392 149.853 825.939 149.853C826.504 149.853 826.996 149.952 827.417 150.151C827.843 150.345 828.203 150.63 828.496 151.006C828.795 151.377 829.03 151.825 829.202 152.351C829.373 152.877 829.492 153.472 829.559 154.136V154.899C829.498 155.558 829.379 156.15 829.202 156.676C829.03 157.201 828.795 157.65 828.496 158.021C828.203 158.391 827.843 158.676 827.417 158.875C826.991 159.069 826.493 159.166 825.923 159.166C825.386 159.166 824.899 159.053 824.462 158.826C824.03 158.599 823.66 158.281 823.35 157.871C823.04 157.462 822.802 156.98 822.636 156.427C822.475 155.868 822.395 155.262 822.395 154.609ZM823.931 154.435V154.609C823.931 155.057 823.975 155.478 824.063 155.871C824.158 156.264 824.299 156.609 824.487 156.908C824.681 157.207 824.927 157.442 825.226 157.614C825.524 157.78 825.881 157.863 826.296 157.863C826.806 157.863 827.226 157.755 827.558 157.539C827.89 157.323 828.153 157.038 828.347 156.684C828.546 156.33 828.701 155.945 828.812 155.53V153.53C828.751 153.225 828.657 152.932 828.529 152.65C828.408 152.362 828.247 152.108 828.048 151.886C827.854 151.659 827.613 151.479 827.326 151.347C827.038 151.214 826.7 151.147 826.313 151.147C825.892 151.147 825.53 151.236 825.226 151.413C824.927 151.585 824.681 151.823 824.487 152.127C824.299 152.426 824.158 152.774 824.063 153.173C823.975 153.566 823.931 153.986 823.931 154.435ZM833.975 150.019V159H832.431V150.019H833.975ZM832.314 147.636C832.314 147.387 832.389 147.177 832.539 147.005C832.694 146.834 832.92 146.748 833.219 146.748C833.513 146.748 833.737 146.834 833.892 147.005C834.052 147.177 834.132 147.387 834.132 147.636C834.132 147.874 834.052 148.079 833.892 148.25C833.737 148.417 833.513 148.5 833.219 148.5C832.92 148.5 832.694 148.417 832.539 148.25C832.389 148.079 832.314 147.874 832.314 147.636ZM837.976 151.936V159H836.44V150.019H837.893L837.976 151.936ZM837.61 154.169L836.971 154.144C836.977 153.53 837.068 152.963 837.245 152.442C837.422 151.917 837.671 151.46 837.992 151.073C838.313 150.685 838.695 150.387 839.138 150.176C839.586 149.96 840.081 149.853 840.624 149.853C841.066 149.853 841.465 149.913 841.819 150.035C842.173 150.151 842.475 150.34 842.724 150.6C842.978 150.86 843.172 151.197 843.305 151.612C843.438 152.022 843.504 152.523 843.504 153.115V159H841.96V153.098C841.96 152.628 841.891 152.251 841.752 151.969C841.614 151.681 841.412 151.474 841.146 151.347C840.881 151.214 840.554 151.147 840.167 151.147C839.785 151.147 839.437 151.228 839.121 151.388C838.811 151.549 838.543 151.77 838.316 152.052C838.095 152.334 837.92 152.658 837.793 153.023C837.671 153.383 837.61 153.765 837.61 154.169ZM851.182 146.914L846.144 160.038H844.824L849.871 146.914H851.182ZM858.155 157.464V152.841C858.155 152.487 858.083 152.18 857.939 151.919C857.801 151.654 857.59 151.449 857.308 151.305C857.026 151.161 856.677 151.089 856.262 151.089C855.875 151.089 855.535 151.156 855.241 151.289C854.953 151.421 854.727 151.596 854.561 151.812C854.4 152.027 854.32 152.26 854.32 152.509H852.784C852.784 152.188 852.867 151.87 853.033 151.554C853.199 151.239 853.437 150.954 853.747 150.699C854.062 150.439 854.439 150.234 854.876 150.085C855.319 149.93 855.811 149.853 856.354 149.853C857.007 149.853 857.582 149.963 858.08 150.185C858.584 150.406 858.977 150.741 859.259 151.189C859.547 151.632 859.69 152.188 859.69 152.857V157.041C859.69 157.34 859.715 157.658 859.765 157.996C859.82 158.333 859.901 158.624 860.006 158.867V159H858.404C858.326 158.823 858.265 158.588 858.221 158.294C858.177 157.996 858.155 157.719 858.155 157.464ZM858.42 153.555L858.437 154.634H856.885C856.448 154.634 856.057 154.67 855.714 154.742C855.371 154.808 855.083 154.91 854.851 155.049C854.619 155.187 854.442 155.361 854.32 155.572C854.198 155.777 854.137 156.017 854.137 156.294C854.137 156.576 854.201 156.833 854.328 157.066C854.455 157.298 854.646 157.484 854.901 157.622C855.161 157.755 855.479 157.821 855.855 157.821C856.326 157.821 856.741 157.722 857.101 157.522C857.46 157.323 857.745 157.08 857.956 156.792C858.171 156.504 858.288 156.225 858.304 155.954L858.96 156.692C858.921 156.925 858.816 157.182 858.645 157.464C858.473 157.747 858.243 158.018 857.956 158.278C857.673 158.532 857.336 158.745 856.943 158.917C856.556 159.083 856.118 159.166 855.631 159.166C855.023 159.166 854.489 159.047 854.029 158.809C853.576 158.571 853.221 158.253 852.967 157.854C852.718 157.451 852.593 157 852.593 156.501C852.593 156.02 852.687 155.597 852.875 155.231C853.064 154.861 853.335 154.554 853.689 154.31C854.043 154.061 854.469 153.873 854.967 153.746C855.465 153.618 856.021 153.555 856.636 153.555H858.42ZM862.098 146.25H863.642V157.257L863.509 159H862.098V146.25ZM869.709 154.435V154.609C869.709 155.262 869.632 155.868 869.477 156.427C869.322 156.98 869.095 157.462 868.796 157.871C868.498 158.281 868.132 158.599 867.701 158.826C867.269 159.053 866.774 159.166 866.215 159.166C865.645 159.166 865.144 159.069 864.712 158.875C864.286 158.676 863.927 158.391 863.633 158.021C863.34 157.65 863.105 157.201 862.928 156.676C862.756 156.15 862.637 155.558 862.571 154.899V154.136C862.637 153.472 862.756 152.877 862.928 152.351C863.105 151.825 863.34 151.377 863.633 151.006C863.927 150.63 864.286 150.345 864.712 150.151C865.139 149.952 865.634 149.853 866.198 149.853C866.763 149.853 867.264 149.963 867.701 150.185C868.138 150.4 868.503 150.71 868.796 151.114C869.095 151.518 869.322 152.002 869.477 152.567C869.632 153.126 869.709 153.748 869.709 154.435ZM868.166 154.609V154.435C868.166 153.986 868.124 153.566 868.041 153.173C867.958 152.774 867.825 152.426 867.643 152.127C867.46 151.823 867.219 151.585 866.92 151.413C866.622 151.236 866.254 151.147 865.816 151.147C865.429 151.147 865.091 151.214 864.804 151.347C864.521 151.479 864.281 151.659 864.082 151.886C863.882 152.108 863.719 152.362 863.592 152.65C863.47 152.932 863.379 153.225 863.318 153.53V155.53C863.406 155.918 863.55 156.291 863.75 156.651C863.954 157.005 864.225 157.296 864.563 157.522C864.906 157.749 865.329 157.863 865.833 157.863C866.248 157.863 866.602 157.78 866.896 157.614C867.194 157.442 867.435 157.207 867.618 156.908C867.806 156.609 867.944 156.264 868.033 155.871C868.121 155.478 868.166 155.057 868.166 154.609ZM875.246 157.904C875.611 157.904 875.949 157.83 876.259 157.68C876.569 157.531 876.823 157.326 877.022 157.066C877.222 156.8 877.335 156.499 877.363 156.161H878.824C878.796 156.692 878.616 157.188 878.284 157.647C877.958 158.101 877.529 158.469 876.998 158.751C876.466 159.028 875.882 159.166 875.246 159.166C874.571 159.166 873.982 159.047 873.478 158.809C872.98 158.571 872.565 158.245 872.233 157.83C871.906 157.415 871.66 156.939 871.494 156.402C871.334 155.86 871.253 155.287 871.253 154.684V154.335C871.253 153.732 871.334 153.162 871.494 152.625C871.66 152.083 871.906 151.604 872.233 151.189C872.565 150.774 872.98 150.447 873.478 150.209C873.982 149.972 874.571 149.853 875.246 149.853C875.949 149.853 876.563 149.996 877.089 150.284C877.615 150.566 878.027 150.954 878.326 151.446C878.63 151.933 878.796 152.487 878.824 153.106H877.363C877.335 152.736 877.23 152.401 877.047 152.102C876.87 151.803 876.627 151.565 876.317 151.388C876.013 151.206 875.656 151.114 875.246 151.114C874.776 151.114 874.38 151.208 874.059 151.396C873.744 151.579 873.492 151.828 873.304 152.144C873.121 152.453 872.988 152.799 872.905 153.181C872.828 153.557 872.789 153.942 872.789 154.335V154.684C872.789 155.076 872.828 155.464 872.905 155.846C872.983 156.228 873.113 156.573 873.295 156.883C873.484 157.193 873.735 157.442 874.051 157.63C874.372 157.813 874.77 157.904 875.246 157.904Z" fill="white"/>
</svg>
