<svg width="900" height="500" viewBox="0 0 900 500" fill="none" xmlns="http://www.w3.org/2000/svg">
<rect width="900" height="500" fill="white"/>
<path d="M53 311.355C137.5 311.355 157 291.855 157 238.355V176.855" stroke="black"/>
<path d="M378 312.355C462.5 312.355 482 292.855 482 239.355V177.855" stroke="black"/>
<path d="M52 175.855V457.855" stroke="black"/>
<path d="M377 176.855V458.855" stroke="black"/>
<path d="M732 65.8548V458.855" stroke="black"/>
<circle cx="52" cy="177.855" r="5" fill="#0500FF"/>
<circle cx="377" cy="178.855" r="5" fill="#0500FF"/>
<circle cx="732" cy="178.855" r="5" fill="#0500FF"/>
<circle cx="52" cy="239.855" r="5" fill="#0500FF"/>
<circle cx="377" cy="240.855" r="5" fill="#0500FF"/>
<circle cx="732" cy="240.855" r="5" fill="#0500FF"/>
<circle cx="157" cy="237.855" r="5" fill="#FFC700"/>
<circle cx="482" cy="238.855" r="5" fill="#FFC700"/>
<circle cx="732" cy="124.855" r="5" fill="#FFC700"/>
<circle cx="157" cy="178.855" r="5" fill="#FFC700"/>
<circle cx="482" cy="179.855" r="5" fill="#FFC700"/>
<circle cx="732" cy="65.8548" r="5" fill="#FFC700"/>
<circle cx="52" cy="310.855" r="5" fill="black"/>
<circle cx="377" cy="311.855" r="5" fill="black"/>
<circle cx="732" cy="311.855" r="5" fill="black"/>
<circle cx="52" cy="392.855" r="5" fill="black"/>
<circle cx="377" cy="393.855" r="5" fill="black"/>
<circle cx="732" cy="393.855" r="5" fill="black"/>
<path d="M464.45 51.3662C464 53.6717 463.744 55.7573 463.744 58.0778C463.744 59.7502 465.131 59.2817 465.863 60.1973C466.803 61.3719 471.508 63.2237 472.182 60.8645C473.022 57.9239 472.557 56.1714 472.221 53.4857C471.993 51.6607 467.748 48.3034 466.57 50.6598" stroke="#131212" stroke-width="3" stroke-linecap="round"/>
<path d="M463.037 106.472C460.097 110.515 460.323 116.024 466.57 115.656C467.884 115.579 468.418 106.499 463.43 107.924C459.6 109.018 464.962 117.186 468.297 113.851C469.693 112.454 469.396 110.817 469.396 108.945C469.396 107.424 465.792 107.178 464.45 107.178" stroke="#131212" stroke-width="3" stroke-linecap="round"/>
<path d="M465.863 55.6051C470.044 65.4426 474.559 52.7792 466.57 52.7792" stroke="#131212" stroke-width="3" stroke-linecap="round"/>
<path d="M487.058 65.4959C486.775 60.4077 487.764 54.5566 487.764 49.2468C486.405 48.5673 487.058 44.7797 487.058 43.2417C487.058 41.3507 491.596 42.1819 493.102 42.1819C498.118 42.1819 505.443 41.8864 509.979 43.9482C511.611 44.6899 521.954 43.3331 522.343 44.6939C523.051 47.1729 521.675 50.8155 521.675 53.4857V62.356C521.675 63.675 522.136 65.9344 521.636 67.1836C521.289 68.0502 519.783 66.9088 518.849 66.9088H512.491H499.068C497.679 66.9088 487.098 66.2245 487.058 65.4959Z" stroke="#131212" stroke-width="3" stroke-linecap="round"/>
<path d="M226.05 291.244C244.78 291.244 263.51 291.244 282.24 291.244C284.421 291.244 293.532 292.761 290.137 289.224C289.509 288.571 281.322 281.393 281.322 281.696C281.322 287.033 292.96 287.783 290.32 293.723C288.713 297.34 283.68 302.377 280.588 304.833C278.075 306.829 275.63 311.312 275.63 311.076" stroke="#131212" stroke-width="3" stroke-linecap="round"/>
<path d="M569 292.247C588.603 292.247 608.207 292.247 627.81 292.247C629.989 292.247 638.705 291.824 633.055 288.501C629.511 286.416 611.363 277.761 622.941 284.193C625.293 285.5 636.031 293.393 634.366 295.243C631.689 298.218 624.735 302.306 621.255 304.046" stroke="black" stroke-width="3" stroke-linecap="round"/>
<path d="M464.553 164.484C454.614 174.665 451.943 187.643 450.991 201.435C450.419 209.737 450.094 217.895 450.094 226.242C450.094 229.194 449.609 232.625 450.141 235.551C450.545 237.776 452.645 238.693 453.496 240.607C455.363 244.808 462.19 247.821 465.97 250.01C473.103 254.14 480.37 256.879 488.321 258.516C496.158 260.129 506.97 262.609 514.735 259.697C522.643 256.731 530.027 252.957 536.045 246.939C550.385 232.599 552.158 208.445 552.158 189.339C552.158 173.658 540.323 166.391 528.532 158.53C523.038 154.868 518.195 151.427 511.521 150.214C504.36 148.912 498.212 151.454 491.392 152.765C484.33 154.123 468.1 157.245 465.403 165.335" stroke="#131212" stroke-width="3" stroke-linecap="round"/>
<path d="M505.134 138.496C505.134 127.291 504.633 117.528 498.168 109.446C496.055 106.806 495.464 103.116 493.425 100.85C490.988 98.1422 490.774 94.169 490.461 99.8127C490.264 103.364 488.022 106.592 487.793 110.484C487.54 114.787 486.336 106.571 487.497 103.814C489.105 99.995 488.577 93.927 493.129 98.4787C495.771 101.121 501.511 102.48 505.134 102.48" stroke="#131212" stroke-width="3" stroke-linecap="round"/>
<rect width="38" height="24" transform="translate(65 165.855)" fill="#0500FF"/>
<path d="M76.6206 182.319V177.696C76.6206 177.342 76.5487 177.034 76.4048 176.774C76.2664 176.509 76.0562 176.304 75.7739 176.16C75.4917 176.016 75.1431 175.944 74.728 175.944C74.3407 175.944 74.0003 176.011 73.707 176.143C73.4193 176.276 73.1924 176.451 73.0264 176.666C72.8659 176.882 72.7856 177.115 72.7856 177.364H71.25C71.25 177.043 71.333 176.724 71.499 176.409C71.665 176.094 71.903 175.809 72.2129 175.554C72.5283 175.294 72.9046 175.089 73.3418 174.94C73.7845 174.785 74.277 174.707 74.8193 174.707C75.4723 174.707 76.0479 174.818 76.5459 175.039C77.0495 175.261 77.4424 175.596 77.7246 176.044C78.0124 176.487 78.1562 177.043 78.1562 177.712V181.896C78.1562 182.195 78.1812 182.513 78.231 182.85C78.2863 183.188 78.3665 183.479 78.4717 183.722V183.855H76.8696C76.7922 183.678 76.7313 183.443 76.687 183.149C76.6427 182.85 76.6206 182.574 76.6206 182.319ZM76.8862 178.41L76.9028 179.489H75.3506C74.9134 179.489 74.5233 179.525 74.1802 179.597C73.8371 179.663 73.5493 179.765 73.3169 179.904C73.0845 180.042 72.9074 180.216 72.7856 180.427C72.6639 180.631 72.603 180.872 72.603 181.149C72.603 181.431 72.6667 181.688 72.7939 181.921C72.9212 182.153 73.1121 182.339 73.3667 182.477C73.6268 182.61 73.945 182.676 74.3213 182.676C74.7917 182.676 75.2067 182.577 75.5664 182.377C75.9261 182.178 76.2111 181.935 76.4214 181.647C76.6372 181.359 76.7534 181.08 76.77 180.808L77.4258 181.547C77.387 181.78 77.2819 182.037 77.1104 182.319C76.9388 182.601 76.7091 182.873 76.4214 183.133C76.1392 183.387 75.8016 183.6 75.4087 183.772C75.0213 183.938 74.5841 184.021 74.0972 184.021C73.4884 184.021 72.9544 183.902 72.4951 183.664C72.0413 183.426 71.6872 183.108 71.4326 182.709C71.1836 182.305 71.0591 181.854 71.0591 181.356C71.0591 180.875 71.1532 180.452 71.3413 180.086C71.5295 179.716 71.8006 179.408 72.1548 179.165C72.509 178.916 72.9351 178.728 73.4331 178.6C73.9312 178.473 74.4873 178.41 75.1016 178.41H76.8862ZM80.5635 171.105H82.1074V182.112L81.9746 183.855H80.5635V171.105ZM88.1753 179.289V179.464C88.1753 180.117 88.0978 180.723 87.9429 181.282C87.7879 181.835 87.561 182.316 87.2622 182.726C86.9634 183.135 86.5981 183.454 86.1665 183.681C85.7349 183.907 85.2396 184.021 84.6807 184.021C84.1107 184.021 83.6099 183.924 83.1782 183.73C82.7521 183.531 82.3924 183.246 82.0991 182.875C81.8058 182.505 81.5706 182.056 81.3936 181.531C81.222 181.005 81.103 180.413 81.0366 179.754V178.991C81.103 178.327 81.222 177.732 81.3936 177.206C81.5706 176.68 81.8058 176.232 82.0991 175.861C82.3924 175.485 82.7521 175.2 83.1782 175.006C83.6043 174.807 84.0996 174.707 84.6641 174.707C85.2285 174.707 85.7293 174.818 86.1665 175.039C86.6037 175.255 86.9689 175.565 87.2622 175.969C87.561 176.373 87.7879 176.857 87.9429 177.422C88.0978 177.981 88.1753 178.603 88.1753 179.289ZM86.6313 179.464V179.289C86.6313 178.841 86.5898 178.421 86.5068 178.028C86.4238 177.629 86.291 177.281 86.1084 176.982C85.9258 176.677 85.6851 176.439 85.3862 176.268C85.0874 176.091 84.7194 176.002 84.2822 176.002C83.8949 176.002 83.5573 176.069 83.2695 176.202C82.9873 176.334 82.7466 176.514 82.5474 176.741C82.3481 176.962 82.1849 177.217 82.0576 177.505C81.9359 177.787 81.8446 178.08 81.7837 178.385V180.385C81.8722 180.773 82.0161 181.146 82.2153 181.506C82.4201 181.86 82.6912 182.15 83.0288 182.377C83.3719 182.604 83.7952 182.718 84.2988 182.718C84.7139 182.718 85.068 182.635 85.3613 182.469C85.6602 182.297 85.9009 182.062 86.0835 181.763C86.2716 181.464 86.41 181.118 86.4985 180.725C86.5871 180.333 86.6313 179.912 86.6313 179.464ZM93.7119 182.759C94.0771 182.759 94.4147 182.684 94.7246 182.535C95.0345 182.386 95.2891 182.181 95.4883 181.921C95.6875 181.655 95.8009 181.354 95.8286 181.016H97.2896C97.2619 181.547 97.082 182.043 96.75 182.502C96.4235 182.956 95.9946 183.324 95.4634 183.606C94.9321 183.883 94.3483 184.021 93.7119 184.021C93.0368 184.021 92.4474 183.902 91.9438 183.664C91.4458 183.426 91.0308 183.099 90.6987 182.684C90.3722 182.269 90.126 181.793 89.96 181.257C89.7995 180.714 89.7192 180.142 89.7192 179.538V179.19C89.7192 178.587 89.7995 178.017 89.96 177.48C90.126 176.938 90.3722 176.459 90.6987 176.044C91.0308 175.629 91.4458 175.302 91.9438 175.064C92.4474 174.826 93.0368 174.707 93.7119 174.707C94.4147 174.707 95.029 174.851 95.5547 175.139C96.0804 175.421 96.4927 175.809 96.7915 176.301C97.0959 176.788 97.2619 177.342 97.2896 177.961H95.8286C95.8009 177.591 95.6958 177.256 95.5132 176.957C95.3361 176.658 95.0926 176.42 94.7827 176.243C94.4784 176.06 94.1214 175.969 93.7119 175.969C93.2415 175.969 92.8459 176.063 92.5249 176.251C92.2095 176.434 91.9577 176.683 91.7695 176.998C91.5869 177.308 91.4541 177.654 91.3711 178.036C91.2936 178.412 91.2549 178.797 91.2549 179.19V179.538C91.2549 179.931 91.2936 180.319 91.3711 180.701C91.4486 181.082 91.5786 181.428 91.7612 181.738C91.9494 182.048 92.2012 182.297 92.5166 182.485C92.8376 182.668 93.236 182.759 93.7119 182.759Z" fill="white"/>
<rect width="38" height="24" transform="translate(390 166.855)" fill="#0500FF"/>
<path d="M401.621 183.319V178.696C401.621 178.342 401.549 178.034 401.405 177.774C401.266 177.509 401.056 177.304 400.774 177.16C400.492 177.016 400.143 176.944 399.728 176.944C399.341 176.944 399 177.011 398.707 177.143C398.419 177.276 398.192 177.451 398.026 177.666C397.866 177.882 397.786 178.115 397.786 178.364H396.25C396.25 178.043 396.333 177.724 396.499 177.409C396.665 177.094 396.903 176.809 397.213 176.554C397.528 176.294 397.905 176.089 398.342 175.94C398.785 175.785 399.277 175.707 399.819 175.707C400.472 175.707 401.048 175.818 401.546 176.039C402.049 176.261 402.442 176.596 402.725 177.044C403.012 177.487 403.156 178.043 403.156 178.712V182.896C403.156 183.195 403.181 183.513 403.231 183.85C403.286 184.188 403.367 184.479 403.472 184.722V184.855H401.87C401.792 184.678 401.731 184.443 401.687 184.149C401.643 183.85 401.621 183.574 401.621 183.319ZM401.886 179.41L401.903 180.489H400.351C399.913 180.489 399.523 180.525 399.18 180.597C398.837 180.663 398.549 180.765 398.317 180.904C398.084 181.042 397.907 181.216 397.786 181.427C397.664 181.631 397.603 181.872 397.603 182.149C397.603 182.431 397.667 182.688 397.794 182.921C397.921 183.153 398.112 183.339 398.367 183.477C398.627 183.61 398.945 183.676 399.321 183.676C399.792 183.676 400.207 183.577 400.566 183.377C400.926 183.178 401.211 182.935 401.421 182.647C401.637 182.359 401.753 182.08 401.77 181.808L402.426 182.547C402.387 182.78 402.282 183.037 402.11 183.319C401.939 183.601 401.709 183.873 401.421 184.133C401.139 184.387 400.802 184.6 400.409 184.772C400.021 184.938 399.584 185.021 399.097 185.021C398.488 185.021 397.954 184.902 397.495 184.664C397.041 184.426 396.687 184.108 396.433 183.709C396.184 183.305 396.059 182.854 396.059 182.356C396.059 181.875 396.153 181.452 396.341 181.086C396.529 180.716 396.801 180.408 397.155 180.165C397.509 179.916 397.935 179.728 398.433 179.6C398.931 179.473 399.487 179.41 400.102 179.41H401.886ZM405.563 172.105H407.107V183.112L406.975 184.855H405.563V172.105ZM413.175 180.289V180.464C413.175 181.117 413.098 181.723 412.943 182.282C412.788 182.835 412.561 183.316 412.262 183.726C411.963 184.135 411.598 184.454 411.167 184.681C410.735 184.907 410.24 185.021 409.681 185.021C409.111 185.021 408.61 184.924 408.178 184.73C407.752 184.531 407.392 184.246 407.099 183.875C406.806 183.505 406.571 183.056 406.394 182.531C406.222 182.005 406.103 181.413 406.037 180.754V179.991C406.103 179.327 406.222 178.732 406.394 178.206C406.571 177.68 406.806 177.232 407.099 176.861C407.392 176.485 407.752 176.2 408.178 176.006C408.604 175.807 409.1 175.707 409.664 175.707C410.229 175.707 410.729 175.818 411.167 176.039C411.604 176.255 411.969 176.565 412.262 176.969C412.561 177.373 412.788 177.857 412.943 178.422C413.098 178.981 413.175 179.603 413.175 180.289ZM411.631 180.464V180.289C411.631 179.841 411.59 179.421 411.507 179.028C411.424 178.629 411.291 178.281 411.108 177.982C410.926 177.677 410.685 177.439 410.386 177.268C410.087 177.091 409.719 177.002 409.282 177.002C408.895 177.002 408.557 177.069 408.27 177.202C407.987 177.334 407.747 177.514 407.547 177.741C407.348 177.962 407.185 178.217 407.058 178.505C406.936 178.787 406.845 179.08 406.784 179.385V181.385C406.872 181.773 407.016 182.146 407.215 182.506C407.42 182.86 407.691 183.15 408.029 183.377C408.372 183.604 408.795 183.718 409.299 183.718C409.714 183.718 410.068 183.635 410.361 183.469C410.66 183.297 410.901 183.062 411.083 182.763C411.272 182.464 411.41 182.118 411.499 181.725C411.587 181.333 411.631 180.912 411.631 180.464ZM418.712 183.759C419.077 183.759 419.415 183.684 419.725 183.535C420.035 183.386 420.289 183.181 420.488 182.921C420.688 182.655 420.801 182.354 420.829 182.016H422.29C422.262 182.547 422.082 183.043 421.75 183.502C421.424 183.956 420.995 184.324 420.463 184.606C419.932 184.883 419.348 185.021 418.712 185.021C418.037 185.021 417.447 184.902 416.944 184.664C416.446 184.426 416.031 184.099 415.699 183.684C415.372 183.269 415.126 182.793 414.96 182.257C414.799 181.714 414.719 181.142 414.719 180.538V180.19C414.719 179.587 414.799 179.017 414.96 178.48C415.126 177.938 415.372 177.459 415.699 177.044C416.031 176.629 416.446 176.302 416.944 176.064C417.447 175.826 418.037 175.707 418.712 175.707C419.415 175.707 420.029 175.851 420.555 176.139C421.08 176.421 421.493 176.809 421.792 177.301C422.096 177.788 422.262 178.342 422.29 178.961H420.829C420.801 178.591 420.696 178.256 420.513 177.957C420.336 177.658 420.093 177.42 419.783 177.243C419.478 177.06 419.121 176.969 418.712 176.969C418.242 176.969 417.846 177.063 417.525 177.251C417.209 177.434 416.958 177.683 416.77 177.998C416.587 178.308 416.454 178.654 416.371 179.036C416.294 179.412 416.255 179.797 416.255 180.19V180.538C416.255 180.931 416.294 181.319 416.371 181.701C416.449 182.082 416.579 182.428 416.761 182.738C416.949 183.048 417.201 183.297 417.517 183.485C417.838 183.668 418.236 183.759 418.712 183.759Z" fill="white"/>
<rect width="38" height="24" transform="translate(745 167.855)" fill="#0500FF"/>
<path d="M756.621 184.319V179.696C756.621 179.342 756.549 179.034 756.405 178.774C756.266 178.509 756.056 178.304 755.774 178.16C755.492 178.016 755.143 177.944 754.728 177.944C754.341 177.944 754 178.011 753.707 178.143C753.419 178.276 753.192 178.451 753.026 178.666C752.866 178.882 752.786 179.115 752.786 179.364H751.25C751.25 179.043 751.333 178.724 751.499 178.409C751.665 178.094 751.903 177.809 752.213 177.554C752.528 177.294 752.905 177.089 753.342 176.94C753.785 176.785 754.277 176.707 754.819 176.707C755.472 176.707 756.048 176.818 756.546 177.039C757.049 177.261 757.442 177.596 757.725 178.044C758.012 178.487 758.156 179.043 758.156 179.712V183.896C758.156 184.195 758.181 184.513 758.231 184.85C758.286 185.188 758.367 185.479 758.472 185.722V185.855H756.87C756.792 185.678 756.731 185.443 756.687 185.149C756.643 184.85 756.621 184.574 756.621 184.319ZM756.886 180.41L756.903 181.489H755.351C754.913 181.489 754.523 181.525 754.18 181.597C753.837 181.663 753.549 181.765 753.317 181.904C753.084 182.042 752.907 182.216 752.786 182.427C752.664 182.631 752.603 182.872 752.603 183.149C752.603 183.431 752.667 183.688 752.794 183.921C752.921 184.153 753.112 184.339 753.367 184.477C753.627 184.61 753.945 184.676 754.321 184.676C754.792 184.676 755.207 184.577 755.566 184.377C755.926 184.178 756.211 183.935 756.421 183.647C756.637 183.359 756.753 183.08 756.77 182.808L757.426 183.547C757.387 183.78 757.282 184.037 757.11 184.319C756.939 184.601 756.709 184.873 756.421 185.133C756.139 185.387 755.802 185.6 755.409 185.772C755.021 185.938 754.584 186.021 754.097 186.021C753.488 186.021 752.954 185.902 752.495 185.664C752.041 185.426 751.687 185.108 751.433 184.709C751.184 184.305 751.059 183.854 751.059 183.356C751.059 182.875 751.153 182.452 751.341 182.086C751.529 181.716 751.801 181.408 752.155 181.165C752.509 180.916 752.935 180.728 753.433 180.6C753.931 180.473 754.487 180.41 755.102 180.41H756.886ZM760.563 173.105H762.107V184.112L761.975 185.855H760.563V173.105ZM768.175 181.289V181.464C768.175 182.117 768.098 182.723 767.943 183.282C767.788 183.835 767.561 184.316 767.262 184.726C766.963 185.135 766.598 185.454 766.167 185.681C765.735 185.907 765.24 186.021 764.681 186.021C764.111 186.021 763.61 185.924 763.178 185.73C762.752 185.531 762.392 185.246 762.099 184.875C761.806 184.505 761.571 184.056 761.394 183.531C761.222 183.005 761.103 182.413 761.037 181.754V180.991C761.103 180.327 761.222 179.732 761.394 179.206C761.571 178.68 761.806 178.232 762.099 177.861C762.392 177.485 762.752 177.2 763.178 177.006C763.604 176.807 764.1 176.707 764.664 176.707C765.229 176.707 765.729 176.818 766.167 177.039C766.604 177.255 766.969 177.565 767.262 177.969C767.561 178.373 767.788 178.857 767.943 179.422C768.098 179.981 768.175 180.603 768.175 181.289ZM766.631 181.464V181.289C766.631 180.841 766.59 180.421 766.507 180.028C766.424 179.629 766.291 179.281 766.108 178.982C765.926 178.677 765.685 178.439 765.386 178.268C765.087 178.091 764.719 178.002 764.282 178.002C763.895 178.002 763.557 178.069 763.27 178.202C762.987 178.334 762.747 178.514 762.547 178.741C762.348 178.962 762.185 179.217 762.058 179.505C761.936 179.787 761.845 180.08 761.784 180.385V182.385C761.872 182.773 762.016 183.146 762.215 183.506C762.42 183.86 762.691 184.15 763.029 184.377C763.372 184.604 763.795 184.718 764.299 184.718C764.714 184.718 765.068 184.635 765.361 184.469C765.66 184.297 765.901 184.062 766.083 183.763C766.272 183.464 766.41 183.118 766.499 182.725C766.587 182.333 766.631 181.912 766.631 181.464ZM773.712 184.759C774.077 184.759 774.415 184.684 774.725 184.535C775.035 184.386 775.289 184.181 775.488 183.921C775.688 183.655 775.801 183.354 775.829 183.016H777.29C777.262 183.547 777.082 184.043 776.75 184.502C776.424 184.956 775.995 185.324 775.463 185.606C774.932 185.883 774.348 186.021 773.712 186.021C773.037 186.021 772.447 185.902 771.944 185.664C771.446 185.426 771.031 185.099 770.699 184.684C770.372 184.269 770.126 183.793 769.96 183.257C769.799 182.714 769.719 182.142 769.719 181.538V181.19C769.719 180.587 769.799 180.017 769.96 179.48C770.126 178.938 770.372 178.459 770.699 178.044C771.031 177.629 771.446 177.302 771.944 177.064C772.447 176.826 773.037 176.707 773.712 176.707C774.415 176.707 775.029 176.851 775.555 177.139C776.08 177.421 776.493 177.809 776.792 178.301C777.096 178.788 777.262 179.342 777.29 179.961H775.829C775.801 179.591 775.696 179.256 775.513 178.957C775.336 178.658 775.093 178.42 774.783 178.243C774.478 178.06 774.121 177.969 773.712 177.969C773.242 177.969 772.846 178.063 772.525 178.251C772.209 178.434 771.958 178.683 771.77 178.998C771.587 179.308 771.454 179.654 771.371 180.036C771.294 180.412 771.255 180.797 771.255 181.19V181.538C771.255 181.931 771.294 182.319 771.371 182.701C771.449 183.082 771.579 183.428 771.761 183.738C771.949 184.048 772.201 184.297 772.517 184.485C772.838 184.668 773.236 184.759 773.712 184.759Z" fill="white"/>
<rect width="35" height="24" transform="translate(170 165.855)" fill="#FFC700"/>
<path d="M180.262 184.021C179.636 184.021 179.069 183.916 178.56 183.705C178.056 183.49 177.622 183.188 177.257 182.801C176.897 182.413 176.62 181.954 176.427 181.423C176.233 180.891 176.136 180.31 176.136 179.68V179.331C176.136 178.6 176.244 177.95 176.46 177.38C176.676 176.805 176.969 176.318 177.34 175.919C177.711 175.521 178.131 175.219 178.602 175.015C179.072 174.81 179.559 174.707 180.062 174.707C180.704 174.707 181.258 174.818 181.723 175.039C182.193 175.261 182.578 175.571 182.876 175.969C183.175 176.362 183.397 176.827 183.541 177.364C183.684 177.895 183.756 178.476 183.756 179.107V179.796H177.049V178.542H182.221V178.426C182.199 178.028 182.116 177.64 181.972 177.264C181.833 176.888 181.612 176.578 181.308 176.334C181.003 176.091 180.588 175.969 180.062 175.969C179.714 175.969 179.393 176.044 179.1 176.193C178.806 176.337 178.555 176.553 178.344 176.841C178.134 177.128 177.971 177.48 177.854 177.895C177.738 178.31 177.68 178.789 177.68 179.331V179.68C177.68 180.106 177.738 180.507 177.854 180.883C177.976 181.254 178.151 181.58 178.377 181.863C178.61 182.145 178.889 182.366 179.216 182.527C179.548 182.687 179.924 182.767 180.345 182.767C180.887 182.767 181.346 182.657 181.723 182.435C182.099 182.214 182.428 181.918 182.71 181.547L183.64 182.286C183.446 182.579 183.2 182.859 182.901 183.124C182.603 183.39 182.235 183.606 181.797 183.772C181.366 183.938 180.854 184.021 180.262 184.021ZM187.84 183.855H186.305V173.927C186.305 173.28 186.421 172.735 186.653 172.292C186.891 171.844 187.232 171.506 187.674 171.279C188.117 171.047 188.643 170.931 189.251 170.931C189.429 170.931 189.606 170.942 189.783 170.964C189.965 170.986 190.142 171.019 190.314 171.063L190.231 172.317C190.115 172.289 189.982 172.27 189.833 172.259C189.689 172.248 189.545 172.242 189.401 172.242C189.074 172.242 188.792 172.308 188.554 172.441C188.322 172.569 188.145 172.757 188.023 173.006C187.901 173.255 187.84 173.562 187.84 173.927V183.855ZM189.75 174.873V176.052H184.885V174.873H189.75ZM197.079 174.873H198.474V183.664C198.474 184.455 198.313 185.13 197.992 185.689C197.671 186.248 197.223 186.672 196.647 186.959C196.077 187.253 195.419 187.399 194.672 187.399C194.362 187.399 193.997 187.349 193.576 187.25C193.161 187.156 192.752 186.993 192.348 186.76C191.949 186.533 191.614 186.226 191.343 185.839L192.148 184.926C192.525 185.379 192.918 185.695 193.327 185.872C193.742 186.049 194.152 186.138 194.556 186.138C195.043 186.138 195.463 186.046 195.817 185.864C196.172 185.681 196.445 185.41 196.639 185.05C196.838 184.696 196.938 184.259 196.938 183.739V176.849L197.079 174.873ZM190.895 179.464V179.289C190.895 178.603 190.975 177.981 191.136 177.422C191.302 176.857 191.537 176.373 191.841 175.969C192.151 175.565 192.525 175.255 192.962 175.039C193.399 174.818 193.892 174.707 194.439 174.707C195.004 174.707 195.496 174.807 195.917 175.006C196.343 175.2 196.703 175.485 196.996 175.861C197.295 176.232 197.53 176.68 197.702 177.206C197.873 177.732 197.992 178.327 198.059 178.991V179.754C197.998 180.413 197.879 181.005 197.702 181.531C197.53 182.056 197.295 182.505 196.996 182.875C196.703 183.246 196.343 183.531 195.917 183.73C195.491 183.924 194.993 184.021 194.423 184.021C193.886 184.021 193.399 183.907 192.962 183.681C192.53 183.454 192.16 183.135 191.85 182.726C191.54 182.316 191.302 181.835 191.136 181.282C190.975 180.723 190.895 180.117 190.895 179.464ZM192.431 179.289V179.464C192.431 179.912 192.475 180.333 192.563 180.725C192.658 181.118 192.799 181.464 192.987 181.763C193.181 182.062 193.427 182.297 193.726 182.469C194.024 182.635 194.381 182.718 194.796 182.718C195.306 182.718 195.726 182.61 196.058 182.394C196.39 182.178 196.653 181.893 196.847 181.539C197.046 181.185 197.201 180.8 197.312 180.385V178.385C197.251 178.08 197.157 177.787 197.029 177.505C196.908 177.217 196.747 176.962 196.548 176.741C196.354 176.514 196.113 176.334 195.826 176.202C195.538 176.069 195.2 176.002 194.813 176.002C194.392 176.002 194.03 176.091 193.726 176.268C193.427 176.439 193.181 176.677 192.987 176.982C192.799 177.281 192.658 177.629 192.563 178.028C192.475 178.421 192.431 178.841 192.431 179.289Z" fill="white"/>
<rect width="35" height="24" transform="translate(495 166.855)" fill="#FFC700"/>
<path d="M505.262 185.021C504.636 185.021 504.069 184.916 503.56 184.705C503.056 184.49 502.622 184.188 502.257 183.801C501.897 183.413 501.62 182.954 501.427 182.423C501.233 181.891 501.136 181.31 501.136 180.68V180.331C501.136 179.6 501.244 178.95 501.46 178.38C501.676 177.805 501.969 177.318 502.34 176.919C502.711 176.521 503.131 176.219 503.602 176.015C504.072 175.81 504.559 175.707 505.062 175.707C505.704 175.707 506.258 175.818 506.723 176.039C507.193 176.261 507.578 176.571 507.876 176.969C508.175 177.362 508.397 177.827 508.541 178.364C508.684 178.895 508.756 179.476 508.756 180.107V180.796H502.049V179.542H507.221V179.426C507.199 179.028 507.116 178.64 506.972 178.264C506.833 177.888 506.612 177.578 506.308 177.334C506.003 177.091 505.588 176.969 505.062 176.969C504.714 176.969 504.393 177.044 504.1 177.193C503.806 177.337 503.555 177.553 503.344 177.841C503.134 178.128 502.971 178.48 502.854 178.895C502.738 179.31 502.68 179.789 502.68 180.331V180.68C502.68 181.106 502.738 181.507 502.854 181.883C502.976 182.254 503.151 182.58 503.377 182.863C503.61 183.145 503.889 183.366 504.216 183.527C504.548 183.687 504.924 183.767 505.345 183.767C505.887 183.767 506.346 183.657 506.723 183.435C507.099 183.214 507.428 182.918 507.71 182.547L508.64 183.286C508.446 183.579 508.2 183.859 507.901 184.124C507.603 184.39 507.235 184.606 506.797 184.772C506.366 184.938 505.854 185.021 505.262 185.021ZM512.84 184.855H511.305V174.927C511.305 174.28 511.421 173.735 511.653 173.292C511.891 172.844 512.232 172.506 512.674 172.279C513.117 172.047 513.643 171.931 514.251 171.931C514.429 171.931 514.606 171.942 514.783 171.964C514.965 171.986 515.142 172.019 515.314 172.063L515.231 173.317C515.115 173.289 514.982 173.27 514.833 173.259C514.689 173.248 514.545 173.242 514.401 173.242C514.074 173.242 513.792 173.308 513.554 173.441C513.322 173.569 513.145 173.757 513.023 174.006C512.901 174.255 512.84 174.562 512.84 174.927V184.855ZM514.75 175.873V177.052H509.885V175.873H514.75ZM522.079 175.873H523.474V184.664C523.474 185.455 523.313 186.13 522.992 186.689C522.671 187.248 522.223 187.672 521.647 187.959C521.077 188.253 520.419 188.399 519.672 188.399C519.362 188.399 518.997 188.349 518.576 188.25C518.161 188.156 517.752 187.993 517.348 187.76C516.949 187.533 516.614 187.226 516.343 186.839L517.148 185.926C517.525 186.379 517.918 186.695 518.327 186.872C518.742 187.049 519.152 187.138 519.556 187.138C520.043 187.138 520.463 187.046 520.817 186.864C521.172 186.681 521.445 186.41 521.639 186.05C521.838 185.696 521.938 185.259 521.938 184.739V177.849L522.079 175.873ZM515.895 180.464V180.289C515.895 179.603 515.975 178.981 516.136 178.422C516.302 177.857 516.537 177.373 516.841 176.969C517.151 176.565 517.525 176.255 517.962 176.039C518.399 175.818 518.892 175.707 519.439 175.707C520.004 175.707 520.496 175.807 520.917 176.006C521.343 176.2 521.703 176.485 521.996 176.861C522.295 177.232 522.53 177.68 522.702 178.206C522.873 178.732 522.992 179.327 523.059 179.991V180.754C522.998 181.413 522.879 182.005 522.702 182.531C522.53 183.056 522.295 183.505 521.996 183.875C521.703 184.246 521.343 184.531 520.917 184.73C520.491 184.924 519.993 185.021 519.423 185.021C518.886 185.021 518.399 184.907 517.962 184.681C517.53 184.454 517.16 184.135 516.85 183.726C516.54 183.316 516.302 182.835 516.136 182.282C515.975 181.723 515.895 181.117 515.895 180.464ZM517.431 180.289V180.464C517.431 180.912 517.475 181.333 517.563 181.725C517.658 182.118 517.799 182.464 517.987 182.763C518.181 183.062 518.427 183.297 518.726 183.469C519.024 183.635 519.381 183.718 519.796 183.718C520.306 183.718 520.726 183.61 521.058 183.394C521.39 183.178 521.653 182.893 521.847 182.539C522.046 182.185 522.201 181.8 522.312 181.385V179.385C522.251 179.08 522.157 178.787 522.029 178.505C521.908 178.217 521.747 177.962 521.548 177.741C521.354 177.514 521.113 177.334 520.826 177.202C520.538 177.069 520.2 177.002 519.813 177.002C519.392 177.002 519.03 177.091 518.726 177.268C518.427 177.439 518.181 177.677 517.987 177.982C517.799 178.281 517.658 178.629 517.563 179.028C517.475 179.421 517.431 179.841 517.431 180.289Z" fill="white"/>
<rect width="35" height="24" transform="translate(743 51.8548)" fill="#FFC700"/>
<path d="M753.262 70.0208C752.636 70.0208 752.069 69.9157 751.56 69.7054C751.056 69.4896 750.622 69.188 750.257 68.8006C749.897 68.4133 749.62 67.9539 749.427 67.4227C749.233 66.8914 749.136 66.3104 749.136 65.6795V65.3309C749.136 64.6004 749.244 63.9502 749.46 63.3802C749.676 62.8047 749.969 62.3177 750.34 61.9193C750.711 61.5208 751.131 61.2192 751.602 61.0145C752.072 60.8097 752.559 60.7074 753.062 60.7074C753.704 60.7074 754.258 60.818 754.723 61.0394C755.193 61.2608 755.578 61.5706 755.876 61.9691C756.175 62.362 756.397 62.8268 756.541 63.3636C756.684 63.8949 756.756 64.4759 756.756 65.1068V65.7957H750.049V64.5423H755.221V64.4261C755.199 64.0277 755.116 63.6403 754.972 63.264C754.833 62.8877 754.612 62.5778 754.308 62.3343C754.003 62.0908 753.588 61.9691 753.062 61.9691C752.714 61.9691 752.393 62.0438 752.1 62.1932C751.806 62.3371 751.555 62.5529 751.344 62.8407C751.134 63.1284 750.971 63.4798 750.854 63.8949C750.738 64.3099 750.68 64.7886 750.68 65.3309V65.6795C750.68 66.1056 750.738 66.5068 750.854 66.8831C750.976 67.2539 751.151 67.5804 751.377 67.8626C751.61 68.1449 751.889 68.3662 752.216 68.5267C752.548 68.6872 752.924 68.7674 753.345 68.7674C753.887 68.7674 754.346 68.6567 754.723 68.4354C755.099 68.214 755.428 67.918 755.71 67.5472L756.64 68.286C756.446 68.5793 756.2 68.8587 755.901 69.1244C755.603 69.39 755.235 69.6058 754.797 69.7718C754.366 69.9378 753.854 70.0208 753.262 70.0208ZM760.84 69.8548H759.305V59.9271C759.305 59.2796 759.421 58.7345 759.653 58.2918C759.891 57.8436 760.232 57.506 760.674 57.2791C761.117 57.0467 761.643 56.9305 762.251 56.9305C762.429 56.9305 762.606 56.9416 762.783 56.9637C762.965 56.9859 763.142 57.0191 763.314 57.0633L763.231 58.3167C763.115 58.2891 762.982 58.2697 762.833 58.2586C762.689 58.2476 762.545 58.242 762.401 58.242C762.074 58.242 761.792 58.3084 761.554 58.4413C761.322 58.5685 761.145 58.7567 761.023 59.0057C760.901 59.2547 760.84 59.5619 760.84 59.9271V69.8548ZM762.75 60.8734V62.0521H757.885V60.8734H762.75ZM770.079 60.8734H771.474V69.6639C771.474 70.4553 771.313 71.1304 770.992 71.6893C770.671 72.2482 770.223 72.6716 769.647 72.9593C769.077 73.2526 768.419 73.3993 767.672 73.3993C767.362 73.3993 766.997 73.3495 766.576 73.2498C766.161 73.1558 765.752 72.9925 765.348 72.7601C764.949 72.5332 764.614 72.2261 764.343 71.8387L765.148 70.9256C765.525 71.3794 765.918 71.6948 766.327 71.8719C766.742 72.049 767.152 72.1375 767.556 72.1375C768.043 72.1375 768.463 72.0462 768.817 71.8636C769.172 71.681 769.445 71.4098 769.639 71.0501C769.838 70.696 769.938 70.2588 769.938 69.7386V62.849L770.079 60.8734ZM763.895 65.4637V65.2894C763.895 64.6032 763.975 63.9806 764.136 63.4217C764.302 62.8573 764.537 62.3731 764.841 61.9691C765.151 61.5651 765.525 61.2552 765.962 61.0394C766.399 60.818 766.892 60.7074 767.439 60.7074C768.004 60.7074 768.496 60.807 768.917 61.0062C769.343 61.1999 769.703 61.4849 769.996 61.8612C770.295 62.2319 770.53 62.6802 770.702 63.2059C770.873 63.7316 770.992 64.3265 771.059 64.9906V65.7542C770.998 66.4128 770.879 67.0049 770.702 67.5306C770.53 68.0563 770.295 68.5046 769.996 68.8753C769.703 69.2461 769.343 69.5311 768.917 69.7303C768.491 69.924 767.993 70.0208 767.423 70.0208C766.886 70.0208 766.399 69.9074 765.962 69.6805C765.53 69.4536 765.16 69.1354 764.85 68.7259C764.54 68.3164 764.302 67.835 764.136 67.2816C763.975 66.7227 763.895 66.1167 763.895 65.4637ZM765.431 65.2894V65.4637C765.431 65.912 765.475 66.3325 765.563 66.7254C765.658 67.1183 765.799 67.4642 765.987 67.763C766.181 68.0619 766.427 68.297 766.726 68.4686C767.024 68.6346 767.381 68.7176 767.796 68.7176C768.306 68.7176 768.726 68.6097 769.058 68.3939C769.39 68.1781 769.653 67.8931 769.847 67.5389C770.046 67.1847 770.201 66.8001 770.312 66.3851V64.3846C770.251 64.0803 770.157 63.787 770.029 63.5047C769.908 63.217 769.747 62.9624 769.548 62.7411C769.354 62.5142 769.113 62.3343 768.826 62.2015C768.538 62.0687 768.2 62.0023 767.813 62.0023C767.392 62.0023 767.03 62.0908 766.726 62.2679C766.427 62.4395 766.181 62.6774 765.987 62.9818C765.799 63.2806 765.658 63.6292 765.563 64.0277C765.475 64.4206 765.431 64.8412 765.431 65.2894Z" fill="white"/>
<path d="M383.205 179.946C390.771 179.946 396.624 177.854 403.536 175.55C406.184 174.667 408.354 172.827 410.758 171.625C412.942 170.533 416.491 169.99 418.372 168.485C422.689 165.031 429.311 163.905 433.208 160.008C437.228 155.987 441.083 152.026 444.512 147.291C447.857 142.671 450.986 137.917 454.402 133.318C456.445 130.569 458.399 127.801 460.565 125.154C461.924 123.493 461.968 121.17 463.037 119.346C464.848 116.256 465.028 110.631 465.157 107.021C465.331 102.153 467.276 97.3042 467.276 92.3422C467.276 80.2484 468.689 68.3723 468.689 56.3116" stroke="#131212" stroke-width="3" stroke-linecap="round"/>
</svg>
